<?xml version="1.0" standalone="no"?>
<!DOCTYPE svg PUBLIC "-//W3C//DTD SVG 1.1//EN" "http://www.w3.org/Graphics/SVG/1.1/DTD/svg11.dtd" >
<svg xmlns="http://www.w3.org/2000/svg" xmlns:xlink="http://www.w3.org/1999/xlink" version="1.1">
<metadata>
Created by FontForge 20170910 at Fri Mar  4 10:58:32 2016
 By Jimmy Wärting
Copyright (c) 2015 by www.fontiran.com (Moslem Ebrahimi). All rights reserved.
</metadata>
<defs>
<font id="IRANSansWebFaNum-Bold" horiz-adv-x="0" >
  <font-face 
    font-family="IRANSansWeb(FaNum)"
    font-weight="700"
    font-stretch="normal"
    units-per-em="2300"
    panose-1="2 4 5 3 5 2 1 2 2 3"
    ascent="1840"
    descent="-460"
    x-height="1189"
    cap-height="1641"
    bbox="-1259 -1327 5090 2391"
    underline-thickness="120"
    underline-position="-760"
    unicode-range="U+0020-FEFC"
  />
<missing-glyph horiz-adv-x="1229" 
d="M102 -362v1806h1024v-1806h-1024zM217 -248h795v1577h-795v-1577z" />
    <glyph glyph-name="uniFEFB" unicode="&#xfedf;&#xfe8e;" horiz-adv-x="1247" arabic-form="isolated" 
d="M1222 599q1 -12 1.5 -25.5t0.5 -25.5q0 -69 -15.5 -137.5t-42 -130.5t-62 -115.5t-75.5 -93.5q-58 -53 -129 -91.5t-150 -64.5t-162.5 -38.5t-165.5 -12.5q-48 0 -104 5t-120 14l54 314q78 -10 129.5 -15t86.5 -5q18 0 47.5 2.5t50.5 4.5q-10 83 -38.5 170t-68 173
t-87 168t-95.5 155t-93.5 134.5t-81 106t-57.5 70.5t-23 27l231 237q84 -109 154.5 -219.5t129 -217t104.5 -206.5t81 -188t59 -162t39 -128q26 16 50.5 41.5t43.5 59t30.5 74t11.5 85.5q0 12 -1.5 26t-3.5 30v-1l-158 897l302 73q0 -2 7 -45.5t18 -117t25 -170.5t28 -206.5
t27 -225t22 -225.5z" />
    <glyph glyph-name="uniFEFC" unicode="&#xfee0;&#xfe8e;" horiz-adv-x="1461" arabic-form="final" 
d="M1355 284q27 -15 56.5 -20.5t58.5 -7.5q32 0 61 -12.5t50.5 -33.5t34.5 -50t13 -62t-13 -62t-34.5 -50.5t-50.5 -33.5t-61 -12h-9q-26 0 -66.5 3t-87.5 16.5t-96 40t-92 74.5q-58 -55 -128.5 -94t-149.5 -64.5t-163 -37.5t-169 -12q-48 0 -101.5 5.5t-119.5 19.5l89 298
q46 -6 87.5 -9.5t76.5 -3.5q32 0 64 3t63 11q-30 108 -72 212.5t-91 201.5t-101 185t-102.5 163t-96 136.5t-80.5 105.5l225 233l274 -441q48 -87 91.5 -177t81 -177.5t67 -169.5t49.5 -152q39 32 68.5 72t30.5 82q-11 155 -27 302.5t-33.5 282.5t-35.5 255l-33 220l310 58
q0 -2 3.5 -34.5t10 -89t14.5 -133t17.5 -165t19 -185t18 -194t16 -192t12.5 -178.5q3 -45 18.5 -80.5t32.5 -46.5z" />
    <glyph glyph-name="uniFEF7" unicode="&#xfedf;&#xfe84;" horiz-adv-x="1247" arabic-form="isolated" 
d="M1222 599q1 -12 1.5 -25.5t0.5 -25.5q0 -69 -15.5 -137.5t-42 -130.5t-62 -115.5t-75.5 -93.5q-58 -53 -129 -91.5t-150 -64.5t-162.5 -38.5t-165.5 -12.5q-48 0 -104 5t-120 14l54 314q78 -10 129.5 -15t86.5 -5q18 0 47.5 2.5t50.5 4.5q-10 83 -38.5 170t-68 173
t-87 168t-95.5 155t-93.5 134.5t-81 106t-57.5 70.5t-23 27l231 237q84 -109 154.5 -219.5t129 -217t104.5 -206.5t81 -188t59 -162t39 -128q26 16 50.5 41.5t43.5 59t30.5 74t11.5 85.5q0 12 -1.5 26t-3.5 30v-1l-158 897l302 73q0 -2 7 -45.5t18 -117t25 -170.5t28 -206.5
t27 -225t22 -225.5zM254 1811l-16 2t-16 3q-14 2 -31.5 3.5t-33.5 1.5q-26 0 -53 -9.5t-48 -25.5t-31 -38.5t-1 -47.5v1q7 -16 23.5 -30t39 -23t49 -10.5t52.5 7.5q26 8 57.5 25t57.5 34q16 10 31 20t30 21l62 -146q-18 -11 -35 -22t-40.5 -25.5t-57 -34t-83.5 -48t-120 -67
t-166 -90.5l-51 145l129 76q-29 21 -51.5 49t-36.5 60q-16 35 -16 86q0 35 11.5 68.5t31.5 62.5t47.5 52.5t60.5 37.5q26 11 53.5 16t56.5 5q24 0 49 -3.5t45 -7.5q12 -2 23.5 -4.5t22.5 -5.5z" />
    <glyph glyph-name="uniFEF8" unicode="&#xfee0;&#xfe84;" horiz-adv-x="1470" arabic-form="final" 
d="M1355 284q27 -15 56.5 -20.5t58.5 -7.5q32 0 61 -12.5t50.5 -33.5t34.5 -50t13 -62t-13 -62t-34.5 -50.5t-50.5 -33.5t-61 -12h-9q-26 0 -66.5 3t-87.5 16.5t-96 40t-92 74.5q-58 -55 -128.5 -94t-149.5 -64.5t-163 -37.5t-169 -12q-48 0 -101.5 5.5t-119.5 19.5l89 298
q46 -6 87.5 -9.5t76.5 -3.5q32 0 64 3t63 11q-30 108 -72 212.5t-91 201.5t-101 185t-102.5 163t-96 136.5t-80.5 105.5l225 233l274 -441q48 -87 91.5 -177t81 -177.5t67 -169.5t49.5 -152q39 32 68.5 72t30.5 82q-11 155 -27 302.5t-33.5 282.5t-35.5 255l-33 220l310 58
q0 -2 3.5 -34.5t10 -89t14.5 -133t17.5 -165t19 -185t18 -194t16 -192t12.5 -178.5q3 -45 18.5 -80.5t32.5 -46.5zM378 1805l-16 2t-16 3q-14 2 -31.5 3.5t-33.5 1.5q-26 0 -53 -9.5t-48 -25.5t-31 -38.5t-1 -47.5v1q7 -16 23.5 -30t39 -23t49 -10.5t52.5 7.5q26 8 57.5 25
t57.5 34q16 10 31 20t30 21l62 -146q-18 -11 -35 -22t-40.5 -25.5t-57 -34t-83.5 -48t-120 -67t-166 -90.5l-51 145l129 76q-29 21 -51.5 49t-36.5 60q-16 35 -16 86q0 35 11.5 68.5t31.5 62.5t47.5 52.5t60.5 37.5q26 11 53.5 16t56.5 5q24 0 49 -3.5t45 -7.5
q12 -2 23.5 -4.5t22.5 -5.5z" />
    <glyph glyph-name="uniFEF9" unicode="&#xfedf;&#xfe88;" horiz-adv-x="1247" arabic-form="isolated" 
d="M1222 599q1 -12 1.5 -25.5t0.5 -25.5q0 -69 -15.5 -137.5t-42 -130.5t-62 -115.5t-75.5 -93.5q-58 -53 -129 -91.5t-150 -64.5t-162.5 -38.5t-165.5 -12.5q-48 0 -104 5t-120 14l54 314q78 -10 129.5 -15t86.5 -5q18 0 47.5 2.5t50.5 4.5q-10 83 -38.5 170t-68 173
t-87 168t-95.5 155t-93.5 134.5t-81 106t-57.5 70.5t-23 27l231 237q84 -109 154.5 -219.5t129 -217t104.5 -206.5t81 -188t59 -162t39 -128q26 16 50.5 41.5t43.5 59t30.5 74t11.5 85.5q0 12 -1.5 26t-3.5 30v-1l-158 897l302 73q0 -2 7 -45.5t18 -117t25 -170.5t28 -206.5
t27 -225t22 -225.5zM635 -385l-16 2t-16 3q-14 2 -31.5 3.5t-33.5 1.5q-26 0 -53 -9.5t-48 -25.5t-31 -38.5t-1 -47.5v1q7 -16 23.5 -30t39 -23t49 -10.5t52.5 7.5q26 8 57.5 25t57.5 34q16 10 31 20t30 21l62 -146q-18 -11 -35 -22t-40.5 -25.5t-57 -34t-83.5 -48t-120 -67
t-166 -90.5l-51 145l129 76q-29 21 -51.5 49t-36.5 60q-16 35 -16 86q0 35 11.5 68.5t31.5 62.5t47.5 52.5t60.5 37.5q26 11 53.5 16t56.5 5q24 0 49 -3.5t45 -7.5q12 -2 23.5 -4.5t22.5 -5.5z" />
    <glyph glyph-name="uniFEFA" unicode="&#xfee0;&#xfe88;" horiz-adv-x="1470" arabic-form="final" 
d="M1355 284q27 -15 56.5 -20.5t58.5 -7.5q32 0 61 -12.5t50.5 -33.5t34.5 -50t13 -62t-13 -62t-34.5 -50.5t-50.5 -33.5t-61 -12h-9q-26 0 -66.5 3t-87.5 16.5t-96 40t-92 74.5q-58 -55 -128.5 -94t-149.5 -64.5t-163 -37.5t-169 -12q-48 0 -101.5 5.5t-119.5 19.5l89 298
q46 -6 87.5 -9.5t76.5 -3.5q32 0 64 3t63 11q-30 108 -72 212.5t-91 201.5t-101 185t-102.5 163t-96 136.5t-80.5 105.5l225 233l274 -441q48 -87 91.5 -177t81 -177.5t67 -169.5t49.5 -152q39 32 68.5 72t30.5 82q-11 155 -27 302.5t-33.5 282.5t-35.5 255l-33 220l310 58
q0 -2 3.5 -34.5t10 -89t14.5 -133t17.5 -165t19 -185t18 -194t16 -192t12.5 -178.5q3 -45 18.5 -80.5t32.5 -46.5zM740 -350l-16 2t-16 3q-14 2 -31.5 3.5t-33.5 1.5q-26 0 -53 -9.5t-48 -25.5t-31 -38.5t-1 -47.5v1q7 -16 23.5 -30t39 -23t49 -10.5t52.5 7.5q26 8 57.5 25
t57.5 34q16 10 31 20t30 21l62 -146q-18 -11 -35 -22t-40.5 -25.5t-57 -34t-83.5 -48t-120 -67t-166 -90.5l-51 145l129 76q-29 21 -51.5 49t-36.5 60q-16 35 -16 86q0 35 11.5 68.5t31.5 62.5t47.5 52.5t60.5 37.5q26 11 53.5 16t56.5 5q24 0 49 -3.5t45 -7.5
q12 -2 23.5 -4.5t22.5 -5.5z" />
    <glyph glyph-name="uniFEF5" unicode="&#xfedf;&#xfe82;" horiz-adv-x="1350" arabic-form="isolated" 
d="M1324 599q1 -12 1.5 -25.5t0.5 -25.5q0 -69 -15.5 -137.5t-42 -130.5t-62 -115.5t-75.5 -93.5q-58 -53 -129 -91.5t-150 -64.5t-162.5 -38.5t-165.5 -12.5q-48 0 -104 5t-120 14l54 314q78 -10 129.5 -15t86.5 -5q18 0 47.5 2.5t50.5 4.5q-10 83 -38.5 170t-68 173
t-87 168t-95.5 155t-93.5 134.5t-81 106t-57.5 70.5t-23 27l231 237q84 -109 154.5 -219.5t129 -217t104.5 -206.5t81 -188t59 -162t39 -128q26 16 50.5 41.5t43.5 59t30.5 74t11.5 85.5q0 12 -1.5 26t-3.5 30v-1l-158 897l302 73q0 -2 7 -45.5t18 -117t25 -170.5t28 -206.5
t27 -225t22 -225.5zM-45 1462q0 6 6.5 22.5t15 35.5t16.5 35.5t11 21.5q36 55 84.5 90t96.5 46q10 2 25 2.5t24 0.5q48 0 87 -11.5t70 -25.5l31 -15q17 -8 34 -14.5t36 -7.5q16 -1 33 8t33.5 24.5t32 34.5t29.5 38l156 -101q-1 -3 -11 -18.5t-28.5 -37.5t-44 -46.5
t-57.5 -45t-69.5 -33.5t-79.5 -12q-31 -2 -63 12.5t-65.5 31t-68.5 28t-73 3.5q-23 -5 -37.5 -17.5t-24.5 -29t-17 -35.5t-15 -37z" />
    <glyph glyph-name="uniFEF6" unicode="&#xfee0;&#xfe82;" horiz-adv-x="1470" arabic-form="final" 
d="M1355 284q27 -15 56.5 -20.5t58.5 -7.5q32 0 61 -12.5t50.5 -33.5t34.5 -50t13 -62t-13 -62t-34.5 -50.5t-50.5 -33.5t-61 -12h-9q-26 0 -66.5 3t-87.5 16.5t-96 40t-92 74.5q-58 -55 -128.5 -94t-149.5 -64.5t-163 -37.5t-169 -12q-48 0 -101.5 5.5t-119.5 19.5l89 298
q46 -6 87.5 -9.5t76.5 -3.5q32 0 64 3t63 11q-30 108 -72 212.5t-91 201.5t-101 185t-102.5 163t-96 136.5t-80.5 105.5l225 233l274 -441q48 -87 91.5 -177t81 -177.5t67 -169.5t49.5 -152q39 32 68.5 72t30.5 82q-11 155 -27 302.5t-33.5 282.5t-35.5 255l-33 220l310 58
q0 -2 3.5 -34.5t10 -89t14.5 -133t17.5 -165t19 -185t18 -194t16 -192t12.5 -178.5q3 -45 18.5 -80.5t32.5 -46.5zM-58 1440q0 6 6.5 22.5t15 35.5t16.5 35.5t11 21.5q36 55 84.5 90t96.5 46q10 2 25 2.5t24 0.5q48 0 87 -11.5t70 -25.5l31 -15q17 -8 34 -14.5t36 -7.5
q16 -1 33 8t33.5 24.5t32 34.5t29.5 38l156 -101q-1 -3 -11 -18.5t-28.5 -37.5t-44 -46.5t-57.5 -45t-69.5 -33.5t-79.5 -12q-31 -2 -63 12.5t-65.5 31t-68.5 28t-73 3.5q-23 -5 -37.5 -17.5t-24.5 -29t-17 -35.5t-15 -37z" />
    <glyph glyph-name="uni06440671.isol" unicode="&#xfedf;&#xfb51;" horiz-adv-x="1247" 
d="M1222 599q1 -12 1.5 -25.5t0.5 -25.5q0 -69 -15.5 -137.5t-42 -130.5t-62 -115.5t-75.5 -93.5q-58 -53 -129 -91.5t-150 -64.5t-162.5 -38.5t-165.5 -12.5q-48 0 -104 5t-120 14l54 314q78 -10 129.5 -15t86.5 -5q18 0 47.5 2.5t50.5 4.5q-10 83 -38.5 170t-68 173
t-87 168t-95.5 155t-93.5 134.5t-81 106t-57.5 70.5t-23 27l231 237q84 -109 154.5 -219.5t129 -217t104.5 -206.5t81 -188t59 -162t39 -128q26 16 50.5 41.5t43.5 59t30.5 74t11.5 85.5q0 12 -1.5 26t-3.5 30v-1l-158 897l302 73q0 -2 7 -45.5t18 -117t25 -170.5t28 -206.5
t27 -225t22 -225.5zM101 1599q33 20 61 33q25 12 52 20.5t44 4.5q12 -1 24 -5t22 -9q5 -3 11 -6t11 -7q14 23 34.5 52t46.5 55q37 35 86.5 58.5t106.5 23.5q36 0 68.5 -14t57.5 -40t35 -57.5t6.5 -63.5t-19.5 -63t-44 -56q-47 -33 -110.5 -52.5t-128.5 -20.5t-124 20t-97 70
q-17 -2 -37 -10.5t-37 -18.5q-10 -5 -19.5 -11.5t-19.5 -13.5zM671 1676q-17 19 -40 23t-48 -2t-50.5 -19.5t-48 -30t-40 -33.5t-26.5 -29h26q22 0 53.5 2t63.5 6.5t59 11.5t41 18l-1 -1q17 14 19 37l-4 10t-4 7z" />
    <glyph glyph-name="uni06440671.fina" unicode="&#xfee0;&#xfb51;" horiz-adv-x="1470" 
d="M1355 284q27 -15 56.5 -20.5t58.5 -7.5q32 0 61 -12.5t50.5 -33.5t34.5 -50t13 -62t-13 -62t-34.5 -50.5t-50.5 -33.5t-61 -12h-9q-26 0 -66.5 3t-87.5 16.5t-96 40t-92 74.5q-58 -55 -128.5 -94t-149.5 -64.5t-163 -37.5t-169 -12q-48 0 -101.5 5.5t-119.5 19.5l89 298
q46 -6 87.5 -9.5t76.5 -3.5q32 0 64 3t63 11q-30 108 -72 212.5t-91 201.5t-101 185t-102.5 163t-96 136.5t-80.5 105.5l225 233l274 -441q48 -87 91.5 -177t81 -177.5t67 -169.5t49.5 -152q39 32 68.5 72t30.5 82q-11 155 -27 302.5t-33.5 282.5t-35.5 255l-33 220l310 58
q0 -2 3.5 -34.5t10 -89t14.5 -133t17.5 -165t19 -185t18 -194t16 -192t12.5 -178.5q3 -45 18.5 -80.5t32.5 -46.5zM201 1566q33 20 61 33q25 12 52 20.5t44 4.5q12 -1 24 -5t22 -9q5 -3 11 -6t11 -7q14 23 34.5 52t46.5 55q37 35 86.5 58.5t106.5 23.5q36 0 68.5 -14
t57.5 -40t35 -57.5t6.5 -63.5t-19.5 -63t-44 -56q-47 -33 -110.5 -52.5t-128.5 -20.5t-124 20t-97 70q-17 -2 -37 -10.5t-37 -18.5q-10 -5 -19.5 -11.5t-19.5 -13.5zM771 1643q-17 19 -40 23t-48 -2t-50.5 -19.5t-48 -30t-40 -33.5t-26.5 -29h26q22 0 53.5 2t63.5 6.5
t59 11.5t41 18l-1 -1q17 14 19 37l-4 10t-4 7z" />
    <glyph glyph-name="uniFDF2" unicode="&#xfedf;&#xfee0;&#x651;&#xfeea;" horiz-adv-x="2204" arabic-form="isolated" 
d="M1150 -71l-49 3q-20 2 -38.5 3t-26.5 2h2q-5 1 -24 5t-42 10t-45 13.5t-33 14.5q-78 38 -130 114q-35 -3 -70 -4.5t-66 -1.5h-29t-29 1h1q-141 5 -241 47t-158 114q-34 48 -48.5 99.5t-12.5 96.5q2 36 10 68.5t19 55.5q45 83 104 144t123.5 105.5t129 76t120.5 55.5
l-6 71v18.5t-0.5 20t-0.5 18v12.5l313 48q16 -342 35 -540.5t37 -261.5q6 -35 32 -52.5t56 -25t55 -8t30 -0.5q45 4 68 46v38q0 43 -3.5 124t-9.5 194t-14.5 255t-18.5 307l318 33l40 -555q6 -82 11 -150t8 -116.5t5 -76t2 -28.5q0 -11 3.5 -29t17.5 -35q8 -9 26 -11
q42 -1 74 2t38 11q14 17 17.5 38t3.5 42q0 3 -36 429l-43 511l312 71q38 -504 57 -771.5t18 -306.5q-1 -48 -21.5 -102.5t-57.5 -111.5q-42 -58 -118.5 -88.5t-185.5 -29.5q-8 -2 -19.5 -2h-19.5q-20 0 -41 2t-42 9q-14 2 -26 5t-23 8h1q-25 11 -46.5 21.5t-41.5 23.5l-7 -5
q-66 -42 -135 -58t-127 -16h-2zM1250 1368q-68 0 -113 53q-44 58 -39 171v-1q0 19 4 39.5t8.5 38t9 29.5t5.5 14l116 -27l-9 -38q-4 -16 -7 -33.5t-4 -30.5q-2 -30 9.5 -49.5t19.5 -23.5q7 -3 15.5 3.5t17 18.5t15.5 26t11 25q5 17 8 37.5t4 39.5q1 11 1 22.5v22.5l118 -2
l8 -47q4 -20 9 -41.5t10 -38.5q3 -10 8 -21t11 -20.5t12.5 -15.5t12.5 -6h7q15 0 22 18.5t7 44.5q0 19 -9 44.5t-21 50.5t-24.5 47t-19.5 34l110 69q1 -3 15 -27t30 -59.5t29 -77.5t13 -80q0 -58 -13 -98t-41 -68q-15 -15 -31 -23t-30 -12t-26 -4.5t-18 -0.5q-36 0 -67 16.5
t-56 45.5q-1 1 -1 2l-1 1h1l-3 2q-32 -42 -67.5 -56t-66.5 -14zM1299 1819q25 93 25 163q0 66 -26 164l127 40q11 -45 18.5 -93.5t7.5 -96.5q0 -45 -5.5 -98t-19.5 -119zM661 407q-6 42 -11.5 93.5t-10.5 117.5q-1 -1 -2 -1q-37 -15 -82 -34.5t-83.5 -41.5t-63 -44.5
t-20.5 -43.5l1 -9q-1 -2 10.5 -10t49.5 -16l-1 1q12 -2 30.5 -4t38.5 -3.5t39 -3t33 -2.5z" />
    <glyph glyph-name="uniFDFC" unicode="&#x631;&#xfef3;&#xfe8e;&#x644;" horiz-adv-x="2976" arabic-form="isolated" 
d="M3105 752q38 -108 66 -211q12 -45 24 -93.5t21.5 -97t15.5 -95t6 -86.5q0 -94 -25.5 -183.5t-72 -173.5t-110.5 -161.5t-142 -145.5t-167 -126.5t-184 -105.5l-182 253q72 36 145.5 81.5t141 97.5t126 109t102 116t68.5 119.5t25 118.5q0 42 -11.5 91t-31 105.5
t-46.5 120t-58 135.5zM2340 -365l-192 -193l-190 190l-188 -188l-194 193l192 193l190 -190l188 188zM2001 -60q-123 0 -211 30.5t-152 93.5q-40 40 -61.5 84t-31 86.5t-11 80.5t-1.5 65q1 48 2.5 119.5t1.5 165.5t-1 200.5t-5.5 197t-13 173.5t-23.5 160l308 93
q12 -66 19 -139.5t11 -159.5t6 -164.5t3 -163.5q0 -25 0.5 -54t0.5 -58.5t0.5 -56.5t0.5 -48q0 -52 -0.5 -95t-1.5 -85q0 -15 -0.5 -39.5t-0.5 -39.5q-1 -33 0.5 -61t12.5 -38q13 -14 50.5 -21.5t88.5 -8.5h9q32 0 61 -13t50.5 -34.5t34.5 -50.5t13 -61q0 -33 -13 -62
t-34.5 -50.5t-50.5 -33.5t-61 -12zM1745 98q0 33 12.5 62t33.5 50.5t50 33.5t62 12h103h45q37 0 77.5 3t76 12t63 25t39.5 43q8 18 8 54q0 24 -14 72t-37 106.5t-52 122.5t-59 121l286 142q28 -63 55.5 -134t49.5 -144t35.5 -145.5t13.5 -138.5q0 -101 -36 -185
q-42 -94 -115 -155.5t-175 -90.5q-60 -17 -115 -20.5t-103 -3.5h-137h-9q-33 0 -62 12t-50 33.5t-33.5 50.5t-12.5 62zM327 294q-14 -26 -26 -54t-23 -57q-18 -51 -32.5 -114t-10.5 -129q3 -56 22.5 -102.5t49.5 -83.5t67 -64.5t76 -46.5t76 -29.5t67 -12.5q8 -1 14 -1h12
q43 0 92 9.5t98 29.5t94 50.5t80 74t55.5 99.5t20.5 126q0 79 -4.5 186.5t-11 229t-15.5 250.5t-18 252q-11 145 -22.5 294.5t-25.5 307.5l319 74q7 -169 13.5 -328t11.5 -312q5 -130 9.5 -266t8.5 -263.5t6 -238t2 -189.5q0 -132 -32 -235.5t-86 -181.5t-125.5 -132
t-150 -88t-159.5 -49.5t-154 -15.5h-21t-20 1h1q-66 5 -138 23.5t-142 52t-132.5 83.5t-109.5 118.5t-74 157t-25 198.5q2 121 19.5 212.5t38.5 154.5q26 76 55 129z" />
    <glyph glyph-name="tooman" unicode="&#xfe97;&#xfeee;&#xfee3;&#xfe8e;&#x646;" horiz-adv-x="5195" 
d="M2163 -61q-123 0 -211 30.5t-152 93.5q-40 40 -61.5 84t-31 86.5t-11 80.5t-1.5 65v15q1 37 2.5 106.5t1.5 163.5t-1 207t-5.5 225.5t-13 216.5t-23.5 181l299 91q13 -66 21 -155.5t13.5 -187.5t8 -197t3.5 -184q1 -75 -5.5 -146.5t-10.5 -140t0.5 -133t27.5 -125.5
q9 -23 22.5 -35t31.5 -17.5t39.5 -6.5t47.5 -1h9q32 0 61 -13t50.5 -34.5t34.5 -50.5t13 -61q0 -33 -13 -62t-34.5 -50.5t-50.5 -33.5t-61 -12zM3320 -457q141 28 255.5 70.5t201 95t142.5 111.5t80 120q-43 0 -87 1.5t-75 3.5q-116 10 -212 51.5t-153 112.5
q-42 54 -59.5 117t-17.5 133q0 54 10 108.5t28 106t42.5 97.5t52.5 84q60 75 131.5 113.5t150.5 38.5q169 0 305 -148q42 -47 76 -104t60 -121.5t42.5 -134.5t22.5 -143h19q33 0 62 -12t50.5 -33.5t34.5 -50.5t13 -63q0 -32 -13 -60.5t-34.5 -50t-50.5 -34t-62 -12.5h-44
q-39 -147 -124.5 -266t-204 -208t-264 -147t-304.5 -83zM3810 590q-22 0 -48.5 -19.5t-49.5 -49.5t-38.5 -67t-15.5 -72q0 -34 19 -56t48.5 -35.5t64.5 -20t68 -9.5q18 -2 39.5 -2.5t44.5 -0.5t45.5 -0.5t41.5 -1.5q-7 49 -22 92t-33.5 80t-40 66.5t-41.5 51.5
q-7 7 -17.5 15t-21.5 14.5t-22.5 10.5t-20.5 4zM2015 97q0 33 12 61t33 49t49.5 33.5t61.5 14.5q67 0 116.5 26t87.5 68t68 94t57 104v-1q26 54 55.5 107t64.5 98q54 63 121 97.5t143 34.5q90 0 163.5 -37t133.5 -106q45 -54 73 -123.5t37 -147.5v2q6 -39 6 -89
q0 -54 -9.5 -105.5t-26.5 -97.5q-33 -84 -94.5 -140.5t-133.5 -77.5q-24 -7 -47.5 -9.5t-49.5 -2.5q-45 0 -95.5 11t-99.5 30q-20 9 -45 21.5t-52.5 27.5t-54.5 31t-50 31q-40 -37 -80 -67t-84 -51t-94 -32.5t-109 -11.5q-33 0 -61.5 12.5t-50 33.5t-33.5 50t-12 62z
M2724 360q31 -20 73.5 -39t84.5 -34t77.5 -24.5t53.5 -9.5q4 0 8.5 0.5t9.5 1.5q12 3 23.5 30.5t8.5 75.5q0 32 -18 70.5t-47 72t-66.5 56t-76.5 22.5q-14 0 -36 -40t-64 -119v1zM5090 1245l-192 -193l-190 190l-188 -188l-194 193l192 193l190 -190l188 188zM4089 98
q0 33 12.5 62t33.5 50.5t50 33.5t62 12h111h48q45 0 99 4t104 13t90.5 24.5t59.5 39.5q11 17 11 46q0 43 -20.5 102t-48.5 120t-57.5 117t-47.5 93l285 140q31 -54 60 -127.5t52 -151t37 -152t14 -129.5q0 -101 -36 -185q-42 -94 -115 -155.5t-175 -90.5q-30 -8 -75 -13
t-91 -7.5t-87 -3t-64 -0.5h-145h-9q-33 0 -62 12t-50 33.5t-33.5 50.5t-12.5 62zM835 -615q-69 0 -141.5 6.5t-143.5 25t-137 50.5t-123 83q-57 50 -98.5 110.5t-68.5 128.5t-40.5 142t-13.5 151q0 164 52.5 331t155.5 323l225 -162q-20 -27 -47 -81t-52 -123t-42 -146.5
t-17 -149.5q0 -83 37.5 -150t100 -115t144 -75t169.5 -29q71 -1 138 12t127 38t109.5 61t85 80.5t54 96.5t15.5 109q-2 43 -16 97t-33.5 110.5t-43 111.5t-44 101.5t-35.5 79.5t-19 45l272 151q3 -4 17.5 -36t35 -82.5t43.5 -115.5t43.5 -136t35.5 -144t19 -139
q1 -8 1 -19.5v-19.5q0 -89 -20 -177t-61.5 -168.5t-104 -149t-147.5 -119t-193 -79t-239 -28.5zM835 1036l222 -222l-222 -222l-222 222z" />
    <glyph glyph-name="yeye" unicode="&#xfef4;&#xfef4;" horiz-adv-x="1796" 
d="M1794 -403l-192 -193l-190 190l-188 -188l-194 193l192 193l190 -190l188 188zM-165 98q0 33 12 62t33.5 50.5t50.5 33.5t62 12h76q72 0 138.5 6t117.5 25.5t82.5 55t33.5 94.5q1 22 0.5 36.5t-5.5 35t-14.5 54t-26.5 94.5l291 82q19 -48 35 -127t24 -173q2 -30 7 -62
t16.5 -59t31.5 -44.5t52 -17.5q33 0 62 -12t50.5 -33.5t34 -50.5t12.5 -62t-12.5 -62t-34.5 -50.5t-50.5 -33.5t-60.5 -12q-96 0 -164.5 29.5t-117.5 76.5q-45 -30 -103.5 -50t-124.5 -32.5t-136 -18t-138 -5.5h-76q-33 0 -62 12t-50.5 33.5t-33.5 50.5t-12 62zM792 -489
l-192 -193l-190 190l-188 -188l-194 193l192 193l190 -190l188 188zM755 98q0 33 12 62t33.5 50.5t50.5 33.5t62 12h76q72 0 138.5 6t117.5 25.5t82.5 55t33.5 94.5q1 22 0.5 36.5t-5.5 35t-14.5 54t-26.5 94.5l291 82q19 -48 35 -127t24 -173q2 -30 7 -62t16.5 -59
t31.5 -44.5t52 -17.5q33 0 62 -12t50.5 -33.5t34 -50.5t12.5 -62t-12.5 -62t-34.5 -50.5t-50.5 -33.5t-60.5 -12q-96 0 -164.5 29.5t-117.5 76.5q-45 -30 -103.5 -50t-124.5 -32.5t-136 -18t-138 -5.5h-76q-33 0 -62 12t-50.5 33.5t-33.5 50.5t-12 62z" />
    <glyph glyph-name="yeye1" unicode="&#xfef3;&#xfef4;" horiz-adv-x="1863" 
d="M1683 -388l-192 -193l-190 190l-188 -188l-194 193l192 193l190 -190l188 188zM786 99q0 33 12.5 62t33.5 50.5t50 33.5t62 12h111h48q45 0 99 4t104 13t90.5 24.5t59.5 39.5q11 17 11 46q0 43 -20.5 102t-48.5 120t-57.5 117t-47.5 93l285 140q31 -54 60 -127.5t52 -151
t37 -152t14 -129.5q0 -101 -36 -185q-42 -94 -115 -155.5t-175 -90.5q-30 -8 -75 -13t-91 -7.5t-87 -3t-64 -0.5h-145h-9q-33 0 -62 12t-50 33.5t-33.5 50.5t-12.5 62zM-165 98q0 33 12 62t33.5 50.5t50.5 33.5t62 12h76q72 0 138.5 6t117.5 25.5t82.5 55t33.5 94.5
q1 22 0.5 36.5t-5.5 35t-14.5 54t-26.5 94.5l291 82q19 -48 35 -127t24 -173q2 -30 7 -62t16.5 -59t31.5 -44.5t52 -17.5q33 0 62 -12t50.5 -33.5t34 -50.5t12.5 -62t-12.5 -62t-34.5 -50.5t-50.5 -33.5t-60.5 -12q-96 0 -164.5 29.5t-117.5 76.5q-45 -30 -103.5 -50
t-124.5 -32.5t-136 -18t-138 -5.5h-76q-33 0 -62 12t-50.5 33.5t-33.5 50.5t-12 62zM782 -489l-192 -193l-190 190l-188 -188l-194 193l192 193l190 -190l188 188z" />
    <glyph glyph-name="uni0621" unicode="&#x621;" horiz-adv-x="1019" arabic-form="isolated" 
d="M734 509q-11 4 -22.5 7t-22.5 6q-20 5 -44.5 10.5t-47.5 8.5q-37 4 -77.5 -3.5t-73.5 -26t-51.5 -47.5t-11.5 -69v1q7 -24 28.5 -47.5t52 -40.5t67.5 -24.5t76 -0.5q40 8 86.5 25.5t88.5 36.5q24 11 48 22.5t48 24.5l60 -220q-27 -13 -54 -25.5t-63.5 -29t-88 -38
t-128.5 -52t-184.5 -72t-254.5 -97.5l-45 219l199 82q-38 37 -64.5 81.5t-39.5 92.5q-16 54 -7 126q7 49 30 95t57.5 84t78.5 66t93 42q81 20 162 8q35 -5 69.5 -14t63.5 -19q31 -10 64 -24z" />
    <glyph glyph-name="uni0627" unicode="&#x627;" horiz-adv-x="536" arabic-form="isolated" 
d="M126 -63q5 82 10 170t8.5 174t4.5 167t-2 149q-6 142 -11.5 249.5t-11 190.5t-11 145.5t-11.5 114.5t-13 97.5t-15 94.5l309 102q22 -134 35.5 -270t20.5 -260.5t9.5 -231.5t2.5 -183q0 -69 -0.5 -149t-2 -166t-4.5 -174t-9 -172z" />
    <glyph glyph-name="uniFE8E" unicode="&#x627;" horiz-adv-x="624" arabic-form="final" 
d="M626 -60q-123 0 -211 30.5t-152 93.5q-40 40 -61.5 84t-31 86.5t-11 80.5t-1.5 65v15q1 37 2.5 106.5t1.5 163.5t-1 207t-5.5 225.5t-13 216.5t-23.5 181l299 91q13 -66 21 -155.5t13.5 -187.5t8 -197t3.5 -184q1 -75 -5.5 -146.5t-10.5 -140t0.5 -133t27.5 -125.5
q9 -23 22.5 -35t31.5 -17.5t39.5 -6.5t47.5 -1h9q32 0 61 -13t50.5 -34.5t34.5 -50.5t13 -61q0 -33 -13 -62t-34.5 -50.5t-50.5 -33.5t-61 -12z" />
    <glyph glyph-name="uni062D" unicode="&#x62d;" horiz-adv-x="1603" arabic-form="isolated" 
d="M1525 -495q-60 -54 -139 -100.5t-169.5 -81t-190.5 -54t-202 -19.5q-167 0 -311.5 46t-251.5 134t-168.5 215.5t-61.5 291.5v23.5t1 24.5q9 104 57 196.5t124 171.5t176.5 143t214.5 111.5t236.5 77t244.5 38.5q-58 19 -119.5 51t-122.5 63t-120 53t-111 20
q-50 -2 -94.5 -20t-85 -45.5t-76 -62.5t-66.5 -70l-221 161q51 73 102.5 136.5t113.5 111t141 75.5t185 31q63 2 125 -15t122.5 -45.5t118.5 -64t113 -71.5q54 -36 95.5 -64.5t76 -51t65 -39.5t61.5 -30.5t65.5 -23t77.5 -17.5l-95 -333l-93 2q-71 0 -152.5 -9.5
t-167.5 -27.5t-172.5 -44.5t-166.5 -60.5t-149 -75.5t-121 -90t-82.5 -103t-32.5 -115.5q-2 -67 20 -121t62 -95.5t94.5 -71.5t117.5 -49t132 -28t137 -9t133.5 8.5t130 28t128 51.5t128.5 80z" />
    <glyph glyph-name="uniFEA3" unicode="&#x62d;" horiz-adv-x="1548" arabic-form="initial" 
d="M-161 98q0 33 12.5 62t34 50.5t51 33.5t62.5 12h192q162 0 297.5 19.5t253.5 52.5t223.5 76.5t207.5 90.5q-68 19 -136.5 47t-137 54t-136.5 44.5t-135 18.5q-46 0 -90 -25t-80 -57t-60.5 -62.5t-30.5 -41.5l-231 149q38 67 90 131t114.5 113.5t135 79.5t152.5 30
q59 0 118 -12.5t117.5 -32.5t115.5 -45.5t113 -51.5q54 -25 107.5 -49.5t110.5 -45t118 -33.5t129 -14l-25 -307l-142 -68q-87 -42 -173 -86.5t-175.5 -86t-184 -79t-198.5 -65t-220 -44t-248 -16.5h-184h-8q-33 0 -62.5 12.5t-51 33.5t-34 50t-12.5 62z" />
    <glyph glyph-name="uniFEA4" unicode="&#x62d;" horiz-adv-x="1667" arabic-form="medial" 
d="M-159 97q0 32 12.5 61t34 50.5t50.5 34.5t62 13h183q110 0 237 21.5t254.5 56.5t247 78.5t214.5 88.5q-62 15 -138 42t-154 53t-151.5 44.5t-131.5 17.5q-37 -1 -71.5 -15.5t-64 -36t-53 -46t-40.5 -46t-26.5 -36l-9.5 -14.5l-237 136q40 74 96 142.5t122 121t138.5 83.5
t145.5 30q54 -1 107.5 -13t107.5 -30.5t109 -43t111 -50.5q57 -28 126.5 -55t145 -48t154 -34t153.5 -13l-52 -295q-23 -10 -51.5 -23.5t-50.5 -24.5l-26 -13q23 -27 58.5 -43t73 -23.5t72 -9.5t54.5 -2h14q33 0 62 -13t50.5 -34.5t34 -50.5t12.5 -61q0 -33 -12.5 -62
t-34 -50t-50.5 -33t-62 -12h-14q-96 0 -180.5 17t-154 49.5t-123.5 79t-89 105.5q-99 -48 -206 -93.5t-222 -80.5t-238.5 -56.5t-256.5 -21.5l-183 1q-33 0 -62 12t-50.5 33t-34 50t-12.5 62z" />
    <glyph glyph-name="uniFEA2" unicode="&#x62d;" horiz-adv-x="1702" arabic-form="final" 
d="M1569 -595q-80 -57 -165 -103.5t-175.5 -79.5t-187 -51t-198.5 -18q-167 0 -312 46t-252.5 134t-169.5 215.5t-62 291.5v23.5t1 24.5q9 104 60 196t132.5 170.5t188 142t227 110t249 75.5t253.5 38q-53 29 -120.5 62.5t-139 62.5t-140 48.5t-123.5 19.5
q-36 0 -78.5 -14.5t-83 -39.5t-75 -59t-55.5 -73l-225 153q44 77 99 141.5t119.5 111t139.5 72t159 25.5q63 0 127 -15.5t126.5 -41t122 -58.5t114.5 -69q82 -53 149.5 -92.5t128 -68t119.5 -48t124 -32.5l-93 -315l-154 -23q13 -36 47 -58t77 -34t90 -15.5t87 -3.5
q32 0 61 -13t50.5 -34.5t34.5 -50.5t13 -62t-13 -61.5t-34.5 -49.5t-50.5 -33t-61 -12q-122 0 -214 20.5t-159.5 54t-113 75.5t-74 85t-43 83t-19.5 69q-84 -16 -172 -40t-171.5 -56.5t-157 -72t-129.5 -86.5t-89 -101t-35 -114q-3 -101 45.5 -173t128.5 -118t181 -67.5
t203 -21.5q67 0 138 11t141.5 31.5t137.5 50.5t127 68z" />
    <glyph glyph-name="uni062F" unicode="&#x62f;" horiz-adv-x="1127" arabic-form="isolated" 
d="M157 407q42 -27 98.5 -54t116 -49.5t115.5 -36.5t97 -14q15 0 39 1.5t50.5 6t53.5 12t49.5 19.5t36.5 28.5t15 39.5q1 39 -23.5 88t-66 102.5t-96 108t-112.5 105t-116 94t-107 74.5l177 263q97 -68 192.5 -152t176.5 -178.5t140 -195.5t85 -202q8 -29 11 -58.5t3 -56.5
q0 -93 -36 -170.5t-100.5 -134t-154.5 -87.5t-198 -31q-8 0 -16 0.5t-16 0.5q-69 0 -141.5 14.5t-143 38.5t-137 56t-123.5 67z" />
    <glyph glyph-name="uni0631" unicode="&#x631;" horiz-adv-x="717" arabic-form="isolated" 
d="M565 673q38 -108 66 -211q12 -45 24 -93.5t21.5 -97t15.5 -95t6 -86.5q0 -94 -25.5 -183.5t-72 -173.5t-110.5 -161.5t-142 -145.5t-167 -126.5t-184 -105.5l-182 253q72 36 145.5 81.5t141 97.5t126 109t102 116t68.5 119.5t25 118.5q0 42 -11.5 91t-31 105.5t-46.5 120
t-58 135.5z" />
    <glyph glyph-name="uniFEAE" unicode="&#x631;" horiz-adv-x="816" arabic-form="final" 
d="M824 -60q-22 0 -62 3t-86 22q-22 -124 -82.5 -235.5t-149.5 -209t-203 -179.5t-243 -147l-183 253q71 36 143 78.5t137.5 90t122 99t98.5 106.5t66 112.5t24 116.5q0 3 -0.5 9t-0.5 12t-0.5 9t-0.5 -1v-1q-7 58 -20 111t-32.5 108t-45.5 115.5t-58 132.5l289 126
q40 -120 75 -200t68.5 -128t67.5 -67.5t72 -19.5h5q33 0 62 -13t50.5 -34.5t34 -50.5t12.5 -61q0 -33 -12.5 -62t-34 -50t-50.5 -33t-63 -12z" />
    <glyph glyph-name="uni0633" unicode="&#x633;" horiz-adv-x="2724" arabic-form="isolated" 
d="M2499 995q6 -12 21.5 -43.5t35.5 -76t42 -99.5t40 -115.5t29.5 -123t11.5 -122.5q-1 -99 -29.5 -185t-83.5 -149.5t-136 -100.5t-187 -37q-92 0 -150.5 31t-96.5 85q-21 -27 -45 -48.5t-56.5 -37t-76 -23.5t-103.5 -8q-42 0 -77 6t-64 15q-1 -117 -35.5 -213t-94 -172
t-139.5 -132t-172 -92.5t-192.5 -54.5t-199.5 -18q-153 0 -283 50.5t-224.5 142t-147.5 220t-53 283.5q3 90 24.5 184t55 184t75 171.5t84.5 146.5l218 -168q-36 -59 -70 -124.5t-60 -134t-42 -136.5t-16 -131q-3 -76 30.5 -143t93 -117.5t140 -79.5t171.5 -29
q103 0 190.5 19t155 52.5t113.5 81t66 104.5l-1 -1q25 82 25 169q0 67 -19 136t-49 139.5t-66.5 142t-71.5 143.5l274 154q26 -59 52 -119t52.5 -114.5t54.5 -101.5t58 -80.5t62.5 -50.5t69.5 -12q42 6 68 29.5t39.5 58.5t17 78.5t1.5 88.5t-6.5 89t-7.5 81l276 37
q7 -31 12 -74.5t11.5 -91.5t16.5 -97t27 -91t42 -73t63 -44q31 0 58 11.5t47 33.5t31.5 54.5t11.5 75.5q0 36 -13.5 83.5t-36.5 102.5t-53.5 115.5t-64.5 122.5z" />
    <glyph glyph-name="uniFEB3" unicode="&#x633;" horiz-adv-x="1634" arabic-form="initial" 
d="M-152 97q0 31 12 59t32 49.5t47.5 35t58.5 15.5q75 0 126.5 40.5t88.5 106.5t63 150.5t49 172.5l266 -48q-8 -35 -19.5 -81.5t-21 -96.5t-15.5 -97.5t-2.5 -83.5t18.5 -56.5t46 -15.5q40 3 72.5 28t58.5 64t46 88t34.5 101t24 103t15.5 93l254 -43q-1 -30 -7 -74
t-11 -92.5t-5 -97t11 -87t36.5 -62.5t71.5 -24q28 0 57 9.5t52 27t37.5 41.5t14.5 54q0 52 -17 114.5t-41 124t-50.5 116.5t-44.5 93l248 139l21 -45.5t34 -78.5t39.5 -103.5t37.5 -119.5t28 -127t11 -126q0 -100 -27.5 -180t-83 -136t-139 -87t-195.5 -32q-54 0 -98 10.5
t-79 29t-62.5 43.5t-48.5 53q-24 -31 -51.5 -55.5t-63 -42t-79.5 -27.5t-100 -11q-49 -1 -88.5 8.5t-72.5 27.5t-59.5 43.5t-49.5 56.5q-21 -26 -48 -48.5t-64 -39.5t-86 -27t-114 -10h-18q-31 2 -58.5 15t-47.5 34t-32 49t-12 60z" />
    <glyph glyph-name="uniFEB4" unicode="&#x633;" horiz-adv-x="1851" arabic-form="medial" 
d="M-168 98q0 31 13 59t35.5 49.5t53 34.5t65.5 15q53 0 99 17.5t87 67.5t77 141t69 238l266 -38q3 12 -3.5 -13t-15 -70.5t-16 -102t-7 -108t12 -89t40.5 -44.5q31 -8 60 12.5t55 59t48 90t40 105.5t31 106t20 92l264 -38q-2 -25 -7 -66.5t-8 -88.5t-2.5 -94.5t10.5 -86
t31 -63t58 -24.5q33 0 57 22t40.5 57.5t26.5 81t15 92.5t5 91.5t-3 78.5l270 38l33 -282q6 -46 26 -80t47 -56.5t57 -34t57 -11.5h12q37 0 67.5 -12t52.5 -33.5t34 -50.5t12 -62t-12 -62t-34.5 -50t-56 -33.5t-75.5 -12.5q-97 0 -183 34t-149 115q-6 -8 -12 -14t-11 -12v1
q-54 -57 -124.5 -90.5t-151.5 -33.5q-91 0 -167.5 39t-127.5 106q-60 -66 -136 -107t-167 -41q-85 0 -158 38t-121 104q-54 -75 -133.5 -107t-196.5 -32q-38 0 -69 12.5t-53 33.5t-34.5 50t-12.5 62z" />
    <glyph glyph-name="uniFEB2" unicode="&#x633;" horiz-adv-x="2889" arabic-form="final" 
d="M2228 -58q-86 0 -144.5 33t-96.5 83q-21 -27 -45 -48.5t-56.5 -37t-76 -23.5t-103.5 -8q-42 0 -77 6t-64 15q-1 -117 -35.5 -213t-94 -172t-139.5 -132t-172 -92.5t-192.5 -54.5t-199.5 -18q-153 0 -283 50.5t-224.5 142t-147.5 220t-53 283.5q3 90 24.5 184t55 184
t75 171.5t84.5 146.5l218 -167q-36 -59 -69 -125t-57.5 -133.5t-39.5 -135.5t-15 -131q-3 -76 29.5 -143.5t91 -118t137.5 -80t170 -29.5q69 0 137.5 9.5t131 31t116.5 55t93.5 81.5t62 111.5t22.5 144.5q0 60 -18 125.5t-47.5 134t-67 139.5t-77.5 142l277 148
q36 -86 75 -169t81 -148.5t87 -105t93 -37.5q40 1 63.5 22t36.5 55t17 78t4 92q-1 42 -3 86.5t-3 86.5l284 39q0 -28 2.5 -73.5t9 -97.5t18 -105t29.5 -95.5t43 -69.5t59 -27q33 0 58.5 30.5t43 78.5t26 106.5t8.5 114.5q0 22 -0.5 31.5t-0.5 17t-0.5 18t-0.5 34.5l271 39
l7 -79v1q2 -26 4.5 -48t5.5 -45.5t7 -50.5t9 -63q6 -46 26 -80t47 -56.5t57 -33.5t57 -11h12q37 0 67.5 -12.5t52.5 -34t34 -50.5t12 -62t-12 -62t-34 -50t-53 -33.5t-69 -12.5q-112 0 -197 35.5t-145 113.5q-54 -69 -135 -107.5t-184 -38.5z" />
    <glyph glyph-name="uni0635" unicode="&#x635;" horiz-adv-x="2885" arabic-form="isolated" 
d="M836 -709q-103 0 -204.5 17t-191.5 56t-163.5 103.5t-120.5 159.5q-17 34 -31.5 73t-25.5 79.5t-17 82t-6 80.5q0 72 12.5 145t32.5 143t45 135t50.5 121t48.5 101t39 76l224 -160q-7 -9 -23 -38.5t-35.5 -73.5t-40.5 -98.5t-38.5 -114t-28.5 -121t-11 -117.5
q0 -91 42.5 -154t111 -102t153 -56.5t168.5 -17.5q97 0 186.5 29t158.5 84.5t110 137t41 186.5q0 68 -16.5 135.5t-42.5 135.5t-57.5 137.5t-60.5 141.5l277 153q26 -66 48 -120t42 -96.5t39 -74t40 -52.5q36 56 82.5 115.5t103.5 116.5t123.5 108t142.5 89.5t161 61
t179 22.5q97 0 185.5 -34t156 -93.5t107.5 -141t40 -177.5v-16.5t-1 -15.5v1q-8 -101 -46.5 -180t-98 -138.5t-135.5 -101t-159.5 -67.5t-169.5 -38t-165 -12q-109 0 -212 17.5t-188 47.5q-26 11 -50.5 21t-47.5 21q-3 -157 -60.5 -289.5t-158 -228.5t-239.5 -150t-305 -54z
M2327 595q-66 -18 -140 -51.5t-142.5 -78t-125.5 -97t-89 -108.5q26 -7 61 -13.5t72.5 -11.5t74 -8t66.5 -3q40 0 93 4.5t109.5 15t111 28t98.5 43.5t72.5 62t31.5 83q2 40 -25 71.5t-69.5 50t-95.5 22.5t-103 -9z" />
    <glyph glyph-name="uniFEBB" unicode="&#x635;" horiz-adv-x="1871" arabic-form="initial" 
d="M-159 98q0 33 12.5 62t34.5 50.5t51 33.5t61 12q49 0 84 7t58.5 17.5t37.5 23t22 23.5l-1 -1q14 21 28 48.5t30.5 73.5t36 116.5t44.5 176.5l262 -85q-10 -38 -19 -72.5t-12.5 -67.5t-0.5 -66t17 -69q42 70 88 138.5t99.5 130t115.5 114.5t136.5 91.5t162.5 61t194 23.5
q122 1 215 -40.5t155.5 -109t92.5 -153t26 -170.5q-5 -106 -54.5 -198t-128.5 -158q-73 -57 -162.5 -94t-184 -58.5t-189 -30t-177.5 -8.5q-98 0 -176 6t-145.5 23.5t-127 49t-119.5 82.5q-72 -72 -169.5 -106t-229.5 -35h-9q-32 0 -61 12t-51 33.5t-34.5 50.5t-12.5 62z
M1379 622q-96 0 -185 -37.5t-162.5 -93.5t-129 -120t-85.5 -118q39 -2 88 -3t95 -1q62 0 128.5 3.5t131 13t124 26.5t108 43.5t83 63.5t48.5 87q-10 70 -74.5 103t-169.5 33z" />
    <glyph glyph-name="uniFEBC" unicode="&#x635;" horiz-adv-x="1933" arabic-form="medial" 
d="M-159 97q0 33 12.5 62t33.5 50.5t50 34t62 12.5h9h-1q104 3 134 18q35 17 61 52q15 19 27.5 45t27.5 71.5t34.5 116.5t48.5 181l262 -84q-16 -42 -24 -80.5t-9.5 -75.5t2 -73.5t9.5 -75.5q19 33 46.5 76.5t61 90.5t71.5 93.5t79 86.5q97 91 208.5 149.5t228.5 80.5
q32 6 60 8.5t54 2.5q109 0 204.5 -36.5t167.5 -111.5q67 -70 96.5 -154t24.5 -172q-5 -58 -28.5 -109.5t-49.5 -99.5h129q33 0 62 -12.5t50.5 -34t34.5 -50.5t13 -62t-13 -62t-34.5 -50t-50.5 -33t-62 -12l-252 -1q-53 0 -94.5 1t-74.5 3.5t-59 8t-49 14.5
q-52 -14 -106.5 -22.5t-108 -13.5t-105.5 -7t-98 -2q-88 0 -168.5 3t-153 21.5t-137 57.5t-119.5 111q-7 -20 -22 -38t-34 -34t-39 -28.5t-36 -20.5q-111 -53 -278 -53q-33 0 -62 12t-50 33t-33.5 50t-12.5 62zM1022 484q-29 -28 -57 -59t-53 -61.5t-46 -59.5t-36 -53
q38 -4 87.5 -6t90.5 -2q67 0 136.5 5.5t134.5 17t123.5 30t104 45t76 61.5t39.5 80q-6 34 -30 61t-57.5 45.5t-72 28.5t-74.5 10q-46 0 -95.5 -11t-98 -30t-93 -45t-79.5 -57z" />
    <glyph glyph-name="uniFEBA" unicode="&#x635;" horiz-adv-x="2868" arabic-form="final" 
d="M795 -709q-103 0 -204.5 17t-191.5 56t-163.5 103.5t-120.5 159.5q-17 34 -31.5 73t-25.5 79.5t-17 82t-6 80.5q0 72 12.5 145t32.5 143t45 135t50.5 121t48.5 101t39 76l224 -162q-7 -9 -23 -38.5t-35.5 -73t-40.5 -98t-38.5 -113.5t-28.5 -120t-11 -118
q0 -91 42.5 -154t111 -102t153 -56.5t168.5 -17.5q97 0 185.5 27t156 81t108.5 135t43 189q1 68 -15 136t-41.5 137t-57 139.5t-60.5 142.5l281 154q30 -74 52 -129.5t40 -97.5t35 -71.5t38 -50.5q32 57 76.5 116.5t100 116.5t122.5 107t144.5 89t164.5 62.5t184 26.5
t185.5 -30.5t156 -93.5t107.5 -143t40 -179v-16.5t-1 -15.5q-4 -49 -15.5 -93.5t-30.5 -84.5q15 -3 36.5 -5t41.5 -3h8q33 0 62 -12.5t50.5 -34t34 -50.5t12.5 -62t-12.5 -61.5t-34 -50t-50.5 -33.5t-62 -12q-56 0 -103 7.5t-85.5 20t-69 29t-51.5 33.5
q-57 -32 -120.5 -55.5t-129 -38.5t-130.5 -22.5t-125 -7.5q-109 0 -212 17.5t-188 47.5q-26 11 -50.5 21t-47.5 21q-3 -157 -60.5 -289.5t-158 -228.5t-239.5 -150t-305 -54zM2286 593q-66 -18 -140 -51.5t-142.5 -78t-125.5 -97t-89 -108.5q26 -7 61 -13.5t72.5 -11.5
t74 -8t66.5 -3q40 0 93 4.5t109.5 15t111 28t98.5 43.5t72.5 62t31.5 83q2 40 -25 71.5t-69.5 50t-95.5 22.5t-103 -9z" />
    <glyph glyph-name="uni0637" unicode="&#x637;" horiz-adv-x="1776" arabic-form="isolated" 
d="M856 -60q-113 0 -218.5 7.5t-208 26.5t-205 52.5t-210.5 85.5l115 295q84 -32 151 -55.5t115 -37.5q19 26 42.5 57.5t57.5 76.5q6 45 10.5 82.5t7 71.5t4 66t1.5 66q0 46 -4 117t-9.5 151.5t-13 163t-14 152.5t-12.5 119t-9 63l317 84l11 -106q8 -72 16.5 -154.5
t15.5 -169.5t12.5 -177t7.5 -177q48 42 94.5 77t98 60.5t112 40.5t136.5 17q79 2 156.5 -22.5t140.5 -72.5t106 -119.5t53 -162.5q1 -129 -38 -229.5t-105.5 -175.5t-155 -127.5t-186.5 -84.5t-199 -46.5t-193 -14.5zM1277 674q-60 0 -135.5 -31t-154.5 -87t-155.5 -134
t-139.5 -172q35 -3 73 -4.5t70 -1.5q150 0 270.5 30.5t205 77.5t129 103t41.5 107q-5 30 -28.5 51.5t-55 35t-64.5 19.5t-56 6z" />
    <glyph glyph-name="uniFEC3" unicode="&#x637;" horiz-adv-x="1509" arabic-form="initial" 
d="M-162 98q0 32 13 60.5t34.5 50.5t50.5 34.5t61 12.5h116q17 29 47 78t78 109q8 63 14 155t7 200q0 60 -4 136.5t-11.5 166.5t-18.5 191t-24 210l322 82q14 -103 25 -199t18.5 -192t11.5 -194.5t4 -205.5q52 41 107.5 77.5t115 63.5t123.5 42.5t135 15.5q82 0 155 -26
t129.5 -75t93 -119t45.5 -158q5 -120 -29 -217t-96.5 -172t-149 -129t-187 -89t-209.5 -51.5t-217 -16.5l-592 1h-9q-32 0 -61 12t-50.5 33t-34.5 50t-13 63zM1032 672q-60 1 -135.5 -28.5t-154.5 -84.5t-155.5 -132t-139.5 -171q35 -3 73 -4.5t70 -1.5q150 0 270.5 29.5
t205 75t129 100t41.5 105.5q-5 30 -25.5 51t-49.5 34t-63 19.5t-66 7.5z" />
    <glyph glyph-name="uniFEC4" unicode="&#x637;" horiz-adv-x="1583" arabic-form="medial" 
d="M-162 98q0 32 13 60.5t34.5 50.5t50.5 34.5t61 12.5h116q17 29 47 78t78 109q8 63 14 155t7 200q0 40 -0.5 77t-2 78.5t-5 91t-8.5 114.5t-13 149t-19 194l322 82q14 -103 23.5 -199t15 -192t8 -194.5t2.5 -205.5q52 41 107.5 77.5t115 63.5t123.5 42.5t135 15.5
q82 0 155 -26t129.5 -75t93 -119t45.5 -158q4 -109 -23.5 -197.5t-78.5 -160.5h201q33 0 62 -12t50.5 -33t33.5 -50t12 -62t-12 -62t-33.5 -50.5t-50.5 -34t-63 -12.5h-247q-79 0 -175.5 6.5t-214.5 36.5q-85 -23 -173 -33.5t-176 -10.5l-592 1h-9q-32 0 -61 12t-50.5 33
t-34.5 50t-13 63zM483 256q59 0 138.5 3t164.5 13t167 29.5t146 53t102 83.5t34 121q-2 22 -22 42t-52 35t-72 24t-81 9q-45 -3 -111.5 -25.5t-142.5 -70.5t-156.5 -125.5t-154.5 -191.5h40z" />
    <glyph glyph-name="uniFEC2" unicode="&#x637;" horiz-adv-x="1867" arabic-form="final" 
d="M906 -60q-113 0 -218.5 7.5t-208 26.5t-205 52.5t-210.5 85.5l115 295q84 -32 151 -55.5t115 -37.5q19 26 42.5 57.5t57.5 76.5q6 45 10.5 82.5t7 71.5t4 66t1.5 66q0 46 -3.5 117t-9.5 151.5t-12.5 163t-13.5 152.5t-12.5 119t-8.5 63l317 84l11 -106q8 -72 16 -154.5
t15 -169.5t12 -177t7 -177q48 42 94.5 77t98 60.5t112 40.5t136.5 17q79 2 156.5 -22.5t140.5 -72.5t106 -119.5t53 -162.5q1 -112 -28 -201t-81 -161h193q33 0 62 -12t50.5 -33t33.5 -50t12 -62t-12 -62t-33.5 -50.5t-50.5 -34t-63 -12.5h-257q-22 0 -61 0.5t-84.5 3t-92 9
t-84.5 18.5q-46 -12 -95.5 -18.5t-99 -9t-97 -3t-89.5 -0.5zM1324 674q-60 0 -135.5 -31t-154.5 -87t-155.5 -134t-139.5 -172q35 -3 73 -4.5t70 -1.5q150 0 270.5 30.5t205 77.5t129 103t41.5 107q-5 30 -28.5 51.5t-55 35t-64.5 19.5t-56 6z" />
    <glyph glyph-name="uni0639" unicode="&#x639;" horiz-adv-x="1559" arabic-form="isolated" 
d="M828 -846q-77 0 -159.5 14.5t-163.5 45t-157.5 78t-140.5 113.5q-81 88 -121.5 201.5t-40.5 242.5q0 124 39.5 238t117.5 214q63 81 143.5 141t171.5 108q-25 25 -46.5 57t-37.5 70.5t-25.5 84.5t-9.5 100q1 62 21 121.5t54 113.5t80.5 100t101 80.5t115 55t122.5 23.5
q70 3 130 -6.5t114.5 -30t106.5 -52t106 -72.5l-124 -237q-47 25 -99 45q-45 17 -101.5 29t-116.5 7q-38 -3 -80 -19t-77.5 -42t-59 -61t-23.5 -76q0 -35 24.5 -64.5t65.5 -50t95.5 -30.5t114.5 -6l376 25l-24 -313q-79 -10 -160 -17t-164.5 -20t-168 -36t-170.5 -65
q-23 -11 -57 -30t-72 -46t-76 -62t-68 -77t-49 -92.5t-19 -107.5q0 -61 21 -112t58 -91.5t87 -71.5t107 -51.5t119 -30.5t124 -10q59 0 124 9t131.5 28.5t133 50t128.5 74.5l156 -244q-78 -66 -166.5 -112.5t-177.5 -76.5t-175 -43.5t-158 -13.5z" />
    <glyph glyph-name="uniFECB" unicode="&#x639;" horiz-adv-x="1072" arabic-form="initial" 
d="M919 601q-26 14 -52.5 25.5t-54.5 21.5q-48 17 -107 28t-122 4q-43 -5 -82.5 -23t-70 -44.5t-48.5 -59.5t-18 -67q0 -48 30 -84.5t76.5 -60.5t102.5 -36t109 -10q57 5 118.5 14t115.5 19q31 5 62 11t62 13l41 -311q-67 -18 -150 -35.5t-188 -32t-235 -23t-290 -8.5
l-218 -2q-33 0 -62.5 12.5t-51 34t-34 50.5t-12.5 62t13 61t35 49t50.5 33.5t60.5 14.5l156 2q-36 57 -50 116t-13 129q1 88 39.5 173t105 153t155.5 113t191 53q51 4 98 -0.5t89 -15t79 -25t67 -30.5q35 -19 67 -40.5t60 -46.5z" />
    <glyph glyph-name="uniFECC" unicode="&#x639;" horiz-adv-x="1142" arabic-form="medial" 
d="M1146 256q32 0 61 -13t50.5 -34.5t34.5 -50.5t13 -62t-13 -61.5t-34.5 -50t-50.5 -33.5t-61 -12q-79 0 -154 5t-144.5 19t-131.5 39.5t-115 66.5q-59 -36 -133 -61t-154 -40.5t-161 -22t-152 -6.5q-32 0 -61 12t-51 33.5t-34.5 50t-12.5 61.5t12.5 62t34.5 50.5t51 34.5
t61 13q35 0 73.5 2t77.5 5.5t77 9.5t72 14q-11 10 -20 19.5t-19 19.5h1q-54 54 -110.5 111t-125.5 120l16 234q59 52 122 88.5t124.5 60.5t118 37t101.5 18q22 2 47 3.5t49 1.5q78 0 160.5 -16t149.5 -44q58 -27 97 -61t62 -68t33.5 -66t11.5 -54q3 -45 -12 -98.5
t-43.5 -109t-67.5 -109t-84 -98.5q106 -20 234 -20zM605 689q-24 0 -61 -3.5t-77 -9.5t-77.5 -14t-63.5 -17l275 -235q29 21 66.5 52t73.5 64.5t65.5 66.5t43.5 58q-23 10 -54 17.5t-64.5 12t-66.5 6.5t-60 2z" />
    <glyph glyph-name="uniFECA" unicode="&#x639;" horiz-adv-x="1357" arabic-form="final" 
d="M294 -218q0 -54 22.5 -100t61 -82.5t88.5 -64t105 -44.5t111 -24t107 -3q115 0 227 36.5t206 99.5l155 -249q-56 -46 -130.5 -84t-156.5 -65t-165.5 -41.5t-158.5 -13.5q-64 1 -144 12t-162 38t-160 72.5t-139 115.5t-98.5 168t-38.5 229q-1 81 23.5 158.5t57.5 140.5
q28 52 66.5 98t83.5 85.5t95.5 73t102.5 60.5q-36 32 -74.5 64.5t-68.5 58.5l-67 57l-21 241q50 45 104.5 81.5t107.5 64.5t102.5 47t88.5 28q58 14 115 20t112 6q60 0 116 -8t104 -23q58 -20 106 -51t81.5 -71t51 -87.5t15.5 -100.5q1 -63 -19 -121.5t-56.5 -110t-86.5 -94
t-108 -72.5q72 -33 149.5 -52t149.5 -19q33 0 61.5 -13t50 -35t33.5 -51t12 -60q0 -33 -12 -62t-33.5 -50t-50 -33.5t-61.5 -12.5q-84 0 -164.5 17t-159.5 48t-156 74t-153 95q-46 -19 -95 -41.5t-96.5 -50t-90.5 -59t-75.5 -69t-51.5 -80t-19 -91.5zM854 782
q-51 1 -101.5 -6t-96 -18.5t-84.5 -25.5t-68 -26q58 -48 121.5 -94t133.5 -86q58 19 111.5 43t94.5 50.5t66 54.5t27 57q-2 2 -15.5 9.5t-39 16.5t-63 16.5t-86.5 8.5z" />
    <glyph glyph-name="uniFEDB" unicode="&#x643;" horiz-adv-x="1047" arabic-form="initial" 
d="M-168 97q0 34 12 63t34.5 50.5t53 33.5t68.5 12h56h49q54 0 119 1.5t125.5 10t109 25.5t70.5 47q30 46 30 105q0 20 -3.5 40.5t-8.5 42.5q-7 25 -29.5 60.5t-57.5 78t-80 90t-96 97t-107 98.5t-112 95l31 272l840 374l121 -268l-664 -308q49 -34 101 -81t101 -102.5
t92 -117.5t75 -127t50.5 -131t17.5 -129q-1 -75 -20 -139.5t-47 -115.5q-104 -186 -343 -227l1 1q-27 -5 -51 -7t-47 -2l-323 1q-37 0 -68 12t-53 33.5t-34.5 50t-12.5 61.5z" />
    <glyph glyph-name="uniFEDC" unicode="&#x643;" horiz-adv-x="1188" arabic-form="medial" 
d="M-169 98q0 33 12.5 62t34.5 50t51 33.5t61 12.5h9h330q29 0 66.5 12t71.5 31.5t59 44t29 49.5q3 50 -18 108t-58.5 118.5t-86.5 121t-102 115.5t-106 102t-98 81l27 275l919 385l116 -275l-759 -310q69 -64 125 -124.5t102.5 -120.5t85 -121t71.5 -125l10 -18l-1 1
q23 -42 45.5 -83.5t48.5 -83.5q24 -38 52.5 -70.5t62.5 -57.5t72.5 -39.5t82.5 -15.5h-1h42q33 0 62 -12.5t50.5 -33.5t33.5 -50t12 -62t-12 -62t-33.5 -50.5t-50.5 -33.5t-62 -12h-8q-76 0 -135.5 10t-117.5 29q-60 22 -112 59t-97 83q-11 -14 -25 -29t-28 -29
q-38 -34 -80 -56.5t-86 -37t-90 -21t-92 -8.5h-326q-32 0 -61 12t-51 33.5t-34.5 50.5t-12.5 62z" />
    <glyph glyph-name="uni0643" unicode="&#x643;" horiz-adv-x="2024" arabic-form="isolated" 
d="M1922 957q1 -35 2 -68.5t3 -63.5l2 -57q4 -91 5.5 -160t1.5 -100q-1 -57 -13.5 -114t-42.5 -114q-48 -85 -126.5 -150t-187.5 -110q-117 -45 -264 -68t-331 -23q-372 4 -597 88q-227 85 -312 258v-1q-48 93 -48 206q0 51 11.5 105.5t31.5 111.5q11 30 17.5 46t13.5 30
t17.5 31.5t29.5 50.5l233 -175q-34 -54 -57 -103.5t-23 -100.5q0 -72 55 -116.5t148.5 -69t217.5 -33.5t262 -9q152 0 275 17t210 50h-1q57 24 99 52.5t60 62.5q11 19 14.5 41.5t4.5 45.5v-2q-2 60 -9 169.5t-15 261.5q-6 107 -13 204t-13 173t-10.5 125.5t-6.5 62.5l312 71
q1 -16 6 -74.5t12 -144t14 -191t12 -215.5zM1147 850l-16 2t-16 3q-14 2 -31.5 3.5t-33.5 1.5q-26 0 -53 -9.5t-48 -25.5t-31 -38.5t-1 -47.5v1q7 -16 23.5 -30t39 -23t49 -10.5t52.5 7.5q26 8 57.5 25t57.5 34q16 10 31 20t30 21l62 -146q-18 -11 -35 -22t-40.5 -25.5
t-57 -34t-83.5 -48t-120 -67t-166 -90.5l-51 145l129 76q-29 21 -51.5 49t-36.5 60q-16 35 -16 86q0 35 11.5 68.5t31.5 62.5t47.5 52.5t60.5 37.5q26 11 53.5 16t56.5 5q24 0 49 -3.5t45 -7.5q12 -2 23.5 -4.5t22.5 -5.5z" />
    <glyph glyph-name="uniFEDA" unicode="&#x643;" horiz-adv-x="2108" arabic-form="final" 
d="M1963 310q6 -12 17 -22t31 -17t51 -11t78 -4v-316q-102 0 -174 13t-123 42q-38 22 -67 45.5t-54 58.5q-37 -29 -80 -52.5t-94 -43.5q-117 -45 -264 -68t-331 -23q-372 4 -597 88q-227 85 -312 258v-1q-48 93 -48 206q0 51 11.5 105.5t31.5 111.5v1q16 44 33.5 75.5
t36.5 63.5l14 26l232 -174q-36 -63 -54 -100t-25.5 -58.5t-7.5 -32.5v-22q0 -33 14 -63q20 -41 78.5 -72t146.5 -51.5t201.5 -31t244.5 -10.5q303 0 478 67h-1q57 24 96 52.5t57 62.5q11 19 18 56.5t5 92.5q-2 34 -5.5 90t-8 125.5t-10.5 148t-11.5 156t-11.5 149t-10.5 129
t-7.5 95.5t-4 47l315 61q1 -16 6 -74t12 -143t14 -190t12 -215v1q6 -109 10 -177.5t6.5 -109.5t3.5 -61.5t1 -34.5q4 -90 16 -150.5t33 -102.5zM1110 855l-16 2t-16 3q-14 2 -31.5 3.5t-33.5 1.5q-26 0 -53 -9.5t-48 -25.5t-31 -38.5t-1 -47.5v1q7 -16 23.5 -30t39 -23
t49 -10.5t52.5 7.5q26 8 57.5 25t57.5 34q16 10 31 20t30 21l62 -146q-18 -11 -35 -22t-40.5 -25.5t-57 -34t-83.5 -48t-120 -67t-166 -90.5l-51 145l129 76q-29 21 -51.5 49t-36.5 60q-16 35 -16 86q0 35 11.5 68.5t31.5 62.5t47.5 52.5t60.5 37.5q26 11 53.5 16t56.5 5
q24 0 49 -3.5t45 -7.5q12 -2 23.5 -4.5t22.5 -5.5z" />
    <glyph glyph-name="uni0644" unicode="&#x644;" horiz-adv-x="1483" arabic-form="isolated" 
d="M413 294q-14 -26 -26 -54t-23 -57q-18 -51 -32.5 -114t-10.5 -129q3 -56 22.5 -102.5t49.5 -83.5t67 -64.5t76 -46.5t76 -29.5t67 -12.5q8 -1 14 -1h12q43 0 92 9.5t98 29.5t94 50.5t80 74t55.5 99.5t20.5 126q0 79 -4.5 186.5t-11 229t-15.5 250.5t-18 252
q-11 145 -22.5 294.5t-25.5 307.5l319 74q7 -169 13.5 -328t11.5 -312q5 -130 9.5 -266t8.5 -263.5t6 -238t2 -189.5q0 -132 -32 -235.5t-86 -181.5t-125.5 -132t-150 -88t-159.5 -49.5t-154 -15.5h-21t-20 1h1q-66 5 -138 23.5t-142 52t-132.5 83.5t-109.5 118.5t-74 157
t-25 198.5q2 121 19.5 212.5t38.5 154.5q26 76 55 129z" />
    <glyph glyph-name="uniFEDF" unicode="&#x644;" horiz-adv-x="558" arabic-form="initial" 
d="M-158 98q0 33 12.5 62t33.5 50.5t50 33.5t62 12h9h47q45 0 80.5 8t49.5 22v-1q17 19 26.5 59t8.5 106q0 8 -3 58.5t-7.5 127t-11 171t-13 191.5t-12.5 189t-11.5 162t-9 111.5t-4.5 37.5l317 78q1 -16 6 -74.5t12 -144.5t14 -192t12 -216l16 -495q1 -42 -2 -92
t-16 -101.5t-38.5 -102.5t-68.5 -95q-123 -123 -345 -123h-47h-9q-33 0 -62 12.5t-50 33.5t-33.5 50t-12.5 62z" />
    <glyph glyph-name="uniFEE0" unicode="&#x644;" horiz-adv-x="653" arabic-form="medial" 
d="M-167 98q0 33 12.5 62t33.5 50t50 33.5t62 12.5h9h64h-1q34 -8 63 7.5t50 45t33 68t12 76.5q2 85 -2 217t-6 308q-2 161 -4.5 295t-10.5 259l311 57q8 -64 12.5 -138.5t7 -155.5t3.5 -167t1 -173q0 -137 -3 -275q-2 -69 -3 -144t-1 -147q0 -17 4 -42t18 -48h-1
q12 -18 35 -30.5t71 -12.5q33 0 62 -12.5t50.5 -33.5t34.5 -50t13 -62t-13 -62t-34.5 -50.5t-50.5 -33.5t-62 -12q-89 -2 -158 30.5t-117 79.5q-57 -52 -127 -80t-142 -30h-109h-9q-33 0 -62 12t-50 33.5t-33.5 50.5t-12.5 62z" />
    <glyph glyph-name="uniFEDE" unicode="&#x644;" horiz-adv-x="1508" arabic-form="final" 
d="M371 294q-14 -26 -26 -52.5t-23 -55.5q-18 -51 -31.5 -114t-10.5 -132q3 -56 22 -102.5t48.5 -83.5t66.5 -64.5t75.5 -46.5t75.5 -29.5t67 -12.5q8 -1 14 -1h12q43 0 92 9.5t98 29.5t94 50.5t80 74t55.5 99.5t20.5 126q0 79 -4.5 186.5t-11 229t-15.5 250.5t-18 252
q-11 145 -22.5 294.5t-25.5 307.5l319 74q5 -101 9 -202.5t8 -205.5q3 -88 6.5 -186.5t7 -200t7 -202.5t6.5 -195v4q3 -17 10.5 -40.5t23 -45.5t41.5 -37.5t66 -15.5q33 0 62 -13t50.5 -34.5t34 -50.5t12.5 -61q0 -33 -12.5 -62t-34 -50t-50.5 -33t-62 -12q-42 0 -74.5 4
t-60.5 12q-4 -126 -38 -225t-88.5 -173.5t-125 -126.5t-148 -84.5t-156.5 -47.5t-150 -15h-21t-20 1h1q-67 5 -138.5 23.5t-140 52t-130.5 83.5t-108.5 118.5t-74.5 157t-29 198.5q-1 117 16.5 207t39.5 156q25 74 57 133z" />
    <glyph glyph-name="uni0645" unicode="&#x645;" horiz-adv-x="1210" arabic-form="isolated" 
d="M76 -791l-39 985q0 8 2 35t11.5 62.5t31 74.5t60.5 70q25 22 69.5 36t89.5 14q8 0 16 -0.5t16 -1.5q15 41 36 83.5t45 82t51 75t54 62.5q61 61 126 88.5t138 25.5q97 -4 172.5 -42t132.5 -113q86 -118 97 -283q1 -11 1 -24v-24q0 -63 -10.5 -122t-33.5 -113l1 1
q-35 -90 -92 -143t-132 -66l3 2q-10 -3 -20 -5t-21 -2q-33 0 -80.5 14t-102.5 35.5t-113 46t-111 45.5q-29 11 -49 19.5t-36.5 15t-32 12t-34.5 11.5q13 -229 30 -453.5t30 -451.5zM623 475q-11 -21 -18.5 -37.5t-13.5 -30.5q31 -13 70 -29.5t80.5 -33.5t81 -32t70.5 -24
q9 25 14.5 60t5.5 60q0 38 -12 71t-31.5 57t-44.5 37t-50 11q-11 -1 -30 -6t-40.5 -17t-43.5 -33t-38 -53z" />
    <glyph glyph-name="uniFEE3" unicode="&#x645;" horiz-adv-x="1138" arabic-form="initial" 
d="M-157 98q0 33 12 61t33 49t49.5 33.5t61.5 14.5q67 0 116.5 26t87.5 68t68 94t57 104v-1q26 54 55.5 107t64.5 98q54 63 121 97.5t143 34.5q90 0 163.5 -37t133.5 -106q45 -54 73 -123.5t37 -147.5v2q6 -39 6 -89q0 -54 -9.5 -105.5t-26.5 -97.5q-33 -84 -94.5 -140.5
t-133.5 -77.5q-24 -7 -47.5 -9.5t-49.5 -2.5q-45 0 -95.5 11t-99.5 30q-20 9 -45 21.5t-52.5 27.5t-54.5 31t-50 31q-40 -37 -80 -67t-84 -51t-94 -32.5t-109 -11.5q-33 0 -61.5 12.5t-50 33.5t-33.5 50t-12 62zM552 361q31 -20 73.5 -39t84.5 -34t77.5 -24.5t53.5 -9.5
q4 0 8.5 0.5t9.5 1.5q12 3 23.5 30.5t8.5 75.5q0 32 -18 70.5t-47 72t-66.5 56t-76.5 22.5q-14 0 -36 -40t-64 -119v1z" />
    <glyph glyph-name="uniFEE4" unicode="&#x645;" horiz-adv-x="1182" arabic-form="medial" 
d="M826 226q32 8 38 83q6 78 -29 140q-31 57 -94 99t-95 29q-43 -18 -130 -222q251 -144 310 -129zM1331 98q0 -65 -46 -111q-47 -46 -112 -47h-1q-126 0 -204 86q-82 -82 -209 -82q-147 0 -427 148q-18 -38 -69 -77q-45 -34 -103 -53q-73 -24 -164 -24q-66 0 -112 46
t-46 112q0 65 46 111t112 46q125 0 218 124q33 45 70 117l30 60l14 30l14 28q135 268 337 268q147 0 260 -98q128 -111 145 -305l1 -9q2 -6 2 -14q2 -49 14 -99q11 -43 26 -68q20 -31 46 -31v0q65 0 111 -46q47 -46 47 -112z" />
    <glyph glyph-name="uniFEE2" unicode="&#x645;" horiz-adv-x="1300" arabic-form="final" 
d="M965 260q-2 68 -20 140q-37 143 -121 167q-54 15 -102 -8q-38 -18 -70 -60q-37 -49 -55 -102zM1441 91q0 -66 -46 -112t-111 -46h-1q-123 0 -208 94q-74 -72 -185 -69q-106 3 -558 193l57 -899l-301 -53q-44 889 -47 986q-1 41 12 89q17 57 48 101q83 115 237 100
q34 104 106 209q144 209 334 209q202 0 318 -165q43 -63 70 -143q21 -66 28 -128q1 -5 1 -11q1 -15 1 -31q6 -65 29 -113q25 -53 59 -53q65 -1 111 -47t46 -111z" />
    <glyph glyph-name="uni0647" unicode="&#x647;" horiz-adv-x="974" arabic-form="isolated" 
d="M485 -60q-5 0 -27.5 1.5t-55 6.5t-73 16t-81.5 30q-109 52 -169 142.5t-60 210.5q0 200 177 415q14 17 23.5 28t17.5 20t15.5 16.5l17.5 17.5q-12 10 -23.5 19t-19.5 17l-18 16l199 243q51 -38 122 -102.5t164 -164.5q259 -295 259 -525q0 -118 -56.5 -209t-156.5 -143
q-35 -17 -71.5 -27.5t-70.5 -16.5t-63.5 -8.5t-49.5 -2.5zM679 347q0 31 -20 70t-52.5 81.5t-72.5 86t-80 83.5q-27 -30 -57 -67.5t-55 -79.5t-41 -86.5t-14 -87.5q1 -24 23 -42t52.5 -29t64.5 -16.5t58 -5.5q30 0 64.5 4.5t63 15.5t47.5 29t19 44z" />
    <glyph glyph-name="uniFEEB" unicode="&#x647;" horiz-adv-x="1521" arabic-form="initial" 
d="M-168 99q0 33 12.5 61.5t33.5 50t50 33.5t62 12h9h28.5t31 1t42 2t61.5 3q-35 60 -53 127.5t-18 136.5q0 52 10 104t30 99.5t50 90t71 77.5l-52 29l193 284q43 -30 103 -61t126 -61.5t132.5 -59t122.5 -53.5q95 -44 168.5 -77.5t132.5 -66t106 -68.5t88 -84
q52 -66 75 -144t23 -151q0 -112 -57.5 -211.5t-169.5 -166.5q-31 -18 -76.5 -31t-95 -21.5t-97.5 -12.5t-84 -4q-42 0 -91 3.5t-98.5 11t-96.5 19.5t-86 28q-48 -14 -110.5 -25t-131.5 -18.5t-140 -11.5t-137 -4h-9q-33 0 -62 12.5t-50 34t-33.5 50.5t-12.5 62zM559 746
q-32 5 -68.5 -19t-66.5 -62t-48 -83.5t-14 -84.5v1q3 -26 20 -53.5t40.5 -53t50.5 -45t50 -28.5q38 4 74.5 18t65.5 42t47 72t18 108q0 33 -18.5 65t-44.5 58.5t-55.5 44t-50.5 20.5zM991 580q0 -42 -10 -88t-27 -91t-38.5 -87.5t-45.5 -78.5h9q73 0 134.5 5.5t106.5 22
t71.5 46t31.5 78.5q2 24 -20 52.5t-56.5 57t-76.5 55.5t-79 48v-20z" />
    <glyph glyph-name="uniFEEC" unicode="&#x647;" horiz-adv-x="1005" arabic-form="medial" 
d="M-159 98q0 33 12 62t33.5 50t50.5 33.5t62 12.5h52q3 66 20.5 143.5t47.5 156t71 152t90.5 131.5t107.5 94.5t121 40.5q67 -1 124.5 -37.5t99.5 -95.5t66 -134t24 -152q0 -91 -39.5 -177t-104 -160.5t-146 -134t-165.5 -97.5q7 -24 29.5 -57.5t51 -67.5t57.5 -64t49 -48
q-1 58 17 118.5t50.5 116.5t76.5 105.5t94.5 86.5t104.5 58.5t107 21.5q33 0 62 -12.5t50.5 -33.5t34 -50t12.5 -62t-12.5 -62t-34 -50.5t-50.5 -33.5t-62 -12h-4q-44 -6 -85 -29.5t-72.5 -59t-50.5 -79t-19 -88.5q0 -20 3 -37.5t11 -35.5t21.5 -38t34.5 -43l-183 -223
q-120 73 -211 149t-157.5 155.5t-112 161.5t-74.5 167h-4h-103q-33 0 -62 12t-50.5 33.5t-33.5 50.5t-12 62zM569 511q2 28 -0.5 59.5t-10 61t-20.5 53.5t-32 36q-19 -10 -41.5 -38t-45.5 -68t-44.5 -87.5t-38.5 -96.5t-27.5 -95.5t-11.5 -83.5q43 8 89.5 32.5t86 60
t66.5 78.5t30 88z" />
    <glyph glyph-name="uniFEEA" unicode="&#x647;" horiz-adv-x="1090" arabic-form="final" 
d="M544 80q-142 0 -244 38.5t-162 108.5q-35 45 -50.5 97.5t-15.5 100.5q0 42 7 76t17 58q40 84 98.5 147t122 109.5t126 77.5t111.5 51q-2 23 -3.5 47t-3.5 46l-5 63l312 67q1 -9 4.5 -42t8 -78.5t10 -97t10 -96.5t8 -78t4.5 -40q15 -123 25.5 -202t18 -125.5t12.5 -67
t8 -27.5q15 -32 45.5 -44.5t81.5 -12.5q32 0 61 -12t50.5 -33.5t34.5 -50.5t13 -62t-13 -62t-34.5 -50t-50.5 -33.5t-61 -12.5q-21 0 -47 1.5t-54.5 6t-59 13t-60.5 22.5q-42 20 -73.5 45.5t-60.5 64.5q-51 -7 -98.5 -10t-92.5 -3zM538 394q21 0 43.5 1.5t43.5 3.5
q-5 34 -10.5 76t-10.5 90l-10 92q-38 -19 -85 -45.5t-88.5 -56t-69.5 -60t-28 -56.5q0 -13 22.5 -21.5t55.5 -14t70 -7.5t67 -2z" />
    <glyph glyph-name="uni0648" unicode="&#x648;" horiz-adv-x="1051" arabic-form="isolated" 
d="M518 590q-21 4 -47.5 -14.5t-50 -50t-39 -69.5t-15.5 -73q0 -33 19 -55t48.5 -36t65 -21t68.5 -10h-1q26 -2 59.5 -2.5t65.5 -0.5q10 0 15.5 -0.5t9.5 -0.5h8.5t13.5 1q-15 62 -35.5 118.5t-47.5 101.5t-61 74.5t-76 37.5zM28 -457q141 28 257 70.5t203.5 95t145 111.5
t81.5 120q-43 0 -91 1.5t-79 3.5q-116 10 -212 51.5t-153 112.5q-42 54 -59.5 117t-17.5 133q0 54 10 108.5t28 106t42.5 97.5t52.5 84q60 75 131.5 113.5t150.5 38.5q169 0 305 -148q48 -54 86 -121t64.5 -142.5t40.5 -158t14 -167.5q0 -26 -1.5 -52t-3.5 -49
q-12 -117 -52.5 -219.5t-104 -189t-147.5 -157t-182.5 -124t-208.5 -89.5t-226 -54z" />
    <glyph glyph-name="uniFEEE" unicode="&#x648;" horiz-adv-x="1043" arabic-form="final" 
d="M28 -457q141 28 255.5 70.5t201 95t142.5 111.5t80 120q-43 0 -87 1.5t-75 3.5q-116 10 -212 51.5t-153 112.5q-42 54 -59.5 117t-17.5 133q0 54 10 108.5t28 106t42.5 97.5t52.5 84q60 75 131.5 113.5t150.5 38.5q169 0 305 -148q42 -47 76 -104t60 -121.5t42.5 -134.5
t22.5 -143h19q33 0 62 -12t50.5 -33.5t34.5 -50.5t13 -63q0 -32 -13 -60.5t-34.5 -50t-50.5 -34t-62 -12.5h-44q-39 -147 -124.5 -266t-204 -208t-264 -147t-304.5 -83zM518 590q-22 0 -48.5 -19.5t-49.5 -49.5t-38.5 -67t-15.5 -72q0 -34 19 -56t48.5 -35.5t64.5 -20
t68 -9.5q18 -2 39.5 -2.5t44.5 -0.5t45.5 -0.5t41.5 -1.5q-7 49 -22 92t-33.5 80t-40 66.5t-41.5 51.5q-7 7 -17.5 15t-21.5 14.5t-22.5 10.5t-20.5 4z" />
    <glyph glyph-name="uni0649" unicode="&#x649;" horiz-adv-x="1733" arabic-form="isolated" 
d="M1358 890q30 8 61 11t61 3q67 0 138.5 -19.5t143.5 -57.5l-111 -293q-48 21 -91 32.5t-81 11.5q-26 0 -59 -6q-32 -3 -69 -18.5t-73.5 -39.5t-70.5 -55.5t-60.5 -66.5t-43.5 -72.5t-19 -72.5q-2 -28 16 -45.5t48 -30t68 -22t77 -21.5l29 -7q64 -15 127.5 -34t114.5 -53.5
t82.5 -90.5t31.5 -145q0 -18 -1.5 -37.5t-5.5 -40.5q-10 -54 -36 -105.5t-65.5 -98t-91 -87t-112.5 -72.5q-115 -57 -263 -88.5t-318 -31.5q-204 0 -360 59.5t-259 173.5q-78 93 -114.5 204t-36.5 232q0 26 2 52t4 49q4 72 16 141.5t27.5 131t33.5 114t33 92t25.5 63
t12.5 28.5l251 -105q-25 -59 -47.5 -115.5t-40 -116t-29 -125.5t-14.5 -144q-1 -11 -2 -24t-1 -23q0 -63 19.5 -124t64.5 -110q27 -31 70.5 -54.5t98.5 -40t118 -25t128 -8.5q127 0 237.5 17.5t194.5 46t135.5 66t59.5 76.5q-2 0 -12 2t-25.5 5.5t-35 8t-40.5 9.5l-54 12
q-89 22 -167.5 50.5t-137 75t-93 117t-34.5 178.5q5 115 48 224t116 199t170.5 153.5t211.5 87.5h-1z" />
    <glyph glyph-name="uniFEF0" unicode="&#x649;" horiz-adv-x="1715" arabic-form="final" 
d="M830 -712q-93 0 -191.5 10.5t-190 39.5t-170.5 81.5t-133 136.5q-51 81 -79 178t-28 217q0 88 7.5 167.5t23.5 157.5t41.5 158t61.5 170l257 -107q-29 -72 -49.5 -130t-34.5 -105.5t-22 -87.5t-12 -76.5t-5 -72t-1 -74.5q0 -75 24 -130t65 -93t94.5 -62.5t111.5 -37.5
t117.5 -18t112.5 -5q26 0 77 3.5t111.5 12t124 22.5t115.5 34.5t85 48t33 64.5q0 4 -16.5 14t-45 23.5t-66 30t-80.5 33.5h1q-48 15 -100.5 25.5t-103.5 18.5q-8 1 -20.5 3t-25.5 4.5t-25.5 5t-20.5 4.5l41 304h802q32 0 61 -12t50.5 -33.5t34.5 -50.5t13 -62t-13 -62
t-34.5 -50.5t-50.5 -33.5t-61 -12h-111q21 -40 30.5 -80.5t10.5 -69.5q-5 -94 -47.5 -167.5t-109.5 -129.5t-152 -95t-174 -63.5t-175.5 -35.5t-157.5 -11z" />
    <glyph glyph-name="uni066E.init" unicode="&#x66e;" horiz-adv-x="700" 
d="M-165 98q0 33 12.5 62t33.5 50.5t50 33.5t62 12h103h45q37 0 77.5 3t76 12t63 25t39.5 43q8 18 8 54q0 24 -14 72t-37 106.5t-52 122.5t-59 121l286 142q28 -63 55.5 -134t49.5 -144t35.5 -145.5t13.5 -138.5q0 -101 -36 -185q-42 -94 -115 -155.5t-175 -90.5
q-60 -17 -115 -20.5t-103 -3.5h-137h-9q-33 0 -62 12t-50 33.5t-33.5 50.5t-12.5 62z" />
    <glyph glyph-name="uni066E.medi" unicode="&#x66e;" horiz-adv-x="705" 
d="M-158 98q0 33 12 62t33.5 50t50.5 33.5t62 12.5h17q139 0 210 44.5t71 135.5q0 18 0.5 32t-3 36.5t-13 59t-28.5 100.5l285 69q21 -60 37 -134.5t16 -162.5q0 -29 5.5 -60.5t18 -58t34 -44t54.5 -17.5q32 0 61 -12.5t50.5 -33.5t34.5 -50t13 -62t-12.5 -62t-34.5 -50.5
t-50.5 -33.5t-60.5 -12q-96 0 -164 27.5t-117 73.5q-72 -52 -171.5 -76.5t-235.5 -24.5h-17q-33 0 -62 12t-50.5 33.5t-33.5 50.5t-12 62z" />
    <glyph glyph-name="uni066E.fina" unicode="&#x66e;" horiz-adv-x="2316" 
d="M2308 -60q-165 0 -279.5 54t-186.5 180q-142 -121 -343.5 -179t-470.5 -58q-159 1 -301.5 20.5t-259.5 59t-205 99t-138 140.5q-31 53 -45 122.5t-9 151t31.5 173t76.5 189.5l238 -138q-20 -39 -37 -76t-26 -77t-8.5 -85.5t15.5 -100.5q25 -43 89.5 -73t155.5 -49
t200 -28t223 -9q105 0 199 7.5t173.5 24t144 43t110.5 64.5q42 34 69 75t46 86.5t31.5 95.5t24.5 101l280 -71l-41 -212q-9 -46 4.5 -85t46.5 -67.5t84 -45t116 -16.5q33 0 62 -12t50.5 -33.5t34 -50.5t12.5 -62t-12.5 -62t-34 -50.5t-50.5 -33.5t-62 -12h-8z" />
    <glyph glyph-name="uni066F.init" unicode="&#x66f;" horiz-adv-x="925" 
d="M-161 98q0 33 12.5 62t34 50.5t51 33.5t62.5 12q37 0 91.5 1.5t116.5 5.5t126.5 10t123 16t106 23.5t74.5 31.5q-101 -11 -186 -8.5t-152 16.5t-114.5 38.5t-72.5 56.5v-1q-27 34 -50.5 91t-23.5 141q0 45 6 84q30 170 120 281l-1 -1q54 72 122 107.5t143 35.5
q76 0 150 -37t134 -100q43 -49 77.5 -111t59 -132t38 -145.5t13.5 -151.5q0 -23 -1 -45.5t-3 -42.5q-12 -104 -53 -179.5t-104.5 -128.5t-145.5 -86t-176 -52t-196.5 -26t-206.5 -8h-17q-33 0 -62 12.5t-50 33.5t-33.5 50t-12.5 62zM426 867q-23 1 -46.5 -13.5t-43 -38.5
t-32 -55t-12.5 -63q0 -28 13 -50q7 -12 28.5 -20.5t51 -14t63.5 -9t65 -4.5t56.5 0t37.5 3q-9 45 -23.5 91t-36.5 84t-52 63t-69 27z" />
    <glyph glyph-name="uni066F.medi" unicode="&#x66f;" horiz-adv-x="1057" 
d="M-160 98q0 34 12 63t33.5 50t50.5 33t62 12h68q20 0 40 -0.5t40 -0.5q18 0 24 -0.5t8.5 -1t6 -0.5t15.5 2q-18 20 -34.5 46t-30 56.5t-22.5 65t-11 72.5q1 94 32 181.5t88 159.5q63 78 145 122t170 40q87 -4 162 -45t129.5 -106t86 -147.5t31.5 -169.5q0 -69 -23 -135.5
t-58 -126.5q48 -5 100.5 -8.5t92.5 -3.5q34 0 63 -12t50.5 -33t33.5 -50t12 -63q0 -33 -12 -62t-33.5 -50.5t-50.5 -33.5t-63 -12h-9q-32 0 -70 1.5t-76 3.5t-74.5 5.5t-65.5 7.5q-54 8 -109.5 21t-115.5 42q-37 -21 -98.5 -36.5t-134.5 -25t-151 -14.5t-148 -5h-8
q-33 0 -62 12t-50.5 33.5t-33.5 50.5t-12 62zM681 507q0 32 -15.5 61t-38 52t-48.5 38.5t-47 21.5q-23 -5 -52.5 -18t-56 -36.5t-44.5 -57t-18 -79.5q0 -15 15.5 -41.5t40 -54t56 -51t64.5 -33.5q25 14 51 38.5t46.5 52t33.5 56t13 51.5z" />
    <glyph glyph-name="uni066F.fina" unicode="&#x66f;" horiz-adv-x="1570" 
d="M775 -381q87 0 162.5 24t137 66.5t107.5 101.5t73 129l-190 1q-118 10 -213 51.5t-152 114.5l1 -1q-42 51 -66 112t-24 133q0 54 12 109t32.5 107.5t46.5 99.5t54 84q58 75 130 114t151 39q168 0 305 -149q83 -94 134 -224t65 -275h29q33 0 62 -12t50.5 -33.5t34.5 -50.5
t13 -63q0 -32 -13 -60.5t-34.5 -50t-50.5 -34t-62 -12.5h-46q-11 -54 -31.5 -116.5t-53.5 -126.5q-42 -81 -104.5 -152t-131.5 -119q-88 -60 -197.5 -92.5t-234.5 -32.5q-103 0 -202.5 22t-177.5 60q-85 43 -153 104.5t-113 140.5v-1q-49 79 -74 171.5t-25 198.5
q0 75 7.5 143.5t24 136t43.5 137t66 146.5l252 -106q-39 -72 -63.5 -134.5t-38 -118t-18.5 -106t-5 -97.5q0 -89 40 -160t106.5 -120t153.5 -74.5t181 -24.5zM1037 585q-29 3 -58.5 -17.5t-53.5 -54t-38 -75.5t-11 -82v1q2 -27 29 -45.5t62 -30t69 -17t49 -6.5
q17 -2 40 -2.5t44 -0.5q35 0 60 0.5t48 1.5q-2 28 -11 62t-24 69t-35.5 69t-46.5 61t-57 45t-66 22z" />
    <glyph glyph-name="uniFBA8" unicode="&#x6c1;" horiz-adv-x="728" arabic-form="initial" 
d="M475 -561q-30 3 -54 15.5t-41 31.5t-26 43.5t-9 51.5q0 41 13 83t37 88t57.5 96t74.5 107q12 -8 21 -13.5t17.5 -10t17 -9.5t19.5 -11q-92 -143 -92 -222q0 -29 27 -52.5t90 -47.5q-20 -31 -42 -58.5t-43 -47.5t-38.5 -32t-27.5 -12h-1zM-165 98q0 33 12.5 62t33.5 50.5
t50 33.5t62 12h103h45q37 0 77.5 3t76 12t63 25t39.5 43q8 18 8 54q0 24 -14 72t-37 106.5t-52 122.5t-59 121l286 142q28 -63 55.5 -134t49.5 -144t35.5 -145.5t13.5 -138.5q0 -101 -36 -185q-42 -94 -115 -155.5t-175 -90.5q-60 -17 -115 -20.5t-103 -3.5h-137h-9
q-33 0 -62 12t-50 33.5t-33.5 50.5t-12.5 62z" />
    <glyph glyph-name="uniFBA9" unicode="&#x6c1;" horiz-adv-x="1059" arabic-form="medial" 
d="M443 325q-24 -60 -35 -120.5t-11 -100.5q0 -33 6.5 -86t21 -110.5t36.5 -112t53 -91.5q-6 36 -7.5 87t5 105t23.5 104t47 83l-3 -3q48 69 126 112t178 58q25 4 52 5t48 1h123v-316l-122 1q-18 0 -39 -3t-42 -8.5t-39.5 -14.5t-31.5 -21q-30 -26 -51.5 -66.5t-35.5 -87
t-21 -94.5t-7 -88q0 -15 0.5 -37t0.5 -35l-183 -102q-218 137 -313 308q-32 60 -55 123.5t-35 132.5q-32 -5 -73.5 -6.5t-99.5 -1.5v316q66 0 107 1.5t44 11.5q4 12 13.5 34t21 45.5t22 44t16.5 30.5zM927 -761q-34 0 -61 13t-46 35t-29 50.5t-10 58.5q0 83 53 179.5
t141 215.5q16 -11 25 -20t16.5 -17.5t15.5 -15.5t23 -14q-99 -152 -99 -228q0 -23 29.5 -45t95.5 -48q-21 -51 -43.5 -83t-43 -50t-38 -24.5t-29.5 -6.5z" />
    <glyph glyph-name="uni06BE" unicode="&#x6be;" horiz-adv-x="1703" arabic-form="isolated" 
d="M10 165q0 33 12.5 61.5t33.5 50t50 33.5t62 12h9q15 0 45 -10t68 -22t79 -21t78 -7q-35 60 -53 127.5t-18 136.5q0 52 10 104t30 99.5t50 90t71 77.5q-11 5 -19.5 10t-16.5 10l-16 9l193 284q43 -30 95 -61t108 -61.5t114 -59t114 -53.5q95 -44 165 -77.5t124 -66
t97 -68.5t84 -84q52 -66 75 -144t23 -151q0 -112 -57.5 -211.5t-169.5 -166.5q-31 -18 -72.5 -31t-86.5 -21.5t-89 -12.5t-80 -4q-85 0 -170 15t-163 47q-49 -14 -117 -22t-148 -8t-168.5 9t-178.5 28q-36 7 -66.5 20.5t-53 33t-35 46t-12.5 59.5zM830 746q-32 5 -65 -19
t-58.5 -62t-40 -83.5t-10.5 -84.5v1q3 -26 16 -53.5t32.5 -53t43 -45t46.5 -28.5q32 19 62.5 49.5t54.5 66.5t38.5 74t14.5 72q0 28 -13 56t-32.5 51.5t-43.5 39.5t-45 19zM1223 580q0 -85 -24 -168.5t-72 -155.5h9q57 0 108 10.5t89.5 28.5t61 43t22.5 55q0 24 -16.5 51.5
t-43.5 55t-62 53.5t-72 47v-20z" />
    <glyph glyph-name="uni06D2" unicode="&#x6d2;" horiz-adv-x="1937" arabic-form="isolated" 
d="M813 -203q-61 0 -120 2.5t-114 9.5q-81 9 -150.5 26t-127.5 41q-152 65 -205 175q-30 63 -23.5 129t44.5 132q39 69 112.5 112t173.5 70t221.5 43t255.5 31l-4 -279h1q-60 -7 -132.5 -19t-142 -25.5t-129.5 -28.5t-95 -28q-38 -14 -58 -27q17 -17 71.5 -29t136.5 -20
t187 -11.5t222.5 -3t243 5.5t249 13.5t239 21.5t214.5 29l-37 -283q-126 -32 -258 -50.5t-264 -28t-261.5 -10.5t-249.5 2z" />
    <glyph glyph-name="uniFBAF" unicode="&#x6d2;" horiz-adv-x="1337" arabic-form="final" 
d="M928 -522q-88 0 -180 4t-183 15q-162 18 -279 68q-151 64 -204 175q-59 123 20 249q68 107 230 170q37 14 109.5 31t176 31.5t237 24.5t293.5 10h183h7q33 0 61.5 -12.5t50 -34t34 -50t12.5 -61.5t-12.5 -61.5t-34 -50t-50 -34t-61.5 -12.5h-306q-1 0 -20 0.5t-51 0.5
h-73.5t-87.5 -2t-94 -5.5t-92 -9.5q-23 -3 -59 -7.5t-74 -10.5t-72 -12.5t-52 -13.5q-20 -8 -34 -15t-24 -13q35 -23 96 -39.5t137 -27.5t161.5 -17.5t168.5 -10t159 -3.5t133.5 0.5t91 2.5t32.5 3l74 -262q-5 0 -39.5 -3.5t-91.5 -7t-132.5 -6.5t-160.5 -3z" />
    <glyph glyph-name="uni06A9" unicode="&#x6a9;" horiz-adv-x="2162" arabic-form="isolated" 
d="M976 261q24 -1 48.5 -1.5t46.5 -0.5q79 0 151 6t133 16t107.5 21.5t74.5 22.5h-1q52 22 76 39t32 26q15 17 21.5 35.5t6.5 38.5q0 43 -33 92.5t-84.5 100.5t-114 102t-121.5 98l-209 172l33 296l902 393l124 -294l-705 -301q56 -47 113.5 -97t110.5 -102.5t99.5 -107
t81 -111t54.5 -114.5t20 -118q0 -66 -22.5 -134t-73.5 -140h1q-6 -9 -20.5 -26t-39 -38t-60.5 -44.5t-85 -46.5q-138 -61 -278 -82t-285 -21h-21h-43t-43 2q-187 2 -335 23.5t-260 63.5q-227 88 -312 258v-1q-48 93 -48 206q0 49 12 106t31 111q12 28 20.5 47t16.5 35t18 32
t25 39l237 -173q-14 -25 -30.5 -51t-30 -53t-22.5 -55t-9 -56q0 -39 27.5 -69.5t76 -53t114 -38.5t142 -27t160.5 -17t169 -9h1z" />
    <glyph glyph-name="uniFB8F" unicode="&#x6a9;" horiz-adv-x="2321" arabic-form="final" 
d="M2320 256q33 0 62 -12t50.5 -33.5t33.5 -50.5t12 -62t-12 -62t-33.5 -50t-50.5 -33.5t-62 -12.5q-159 0 -292.5 53.5t-232.5 159.5q-36 -38 -80.5 -65t-92.5 -48q-56 -25 -121.5 -44t-146 -31.5t-178.5 -18.5t-219 -6q-93 1 -172.5 7t-149 16.5t-130.5 26.5t-117 37
q-227 88 -312 258v-1q-48 93 -48 206q0 49 12 106t31 111q10 27 18 45t16.5 34t19 32.5t27.5 39.5l236 -172q-13 -22 -28.5 -48t-29.5 -54.5t-23.5 -58t-9.5 -57.5q0 -42 34 -74t91 -55.5t132.5 -39t159.5 -25t170.5 -13.5t166.5 -4q77 0 151 6t138 15.5t113.5 21t78.5 21.5
h-1q75 29 108 66t33 79q0 45 -23 97t-60.5 106t-85.5 107.5t-98.5 102t-99.5 90t-88 71.5l32 273l923 387l112 -278l-767 -311q72 -57 132 -116.5t110 -122.5t90.5 -130.5t74.5 -141.5v1q15 -43 37 -88t51 -87t64 -77.5t77 -60.5h-1q33 -15 69.5 -23t90.5 -9h8z" />
    <glyph glyph-name="uni06AF" unicode="&#x6af;" horiz-adv-x="2162" arabic-form="isolated" 
d="M976 260q24 -1 48.5 -1.5t46.5 -0.5q79 0 151 6t133 16t107.5 21.5t74.5 22.5h-1q52 22 76 39t32 26q15 17 21.5 35.5t6.5 38.5q0 43 -33 92.5t-84.5 100.5t-114 102t-121.5 98l-209 172l33 296l902 393l124 -294l-705 -301q56 -47 113.5 -97t110.5 -102.5t99.5 -107
t81 -111t54.5 -114.5t20 -118q0 -66 -22.5 -134t-73.5 -140h1q-6 -9 -20.5 -26t-39 -38t-60.5 -44.5t-85 -46.5q-138 -61 -278 -82t-285 -21h-21h-43t-43 2q-187 2 -335 23.5t-260 63.5q-227 88 -312 258v-1q-48 93 -48 206q0 49 12 106t31 111q12 28 20.5 47t16.5 35t18 32
t25 39l237 -173q-14 -25 -30.5 -51t-30 -53t-22.5 -55t-9 -56q0 -39 27.5 -69.5t76 -53t114 -38.5t142 -27t160.5 -17t169 -9h1zM1992 1817l-828 -350l8 150l765 319z" />
    <glyph glyph-name="uniFB94" unicode="&#x6af;" horiz-adv-x="1064" arabic-form="initial" 
d="M-164 97q0 34 12 63t34.5 50.5t53 33.5t68.5 12h56h49q54 0 119 1.5t125.5 10t109 25.5t70.5 47q30 46 30 105q0 20 -3.5 40.5t-8.5 42.5q-7 25 -29.5 60.5t-57.5 78t-80 90t-96 97t-107 98.5t-112 95l31 272l840 374l121 -268l-664 -308q49 -34 101 -81t101 -102.5
t92 -117.5t75 -127t50.5 -131t17.5 -129q-1 -75 -20 -139.5t-47 -115.5q-104 -186 -343 -227l1 1q-27 -5 -51 -7t-47 -2l-323 1q-37 0 -68 12t-53 33.5t-34.5 50t-12.5 61.5zM900 1797l-828 -350l8 150l765 319z" />
    <glyph glyph-name="uniFB95" unicode="&#x6af;" horiz-adv-x="1197" arabic-form="medial" 
d="M-158 98q0 33 12.5 62t34.5 50t51 33.5t61 12.5h9h330q29 0 66.5 12t71.5 31.5t59 44t29 49.5q3 50 -18 108t-58.5 118.5t-86.5 121t-102 115.5t-106 102t-98 81l27 275l919 385l116 -275l-759 -310q69 -64 125 -124.5t102.5 -120.5t85 -121t71.5 -125l10 -18l-1 1
q23 -42 45.5 -83.5t48.5 -83.5q24 -38 52.5 -70.5t62.5 -57.5t72.5 -39.5t82.5 -15.5h-1h42q33 0 62 -12.5t50.5 -33.5t33.5 -50t12 -62t-12 -62t-33.5 -50.5t-50.5 -33.5t-62 -12h-8q-76 0 -135.5 10t-117.5 29q-60 22 -112 59t-97 83q-11 -14 -25 -29t-28 -29
q-38 -34 -80 -56.5t-86 -37t-90 -21t-92 -8.5h-326q-32 0 -61 12t-51 33.5t-34.5 50.5t-12.5 62zM957 1807l-828 -350l8 150l765 319z" />
    <glyph glyph-name="uniFB93" unicode="&#x6af;" horiz-adv-x="2309" arabic-form="final" 
d="M2320 256q33 0 62 -12t50.5 -33.5t33.5 -50.5t12 -62t-12 -62t-33.5 -50t-50.5 -33.5t-62 -12.5q-159 0 -292.5 53.5t-232.5 159.5q-36 -38 -80.5 -65t-92.5 -48q-56 -25 -121.5 -44t-146 -31.5t-178.5 -18.5t-219 -6q-93 1 -172.5 7t-149 16.5t-130.5 26.5t-117 37
q-227 88 -312 258v-1q-48 93 -48 206q0 49 12 106t31 111q10 27 18 45t16.5 34t19 32.5t27.5 39.5l236 -172q-13 -22 -28.5 -48t-29.5 -54.5t-23.5 -58t-9.5 -57.5q0 -42 34 -74t91 -55.5t132.5 -39t159.5 -25t170.5 -13.5t166.5 -4q77 0 151 6t138 15.5t113.5 21t78.5 21.5
h-1q75 29 108 66t33 79q0 45 -23 97t-60.5 106t-85.5 107.5t-98.5 102t-99.5 90t-88 71.5l32 273l923 387l112 -278l-767 -311q72 -57 132 -116.5t110 -122.5t90.5 -130.5t74.5 -141.5v1q15 -43 37 -88t51 -87t64 -77.5t77 -60.5h-1q33 -15 69.5 -23t90.5 -9h8zM2131 1831
l-897 -390l8 150l834 359z" />
    <glyph glyph-name="uni06BA" unicode="&#x6ba;" horiz-adv-x="1630" arabic-form="isolated" 
d="M813 -749q-69 0 -141.5 6.5t-143.5 25t-137 50.5t-123 83q-57 50 -98.5 110.5t-68.5 128.5t-40.5 142t-13.5 151q0 164 52.5 331t155.5 323l225 -162q-20 -27 -47 -81t-52 -123t-42 -146.5t-17 -149.5q0 -83 37.5 -150t100 -115t144 -75t169.5 -29q71 -1 138 12t127 38
t109.5 61t85 80.5t54 96.5t15.5 109q-2 43 -16 97t-33.5 110.5t-43 111.5t-44 101.5t-35.5 79.5t-19 45l272 151q3 -4 17.5 -36t35 -82.5t43.5 -115.5t43.5 -136t35.5 -144t19 -139q1 -8 1 -19.5v-19.5q0 -89 -20 -177t-61.5 -168.5t-104 -149t-147.5 -119t-193 -79
t-239 -28.5z" />
    <glyph glyph-name="uniFB9F" unicode="&#x6ba;" horiz-adv-x="1709" arabic-form="final" 
d="M1707 -60q-92 0 -179 29q-3 -81 -22 -165t-54.5 -161.5t-89 -143.5t-125.5 -112q-102 -66 -223.5 -100t-277.5 -34q-174 0 -298.5 41.5t-216.5 120.5q-56 50 -97.5 110.5t-68.5 128t-40.5 141t-13.5 149.5q0 86 12 163.5t37 155.5t62.5 160t88.5 177l225 -162
q-29 -52 -56 -116.5t-47.5 -133t-33 -136.5t-12.5 -127q0 -78 38 -143t100.5 -111.5t142.5 -73t165 -27.5q117 -2 214 18.5t167 65.5t108.5 116t38.5 171q0 58 -17 123.5t-44.5 136t-64 145t-75.5 152.5l273 173l101 -195q41 -83 79.5 -127.5t74.5 -65t68.5 -24t60.5 -3.5
q33 0 62 -12t50.5 -33.5t34 -50.5t12.5 -62t-12.5 -62t-34 -50t-50.5 -33.5t-62 -12.5z" />
    <glyph glyph-name="uniFEAA" unicode="&#x62f;" horiz-adv-x="1253" arabic-form="final" 
d="M534 -60q-131 0 -256.5 50t-232.5 161l181 255q49 -45 95 -73.5t88 -44.5t79.5 -22t70.5 -6q15 0 34 1t38 3.5t37 6.5t33 10q52 22 82 44q-38 92 -82.5 191.5t-89.5 200t-89 199.5t-82 190l292 122l89 -216q43 -106 103 -251.5t138 -329.5q18 -44 33 -77t35.5 -55
t49 -32.5t73.5 -10.5q32 0 61 -12t50.5 -33.5t34.5 -50.5t13 -62t-13 -62t-34.5 -50.5t-50.5 -33.5t-61 -12q-61 0 -107.5 8t-83 22.5t-65 35t-53.5 45.5q-27 -18 -57 -34.5t-69 -32.5q-60 -23 -129.5 -33.5t-154.5 -10.5z" />
    <glyph glyph-name="uni06C1" unicode="&#x6c1;" horiz-adv-x="1360" arabic-form="final" 
d="M1360 256q33 0 61.5 -12.5t50 -34t34 -50t12.5 -61.5t-12.5 -61.5t-34 -50t-50 -34t-61.5 -12.5q-3 0 -5.5 0.5t-5.5 0.5q-83 1 -149 26.5t-121.5 66.5t-103.5 92.5t-94 105.5q-29 34 -58.5 70.5t-59.5 66.5t-61 49t-63 19q-14 0 -29 -2.5t-32 -7.5q-39 -15 -72.5 -53.5
t-61.5 -92t-50 -117.5t-40 -129l-300 80q27 100 63.5 193.5t88 171t120.5 134.5t160 85q42 13 79.5 18.5t73.5 5.5q83 0 150.5 -25t124.5 -66t105.5 -92.5t95.5 -105.5q27 -32 56.5 -63t59.5 -56t61 -41.5t61 -17.5h1h6v0z" />
    <glyph glyph-name="uni0686" unicode="&#x686;" horiz-adv-x="1614" arabic-form="isolated" 
d="M1549 -495q-60 -54 -139 -100.5t-169.5 -81t-190.5 -54t-202 -19.5q-167 0 -311.5 46t-251.5 134t-168.5 215.5t-61.5 291.5v23.5t1 24.5q9 104 57 196.5t124 171.5t176.5 143t214.5 111.5t236.5 77t244.5 38.5q-58 19 -119.5 51t-122.5 63t-120 53t-111 20
q-50 -2 -94.5 -20t-85 -45.5t-76 -62.5t-66.5 -70l-221 161q51 73 102.5 136.5t113.5 111t141 75.5t185 31q63 2 125 -15t122.5 -45.5t118.5 -64t113 -71.5q54 -36 95.5 -64.5t76 -51t65 -39.5t61.5 -30.5t65.5 -23t77.5 -17.5l-95 -333l-93 2q-71 0 -152.5 -9.5
t-167.5 -27.5t-172.5 -44.5t-166.5 -60.5t-149 -75.5t-121 -90t-82.5 -103t-32.5 -115.5q-2 -67 20 -121t62 -95.5t94.5 -71.5t117.5 -49t132 -28t137 -9t133.5 8.5t130 28t128 51.5t128.5 80zM973.406 -152.796l-158.717 158.705l-160.404 -160.394l-162.094 162.926
l163.781 162.927l158.717 -158.705l160.406 160.394l162.094 -162.927zM815.534 -83.5732l150.274 -150.264l-151.119 -151.108l-150.273 150.264z" />
    <glyph glyph-name="uniFB7B" unicode="&#x686;" horiz-adv-x="1703" arabic-form="final" 
d="M1569 -595q-80 -57 -165 -103.5t-175.5 -79.5t-187 -51t-198.5 -18q-167 0 -312 46t-252.5 134t-169.5 215.5t-62 291.5v23.5t1 24.5q9 104 60 196t132.5 170.5t188 142t227 110t249 75.5t253.5 38q-53 29 -120.5 62.5t-139 62.5t-140 48.5t-123.5 19.5
q-36 0 -78.5 -14.5t-83 -39.5t-75 -59t-55.5 -73l-225 153q44 77 99 141.5t119.5 111t139.5 72t159 25.5q63 0 127 -15.5t126.5 -41t122 -58.5t114.5 -69q82 -53 149.5 -92.5t128 -68t119.5 -48t124 -32.5l-93 -315l-154 -23q13 -36 47 -58t77 -34t90 -15.5t87 -3.5
q32 0 61 -13t50.5 -34.5t34.5 -50.5t13 -62t-13 -61.5t-34.5 -49.5t-50.5 -33t-61 -12q-122 0 -214 20.5t-159.5 54t-113 75.5t-74 85t-43 83t-19.5 69q-84 -16 -172 -40t-171.5 -56.5t-157 -72t-129.5 -86.5t-89 -101t-35 -114q-3 -101 45.5 -173t128.5 -118t181 -67.5
t203 -21.5q67 0 138 11t141.5 31.5t137.5 50.5t127 68zM945.547 -227.928l-158.717 158.705l-160.405 -160.394l-162.094 162.926l163.782 162.927l158.717 -158.705l160.405 160.394l162.094 -162.927zM787.674 -158.705l150.275 -150.264l-151.119 -151.107
l-150.274 150.263z" />
    <glyph glyph-name="uni0623" unicode="&#x623;" horiz-adv-x="525" arabic-form="isolated" 
d="M131 -63q5 77 9.5 161t7.5 166t5 159.5t2 141.5q0 167 -5 287t-12 205.5t-15.5 143t-15.5 101.5l-13 76l311 99q4 -14 7 -26t5.5 -28.5t6 -40.5t7.5 -63t9.5 -95t13.5 -137q5 -78 8.5 -140t5.5 -121t3 -121.5t1 -141.5q0 -130 -4 -275.5t-15 -305.5zM319 1911l-16 2
t-16 3q-14 2 -31.5 3.5t-33.5 1.5q-26 0 -53 -9.5t-48 -25.5t-31 -38.5t-1 -47.5v1q7 -16 23.5 -30t39 -23t49 -10.5t52.5 7.5q26 8 57.5 25t57.5 34q16 10 31 20t30 21l62 -146q-18 -11 -35 -22t-40.5 -25.5t-57 -34t-83.5 -48t-120 -67t-166 -90.5l-51 145l129 76
q-29 21 -51.5 49t-36.5 60q-16 35 -16 86q0 35 11.5 68.5t31.5 62.5t47.5 52.5t60.5 37.5q26 11 53.5 16t56.5 5q24 0 49 -3.5t45 -7.5q12 -2 23.5 -4.5t22.5 -5.5z" />
    <glyph glyph-name="uniFE84" unicode="&#x623;" horiz-adv-x="673" arabic-form="final" 
d="M658 -60q-123 0 -211 30.5t-152 93.5q-40 40 -61.5 84t-31 86.5t-11 80.5t-1.5 65q1 48 2.5 119.5t1.5 165.5t-1 200.5t-5.5 197t-13 173.5t-23.5 160l308 93q12 -66 19 -139.5t11 -159.5t6 -164.5t3 -163.5q0 -25 0.5 -54t0.5 -58.5t0.5 -56.5t0.5 -48q0 -52 -0.5 -95
t-1.5 -85q0 -15 -0.5 -39.5t-0.5 -39.5q-1 -33 0.5 -61t12.5 -38q13 -14 50.5 -21.5t88.5 -8.5h9q32 0 61 -13t50.5 -34.5t34.5 -50.5t13 -61q0 -33 -13 -62t-34.5 -50.5t-50.5 -33.5t-61 -12zM414 1951l-16 2t-16 3q-14 2 -31.5 3.5t-33.5 1.5q-26 0 -53 -9.5t-48 -25.5
t-31 -38.5t-1 -47.5v1q7 -16 23.5 -30t39 -23t49 -10.5t52.5 7.5q26 8 57.5 25t57.5 34q16 10 31 20t30 21l62 -146q-18 -11 -35 -22t-40.5 -25.5t-57 -34t-83.5 -48t-120 -67t-166 -90.5l-51 145l129 76q-29 21 -51.5 49t-36.5 60q-16 35 -16 86q0 35 11.5 68.5t31.5 62.5
t47.5 52.5t60.5 37.5q26 11 53.5 16t56.5 5q24 0 49 -3.5t45 -7.5q12 -2 23.5 -4.5t22.5 -5.5z" />
    <glyph glyph-name="uni0625" unicode="&#x625;" horiz-adv-x="525" arabic-form="isolated" 
d="M112 -63q5 77 9.5 161t7.5 166t5 159.5t2 141.5q0 167 -5 287t-12 205.5t-15.5 143t-15.5 101.5l-13 76l311 99q4 -14 7 -26t5.5 -28.5t6 -40.5t7.5 -63t9.5 -95t13.5 -137q5 -78 8.5 -140t5.5 -121t3 -121.5t1 -141.5q0 -130 -4 -275.5t-15 -305.5zM411 -328l-16 2
t-16 3q-14 2 -31.5 3.5t-33.5 1.5q-26 0 -53 -9.5t-48 -25.5t-31 -38.5t-1 -47.5v1q7 -16 23.5 -30t39 -23t49 -10.5t52.5 7.5q26 8 57.5 25t57.5 34q16 10 31 20t30 21l62 -146q-18 -11 -35 -22t-40.5 -25.5t-57 -34t-83.5 -48t-120 -67t-166 -90.5l-51 145l129 76
q-29 21 -51.5 49t-36.5 60q-16 35 -16 86q0 35 11.5 68.5t31.5 62.5t47.5 52.5t60.5 37.5q26 11 53.5 16t56.5 5q24 0 49 -3.5t45 -7.5q12 -2 23.5 -4.5t22.5 -5.5z" />
    <glyph glyph-name="uniFE88" unicode="&#x625;" horiz-adv-x="673" arabic-form="final" 
d="M658 -60q-123 0 -211 30.5t-152 93.5q-40 40 -61.5 84t-31 86.5t-11 80.5t-1.5 65q1 48 2.5 119.5t1.5 165.5t-1 200.5t-5.5 197t-13 173.5t-23.5 160l308 93q12 -66 19 -139.5t11 -159.5t6 -164.5t3 -163.5q0 -25 0.5 -54t0.5 -58.5t0.5 -56.5t0.5 -48q0 -52 -0.5 -95
t-1.5 -85q0 -15 -0.5 -39.5t-0.5 -39.5q-1 -33 0.5 -61t12.5 -38q13 -14 50.5 -21.5t88.5 -8.5h9q32 0 61 -13t50.5 -34.5t34.5 -50.5t13 -61q0 -33 -13 -62t-34.5 -50.5t-50.5 -33.5t-61 -12zM519 -292l-16 2t-16 3q-14 2 -31.5 3.5t-33.5 1.5q-26 0 -53 -9.5t-48 -25.5
t-31 -38.5t-1 -47.5v1q7 -16 23.5 -30t39 -23t49 -10.5t52.5 7.5q26 8 57.5 25t57.5 34q16 10 31 20t30 21l62 -146q-18 -11 -35 -22t-40.5 -25.5t-57 -34t-83.5 -48t-120 -67t-166 -90.5l-51 145l129 76q-29 21 -51.5 49t-36.5 60q-16 35 -16 86q0 35 11.5 68.5t31.5 62.5
t47.5 52.5t60.5 37.5q26 11 53.5 16t56.5 5q24 0 49 -3.5t45 -7.5q12 -2 23.5 -4.5t22.5 -5.5z" />
    <glyph glyph-name="uni0622" unicode="&#x622;" horiz-adv-x="749" arabic-form="isolated" 
d="M204 -63q5 77 9.5 161t7.5 166t5 159.5t2 141.5q0 167 -5 287t-12 205.5t-15.5 143t-15.5 101.5l-13 76l311 99q4 -14 7 -26t5.5 -28.5t6 -40.5t7.5 -63t9.5 -95t13.5 -137q5 -78 8.5 -140t5.5 -121t3 -121.5t1 -141.5q0 -130 -4 -275.5t-15 -305.5zM-63 1538
q0 6 6.5 22.5t15 35.5t16.5 35.5t11 21.5q36 55 84.5 90t96.5 46q10 2 25 2.5t24 0.5q48 0 87 -11.5t70 -25.5l31 -15q17 -8 34 -14.5t36 -7.5q16 -1 33 8t33.5 24.5t32 34.5t29.5 38l156 -101q-1 -3 -11 -18.5t-28.5 -37.5t-44 -46.5t-57.5 -45t-69.5 -33.5t-79.5 -12
q-31 -2 -63 12.5t-65.5 31t-68.5 28t-73 3.5q-23 -5 -37.5 -17.5t-24.5 -29t-17 -35.5t-15 -37z" />
    <glyph glyph-name="uniFE82" unicode="&#x622;" horiz-adv-x="674" arabic-form="final" 
d="M658 -60q-123 0 -211 30.5t-152 93.5q-40 40 -61.5 84t-31 86.5t-11 80.5t-1.5 65q1 48 2.5 119.5t1.5 165.5t-1 200.5t-5.5 197t-13 173.5t-23.5 160l308 93q12 -66 19 -139.5t11 -159.5t6 -164.5t3 -163.5q0 -25 0.5 -54t0.5 -58.5t0.5 -56.5t0.5 -48q0 -52 -0.5 -95
t-1.5 -85q0 -15 -0.5 -39.5t-0.5 -39.5q-1 -33 0.5 -61t12.5 -38q13 -14 50.5 -21.5t88.5 -8.5h9q32 0 61 -13t50.5 -34.5t34.5 -50.5t13 -61q0 -33 -13 -62t-34.5 -50.5t-50.5 -33.5t-61 -12zM-97 1565q0 6 6.5 22.5t15 35.5t16.5 35.5t11 21.5q36 55 84.5 90t96.5 46
q10 2 25 2.5t24 0.5q48 0 87 -11.5t70 -25.5l31 -15q17 -8 34 -14.5t36 -7.5q16 -1 33 8t33.5 24.5t32 34.5t29.5 38l156 -101q-1 -3 -11 -18.5t-28.5 -37.5t-44 -46.5t-57.5 -45t-69.5 -33.5t-79.5 -12q-31 -2 -63 12.5t-65.5 31t-68.5 28t-73 3.5q-23 -5 -37.5 -17.5
t-24.5 -29t-17 -35.5t-15 -37z" />
    <glyph glyph-name="uni0671" unicode="&#x671;" horiz-adv-x="573" arabic-form="isolated" 
d="M127 -63q5 77 9.5 161t7.5 166t5 159.5t2 141.5q0 167 -5 287t-12 205.5t-15.5 143t-15.5 101.5l-13 76l311 99q4 -14 7 -26t5.5 -28.5t6 -40.5t7.5 -63t9.5 -95t13.5 -137q5 -78 8.5 -140t5.5 -121t3 -121.5t1 -141.5q0 -130 -4 -275.5t-15 -305.5zM-86 1678
q33 20 61 33q25 12 52 20.5t44 4.5q12 -1 24 -5t22 -9q5 -3 11 -6t11 -7q14 23 34.5 52t46.5 55q37 35 86.5 58.5t106.5 23.5q36 0 68.5 -14t57.5 -40t35 -57.5t6.5 -63.5t-19.5 -63t-44 -56q-47 -33 -110.5 -52.5t-128.5 -20.5t-124 20t-97 70q-17 -2 -37 -10.5t-37 -18.5
q-10 -5 -19.5 -11.5t-19.5 -13.5zM484 1755q-17 19 -40 23t-48 -2t-50.5 -19.5t-48 -30t-40 -33.5t-26.5 -29h26q22 0 53.5 2t63.5 6.5t59 11.5t41 18l-1 -1q17 14 19 37l-4 10t-4 7z" />
    <glyph glyph-name="uniFB51" unicode="&#x671;" horiz-adv-x="669" arabic-form="final" 
d="M658 -60q-123 0 -211 30.5t-152 93.5q-40 40 -61.5 84t-31 86.5t-11 80.5t-1.5 65q1 48 2.5 119.5t1.5 165.5t-1 200.5t-5.5 197t-13 173.5t-23.5 160l308 93q12 -66 19 -139.5t11 -159.5t6 -164.5t3 -163.5q0 -25 0.5 -54t0.5 -58.5t0.5 -56.5t0.5 -48q0 -52 -0.5 -95
t-1.5 -85q0 -15 -0.5 -39.5t-0.5 -39.5q-1 -33 0.5 -61t12.5 -38q13 -14 50.5 -21.5t88.5 -8.5h9q32 0 61 -13t50.5 -34.5t34.5 -50.5t13 -61q0 -33 -13 -62t-34.5 -50.5t-50.5 -33.5t-61 -12zM-21 1694q33 20 61 33q25 12 52 20.5t44 4.5q12 -1 24 -5t22 -9q5 -3 11 -6
t11 -7q14 23 34.5 52t46.5 55q37 35 86.5 58.5t106.5 23.5q36 0 68.5 -14t57.5 -40t35 -57.5t6.5 -63.5t-19.5 -63t-44 -56q-47 -33 -110.5 -52.5t-128.5 -20.5t-124 20t-97 70q-17 -2 -37 -10.5t-37 -18.5q-10 -5 -19.5 -11.5t-19.5 -13.5zM549 1771q-17 19 -40 23t-48 -2
t-50.5 -19.5t-48 -30t-40 -33.5t-26.5 -29h26q22 0 53.5 2t63.5 6.5t59 11.5t41 18l-1 -1q17 14 19 37l-4 10t-4 7z" />
    <glyph glyph-name="uni0628" unicode="&#x628;" horiz-adv-x="2004" arabic-form="isolated" 
d="M998 -60q-188 0 -336.5 22.5t-260.5 64.5q-227 88 -312 258v-1q-48 93 -48 206q0 49 12 106t31 111q24 63 52 111.5t58 102.5l235 -197q-15 -21 -35 -54.5t-38.5 -70.5t-31 -74.5t-12.5 -65.5q0 -20 6 -33q20 -41 79.5 -72t149.5 -52.5t205 -32.5t246 -11q71 0 161.5 7
t186.5 22.5t191 40t174 59.5q-12 47 -28.5 90t-40.5 89.5t-57 99.5t-78 121l246 160q18 -29 42 -71t48.5 -90.5t48 -102.5t42 -108t28.5 -105.5t8 -96.5q-5 -84 -58 -148.5t-135.5 -112.5t-186 -81t-210 -53t-206.5 -29t-176 -9zM1005 -136l222 -222l-222 -222l-222 222z
" />
    <glyph glyph-name="uniFE91" unicode="&#x628;" horiz-adv-x="729" arabic-form="initial" 
d="M-165 98q0 33 12.5 62t33.5 50.5t50 33.5t62 12h103h45q37 0 77.5 3t76 12t63 25t39.5 43q8 18 8 54q0 24 -14 72t-37 106.5t-52 122.5t-59 121l286 142q28 -63 55.5 -134t49.5 -144t35.5 -145.5t13.5 -138.5q0 -101 -36 -185q-42 -94 -115 -155.5t-175 -90.5
q-60 -17 -115 -20.5t-103 -3.5h-137h-9q-33 0 -62 12t-50 33.5t-33.5 50.5t-12.5 62zM289 -151l222 -222l-222 -222l-222 222z" />
    <glyph glyph-name="uniFE92" unicode="&#x628;" horiz-adv-x="718" arabic-form="medial" 
d="M-158 98q0 33 12 62t33.5 50t50.5 33.5t62 12.5h17q139 0 210 44.5t71 135.5q0 18 0.5 32t-3 36.5t-13 59t-28.5 100.5l285 69q21 -60 37 -134.5t16 -162.5q0 -29 5.5 -60.5t18 -58t34 -44t54.5 -17.5q32 0 61 -12.5t50.5 -33.5t34.5 -50t13 -62t-12.5 -62t-34.5 -50.5
t-50.5 -33.5t-60.5 -12q-96 0 -164 27.5t-117 73.5q-72 -52 -171.5 -76.5t-235.5 -24.5h-17q-33 0 -62 12t-50.5 33.5t-33.5 50.5t-12 62zM384 -136l222 -222l-222 -222l-222 222z" />
    <glyph glyph-name="uniFE90" unicode="&#x628;" horiz-adv-x="2305" arabic-form="final" 
d="M2294 -60q-165 0 -279.5 54t-186.5 180q-142 -121 -343.5 -179t-470.5 -58q-159 1 -301.5 20.5t-259.5 59t-205 99t-138 140.5q-31 53 -45 122.5t-9 151t31.5 173t76.5 189.5l238 -138q-20 -39 -37 -76t-26 -77t-8.5 -85.5t15.5 -100.5q25 -43 89.5 -73t155.5 -49
t200 -28t223 -9q105 0 199 7.5t173.5 24t144 43t110.5 64.5q42 34 69 75t46 86.5t31.5 95.5t24.5 101l280 -71l-41 -212q-9 -46 4.5 -85t46.5 -67.5t84 -45t116 -16.5q33 0 62 -12t50.5 -33.5t34 -50.5t12.5 -62t-12.5 -62t-34 -50.5t-50.5 -33.5t-62 -12h-8zM1050 -137
l222 -222l-222 -222l-222 222z" />
    <glyph glyph-name="uni067E" unicode="&#x67e;" horiz-adv-x="2032" arabic-form="isolated" 
d="M992 -60q-188 0 -336.5 22.5t-260.5 64.5q-227 88 -312 258v-1q-48 93 -48 206q0 49 12 106t31 111q24 63 52 111.5t58 102.5l235 -197q-15 -21 -35 -54.5t-38.5 -70.5t-31 -74.5t-12.5 -65.5q0 -20 6 -33q20 -41 79.5 -72t149.5 -52.5t205 -32.5t246 -11q71 0 161.5 7
t186.5 22.5t191 40t174 59.5q-12 47 -28.5 90t-40.5 89.5t-57 99.5t-78 121l246 160q18 -29 42 -71t48.5 -90.5t48 -102.5t42 -108t28.5 -105.5t8 -96.5q-5 -84 -58 -148.5t-135.5 -112.5t-186 -81t-210 -53t-206.5 -29t-176 -9zM1196 -575l-188 188l-190 -190l-192 193
l194 193l188 -188l190 190l192 -193zM1009 -493l178 -178l-179 -179l-178 178z" />
    <glyph glyph-name="uniFB57" unicode="&#x67e;" horiz-adv-x="2282" arabic-form="final" 
d="M2285 -60q-165 0 -279.5 54t-186.5 180q-142 -121 -343.5 -179t-470.5 -58q-159 1 -301.5 20.5t-259.5 59t-205 99t-138 140.5q-31 53 -45 122.5t-9 151t31.5 173t76.5 189.5l238 -138q-20 -39 -37 -76t-26 -77t-8.5 -85.5t15.5 -100.5q25 -43 89.5 -73t155.5 -49
t200 -28t223 -9q105 0 199 7.5t173.5 24t144 43t110.5 64.5q42 34 69 75t46 86.5t31.5 95.5t24.5 101l280 -71l-41 -212q-9 -46 4.5 -85t46.5 -67.5t84 -45t116 -16.5q33 0 62 -12t50.5 -33.5t34 -50.5t12.5 -62t-12.5 -62t-34 -50.5t-50.5 -33.5t-62 -12h-8zM1257 -586
l-188 188l-190 -190l-192 193l194 193l188 -188l190 190l192 -193zM1070 -504l178 -178l-179 -179l-178 178z" />
    <glyph glyph-name="uniFB58" unicode="&#x67e;" horiz-adv-x="859" arabic-form="initial" 
d="M-158 98q0 33 12.5 62t33.5 50.5t50 33.5t62 12h111h48q45 0 99 4t104 13t90.5 24.5t59.5 39.5q11 17 11 46q0 43 -20.5 102t-48.5 120t-57.5 117t-47.5 93l285 140q31 -54 60 -127.5t52 -151t37 -152t14 -129.5q0 -101 -36 -185q-42 -94 -115 -155.5t-175 -90.5
q-30 -8 -75 -13t-91 -7.5t-87 -3t-64 -0.5h-145h-9q-33 0 -62 12t-50 33.5t-33.5 50.5t-12.5 62zM595 -570l-188 188l-190 -190l-192 193l194 193l188 -188l190 190l192 -193zM408 -488l178 -178l-179 -179l-178 178z" />
    <glyph glyph-name="uniFB59" unicode="&#x67e;" horiz-adv-x="859" arabic-form="medial" 
d="M-165 98q0 33 12 62t33.5 50.5t50.5 33.5t62 12h76q72 0 138.5 6t117.5 25.5t82.5 55t33.5 94.5q1 22 0.5 36.5t-5.5 35t-14.5 54t-26.5 94.5l291 82q19 -48 35 -127t24 -173q2 -30 7 -62t16.5 -59t31.5 -44.5t52 -17.5q33 0 62 -12t50.5 -33.5t34 -50.5t12.5 -62
t-12.5 -62t-34.5 -50.5t-50.5 -33.5t-60.5 -12q-96 0 -164.5 29.5t-117.5 76.5q-45 -30 -103.5 -50t-124.5 -32.5t-136 -18t-138 -5.5h-76q-33 0 -62 12t-50.5 33.5t-33.5 50.5t-12 62zM602 -569l-188 188l-190 -190l-192 193l194 193l188 -188l190 190l192 -193zM415 -487
l178 -178l-179 -179l-178 178z" />
    <glyph glyph-name="uni062A" unicode="&#x62a;" horiz-adv-x="1993" arabic-form="isolated" 
d="M979 -60q-188 0 -336.5 22.5t-260.5 64.5q-227 88 -312 258v-1q-48 93 -48 206q0 49 12 106t31 111q24 63 52 111.5t58 102.5l235 -197q-15 -21 -35 -54.5t-38.5 -70.5t-31 -74.5t-12.5 -65.5q0 -20 6 -33q20 -41 79.5 -72t149.5 -52.5t205 -32.5t246 -11q71 0 161.5 7
t186.5 22.5t191 40t174 59.5q-12 47 -28.5 90t-40.5 89.5t-57 99.5t-78 121l246 160q18 -29 42 -71t48.5 -90.5t48 -102.5t42 -108t28.5 -105.5t8 -96.5q-5 -84 -58 -148.5t-135.5 -112.5t-186 -81t-210 -53t-206.5 -29t-176 -9zM1389 989l-192 -193l-190 190l-188 -188
l-194 193l192 193l190 -190l188 188z" />
    <glyph glyph-name="uniFE97" unicode="&#x62a;" horiz-adv-x="813" arabic-form="initial" 
d="M807 1245l-192 -193l-190 190l-188 -188l-194 193l192 193l190 -190l188 188zM-194 98q0 33 12.5 62t33.5 50.5t50 33.5t62 12h111h48q45 0 99 4t104 13t90.5 24.5t59.5 39.5q11 17 11 46q0 43 -20.5 102t-48.5 120t-57.5 117t-47.5 93l285 140q31 -54 60 -127.5t52 -151
t37 -152t14 -129.5q0 -101 -36 -185q-42 -94 -115 -155.5t-175 -90.5q-30 -8 -75 -13t-91 -7.5t-87 -3t-64 -0.5h-145h-9q-33 0 -62 12t-50 33.5t-33.5 50.5t-12.5 62z" />
    <glyph glyph-name="uniFE98" unicode="&#x62a;" horiz-adv-x="870" arabic-form="medial" 
d="M-165 98q0 33 12 62t33.5 50.5t50.5 33.5t62 12h76q72 0 138.5 6t117.5 25.5t82.5 55t33.5 94.5q1 22 0.5 36.5t-5.5 35t-14.5 54t-26.5 94.5l291 82q19 -48 35 -127t24 -173q2 -30 7 -62t16.5 -59t31.5 -44.5t52 -17.5q33 0 62 -12t50.5 -33.5t34 -50.5t12.5 -62
t-12.5 -62t-34.5 -50.5t-50.5 -33.5t-60.5 -12q-96 0 -164.5 29.5t-117.5 76.5q-45 -30 -103.5 -50t-124.5 -32.5t-136 -18t-138 -5.5h-76q-33 0 -62 12t-50.5 33.5t-33.5 50.5t-12 62zM828 1062l-192 -193l-190 190l-188 -188l-194 193l192 193l190 -190l188 188z" />
    <glyph glyph-name="uniFE96" unicode="&#x62a;" horiz-adv-x="2299" arabic-form="final" 
d="M2287 -60q-165 0 -279.5 54t-186.5 180q-142 -121 -343.5 -179t-470.5 -58q-159 1 -301.5 20.5t-259.5 59t-205 99t-138 140.5q-31 53 -45 122.5t-9 151t31.5 173t76.5 189.5l238 -138q-20 -39 -37 -76t-26 -77t-8.5 -85.5t15.5 -100.5q25 -43 89.5 -73t155.5 -49
t200 -28t223 -9q105 0 199 7.5t173.5 24t144 43t110.5 64.5q42 34 69 75t46 86.5t31.5 95.5t24.5 101l280 -71l-41 -212q-9 -46 4.5 -85t46.5 -67.5t84 -45t116 -16.5q33 0 62 -12t50.5 -33.5t34 -50.5t12.5 -62t-12.5 -62t-34 -50.5t-50.5 -33.5t-62 -12h-8zM1468 984
l-192 -193l-190 190l-188 -188l-194 193l192 193l190 -190l188 188z" />
    <glyph glyph-name="uni062B" unicode="&#x62b;" horiz-adv-x="2021" arabic-form="isolated" 
d="M986 -60q-188 0 -336.5 22.5t-260.5 64.5q-227 88 -312 258v-1q-48 93 -48 206q0 49 12 106t31 111q24 63 52 111.5t58 102.5l235 -197q-15 -21 -35 -54.5t-38.5 -70.5t-31 -74.5t-12.5 -65.5q0 -20 6 -33q20 -41 79.5 -72t149.5 -52.5t205 -32.5t246 -11q71 0 161.5 7
t186.5 22.5t191 40t174 59.5q-12 47 -28.5 90t-40.5 89.5t-57 99.5t-78 121l246 160q18 -29 42 -71t48.5 -90.5t48 -102.5t42 -108t28.5 -105.5t8 -96.5q-5 -84 -58 -148.5t-135.5 -112.5t-186 -81t-210 -53t-206.5 -29t-176 -9zM1389 970l-192 -193l-190 190l-188 -188
l-194 193l192 193l190 -190l188 188zM829 1260l178 178l179 -179l-178 -178z" />
    <glyph glyph-name="uniFE9B" unicode="&#x62b;" horiz-adv-x="874" arabic-form="initial" 
d="M842 1243l-192 -193l-190 190l-188 -188l-194 193l192 193l190 -190l188 188zM282 1533l178 178l179 -179l-178 -178zM-158 98q0 33 12.5 62t33.5 50.5t50 33.5t62 12h111h48q45 0 99 4t104 13t90.5 24.5t59.5 39.5q11 17 11 46q0 43 -20.5 102t-48.5 120t-57.5 117
t-47.5 93l285 140q31 -54 60 -127.5t52 -151t37 -152t14 -129.5q0 -101 -36 -185q-42 -94 -115 -155.5t-175 -90.5q-30 -8 -75 -13t-91 -7.5t-87 -3t-64 -0.5h-145h-9q-33 0 -62 12t-50 33.5t-33.5 50.5t-12.5 62z" />
    <glyph glyph-name="uniFE9C" unicode="&#x62b;" horiz-adv-x="864" arabic-form="medial" 
d="M-165 98q0 33 12 62t33.5 50.5t50.5 33.5t62 12h76q72 0 138.5 6t117.5 25.5t82.5 55t33.5 94.5q1 22 0.5 36.5t-5.5 35t-14.5 54t-26.5 94.5l291 82q19 -48 35 -127t24 -173q2 -30 7 -62t16.5 -59t31.5 -44.5t52 -17.5q33 0 62 -12t50.5 -33.5t34 -50.5t12.5 -62
t-12.5 -62t-34.5 -50.5t-50.5 -33.5t-60.5 -12q-96 0 -164.5 29.5t-117.5 76.5q-45 -30 -103.5 -50t-124.5 -32.5t-136 -18t-138 -5.5h-76q-33 0 -62 12t-50.5 33.5t-33.5 50.5t-12 62zM803 1074l-192 -193l-190 190l-188 -188l-194 193l192 193l190 -190l188 188zM243 1364
l178 178l179 -179l-178 -178z" />
    <glyph glyph-name="uniFE9A" unicode="&#x62b;" horiz-adv-x="2277" arabic-form="final" 
d="M2262 -60q-165 0 -279.5 54t-186.5 180q-142 -121 -343.5 -179t-470.5 -58q-159 1 -301.5 20.5t-259.5 59t-205 99t-138 140.5q-31 53 -45 122.5t-9 151t31.5 173t76.5 189.5l238 -138q-20 -39 -37 -76t-26 -77t-8.5 -85.5t15.5 -100.5q25 -43 89.5 -73t155.5 -49
t200 -28t223 -9q105 0 199 7.5t173.5 24t144 43t110.5 64.5q42 34 69 75t46 86.5t31.5 95.5t24.5 101l280 -71l-41 -212q-9 -46 4.5 -85t46.5 -67.5t84 -45t116 -16.5q33 0 62 -12t50.5 -33.5t34 -50.5t12.5 -62t-12.5 -62t-34 -50.5t-50.5 -33.5t-62 -12h-8zM1437 970
l-192 -193l-190 190l-188 -188l-194 193l192 193l190 -190l188 188zM877 1260l178 178l179 -179l-178 -178z" />
    <glyph glyph-name="uni0679" unicode="&#x679;" horiz-adv-x="2015" arabic-form="isolated" 
d="M993 -60q-188 0 -336.5 22.5t-260.5 64.5q-227 88 -312 258v-1q-48 93 -48 206q0 49 12 106t31 111q24 63 52 111.5t58 102.5l235 -197q-15 -21 -35 -54.5t-38.5 -70.5t-31 -74.5t-12.5 -65.5q0 -20 6 -33q20 -41 79.5 -72t149.5 -52.5t205 -32.5t246 -11q71 0 161.5 7
t186.5 22.5t191 40t174 59.5q-12 47 -28.5 90t-40.5 89.5t-57 99.5t-78 121l246 160q18 -29 42 -71t48.5 -90.5t48 -102.5t42 -108t28.5 -105.5t8 -96.5q-5 -84 -58 -148.5t-135.5 -112.5t-186 -81t-210 -53t-206.5 -29t-176 -9zM981 851q-15 0 -30 0.5t-29 1.5
q-131 6 -309 74l54 134q34 -13 62.5 -23t54.5 -17l13 21l24 33q5 36 8 65t3 56q0 26 -2 55.5t-5 68.5q-4 48 -8 89.5t-9 73.5q-2 19 -5 36t-5 33l146 40q2 -28 6.5 -65t7.5 -65q6 -57 11.5 -114t7.5 -117q42 31 83 51t79 27q36 6 75.5 -2.5t73.5 -30t58 -54.5t28 -76
q2 -26 -3.5 -51.5t-16 -49.5t-24.5 -44.5t-28 -35.5q-41 -37 -83.5 -59.5t-83.5 -34.5t-80 -16t-74 -4zM919 997h37q25 0 63 3.5t79 12t80 22.5t66 35q12 13 19 27t7 25q0 10 -10.5 19.5t-27 15.5t-35.5 8.5t-35 -0.5q-18 -3 -44 -14t-55.5 -28.5t-59.5 -41t-55 -50.5l-6 -7
z" />
    <glyph glyph-name="uniFB68" unicode="&#x679;" horiz-adv-x="774" arabic-form="initial" 
d="M-163 98q0 33 12.5 62t33.5 50.5t50 33.5t62 12h103h45q37 0 77.5 3t76 12t63 25t39.5 43q8 18 8 54q0 24 -14 72t-37 106.5t-52 122.5t-59 121l286 142q28 -63 55.5 -134t49.5 -144t35.5 -145.5t13.5 -138.5q0 -101 -36 -185q-42 -94 -115 -155.5t-175 -90.5
q-60 -17 -115 -20.5t-103 -3.5h-137h-9q-33 0 -62 12t-50 33.5t-33.5 50.5t-12.5 62zM296 1095q-15 0 -30 0.5t-29 1.5q-131 6 -309 74l54 134q34 -13 62.5 -23t54.5 -17l13 21l24 33q5 36 8 65t3 56q0 26 -2 55.5t-5 68.5q-4 48 -8 89.5t-9 73.5q-2 19 -5 36t-5 33l146 40
q2 -28 6.5 -65t7.5 -65q6 -57 11.5 -114t7.5 -117q42 31 83 51t79 27q36 6 75.5 -2.5t73.5 -30t58 -54.5t28 -76q2 -26 -3.5 -51.5t-16 -49.5t-24.5 -44.5t-28 -35.5q-41 -37 -83.5 -59.5t-83.5 -34.5t-80 -16t-74 -4zM234 1241h37q25 0 63 3.5t79 12t80 22.5t66 35
q12 13 19 27t7 25q0 10 -10.5 19.5t-27 15.5t-35.5 8.5t-35 -0.5q-18 -3 -44 -14t-55.5 -28.5t-59.5 -41t-55 -50.5l-6 -7z" />
    <glyph glyph-name="uniFB69" unicode="&#x679;" horiz-adv-x="859" arabic-form="medial" 
d="M-165 98q0 33 12 62t33.5 50.5t50.5 33.5t62 12h76q72 0 138.5 6t117.5 25.5t82.5 55t33.5 94.5q1 22 0.5 36.5t-5.5 35t-14.5 54t-26.5 94.5l291 82q19 -48 35 -127t24 -173q2 -30 7 -62t16.5 -59t31.5 -44.5t52 -17.5q33 0 62 -12t50.5 -33.5t34 -50.5t12.5 -62
t-12.5 -62t-34.5 -50.5t-50.5 -33.5t-60.5 -12q-96 0 -164.5 29.5t-117.5 76.5q-45 -30 -103.5 -50t-124.5 -32.5t-136 -18t-138 -5.5h-76q-33 0 -62 12t-50.5 33.5t-33.5 50.5t-12 62zM371 807q-15 0 -30 0.5t-29 1.5q-131 6 -309 74l54 134q34 -13 62.5 -23t54.5 -17
l13 21l24 33q5 36 8 65t3 56q0 26 -2 55.5t-5 68.5q-4 48 -8 89.5t-9 73.5q-2 19 -5 36t-5 33l146 40q2 -28 6.5 -65t7.5 -65q6 -57 11.5 -114t7.5 -117q42 31 83 51t79 27q36 6 75.5 -2.5t73.5 -30t58 -54.5t28 -76q2 -26 -3.5 -51.5t-16 -49.5t-24.5 -44.5t-28 -35.5
q-41 -37 -83.5 -59.5t-83.5 -34.5t-80 -16t-74 -4zM309 953h37q25 0 63 3.5t79 12t80 22.5t66 35q12 13 19 27t7 25q0 10 -10.5 19.5t-27 15.5t-35.5 8.5t-35 -0.5q-18 -3 -44 -14t-55.5 -28.5t-59.5 -41t-55 -50.5l-6 -7z" />
    <glyph glyph-name="uniFB67" unicode="&#x679;" horiz-adv-x="2236" arabic-form="final" 
d="M2229 -60q-165 0 -279.5 54t-186.5 180q-142 -121 -343.5 -179t-470.5 -58q-159 1 -301.5 20.5t-259.5 59t-205 99t-138 140.5q-31 53 -45 122.5t-9 151t31.5 173t76.5 189.5l238 -138q-20 -39 -37 -76t-26 -77t-8.5 -85.5t15.5 -100.5q25 -43 89.5 -73t155.5 -49
t200 -28t223 -9q105 0 199 7.5t173.5 24t144 43t110.5 64.5q42 34 69 75t46 86.5t31.5 95.5t24.5 101l280 -71l-41 -212q-9 -46 4.5 -85t46.5 -67.5t84 -45t116 -16.5q33 0 62 -12t50.5 -33.5t34 -50.5t12.5 -62t-12.5 -62t-34 -50.5t-50.5 -33.5t-62 -12h-8zM952 792
q-15 0 -30 0.5t-29 1.5q-131 6 -309 74l54 134q34 -13 62.5 -23t54.5 -17l13 21l24 33q5 36 8 65t3 56q0 26 -2 55.5t-5 68.5q-4 48 -8 89.5t-9 73.5q-2 19 -5 36t-5 33l146 40q2 -28 6.5 -65t7.5 -65q6 -57 11.5 -114t7.5 -117q42 31 83 51t79 27q36 6 75.5 -2.5t73.5 -30
t58 -54.5t28 -76q2 -26 -3.5 -51.5t-16 -49.5t-24.5 -44.5t-28 -35.5q-41 -37 -83.5 -59.5t-83.5 -34.5t-80 -16t-74 -4zM890 938h37q25 0 63 3.5t79 12t80 22.5t66 35q12 13 19 27t7 25q0 10 -10.5 19.5t-27 15.5t-35.5 8.5t-35 -0.5q-18 -3 -44 -14t-55.5 -28.5t-59.5 -41
t-55 -50.5l-6 -7z" />
    <glyph glyph-name="uni0629" unicode="&#x629;" horiz-adv-x="1030" arabic-form="isolated" 
d="M522 -60q-5 0 -27.5 1.5t-55 6.5t-73 16t-81.5 30q-109 52 -169 142.5t-60 210.5q0 200 177 415q14 17 23.5 28t17.5 20t15.5 16.5l17.5 17.5q-12 10 -23.5 19t-19.5 17l-18 16l199 243q51 -38 122 -102.5t164 -164.5q259 -295 259 -525q0 -118 -56.5 -209t-156.5 -143
q-35 -17 -71.5 -27.5t-70.5 -16.5t-63.5 -8.5t-49.5 -2.5zM716 347q0 31 -20 70t-52.5 81.5t-72.5 86t-80 83.5q-27 -30 -57 -67.5t-55 -79.5t-41 -86.5t-14 -87.5q1 -24 23 -42t52.5 -29t64.5 -16.5t58 -5.5q30 0 64.5 4.5t63 15.5t47.5 29t19 44zM846 1359l-192 -193
l-190 190l-188 -188l-194 193l192 193l190 -190l188 188z" />
    <glyph glyph-name="uniFE94" unicode="&#x629;" horiz-adv-x="1126" arabic-form="final" 
d="M581 80q-142 0 -244 38.5t-162 108.5q-35 45 -50.5 97.5t-15.5 100.5q0 42 7 76t17 58q40 84 98.5 147t122 109.5t126 77.5t111.5 51q-2 23 -3.5 47t-3.5 46l-5 63l312 67q1 -9 4.5 -42t8 -78.5t10 -97t10 -96.5t8 -78t4.5 -40q15 -123 25.5 -202t18 -125.5t12.5 -67
t8 -27.5q15 -32 45.5 -44.5t81.5 -12.5q32 0 61 -12t50.5 -33.5t34.5 -50.5t13 -62t-13 -62t-34.5 -50t-50.5 -33.5t-61 -12.5q-21 0 -47 1.5t-54.5 6t-59 13t-60.5 22.5q-42 20 -73.5 45.5t-60.5 64.5q-51 -7 -98.5 -10t-92.5 -3zM575 394q21 0 43.5 1.5t43.5 3.5
q-5 34 -10.5 76t-10.5 90l-10 92q-38 -19 -85 -45.5t-88.5 -56t-69.5 -60t-28 -56.5q0 -13 22.5 -21.5t55.5 -14t70 -7.5t67 -2zM1011 1464l-192 -193l-190 190l-188 -188l-194 193l192 193l190 -190l188 188z" />
    <glyph glyph-name="uniFB7C" unicode="&#x686;" horiz-adv-x="1559" arabic-form="initial" 
d="M-161 98q0 33 12.5 62t34 50.5t51 33.5t62.5 12h192q162 0 297.5 19.5t253.5 52.5t223.5 76.5t207.5 90.5q-68 19 -136.5 47t-137 54t-136.5 44.5t-135 18.5q-46 0 -90 -25t-80 -57t-60.5 -62.5t-30.5 -41.5l-231 149q38 67 90 131t114.5 113.5t135 79.5t152.5 30
q59 0 118 -12.5t117.5 -32.5t115.5 -45.5t113 -51.5q54 -25 107.5 -49.5t110.5 -45t118 -33.5t129 -14l-25 -307l-142 -68q-87 -42 -173 -86.5t-175.5 -86t-184 -79t-198.5 -65t-220 -44t-248 -16.5h-184h-8q-33 0 -62.5 12.5t-51 33.5t-34 50t-12.5 62zM939 -563l-188 188
l-190 -190l-192 193l194 193l188 -188l190 190l192 -193zM752 -481l178 -178l-179 -179l-178 178z" />
    <glyph glyph-name="uniFB7D" unicode="&#x686;" horiz-adv-x="1663" arabic-form="medial" 
d="M-159 97q0 32 12.5 61t34 50.5t50.5 34.5t62 13h183q110 0 237 21.5t254.5 56.5t247 78.5t214.5 88.5q-62 15 -138 42t-154 53t-151.5 44.5t-131.5 17.5q-37 -1 -71.5 -15.5t-64 -36t-53 -46t-40.5 -46t-26.5 -36l-9.5 -14.5l-237 136q40 74 96 142.5t122 121t138.5 83.5
t145.5 30q54 -1 107.5 -13t107.5 -30.5t109 -43t111 -50.5q57 -28 126.5 -55t145 -48t154 -34t153.5 -13l-52 -295q-23 -10 -51.5 -23.5t-50.5 -24.5l-26 -13q23 -27 58.5 -43t73 -23.5t72 -9.5t54.5 -2h14q33 0 62 -13t50.5 -34.5t34 -50.5t12.5 -61q0 -33 -12.5 -62
t-34 -50t-50.5 -33t-62 -12h-14q-96 0 -180.5 17t-154 49.5t-123.5 79t-89 105.5q-99 -48 -206 -93.5t-222 -80.5t-238.5 -56.5t-256.5 -21.5l-183 1q-33 0 -62 12t-50.5 33t-34 50t-12.5 62zM938 -542l-188 188l-190 -190l-192 193l194 193l188 -188l190 190l192 -193z
M751 -460l178 -178l-179 -179l-178 178z" />
    <glyph glyph-name="uni062C" unicode="&#x62c;" horiz-adv-x="1614" arabic-form="isolated" 
d="M1531 -495q-60 -54 -139 -100.5t-169.5 -81t-190.5 -54t-202 -19.5q-167 0 -311.5 46t-251.5 134t-168.5 215.5t-61.5 291.5v23.5t1 24.5q9 104 57 196.5t124 171.5t176.5 143t214.5 111.5t236.5 77t244.5 38.5q-58 19 -119.5 51t-122.5 63t-120 53t-111 20
q-50 -2 -94.5 -20t-85 -45.5t-76 -62.5t-66.5 -70l-221 161q51 73 102.5 136.5t113.5 111t141 75.5t185 31q63 2 125 -15t122.5 -45.5t118.5 -64t113 -71.5q54 -36 95.5 -64.5t76 -51t65 -39.5t61.5 -30.5t65.5 -23t77.5 -17.5l-95 -333l-93 2q-71 0 -152.5 -9.5
t-167.5 -27.5t-172.5 -44.5t-166.5 -60.5t-149 -75.5t-121 -90t-82.5 -103t-32.5 -115.5q-2 -67 20 -121t62 -95.5t94.5 -71.5t117.5 -49t132 -28t137 -9t133.5 8.5t130 28t128 51.5t128.5 80zM853 216l222 -222l-222 -222l-222 222z" />
    <glyph glyph-name="uniFE9F" unicode="&#x62c;" horiz-adv-x="1548" arabic-form="initial" 
d="M-161 98q0 33 12.5 62t34 50.5t51 33.5t62.5 12h192q162 0 297.5 19.5t253.5 52.5t223.5 76.5t207.5 90.5q-68 19 -136.5 47t-137 54t-136.5 44.5t-135 18.5q-46 0 -90 -25t-80 -57t-60.5 -62.5t-30.5 -41.5l-231 149q38 67 90 131t114.5 113.5t135 79.5t152.5 30
q59 0 118 -12.5t117.5 -32.5t115.5 -45.5t113 -51.5q54 -25 107.5 -49.5t110.5 -45t118 -33.5t129 -14l-25 -307l-142 -68q-87 -42 -173 -86.5t-175.5 -86t-184 -79t-198.5 -65t-220 -44t-248 -16.5h-184h-8q-33 0 -62.5 12.5t-51 33.5t-34 50t-12.5 62zM759 -140l222 -222
l-222 -222l-222 222z" />
    <glyph glyph-name="uniFEA0" unicode="&#x62c;" horiz-adv-x="1663" arabic-form="medial" 
d="M-159 97q0 32 12.5 61t34 50.5t50.5 34.5t62 13h183q110 0 237 21.5t254.5 56.5t247 78.5t214.5 88.5q-62 15 -138 42t-154 53t-151.5 44.5t-131.5 17.5q-37 -1 -71.5 -15.5t-64 -36t-53 -46t-40.5 -46t-26.5 -36l-9.5 -14.5l-237 136q40 74 96 142.5t122 121t138.5 83.5
t145.5 30q54 -1 107.5 -13t107.5 -30.5t109 -43t111 -50.5q57 -28 126.5 -55t145 -48t154 -34t153.5 -13l-52 -295q-23 -10 -51.5 -23.5t-50.5 -24.5l-26 -13q23 -27 58.5 -43t73 -23.5t72 -9.5t54.5 -2h14q33 0 62 -13t50.5 -34.5t34 -50.5t12.5 -61q0 -33 -12.5 -62
t-34 -50t-50.5 -33t-62 -12h-14q-96 0 -180.5 17t-154 49.5t-123.5 79t-89 105.5q-99 -48 -206 -93.5t-222 -80.5t-238.5 -56.5t-256.5 -21.5l-183 1q-33 0 -62 12t-50.5 33t-34 50t-12.5 62zM783 -138l222 -222l-222 -222l-222 222z" />
    <glyph glyph-name="uniFE9E" unicode="&#x62c;" horiz-adv-x="1696" arabic-form="final" 
d="M1569 -595q-80 -57 -165 -103.5t-175.5 -79.5t-187 -51t-198.5 -18q-167 0 -312 46t-252.5 134t-169.5 215.5t-62 291.5v23.5t1 24.5q9 104 60 196t132.5 170.5t188 142t227 110t249 75.5t253.5 38q-53 29 -120.5 62.5t-139 62.5t-140 48.5t-123.5 19.5
q-36 0 -78.5 -14.5t-83 -39.5t-75 -59t-55.5 -73l-225 153q44 77 99 141.5t119.5 111t139.5 72t159 25.5q63 0 127 -15.5t126.5 -41t122 -58.5t114.5 -69q82 -53 149.5 -92.5t128 -68t119.5 -48t124 -32.5l-93 -315l-154 -23q13 -36 47 -58t77 -34t90 -15.5t87 -3.5
q32 0 61 -13t50.5 -34.5t34.5 -50.5t13 -62t-13 -61.5t-34.5 -49.5t-50.5 -33t-61 -12q-122 0 -214 20.5t-159.5 54t-113 75.5t-74 85t-43 83t-19.5 69q-84 -16 -172 -40t-171.5 -56.5t-157 -72t-129.5 -86.5t-89 -101t-35 -114q-3 -101 45.5 -173t128.5 -118t181 -67.5
t203 -21.5q67 0 138 11t141.5 31.5t137.5 50.5t127 68zM893 103l222 -222l-222 -222l-222 222z" />
    <glyph glyph-name="uni062E" unicode="&#x62e;" horiz-adv-x="1614" arabic-form="isolated" 
d="M1525 -495q-60 -54 -139 -100.5t-169.5 -81t-190.5 -54t-202 -19.5q-167 0 -311.5 46t-251.5 134t-168.5 215.5t-61.5 291.5v23.5t1 24.5q9 104 57 196.5t124 171.5t176.5 143t214.5 111.5t236.5 77t244.5 38.5q-58 19 -119.5 51t-122.5 63t-120 53t-111 20
q-50 -2 -94.5 -20t-85 -45.5t-76 -62.5t-66.5 -70l-221 161q51 73 102.5 136.5t113.5 111t141 75.5t185 31q63 2 125 -15t122.5 -45.5t118.5 -64t113 -71.5q54 -36 95.5 -64.5t76 -51t65 -39.5t61.5 -30.5t65.5 -23t77.5 -17.5l-95 -333l-93 2q-71 0 -152.5 -9.5
t-167.5 -27.5t-172.5 -44.5t-166.5 -60.5t-149 -75.5t-121 -90t-82.5 -103t-32.5 -115.5q-2 -67 20 -121t62 -95.5t94.5 -71.5t117.5 -49t132 -28t137 -9t133.5 8.5t130 28t128 51.5t128.5 80zM547 1808l222 -222l-222 -222l-222 222z" />
    <glyph glyph-name="uniFEA7" unicode="&#x62e;" horiz-adv-x="1548" arabic-form="initial" 
d="M-161 98q0 33 12.5 62t34 50.5t51 33.5t62.5 12h192q162 0 297.5 19.5t253.5 52.5t223.5 76.5t207.5 90.5q-68 19 -136.5 47t-137 54t-136.5 44.5t-135 18.5q-46 0 -90 -25t-80 -57t-60.5 -62.5t-30.5 -41.5l-231 149q38 67 90 131t114.5 113.5t135 79.5t152.5 30
q59 0 118 -12.5t117.5 -32.5t115.5 -45.5t113 -51.5q54 -25 107.5 -49.5t110.5 -45t118 -33.5t129 -14l-25 -307l-142 -68q-87 -42 -173 -86.5t-175.5 -86t-184 -79t-198.5 -65t-220 -44t-248 -16.5h-184h-8q-33 0 -62.5 12.5t-51 33.5t-34 50t-12.5 62zM586 1517l222 -222
l-222 -222l-222 222z" />
    <glyph glyph-name="uniFEA8" unicode="&#x62e;" horiz-adv-x="1669" arabic-form="medial" 
d="M-159 97q0 32 12.5 61t34 50.5t50.5 34.5t62 13h183q110 0 237 21.5t254.5 56.5t247 78.5t214.5 88.5q-62 15 -138 42t-154 53t-151.5 44.5t-131.5 17.5q-37 -1 -71.5 -15.5t-64 -36t-53 -46t-40.5 -46t-26.5 -36l-9.5 -14.5l-237 136q40 74 96 142.5t122 121t138.5 83.5
t145.5 30q54 -1 107.5 -13t107.5 -30.5t109 -43t111 -50.5q57 -28 126.5 -55t145 -48t154 -34t153.5 -13l-52 -295q-23 -10 -51.5 -23.5t-50.5 -24.5l-26 -13q23 -27 58.5 -43t73 -23.5t72 -9.5t54.5 -2h14q33 0 62 -13t50.5 -34.5t34 -50.5t12.5 -61q0 -33 -12.5 -62
t-34 -50t-50.5 -33t-62 -12h-14q-96 0 -180.5 17t-154 49.5t-123.5 79t-89 105.5q-99 -48 -206 -93.5t-222 -80.5t-238.5 -56.5t-256.5 -21.5l-183 1q-33 0 -62 12t-50.5 33t-34 50t-12.5 62zM556 1507l222 -222l-222 -222l-222 222z" />
    <glyph glyph-name="uniFEA6" unicode="&#x62e;" horiz-adv-x="1707" arabic-form="final" 
d="M1569 -595q-80 -57 -165 -103.5t-175.5 -79.5t-187 -51t-198.5 -18q-167 0 -312 46t-252.5 134t-169.5 215.5t-62 291.5v23.5t1 24.5q9 104 60 196t132.5 170.5t188 142t227 110t249 75.5t253.5 38q-53 29 -120.5 62.5t-139 62.5t-140 48.5t-123.5 19.5
q-36 0 -78.5 -14.5t-83 -39.5t-75 -59t-55.5 -73l-225 153q44 77 99 141.5t119.5 111t139.5 72t159 25.5q63 0 127 -15.5t126.5 -41t122 -58.5t114.5 -69q82 -53 149.5 -92.5t128 -68t119.5 -48t124 -32.5l-93 -315l-154 -23q13 -36 47 -58t77 -34t90 -15.5t87 -3.5
q32 0 61 -13t50.5 -34.5t34.5 -50.5t13 -62t-13 -61.5t-34.5 -49.5t-50.5 -33t-61 -12q-122 0 -214 20.5t-159.5 54t-113 75.5t-74 85t-43 83t-19.5 69q-84 -16 -172 -40t-171.5 -56.5t-157 -72t-129.5 -86.5t-89 -101t-35 -114q-3 -101 45.5 -173t128.5 -118t181 -67.5
t203 -21.5q67 0 138 11t141.5 31.5t137.5 50.5t127 68zM595 1668l222 -222l-222 -222l-222 222z" />
    <glyph glyph-name="uni0630" unicode="&#x630;" horiz-adv-x="1138" arabic-form="isolated" 
d="M157 407q42 -27 98.5 -54t116 -49.5t115.5 -36.5t97 -14q15 0 39 1.5t50.5 6t53.5 12t49.5 19.5t36.5 28.5t15 39.5q1 39 -23.5 88t-66 102.5t-96 108t-112.5 105t-116 94t-107 74.5l177 263q97 -68 192.5 -152t176.5 -178.5t140 -195.5t85 -202q8 -29 11 -58.5t3 -56.5
q0 -93 -36 -170.5t-100.5 -134t-154.5 -87.5t-198 -31q-8 0 -16 0.5t-16 0.5q-69 0 -141.5 14.5t-143 38.5t-137 56t-123.5 67zM468 1753l222 -222l-222 -222l-222 222z" />
    <glyph glyph-name="uniFEAC" unicode="&#x630;" horiz-adv-x="1247" arabic-form="final" 
d="M534 -60q-131 0 -256.5 50t-232.5 161l181 255q49 -45 95 -73.5t88 -44.5t79.5 -22t70.5 -6q15 0 34 1t38 3.5t37 6.5t33 10q52 22 82 44q-38 92 -82.5 191.5t-89.5 200t-89 199.5t-82 190l292 122l89 -216q43 -106 103 -251.5t138 -329.5q18 -44 33 -77t35.5 -55
t49 -32.5t73.5 -10.5q32 0 61 -12t50.5 -33.5t34.5 -50.5t13 -62t-13 -62t-34.5 -50.5t-50.5 -33.5t-61 -12q-61 0 -107.5 8t-83 22.5t-65 35t-53.5 45.5q-27 -18 -57 -34.5t-69 -32.5q-60 -23 -129.5 -33.5t-154.5 -10.5zM610 1785l222 -222l-222 -222l-222 222z" />
    <glyph glyph-name="uni0688" unicode="&#x688;" horiz-adv-x="1149" arabic-form="isolated" 
d="M165 407q42 -27 98.5 -54t116 -49.5t115.5 -36.5t97 -14q15 0 39 1.5t50.5 6t53.5 12t49.5 19.5t36.5 28.5t15 39.5q1 39 -23.5 88t-66 102.5t-96 108t-112.5 105t-116 94t-107 74.5l177 263q97 -68 192.5 -152t176.5 -178.5t140 -195.5t85 -202q8 -29 11 -58.5t3 -56.5
q0 -93 -36 -170.5t-100.5 -134t-154.5 -87.5t-198 -31q-8 0 -16 0.5t-16 0.5q-69 0 -141.5 14.5t-143 38.5t-137 56t-123.5 67zM443 1303q-15 0 -30 0.5t-29 1.5q-131 6 -309 74l54 134q34 -13 62.5 -23t54.5 -17l13 21l24 33q5 36 8 65t3 56q0 26 -2 55.5t-5 68.5
q-4 48 -8 89.5t-9 73.5q-2 19 -5 36t-5 33l146 40q2 -28 6.5 -65t7.5 -65q6 -57 11.5 -114t7.5 -117q42 31 83 51t79 27q36 6 75.5 -2.5t73.5 -30t58 -54.5t28 -76q2 -26 -3.5 -51.5t-16 -49.5t-24.5 -44.5t-28 -35.5q-41 -37 -83.5 -59.5t-83.5 -34.5t-80 -16t-74 -4z
M381 1449h37q25 0 63 3.5t79 12t80 22.5t66 35q12 13 19 27t7 25q0 10 -10.5 19.5t-27 15.5t-35.5 8.5t-35 -0.5q-18 -3 -44 -14t-55.5 -28.5t-59.5 -41t-55 -50.5l-6 -7z" />
    <glyph glyph-name="uniFB89" unicode="&#x688;" horiz-adv-x="1242" arabic-form="final" 
d="M534 -60q-131 0 -256.5 50t-232.5 161l181 255q49 -45 95 -73.5t88 -44.5t79.5 -22t70.5 -6q15 0 34 1t38 3.5t37 6.5t33 10q52 22 82 44q-38 92 -82.5 191.5t-89.5 200t-89 199.5t-82 190l292 122l89 -216q43 -106 103 -251.5t138 -329.5q18 -44 33 -77t35.5 -55
t49 -32.5t73.5 -10.5q32 0 61 -12t50.5 -33.5t34.5 -50.5t13 -62t-13 -62t-34.5 -50.5t-50.5 -33.5t-61 -12q-61 0 -107.5 8t-83 22.5t-65 35t-53.5 45.5q-27 -18 -57 -34.5t-69 -32.5q-60 -23 -129.5 -33.5t-154.5 -10.5zM552 1337q-15 0 -30 0.5t-29 1.5q-131 6 -309 74
l54 134q34 -13 62.5 -23t54.5 -17l13 21l24 33q5 36 8 65t3 56q0 26 -2 55.5t-5 68.5q-4 48 -8 89.5t-9 73.5q-2 19 -5 36t-5 33l146 40q2 -28 6.5 -65t7.5 -65q6 -57 11.5 -114t7.5 -117q42 31 83 51t79 27q36 6 75.5 -2.5t73.5 -30t58 -54.5t28 -76q2 -26 -3.5 -51.5
t-16 -49.5t-24.5 -44.5t-28 -35.5q-41 -37 -83.5 -59.5t-83.5 -34.5t-80 -16t-74 -4zM490 1483h37q25 0 63 3.5t79 12t80 22.5t66 35q12 13 19 27t7 25q0 10 -10.5 19.5t-27 15.5t-35.5 8.5t-35 -0.5q-18 -3 -44 -14t-55.5 -28.5t-59.5 -41t-55 -50.5l-6 -7z" />
    <glyph glyph-name="uni0632" unicode="&#x632;" horiz-adv-x="722" arabic-form="isolated" 
d="M565 673q38 -108 66 -211q12 -45 24 -93.5t21.5 -97t15.5 -95t6 -86.5q0 -94 -25.5 -183.5t-72 -173.5t-110.5 -161.5t-142 -145.5t-167 -126.5t-184 -105.5l-182 253q72 36 145.5 81.5t141 97.5t126 109t102 116t68.5 119.5t25 118.5q0 42 -11.5 91t-31 105.5t-46.5 120
t-58 135.5zM393 1281l222 -222l-222 -222l-222 222z" />
    <glyph glyph-name="uniFEB0" unicode="&#x632;" horiz-adv-x="819" arabic-form="final" 
d="M824 -60q-22 0 -62 3t-86 22q-22 -124 -82.5 -235.5t-149.5 -209t-203 -179.5t-243 -147l-183 253q71 36 143 78.5t137.5 90t122 99t98.5 106.5t66 112.5t24 116.5q0 3 -0.5 9t-0.5 12t-0.5 9t-0.5 -1v-1q-7 58 -20 111t-32.5 108t-45.5 115.5t-58 132.5l289 126
q40 -120 75 -200t68.5 -128t67.5 -67.5t72 -19.5h5q33 0 62 -13t50.5 -34.5t34 -50.5t12.5 -61q0 -33 -12.5 -62t-34 -50t-50.5 -33t-63 -12zM381 1273l222 -222l-222 -222l-222 222z" />
    <glyph glyph-name="uni0691" unicode="&#x691;" horiz-adv-x="864" arabic-form="isolated" 
d="M565 673q38 -108 66 -211q12 -45 24 -93.5t21.5 -97t15.5 -95t6 -86.5q0 -94 -25.5 -183.5t-72 -173.5t-110.5 -161.5t-142 -145.5t-167 -126.5t-184 -105.5l-182 253q72 36 145.5 81.5t141 97.5t126 109t102 116t68.5 119.5t25 118.5q0 42 -11.5 91t-31 105.5t-46.5 120
t-58 135.5zM366 789q-15 0 -30 0.5t-29 1.5q-131 6 -309 74l54 134q34 -13 62.5 -23t54.5 -17l13 21l24 33q5 36 8 65t3 56q0 26 -2 55.5t-5 68.5q-4 48 -8 89.5t-9 73.5q-2 19 -5 36t-5 33l146 40q2 -28 6.5 -65t7.5 -65q6 -57 11.5 -114t7.5 -117q42 31 83 51t79 27
q36 6 75.5 -2.5t73.5 -30t58 -54.5t28 -76q2 -26 -3.5 -51.5t-16 -49.5t-24.5 -44.5t-28 -35.5q-41 -37 -83.5 -59.5t-83.5 -34.5t-80 -16t-74 -4zM304 935h37q25 0 63 3.5t79 12t80 22.5t66 35q12 13 19 27t7 25q0 10 -10.5 19.5t-27 15.5t-35.5 8.5t-35 -0.5
q-18 -3 -44 -14t-55.5 -28.5t-59.5 -41t-55 -50.5l-6 -7z" />
    <glyph glyph-name="uniFB8D" unicode="&#x691;" horiz-adv-x="822" arabic-form="final" 
d="M824 -60q-22 0 -62 3t-86 22q-22 -124 -82.5 -235.5t-149.5 -209t-203 -179.5t-243 -147l-183 253q71 36 143 78.5t137.5 90t122 99t98.5 106.5t66 112.5t24 116.5q0 3 -0.5 9t-0.5 12t-0.5 9t-0.5 -1v-1q-7 58 -20 111t-32.5 108t-45.5 115.5t-58 132.5l289 126
q40 -120 75 -200t68.5 -128t67.5 -67.5t72 -19.5h5q33 0 62 -13t50.5 -34.5t34 -50.5t12.5 -61q0 -33 -12.5 -62t-34 -50t-50.5 -33t-63 -12zM326 803q-15 0 -30 0.5t-29 1.5q-131 6 -309 74l54 134q34 -13 62.5 -23t54.5 -17l13 21l24 33q5 36 8 65t3 56q0 26 -2 55.5
t-5 68.5q-4 48 -8 89.5t-9 73.5q-2 19 -5 36t-5 33l146 40q2 -28 6.5 -65t7.5 -65q6 -57 11.5 -114t7.5 -117q42 31 83 51t79 27q36 6 75.5 -2.5t73.5 -30t58 -54.5t28 -76q2 -26 -3.5 -51.5t-16 -49.5t-24.5 -44.5t-28 -35.5q-41 -37 -83.5 -59.5t-83.5 -34.5t-80 -16
t-74 -4zM264 949h37q25 0 63 3.5t79 12t80 22.5t66 35q12 13 19 27t7 25q0 10 -10.5 19.5t-27 15.5t-35.5 8.5t-35 -0.5q-18 -3 -44 -14t-55.5 -28.5t-59.5 -41t-55 -50.5l-6 -7z" />
    <glyph glyph-name="uni0698" unicode="&#x698;" horiz-adv-x="930" arabic-form="isolated" 
d="M663 673q38 -108 66 -211q12 -45 24 -93.5t21.5 -97t15.5 -95t6 -86.5q0 -94 -25.5 -183.5t-72 -173.5t-110.5 -161.5t-142 -145.5t-167 -126.5t-184 -105.5l-182 253q72 36 145.5 81.5t141 97.5t126 109t102 116t68.5 119.5t25 118.5q0 42 -11.5 91t-31 105.5t-46.5 120
t-58 135.5zM852 1054l-192 -193l-190 190l-188 -188l-194 193l192 193l190 -190l188 188zM292 1344l178 178l179 -179l-178 -178z" />
    <glyph glyph-name="uniFB8B" unicode="&#x698;" horiz-adv-x="871" arabic-form="final" 
d="M874 -60q-22 0 -62 3t-86 22q-22 -124 -82.5 -235.5t-149.5 -209t-203 -179.5t-243 -147l-183 253q71 36 143 78.5t137.5 90t122 99t98.5 106.5t66 112.5t24 116.5q0 3 -0.5 9t-0.5 12t-0.5 9t-0.5 -1v-1q-7 58 -20 111t-32.5 108t-45.5 115.5t-58 132.5l289 126
q40 -120 75 -200t68.5 -128t67.5 -67.5t72 -19.5h5q33 0 62 -13t50.5 -34.5t34 -50.5t12.5 -61q0 -33 -12.5 -62t-34 -50t-50.5 -33t-63 -12zM824 1022l-192 -193l-190 190l-188 -188l-194 193l192 193l190 -190l188 188zM264 1312l178 178l179 -179l-178 -178z" />
    <glyph glyph-name="uni0634" unicode="&#x634;" horiz-adv-x="2717" arabic-form="isolated" 
d="M2499 995q6 -12 21.5 -43.5t35.5 -76t42 -99.5t40 -115.5t29.5 -123t11.5 -122.5q-1 -99 -29.5 -185t-83.5 -149.5t-136 -100.5t-187 -37q-92 0 -150.5 31t-96.5 85q-21 -27 -45 -48.5t-56.5 -37t-76 -23.5t-103.5 -8q-42 0 -77 6t-64 15q-1 -117 -35.5 -213t-94 -172
t-139.5 -132t-172 -92.5t-192.5 -54.5t-199.5 -18q-153 0 -283 50.5t-224.5 142t-147.5 220t-53 283.5q3 90 24.5 184t55 184t75 171.5t84.5 146.5l218 -168q-36 -59 -70 -124.5t-60 -134t-42 -136.5t-16 -131q-3 -76 30.5 -143t93 -117.5t140 -79.5t171.5 -29
q103 0 190.5 19t155 52.5t113.5 81t66 104.5l-1 -1q25 82 25 169q0 67 -19 136t-49 139.5t-66.5 142t-71.5 143.5l274 154q26 -59 52 -119t52.5 -114.5t54.5 -101.5t58 -80.5t62.5 -50.5t69.5 -12q42 6 68 29.5t39.5 58.5t17 78.5t1.5 88.5t-6.5 89t-7.5 81l276 37
q7 -31 12 -74.5t11.5 -91.5t16.5 -97t27 -91t42 -73t63 -44q31 0 58 11.5t47 33.5t31.5 54.5t11.5 75.5q0 36 -13.5 83.5t-36.5 102.5t-53.5 115.5t-64.5 122.5zM2283 1144l-192 -193l-190 190l-188 -188l-194 193l192 193l190 -190l188 188zM1723 1434l178 178l179 -179
l-178 -178z" />
    <glyph glyph-name="uniFEB7" unicode="&#x634;" horiz-adv-x="1676" arabic-form="initial" 
d="M-152 97q0 31 12 59t32 49.5t47.5 35t58.5 15.5q75 0 126.5 40.5t88.5 106.5t63 150.5t49 172.5l266 -48q-8 -35 -19.5 -81.5t-21 -96.5t-15.5 -97.5t-2.5 -83.5t18.5 -56.5t46 -15.5q40 3 72.5 28t58.5 64t46 88t34.5 101t24 103t15.5 93l254 -43q-1 -30 -7 -74
t-11 -92.5t-5 -97t11 -87t36.5 -62.5t71.5 -24q28 0 57 9.5t52 27t37.5 41.5t14.5 54q0 52 -17 114.5t-41 124t-50.5 116.5t-44.5 93l248 139l21 -45.5t34 -78.5t39.5 -103.5t37.5 -119.5t28 -127t11 -126q0 -100 -27.5 -180t-83 -136t-139 -87t-195.5 -32q-54 0 -98 10.5
t-79 29t-62.5 43.5t-48.5 53q-24 -31 -51.5 -55.5t-63 -42t-79.5 -27.5t-100 -11q-49 -1 -88.5 8.5t-72.5 27.5t-59.5 43.5t-49.5 56.5q-21 -26 -48 -48.5t-64 -39.5t-86 -27t-114 -10h-18q-31 2 -58.5 15t-47.5 34t-32 49t-12 60zM1318 1157l-192 -193l-190 190l-188 -188
l-194 193l192 193l190 -190l188 188zM758 1447l178 178l179 -179l-178 -178z" />
    <glyph glyph-name="uniFEB8" unicode="&#x634;" horiz-adv-x="1876" arabic-form="medial" 
d="M-161 98q0 31 13 59t35.5 49.5t53 34.5t65.5 15q53 0 99 17.5t87 67.5t77 141t69 238l266 -38q3 12 -3.5 -13t-15 -70.5t-16 -102t-7 -108t12 -89t40.5 -44.5q31 -8 60 12.5t55 59t48 90t40 105.5t31 106t20 92l264 -38q-2 -25 -7 -66.5t-8 -88.5t-2.5 -94.5t10.5 -86
t31 -63t58 -24.5q33 0 57 22t40.5 57.5t26.5 81t15 92.5t5 91.5t-3 78.5l270 38l33 -282q6 -46 26 -80t47 -56.5t57 -34t57 -11.5h12q37 0 67.5 -12t52.5 -33.5t34 -50.5t12 -62t-12 -62t-34.5 -50t-56 -33.5t-75.5 -12.5q-97 0 -183 34t-149 115q-6 -8 -12 -14t-11 -12v1
q-54 -57 -124.5 -90.5t-151.5 -33.5q-91 0 -167.5 39t-127.5 106q-60 -66 -136 -107t-167 -41q-85 0 -158 38t-121 104q-54 -75 -133.5 -107t-196.5 -32q-38 0 -69 12.5t-53 33.5t-34.5 50t-12.5 62zM1386 1127l-192 -193l-190 190l-188 -188l-194 193l192 193l190 -190
l188 188zM826 1417l178 178l179 -179l-178 -178z" />
    <glyph glyph-name="uniFEB6" unicode="&#x634;" horiz-adv-x="2889" arabic-form="final" 
d="M2228 -58q-86 0 -144.5 33t-96.5 83q-21 -27 -45 -48.5t-56.5 -37t-76 -23.5t-103.5 -8q-42 0 -77 6t-64 15q-1 -117 -35.5 -213t-94 -172t-139.5 -132t-172 -92.5t-192.5 -54.5t-199.5 -18q-153 0 -283 50.5t-224.5 142t-147.5 220t-53 283.5q3 90 24.5 184t55 184
t75 171.5t84.5 146.5l218 -167q-36 -59 -69 -125t-57.5 -133.5t-39.5 -135.5t-15 -131q-3 -76 29.5 -143.5t91 -118t137.5 -80t170 -29.5q69 0 137.5 9.5t131 31t116.5 55t93.5 81.5t62 111.5t22.5 144.5q0 60 -18 125.5t-47.5 134t-67 139.5t-77.5 142l277 148
q36 -86 75 -169t81 -148.5t87 -105t93 -37.5q40 1 63.5 22t36.5 55t17 78t4 92q-1 42 -3 86.5t-3 86.5l284 39q0 -28 2.5 -73.5t9 -97.5t18 -105t29.5 -95.5t43 -69.5t59 -27q33 0 58.5 30.5t43 78.5t26 106.5t8.5 114.5q0 22 -0.5 31.5t-0.5 17t-0.5 18t-0.5 34.5l271 39
l7 -79v1q2 -26 4.5 -48t5.5 -45.5t7 -50.5t9 -63q6 -46 26 -80t47 -56.5t57 -33.5t57 -11h12q37 0 67.5 -12.5t52.5 -34t34 -50.5t12 -62t-12 -62t-34 -50t-53 -33.5t-69 -12.5q-112 0 -197 35.5t-145 113.5q-54 -69 -135 -107.5t-184 -38.5zM2343 1091l-192 -193l-190 190
l-188 -188l-194 193l192 193l190 -190l188 188zM1783 1381l178 178l179 -179l-178 -178z" />
    <glyph glyph-name="uni0636" unicode="&#x636;" horiz-adv-x="2928" arabic-form="isolated" 
d="M836 -709q-103 0 -204.5 17t-191.5 56t-163.5 103.5t-120.5 159.5q-17 34 -31.5 73t-25.5 79.5t-17 82t-6 80.5q0 72 12.5 145t32.5 143t45 135t50.5 121t48.5 101t39 76l224 -160q-7 -9 -23 -38.5t-35.5 -73.5t-40.5 -98.5t-38.5 -114t-28.5 -121t-11 -117.5
q0 -91 42.5 -154t111 -102t153 -56.5t168.5 -17.5q97 0 186.5 29t158.5 84.5t110 137t41 186.5q0 68 -16.5 135.5t-42.5 135.5t-57.5 137.5t-60.5 141.5l277 153q26 -66 48 -120t42 -96.5t39 -74t40 -52.5q36 56 82.5 115.5t103.5 116.5t123.5 108t142.5 89.5t161 61
t179 22.5q97 0 185.5 -34t156 -93.5t107.5 -141t40 -177.5v-16.5t-1 -15.5v1q-8 -101 -46.5 -180t-98 -138.5t-135.5 -101t-159.5 -67.5t-169.5 -38t-165 -12q-109 0 -212 17.5t-188 47.5q-26 11 -50.5 21t-47.5 21q-3 -157 -60.5 -289.5t-158 -228.5t-239.5 -150t-305 -54z
M2327 595q-66 -18 -140 -51.5t-142.5 -78t-125.5 -97t-89 -108.5q26 -7 61 -13.5t72.5 -11.5t74 -8t66.5 -3q40 0 93 4.5t109.5 15t111 28t98.5 43.5t72.5 62t31.5 83q2 40 -25 71.5t-69.5 50t-95.5 22.5t-103 -9zM2268 1474l222 -222l-222 -222l-222 222z" />
    <glyph glyph-name="uniFEBF" unicode="&#x636;" horiz-adv-x="1909" arabic-form="initial" 
d="M-159 98q0 33 12.5 62t34.5 50.5t51 33.5t61 12q49 0 84 7t58.5 17.5t37.5 23t22 23.5l-1 -1q14 21 28 48.5t30.5 73.5t36 116.5t44.5 176.5l262 -85q-10 -38 -19 -72.5t-12.5 -67.5t-0.5 -66t17 -69q42 70 88 138.5t99.5 130t115.5 114.5t136.5 91.5t162.5 61t194 23.5
q122 1 215 -40.5t155.5 -109t92.5 -153t26 -170.5q-5 -106 -54.5 -198t-128.5 -158q-73 -57 -162.5 -94t-184 -58.5t-189 -30t-177.5 -8.5q-98 0 -176 6t-145.5 23.5t-127 49t-119.5 82.5q-72 -72 -169.5 -106t-229.5 -35h-9q-32 0 -61 12t-51 33.5t-34.5 50.5t-12.5 62z
M1379 622q-96 0 -185 -37.5t-162.5 -93.5t-129 -120t-85.5 -118q39 -2 88 -3t95 -1q62 0 128.5 3.5t131 13t124 26.5t108 43.5t83 63.5t48.5 87q-10 70 -74.5 103t-169.5 33zM1293 1535l222 -222l-222 -222l-222 222z" />
    <glyph glyph-name="uniFEC0" unicode="&#x636;" horiz-adv-x="1931" arabic-form="medial" 
d="M-159 97q0 33 12.5 62t33.5 50.5t50 34t62 12.5h9h-1q104 3 134 18q35 17 61 52q15 19 27.5 45t27.5 71.5t34.5 116.5t48.5 181l262 -84q-16 -42 -24 -80.5t-9.5 -75.5t2 -73.5t9.5 -75.5q19 33 46.5 76.5t61 90.5t71.5 93.5t79 86.5q97 91 208.5 149.5t228.5 80.5
q32 6 60 8.5t54 2.5q109 0 204.5 -36.5t167.5 -111.5q67 -70 96.5 -154t24.5 -172q-5 -58 -28.5 -109.5t-49.5 -99.5h129q33 0 62 -12.5t50.5 -34t34.5 -50.5t13 -62t-13 -62t-34.5 -50t-50.5 -33t-62 -12l-252 -1q-53 0 -94.5 1t-74.5 3.5t-59 8t-49 14.5
q-52 -14 -106.5 -22.5t-108 -13.5t-105.5 -7t-98 -2q-88 0 -168.5 3t-153 21.5t-137 57.5t-119.5 111q-7 -20 -22 -38t-34 -34t-39 -28.5t-36 -20.5q-111 -53 -278 -53q-33 0 -62 12t-50 33t-33.5 50t-12.5 62zM1022 484q-29 -28 -57 -59t-53 -61.5t-46 -59.5t-36 -53
q38 -4 87.5 -6t90.5 -2q67 0 136.5 5.5t134.5 17t123.5 30t104 45t76 61.5t39.5 80q-6 34 -30 61t-57.5 45.5t-72 28.5t-74.5 10q-46 0 -95.5 -11t-98 -30t-93 -45t-79.5 -57zM1343 1513l222 -222l-222 -222l-222 222z" />
    <glyph glyph-name="uniFEBE" unicode="&#x636;" horiz-adv-x="2889" arabic-form="final" 
d="M795 -709q-103 0 -204.5 17t-191.5 56t-163.5 103.5t-120.5 159.5q-17 34 -31.5 73t-25.5 79.5t-17 82t-6 80.5q0 72 12.5 145t32.5 143t45 135t50.5 121t48.5 101t39 76l224 -162q-7 -9 -23 -38.5t-35.5 -73t-40.5 -98t-38.5 -113.5t-28.5 -120t-11 -118
q0 -91 42.5 -154t111 -102t153 -56.5t168.5 -17.5q97 0 185.5 27t156 81t108.5 135t43 189q1 68 -15 136t-41.5 137t-57 139.5t-60.5 142.5l281 154q30 -74 52 -129.5t40 -97.5t35 -71.5t38 -50.5q32 57 76.5 116.5t100 116.5t122.5 107t144.5 89t164.5 62.5t184 26.5
t185.5 -30.5t156 -93.5t107.5 -143t40 -179v-16.5t-1 -15.5q-4 -49 -15.5 -93.5t-30.5 -84.5q15 -3 36.5 -5t41.5 -3h8q33 0 62 -12.5t50.5 -34t34 -50.5t12.5 -62t-12.5 -61.5t-34 -50t-50.5 -33.5t-62 -12q-56 0 -103 7.5t-85.5 20t-69 29t-51.5 33.5
q-57 -32 -120.5 -55.5t-129 -38.5t-130.5 -22.5t-125 -7.5q-109 0 -212 17.5t-188 47.5q-26 11 -50.5 21t-47.5 21q-3 -157 -60.5 -289.5t-158 -228.5t-239.5 -150t-305 -54zM2286 593q-66 -18 -140 -51.5t-142.5 -78t-125.5 -97t-89 -108.5q26 -7 61 -13.5t72.5 -11.5
t74 -8t66.5 -3q40 0 93 4.5t109.5 15t111 28t98.5 43.5t72.5 62t31.5 83q2 40 -25 71.5t-69.5 50t-95.5 22.5t-103 -9zM2284 1468l222 -222l-222 -222l-222 222z" />
    <glyph glyph-name="uni0638" unicode="&#x638;" horiz-adv-x="1787" arabic-form="isolated" 
d="M856 -60q-113 0 -218.5 7.5t-208 26.5t-205 52.5t-210.5 85.5l115 295q84 -32 151 -55.5t115 -37.5q19 26 42.5 57.5t57.5 76.5q6 45 10.5 82.5t7 71.5t4 66t1.5 66q0 46 -4 117t-9.5 151.5t-13 163t-14 152.5t-12.5 119t-9 63l317 84l11 -106q8 -72 16.5 -154.5
t15.5 -169.5t12.5 -177t7.5 -177q48 42 94.5 77t98 60.5t112 40.5t136.5 17q79 2 156.5 -22.5t140.5 -72.5t106 -119.5t53 -162.5q1 -129 -38 -229.5t-105.5 -175.5t-155 -127.5t-186.5 -84.5t-199 -46.5t-193 -14.5zM1277 674q-60 0 -135.5 -31t-154.5 -87t-155.5 -134
t-139.5 -172q35 -3 73 -4.5t70 -1.5q150 0 270.5 30.5t205 77.5t129 103t41.5 107q-5 30 -28.5 51.5t-55 35t-64.5 19.5t-56 6zM1271 1590l222 -222l-222 -222l-222 222z" />
    <glyph glyph-name="uniFEC7" unicode="&#x638;" horiz-adv-x="1520" arabic-form="initial" 
d="M-162 98q0 32 13 60.5t34.5 50.5t50.5 34.5t61 12.5h116q17 29 47 78t78 109q8 63 14 155t7 200q0 60 -4 136.5t-11.5 166.5t-18.5 191t-24 210l322 82q14 -103 25 -199t18.5 -192t11.5 -194.5t4 -205.5q52 41 107.5 77.5t115 63.5t123.5 42.5t135 15.5q82 0 155 -26
t129.5 -75t93 -119t45.5 -158q5 -120 -29 -217t-96.5 -172t-149 -129t-187 -89t-209.5 -51.5t-217 -16.5l-592 1h-9q-32 0 -61 12t-50.5 33t-34.5 50t-13 63zM1032 672q-60 1 -135.5 -28.5t-154.5 -84.5t-155.5 -132t-139.5 -171q35 -3 73 -4.5t70 -1.5q150 0 270.5 29.5
t205 75t129 100t41.5 105.5q-5 30 -25.5 51t-49.5 34t-63 19.5t-66 7.5zM1031 1606l222 -222l-222 -222l-222 222z" />
    <glyph glyph-name="uniFEC8" unicode="&#x638;" horiz-adv-x="1570" arabic-form="medial" 
d="M-162 98q0 32 13 60.5t34.5 50.5t50.5 34.5t61 12.5h116q17 29 47 78t78 109q8 63 14 155t7 200q0 40 -0.5 77t-2 78.5t-5 91t-8.5 114.5t-13 149t-19 194l322 82q14 -103 23.5 -199t15 -192t8 -194.5t2.5 -205.5q52 41 107.5 77.5t115 63.5t123.5 42.5t135 15.5
q82 0 155 -26t129.5 -75t93 -119t45.5 -158q4 -109 -23.5 -197.5t-78.5 -160.5h201q33 0 62 -12t50.5 -33t33.5 -50t12 -62t-12 -62t-33.5 -50.5t-50.5 -34t-63 -12.5h-247q-79 0 -175.5 6.5t-214.5 36.5q-85 -23 -173 -33.5t-176 -10.5l-592 1h-9q-32 0 -61 12t-50.5 33
t-34.5 50t-13 63zM483 256q59 0 138.5 3t164.5 13t167 29.5t146 53t102 83.5t34 121q-2 22 -22 42t-52 35t-72 24t-81 9q-45 -3 -111.5 -25.5t-142.5 -70.5t-156.5 -125.5t-154.5 -191.5h40zM1051 1578l222 -222l-222 -222l-222 222z" />
    <glyph glyph-name="uniFEC6" unicode="&#x638;" horiz-adv-x="1868" arabic-form="final" 
d="M906 -60q-113 0 -218.5 7.5t-208 26.5t-205 52.5t-210.5 85.5l115 295q84 -32 151 -55.5t115 -37.5q19 26 42.5 57.5t57.5 76.5q6 45 10.5 82.5t7 71.5t4 66t1.5 66q0 46 -3.5 117t-9.5 151.5t-12.5 163t-13.5 152.5t-12.5 119t-8.5 63l317 84l11 -106q8 -72 16 -154.5
t15 -169.5t12 -177t7 -177q48 42 94.5 77t98 60.5t112 40.5t136.5 17q79 2 156.5 -22.5t140.5 -72.5t106 -119.5t53 -162.5q1 -112 -28 -201t-81 -161h193q33 0 62 -12t50.5 -33t33.5 -50t12 -62t-12 -62t-33.5 -50.5t-50.5 -34t-63 -12.5h-257q-22 0 -61 0.5t-84.5 3t-92 9
t-84.5 18.5q-46 -12 -95.5 -18.5t-99 -9t-97 -3t-89.5 -0.5zM1324 674q-60 0 -135.5 -31t-154.5 -87t-155.5 -134t-139.5 -172q35 -3 73 -4.5t70 -1.5q150 0 270.5 30.5t205 77.5t129 103t41.5 107q-5 30 -28.5 51.5t-55 35t-64.5 19.5t-56 6zM1277 1579l222 -222l-222 -222
l-222 222z" />
    <glyph glyph-name="uni063A" unicode="&#x63a;" horiz-adv-x="1543" arabic-form="isolated" 
d="M828 -846q-77 0 -159.5 14.5t-163.5 45t-157.5 78t-140.5 113.5q-81 88 -121.5 201.5t-40.5 242.5q0 124 39.5 238t117.5 214q63 81 143.5 141t171.5 108q-25 25 -46.5 57t-37.5 70.5t-25.5 84.5t-9.5 100q1 62 21 121.5t54 113.5t80.5 100t101 80.5t115 55t122.5 23.5
q70 3 130 -6.5t114.5 -30t106.5 -52t106 -72.5l-124 -237q-47 25 -99 45q-45 17 -101.5 29t-116.5 7q-38 -3 -80 -19t-77.5 -42t-59 -61t-23.5 -76q0 -35 24.5 -64.5t65.5 -50t95.5 -30.5t114.5 -6l376 25l-24 -313q-79 -10 -160 -17t-164.5 -20t-168 -36t-170.5 -65
q-23 -11 -57 -30t-72 -46t-76 -62t-68 -77t-49 -92.5t-19 -107.5q0 -61 21 -112t58 -91.5t87 -71.5t107 -51.5t119 -30.5t124 -10q59 0 124 9t131.5 28.5t133 50t128.5 74.5l156 -244q-78 -66 -166.5 -112.5t-177.5 -76.5t-175 -43.5t-158 -13.5zM930 1955l222 -222
l-222 -222l-222 222z" />
    <glyph glyph-name="uniFECF" unicode="&#x63a;" horiz-adv-x="1119" arabic-form="initial" 
d="M919 601q-26 14 -52.5 25.5t-54.5 21.5q-48 17 -107 28t-122 4q-43 -5 -82.5 -23t-70 -44.5t-48.5 -59.5t-18 -67q0 -48 30 -84.5t76.5 -60.5t102.5 -36t109 -10q57 5 118.5 14t115.5 19q31 5 62 11t62 13l41 -311q-67 -18 -150 -35.5t-188 -32t-235 -23t-290 -8.5
l-218 -2q-33 0 -62.5 12.5t-51 34t-34 50.5t-12.5 62t13 61t35 49t50.5 33.5t60.5 14.5l156 2q-36 57 -50 116t-13 129q1 88 39.5 173t105 153t155.5 113t191 53q51 4 98 -0.5t89 -15t79 -25t67 -30.5q35 -19 67 -40.5t60 -46.5zM546 1583l222 -222l-222 -222l-222 222z" />
    <glyph glyph-name="uniFED0" unicode="&#x63a;" horiz-adv-x="1170" arabic-form="medial" 
d="M1157 256q32 0 61 -13t50.5 -34.5t34.5 -50.5t13 -62t-13 -61.5t-34.5 -50t-50.5 -33.5t-61 -12q-79 0 -154 5t-144.5 19t-131.5 39.5t-115 66.5q-59 -36 -133 -61t-154 -40.5t-161 -22t-152 -6.5q-32 0 -61 12t-51 33.5t-34.5 50t-12.5 61.5t12.5 62t34.5 50.5t51 34.5
t61 13q35 0 73.5 2t77.5 5.5t77 9.5t72 14q-11 10 -20 19.5t-19 19.5h1q-54 54 -110.5 111t-125.5 120l16 234q59 52 122 88.5t124.5 60.5t118 37t101.5 18q22 2 47 3.5t49 1.5q78 0 160.5 -16t149.5 -44q58 -27 97 -61t62 -68t33.5 -66t11.5 -54q3 -45 -12 -98.5
t-43.5 -109t-67.5 -109t-84 -98.5q106 -20 234 -20zM616 689q-24 0 -61 -3.5t-77 -9.5t-77.5 -14t-63.5 -17l275 -235q29 21 66.5 52t73.5 64.5t65.5 66.5t43.5 58q-23 10 -54 17.5t-64.5 12t-66.5 6.5t-60 2zM601 1564l222 -222l-222 -222l-222 222z" />
    <glyph glyph-name="uniFECE" unicode="&#x63a;" horiz-adv-x="1351" arabic-form="final" 
d="M288 -218q0 -54 22.5 -100t61 -82.5t88.5 -64t105 -44.5t111 -24t107 -3q115 0 227 36.5t206 99.5l155 -249q-56 -46 -130.5 -84t-156.5 -65t-165.5 -41.5t-158.5 -13.5q-64 1 -144 12t-162 38t-160 72.5t-139 115.5t-98.5 168t-38.5 229q-1 81 23.5 158.5t57.5 140.5
q28 52 66.5 98t83.5 85.5t95.5 73t102.5 60.5q-36 32 -74.5 64.5t-68.5 58.5l-67 57l-21 241q50 45 104.5 81.5t107.5 64.5t102.5 47t88.5 28q58 14 115 20t112 6q60 0 116 -8t104 -23q58 -20 106 -51t81.5 -71t51 -87.5t15.5 -100.5q1 -63 -19 -121.5t-56.5 -110t-86.5 -94
t-108 -72.5q72 -33 149.5 -52t149.5 -19q33 0 61.5 -13t50 -35t33.5 -51t12 -60q0 -33 -12 -62t-33.5 -50t-50 -33.5t-61.5 -12.5q-84 0 -164.5 17t-159.5 48t-156 74t-153 95q-46 -19 -95 -41.5t-96.5 -50t-90.5 -59t-75.5 -69t-51.5 -80t-19 -91.5zM848 782
q-51 1 -101.5 -6t-96 -18.5t-84.5 -25.5t-68 -26q58 -48 121.5 -94t133.5 -86q58 19 111.5 43t94.5 50.5t66 54.5t27 57q-2 2 -15.5 9.5t-39 16.5t-63 16.5t-86.5 8.5zM775 1632l222 -222l-222 -222l-222 222z" />
    <glyph glyph-name="uniFB90" unicode="&#x6a9;" horiz-adv-x="1039" arabic-form="initial" 
d="M-179 97q0 34 12 63t34.5 50.5t53 33.5t68.5 12h56h49q54 0 119 1.5t125.5 10t109 25.5t70.5 47q30 46 30 105q0 20 -3.5 40.5t-8.5 42.5q-7 25 -29.5 60.5t-57.5 78t-80 90t-96 97t-107 98.5t-112 95l31 272l840 374l121 -268l-664 -308q49 -34 101 -81t101 -102.5
t92 -117.5t75 -127t50.5 -131t17.5 -129q-1 -75 -20 -139.5t-47 -115.5q-104 -186 -343 -227l1 1q-27 -5 -51 -7t-47 -2l-323 1q-37 0 -68 12t-53 33.5t-34.5 50t-12.5 61.5z" />
    <glyph glyph-name="uniFB91" unicode="&#x6a9;" horiz-adv-x="1197" arabic-form="medial" 
d="M-158 98q0 33 12.5 62t34.5 50t51 33.5t61 12.5h9h330q29 0 66.5 12t71.5 31.5t59 44t29 49.5q3 50 -18 108t-58.5 118.5t-86.5 121t-102 115.5t-106 102t-98 81l27 275l919 385l116 -275l-759 -310q69 -64 125 -124.5t102.5 -120.5t85 -121t71.5 -125l10 -18l-1 1
q23 -42 45.5 -83.5t48.5 -83.5q24 -38 52.5 -70.5t62.5 -57.5t72.5 -39.5t82.5 -15.5h-1h42q33 0 62 -12.5t50.5 -33.5t33.5 -50t12 -62t-12 -62t-33.5 -50.5t-50.5 -33.5t-62 -12h-8q-76 0 -135.5 10t-117.5 29q-60 22 -112 59t-97 83q-11 -14 -25 -29t-28 -29
q-38 -34 -80 -56.5t-86 -37t-90 -21t-92 -8.5h-326q-32 0 -61 12t-51 33.5t-34.5 50.5t-12.5 62z" />
    <glyph glyph-name="uni0641" unicode="&#x641;" horiz-adv-x="1987" arabic-form="isolated" 
d="M977 -60q-9 0 -41 0.5t-79.5 3.5t-106.5 8t-121 15t-123 24.5t-113 35.5q-227 88 -312 258v-1q-48 93 -48 206q0 49 12 106t31 111q24 63 52 111.5t58 102.5l235 -197q-15 -21 -35 -54.5t-38.5 -70.5t-31 -74.5t-12.5 -65.5q0 -20 6 -33q20 -41 78.5 -72.5t147 -53.5
t203 -33t246.5 -11q37 0 96 1.5t127.5 5t141 10t138 16.5t117.5 23.5t79 31.5q-101 -11 -186 -8.5t-152 16.5t-114.5 38.5t-72.5 56.5v-1q-27 34 -50.5 91t-23.5 141q0 45 6 84q30 170 120 281l-1 -1q54 72 122 107.5t143 35.5q76 0 150 -37t134 -100q43 -49 77.5 -111
t59 -132t38 -145.5t13.5 -151.5q0 -23 -1 -45.5t-3 -42.5q-12 -103 -57.5 -179t-116.5 -129.5t-162 -87t-194.5 -52t-214.5 -25.5t-221 -7zM1473 867q-23 1 -46.5 -13.5t-43 -38.5t-32 -55t-12.5 -63q0 -28 13 -50q7 -12 28.5 -20.5t51 -14t63.5 -9t65 -4.5t56.5 0t37.5 3
q-9 45 -23.5 91t-36.5 84t-52 63t-69 27zM1460 1761l222 -222l-222 -222l-222 222z" />
    <glyph glyph-name="uniFED3" unicode="&#x641;" horiz-adv-x="941" arabic-form="initial" 
d="M-161 98q0 33 12.5 62t34 50.5t51 33.5t62.5 12q37 0 91.5 1.5t116.5 5.5t126.5 10t123 16t106 23.5t74.5 31.5q-101 -11 -186 -8.5t-152 16.5t-114.5 38.5t-72.5 56.5v-1q-27 34 -50.5 91t-23.5 141q0 45 6 84q30 170 120 281l-1 -1q54 72 122 107.5t143 35.5
q76 0 150 -37t134 -100q43 -49 77.5 -111t59 -132t38 -145.5t13.5 -151.5q0 -23 -1 -45.5t-3 -42.5q-12 -104 -53 -179.5t-104.5 -128.5t-145.5 -86t-176 -52t-196.5 -26t-206.5 -8h-17q-33 0 -62 12.5t-50 33.5t-33.5 50t-12.5 62zM426 867q-23 1 -46.5 -13.5t-43 -38.5
t-32 -55t-12.5 -63q0 -28 13 -50q7 -12 28.5 -20.5t51 -14t63.5 -9t65 -4.5t56.5 0t37.5 3q-9 45 -23.5 91t-36.5 84t-52 63t-69 27zM387 1755l222 -222l-222 -222l-222 222z" />
    <glyph glyph-name="uniFED4" unicode="&#x641;" horiz-adv-x="1075" arabic-form="medial" 
d="M-160 98q0 34 12 63t33.5 50t50.5 33t62 12h68q20 0 40 -0.5t40 -0.5q18 0 24 -0.5t8.5 -1t6 -0.5t15.5 2q-18 20 -34.5 46t-30 56.5t-22.5 65t-11 72.5q1 94 32 181.5t88 159.5q63 78 145 122t170 40q87 -4 162 -45t129.5 -106t86 -147.5t31.5 -169.5q0 -69 -23 -135.5
t-58 -126.5q48 -5 100.5 -8.5t92.5 -3.5q34 0 63 -12t50.5 -33t33.5 -50t12 -63q0 -33 -12 -62t-33.5 -50.5t-50.5 -33.5t-63 -12h-9q-32 0 -70 1.5t-76 3.5t-74.5 5.5t-65.5 7.5q-54 8 -109.5 21t-115.5 42q-37 -21 -98.5 -36.5t-134.5 -25t-151 -14.5t-148 -5h-8
q-33 0 -62 12t-50.5 33.5t-33.5 50.5t-12 62zM681 507q0 32 -15.5 61t-38 52t-48.5 38.5t-47 21.5q-23 -5 -52.5 -18t-56 -36.5t-44.5 -57t-18 -79.5q0 -15 15.5 -41.5t40 -54t56 -51t64.5 -33.5q25 14 51 38.5t46.5 52t33.5 56t13 51.5zM525 1579l222 -222l-222 -222
l-222 222z" />
    <glyph glyph-name="uniFED2" unicode="&#x641;" horiz-adv-x="2101" arabic-form="final" 
d="M963 -60q-8 0 -40.5 0.5t-80.5 3.5t-107.5 8.5t-122 15t-123.5 24t-113 35.5q-227 88 -312 258v-1q-48 93 -48 206q0 49 12 106t31 111q24 63 52 111.5t58 102.5l235 -197q-15 -21 -35 -54.5t-38.5 -70.5t-31 -74.5t-12.5 -65.5q0 -20 6 -33q20 -41 78.5 -72.5t147 -53.5
t203 -33t246.5 -11q39 0 84 0.5t85 1.5t70.5 2t41.5 2q-36 40 -65 99t-33 134q1 94 32 181.5t88 159.5q63 78 145 122t170 40q87 -4 162 -45t129.5 -106t86 -147.5t31.5 -169.5q0 -69 -23 -135.5t-58 -126.5q48 -5 100.5 -8.5t92.5 -3.5q34 0 63 -12t50.5 -33t33.5 -50
t12 -63q0 -33 -12 -62t-33.5 -50.5t-50.5 -33.5t-63 -12h-9q-32 0 -70 1.5t-76 3.5t-74.5 5.5t-65.5 7.5q-54 8 -109.5 21t-115.5 42q-24 -14 -66.5 -25t-95.5 -20t-113.5 -16t-121.5 -11.5t-119.5 -6.5t-107.5 -2zM1730 507q0 32 -15.5 61t-38 52t-48.5 38.5t-47 21.5
q-23 -5 -52.5 -18t-56 -36.5t-44.5 -57t-18 -79.5q0 -15 15.5 -41.5t40 -54t56 -51t64.5 -33.5q25 14 51 38.5t46.5 52t33.5 56t13 51.5zM1578 1559l222 -222l-222 -222l-222 222z" />
    <glyph glyph-name="uniFB6A" unicode="&#x6a4;" horiz-adv-x="1959" arabic-form="isolated" 
d="M977 -60q-9 0 -41 0.5t-79.5 3.5t-106.5 8t-121 15t-123 24.5t-113 35.5q-227 88 -312 258v-1q-48 93 -48 206q0 49 12 106t31 111q24 63 52 111.5t58 102.5l235 -197q-15 -21 -35 -54.5t-38.5 -70.5t-31 -74.5t-12.5 -65.5q0 -20 6 -33q20 -41 78.5 -72.5t147 -53.5
t203 -33t246.5 -11q37 0 96 1.5t127.5 5t141 10t138 16.5t117.5 23.5t79 31.5q-101 -11 -186 -8.5t-152 16.5t-114.5 38.5t-72.5 56.5v-1q-27 34 -50.5 91t-23.5 141q0 45 6 84q30 170 120 281l-1 -1q54 72 122 107.5t143 35.5q76 0 150 -37t134 -100q43 -49 77.5 -111
t59 -132t38 -145.5t13.5 -151.5q0 -23 -1 -45.5t-3 -42.5q-12 -103 -57.5 -179t-116.5 -129.5t-162 -87t-194.5 -52t-214.5 -25.5t-221 -7zM1473 867q-23 1 -46.5 -13.5t-43 -38.5t-32 -55t-12.5 -63q0 -28 13 -50q7 -12 28.5 -20.5t51 -14t63.5 -9t65 -4.5t56.5 0t37.5 3
q-9 45 -23.5 91t-36.5 84t-52 63t-69 27zM1830 1488l-192 -193l-190 190l-188 -188l-194 193l192 193l190 -190l188 188zM1270 1778l178 178l179 -179l-178 -178z" />
    <glyph glyph-name="uniFB6C" unicode="&#x6a4;" horiz-adv-x="896" arabic-form="initial" 
d="M-161 98q0 33 12.5 62t34 50.5t51 33.5t62.5 12q37 0 91.5 1.5t116.5 5.5t126.5 10t123 16t106 23.5t74.5 31.5q-101 -11 -186 -8.5t-152 16.5t-114.5 38.5t-72.5 56.5v-1q-27 34 -50.5 91t-23.5 141q0 45 6 84q30 170 120 281l-1 -1q54 72 122 107.5t143 35.5
q76 0 150 -37t134 -100q43 -49 77.5 -111t59 -132t38 -145.5t13.5 -151.5q0 -23 -1 -45.5t-3 -42.5q-12 -104 -53 -179.5t-104.5 -128.5t-145.5 -86t-176 -52t-196.5 -26t-206.5 -8h-17q-33 0 -62 12.5t-50 33.5t-33.5 50t-12.5 62zM426 867q-23 1 -46.5 -13.5t-43 -38.5
t-32 -55t-12.5 -63q0 -28 13 -50q7 -12 28.5 -20.5t51 -14t63.5 -9t65 -4.5t56.5 0t37.5 3q-9 45 -23.5 91t-36.5 84t-52 63t-69 27zM733 1389l-192 -193l-190 190l-188 -188l-194 193l192 193l190 -190l188 188zM173 1679l178 178l179 -179l-178 -178z" />
    <glyph glyph-name="uniFB6D" unicode="&#x6a4;" horiz-adv-x="1066" arabic-form="medial" 
d="M-160 98q0 34 12 63t33.5 50t50.5 33t62 12h68q20 0 40 -0.5t40 -0.5q18 0 24 -0.5t8.5 -1t6 -0.5t15.5 2q-18 20 -34.5 46t-30 56.5t-22.5 65t-11 72.5q1 94 32 181.5t88 159.5q63 78 145 122t170 40q87 -4 162 -45t129.5 -106t86 -147.5t31.5 -169.5q0 -69 -23 -135.5
t-58 -126.5q48 -5 100.5 -8.5t92.5 -3.5q34 0 63 -12t50.5 -33t33.5 -50t12 -63q0 -33 -12 -62t-33.5 -50.5t-50.5 -33.5t-63 -12h-9q-32 0 -70 1.5t-76 3.5t-74.5 5.5t-65.5 7.5q-54 8 -109.5 21t-115.5 42q-37 -21 -98.5 -36.5t-134.5 -25t-151 -14.5t-148 -5h-8
q-33 0 -62 12t-50.5 33.5t-33.5 50.5t-12 62zM681 507q0 32 -15.5 61t-38 52t-48.5 38.5t-47 21.5q-23 -5 -52.5 -18t-56 -36.5t-44.5 -57t-18 -79.5q0 -15 15.5 -41.5t40 -54t56 -51t64.5 -33.5q25 14 51 38.5t46.5 52t33.5 56t13 51.5zM892 1291l-192 -193l-190 190
l-188 -188l-194 193l192 193l190 -190l188 188zM332 1581l178 178l179 -179l-178 -178z" />
    <glyph glyph-name="uniFB6B" unicode="&#x6a4;" horiz-adv-x="2106" arabic-form="final" 
d="M963 -60q-8 0 -40.5 0.5t-80.5 3.5t-107.5 8.5t-122 15t-123.5 24t-113 35.5q-227 88 -312 258v-1q-48 93 -48 206q0 49 12 106t31 111q24 63 52 111.5t58 102.5l235 -197q-15 -21 -35 -54.5t-38.5 -70.5t-31 -74.5t-12.5 -65.5q0 -20 6 -33q20 -41 78.5 -72.5t147 -53.5
t203 -33t246.5 -11q39 0 84 0.5t85 1.5t70.5 2t41.5 2q-36 40 -65 99t-33 134q1 94 32 181.5t88 159.5q63 78 145 122t170 40q87 -4 162 -45t129.5 -106t86 -147.5t31.5 -169.5q0 -69 -23 -135.5t-58 -126.5q48 -5 100.5 -8.5t92.5 -3.5q34 0 63 -12t50.5 -33t33.5 -50
t12 -63q0 -33 -12 -62t-33.5 -50.5t-50.5 -33.5t-63 -12h-9q-32 0 -70 1.5t-76 3.5t-74.5 5.5t-65.5 7.5q-54 8 -109.5 21t-115.5 42q-24 -14 -66.5 -25t-95.5 -20t-113.5 -16t-121.5 -11.5t-119.5 -6.5t-107.5 -2zM1730 507q0 32 -15.5 61t-38 52t-48.5 38.5t-47 21.5
q-23 -5 -52.5 -18t-56 -36.5t-44.5 -57t-18 -79.5q0 -15 15.5 -41.5t40 -54t56 -51t64.5 -33.5q25 14 51 38.5t46.5 52t33.5 56t13 51.5zM1972 1275l-192 -193l-190 190l-188 -188l-194 193l192 193l190 -190l188 188zM1412 1565l178 178l179 -179l-178 -178z" />
    <glyph glyph-name="uniFED7" unicode="&#x642;" horiz-adv-x="946" arabic-form="initial" 
d="M-161 98q0 33 12.5 62t34 50.5t51 33.5t62.5 12q37 0 91.5 1.5t116.5 5.5t126.5 10t123 16t106 23.5t74.5 31.5q-101 -11 -186 -8.5t-152 16.5t-114.5 38.5t-72.5 56.5v-1q-27 34 -50.5 91t-23.5 141q0 45 6 84q30 170 120 281l-1 -1q54 72 122 107.5t143 35.5
q76 0 150 -37t134 -100q43 -49 77.5 -111t59 -132t38 -145.5t13.5 -151.5q0 -23 -1 -45.5t-3 -42.5q-12 -104 -53 -179.5t-104.5 -128.5t-145.5 -86t-176 -52t-196.5 -26t-206.5 -8h-17q-33 0 -62 12.5t-50 33.5t-33.5 50t-12.5 62zM426 867q-23 1 -46.5 -13.5t-43 -38.5
t-32 -55t-12.5 -63q0 -28 13 -50q7 -12 28.5 -20.5t51 -14t63.5 -9t65 -4.5t56.5 0t37.5 3q-9 45 -23.5 91t-36.5 84t-52 63t-69 27zM786 1503l-192 -193l-190 190l-188 -188l-194 193l192 193l190 -190l188 188z" />
    <glyph glyph-name="uniFED8" unicode="&#x642;" horiz-adv-x="1097" arabic-form="medial" 
d="M-137 98q0 34 12 63t33.5 50t50.5 33t62 12h68q20 0 40 -0.5t40 -0.5q18 0 24 -0.5t8.5 -1t6 -0.5t15.5 2q-18 20 -34.5 46t-30 56.5t-22.5 65t-11 72.5q1 94 32 181.5t88 159.5q63 78 145 122t170 40q87 -4 162 -45t129.5 -106t86 -147.5t31.5 -169.5q0 -69 -23 -135.5
t-58 -126.5q48 -5 100.5 -8.5t92.5 -3.5q34 0 63 -12t50.5 -33t33.5 -50t12 -63q0 -33 -12 -62t-33.5 -50.5t-50.5 -33.5t-63 -12h-9q-32 0 -70 1.5t-76 3.5t-74.5 5.5t-65.5 7.5q-54 8 -109.5 21t-115.5 42q-37 -21 -98.5 -36.5t-134.5 -25t-151 -14.5t-148 -5h-8
q-33 0 -62 12t-50.5 33.5t-33.5 50.5t-12 62zM704 507q0 32 -15.5 61t-38 52t-48.5 38.5t-47 21.5q-23 -5 -52.5 -18t-56 -36.5t-44.5 -57t-18 -79.5q0 -15 15.5 -41.5t40 -54t56 -51t64.5 -33.5q25 14 51 38.5t46.5 52t33.5 56t13 51.5zM924 1343l-192 -193l-190 190
l-188 -188l-194 193l192 193l190 -190l188 188z" />
    <glyph glyph-name="uni0642" unicode="&#x642;" horiz-adv-x="1592" arabic-form="isolated" 
d="M775 -381q87 0 162.5 24t137 66.5t107.5 101.5t73 129l-190 1q-118 10 -213 51.5t-152 114.5l1 -1q-42 51 -66 112t-24 133q0 54 12 109t32.5 107.5t46.5 99.5t54 84q58 75 130 114t151 39q168 0 305 -149q48 -54 85.5 -121t63.5 -143t40 -158.5t14 -166.5
q0 -23 -0.5 -45.5t-1.5 -45.5q0 -10 -4 -46.5t-15.5 -89t-31.5 -116t-53 -126.5q-42 -81 -104.5 -152t-131.5 -119q-88 -60 -197.5 -92.5t-234.5 -32.5q-103 0 -202.5 22t-177.5 60q-85 43 -153 104.5t-113 140.5v-1q-49 79 -74 171.5t-25 198.5q0 75 7.5 143.5t24 136
t43.5 137t66 146.5l252 -106q-39 -72 -63.5 -134.5t-38 -118t-18.5 -106t-5 -97.5q0 -89 40 -160t106.5 -120t153.5 -74.5t181 -24.5zM1037 585q-29 3 -58.5 -17.5t-53.5 -54t-38 -75.5t-11 -82v1q2 -27 29 -45.5t62 -30t69 -17t49 -6.5q17 -2 40 -2.5t44 -0.5q35 0 60 0.5
t48 1.5q-2 28 -11 62t-24 69t-35.5 69t-46.5 61t-57 45t-66 22zM1388 1165l-192 -193l-190 190l-188 -188l-194 193l192 193l190 -190l188 188z" />
    <glyph glyph-name="uniFED6" unicode="&#x642;" horiz-adv-x="1565" arabic-form="final" 
d="M775 -381q87 0 162.5 24t137 66.5t107.5 101.5t73 129l-190 1q-118 10 -213 51.5t-152 114.5l1 -1q-42 51 -66 112t-24 133q0 54 12 109t32.5 107.5t46.5 99.5t54 84q58 75 130 114t151 39q168 0 305 -149q83 -94 134 -224t65 -275h29q33 0 62 -12t50.5 -33.5t34.5 -50.5
t13 -63q0 -32 -13 -60.5t-34.5 -50t-50.5 -34t-62 -12.5h-46q-11 -54 -31.5 -116.5t-53.5 -126.5q-42 -81 -104.5 -152t-131.5 -119q-88 -60 -197.5 -92.5t-234.5 -32.5q-103 0 -202.5 22t-177.5 60q-85 43 -153 104.5t-113 140.5v-1q-49 79 -74 171.5t-25 198.5
q0 75 7.5 143.5t24 136t43.5 137t66 146.5l252 -106q-39 -72 -63.5 -134.5t-38 -118t-18.5 -106t-5 -97.5q0 -89 40 -160t106.5 -120t153.5 -74.5t181 -24.5zM1037 585q-29 3 -58.5 -17.5t-53.5 -54t-38 -75.5t-11 -82v1q2 -27 29 -45.5t62 -30t69 -17t49 -6.5
q17 -2 40 -2.5t44 -0.5q35 0 60 0.5t48 1.5q-2 28 -11 62t-24 69t-35.5 69t-46.5 61t-57 45t-66 22zM1380 1234l-192 -193l-190 190l-188 -188l-194 193l192 193l190 -190l188 188z" />
    <glyph glyph-name="uniFEE7" unicode="&#x646;" horiz-adv-x="706" arabic-form="initial" 
d="M-165 98q0 33 12.5 62t33.5 50.5t50 33.5t62 12h103h45q37 0 77.5 3t76 12t63 25t39.5 43q8 18 8 54q0 24 -14 72t-37 106.5t-52 122.5t-59 121l286 142q28 -63 55.5 -134t49.5 -144t35.5 -145.5t13.5 -138.5q0 -101 -36 -185q-42 -94 -115 -155.5t-175 -90.5
q-60 -17 -115 -20.5t-103 -3.5h-137h-9q-33 0 -62 12t-50 33.5t-33.5 50.5t-12.5 62zM330 1522l222 -222l-222 -222l-222 222z" />
    <glyph glyph-name="uniFEE8" unicode="&#x646;" horiz-adv-x="705" arabic-form="medial" 
d="M-158 98q0 33 12 62t33.5 50t50.5 33.5t62 12.5h17q139 0 210 44.5t71 135.5q0 18 0.5 32t-3 36.5t-13 59t-28.5 100.5l285 69q21 -60 37 -134.5t16 -162.5q0 -29 5.5 -60.5t18 -58t34 -44t54.5 -17.5q32 0 61 -12.5t50.5 -33.5t34.5 -50t13 -62t-12.5 -62t-34.5 -50.5
t-50.5 -33.5t-60.5 -12q-96 0 -164 27.5t-117 73.5q-72 -52 -171.5 -76.5t-235.5 -24.5h-17q-33 0 -62 12t-50.5 33.5t-33.5 50.5t-12 62zM389 1341l222 -222l-222 -222l-222 222z" />
    <glyph glyph-name="uni0646" unicode="&#x646;" horiz-adv-x="1614" arabic-form="isolated" 
d="M813 -749q-69 0 -141.5 6.5t-143.5 25t-137 50.5t-123 83q-57 50 -98.5 110.5t-68.5 128.5t-40.5 142t-13.5 151q0 164 52.5 331t155.5 323l225 -162q-20 -27 -47 -81t-52 -123t-42 -146.5t-17 -149.5q0 -83 37.5 -150t100 -115t144 -75t169.5 -29q71 -1 138 12t127 38
t109.5 61t85 80.5t54 96.5t15.5 109q-2 43 -16 97t-33.5 110.5t-43 111.5t-44 101.5t-35.5 79.5t-19 45l272 151q3 -4 17.5 -36t35 -82.5t43.5 -115.5t43.5 -136t35.5 -144t19 -139q1 -8 1 -19.5v-19.5q0 -89 -20 -177t-61.5 -168.5t-104 -149t-147.5 -119t-193 -79
t-239 -28.5zM813 902l222 -222l-222 -222l-222 222z" />
    <glyph glyph-name="uniFEE6" unicode="&#x646;" horiz-adv-x="1714" arabic-form="final" 
d="M1707 -60q-92 0 -179 29q-3 -81 -22 -165t-54.5 -161.5t-89 -143.5t-125.5 -112q-102 -66 -223.5 -100t-277.5 -34q-174 0 -298.5 41.5t-216.5 120.5q-56 50 -97.5 110.5t-68.5 128t-40.5 141t-13.5 149.5q0 86 12 163.5t37 155.5t62.5 160t88.5 177l225 -162
q-29 -52 -56 -116.5t-47.5 -133t-33 -136.5t-12.5 -127q0 -78 38 -143t100.5 -111.5t142.5 -73t165 -27.5q117 -2 214 18.5t167 65.5t108.5 116t38.5 171q0 58 -17 123.5t-44.5 136t-64 145t-75.5 152.5l273 173l101 -195q41 -83 79.5 -127.5t74.5 -65t68.5 -24t60.5 -3.5
q33 0 62 -12t50.5 -33.5t34 -50.5t12.5 -62t-12.5 -62t-34 -50t-50.5 -33.5t-62 -12.5zM753 905l222 -222l-222 -222l-222 222z" />
    <glyph glyph-name="uni06C0" unicode="&#x6c0;" horiz-adv-x="983" arabic-form="isolated" 
d="M485 -60q-5 0 -27.5 1.5t-55 6.5t-73 16t-81.5 30q-109 52 -169 142.5t-60 210.5q0 200 177 415q14 17 23.5 28t17.5 20t15.5 16.5l17.5 17.5q-12 10 -23.5 19t-19.5 17l-18 16l199 243q51 -38 122 -102.5t164 -164.5q259 -295 259 -525q0 -118 -56.5 -209t-156.5 -143
q-35 -17 -71.5 -27.5t-70.5 -16.5t-63.5 -8.5t-49.5 -2.5zM679 347q0 31 -20 70t-52.5 81.5t-72.5 86t-80 83.5q-27 -30 -57 -67.5t-55 -79.5t-41 -86.5t-14 -87.5q1 -24 23 -42t52.5 -29t64.5 -16.5t58 -5.5q30 0 64.5 4.5t63 15.5t47.5 29t19 44zM501 1643l-33 8
q-15 3 -33 6t-36 3q-29 0 -57 -9h1q-14 -6 -28.5 -15.5t-26 -21.5t-19 -25.5t-7.5 -27.5q0 -12 6 -30v1q6 -15 20.5 -28.5t33 -23.5t39.5 -15.5t40 -5.5t33 5q27 9 53.5 22.5t48.5 27.5q13 8 25.5 16.5t23.5 16.5l77 -102q-48 -37 -109.5 -71.5t-146.5 -80.5l-240 -133
l-62 113l167 93q-34 20 -61 50t-42 65q-15 36 -15 80q0 33 11 64.5t30 58.5t45 48.5t56 35.5q25 11 51 15.5t53 4.5q23 0 47.5 -3.5t44.5 -8.5q23 -4 46 -12z" />
    <glyph glyph-name="uniFBA5" unicode="&#x6c0;" horiz-adv-x="1090" arabic-form="final" 
d="M544 80q-142 0 -244 38.5t-162 108.5q-35 45 -50.5 97.5t-15.5 100.5q0 42 7 76t17 58q40 84 98.5 147t122 109.5t126 77.5t111.5 51q-2 23 -3.5 47t-3.5 46l-5 63l312 67q1 -9 4.5 -42t8 -78.5t10 -97t10 -96.5t8 -78t4.5 -40q15 -123 25.5 -202t18 -125.5t12.5 -67
t8 -27.5q15 -32 45.5 -44.5t81.5 -12.5q32 0 61 -12t50.5 -33.5t34.5 -50.5t13 -62t-13 -62t-34.5 -50t-50.5 -33.5t-61 -12.5q-21 0 -47 1.5t-54.5 6t-59 13t-60.5 22.5q-42 20 -73.5 45.5t-60.5 64.5q-51 -7 -98.5 -10t-92.5 -3zM538 394q21 0 43.5 1.5t43.5 3.5
q-5 34 -10.5 76t-10.5 90l-10 92q-38 -19 -85 -45.5t-88.5 -56t-69.5 -60t-28 -56.5q0 -13 22.5 -21.5t55.5 -14t70 -7.5t67 -2zM651 1595l-33 8q-15 3 -33 6t-36 3q-29 0 -57 -9h1q-14 -6 -28.5 -15.5t-26 -21.5t-19 -25.5t-7.5 -27.5q0 -12 6 -30v1q6 -15 20.5 -28.5
t33 -23.5t39.5 -15.5t40 -5.5t33 5q27 9 53.5 22.5t48.5 27.5q13 8 25.5 16.5t23.5 16.5l77 -102q-48 -37 -109.5 -71.5t-146.5 -80.5l-240 -133l-62 113l167 93q-34 20 -61 50t-42 65q-15 36 -15 80q0 33 11 64.5t30 58.5t45 48.5t56 35.5q25 11 51 15.5t53 4.5
q23 0 47.5 -3.5t44.5 -8.5q23 -4 46 -12z" />
    <glyph glyph-name="uni0624" unicode="&#x624;" horiz-adv-x="1058" arabic-form="isolated" 
d="M518 590q-21 4 -47.5 -14.5t-50 -50t-39 -69.5t-15.5 -73q0 -33 19 -55t48.5 -36t65 -21t68.5 -10h-1q26 -2 59.5 -2.5t65.5 -0.5q10 0 15.5 -0.5t9.5 -0.5h8.5t13.5 1q-15 62 -35.5 118.5t-47.5 101.5t-61 74.5t-76 37.5zM28 -457q141 28 257 70.5t203.5 95t145 111.5
t81.5 120q-43 0 -91 1.5t-79 3.5q-116 10 -212 51.5t-153 112.5q-42 54 -59.5 117t-17.5 133q0 54 10 108.5t28 106t42.5 97.5t52.5 84q60 75 131.5 113.5t150.5 38.5q169 0 305 -148q48 -54 86 -121t64.5 -142.5t40.5 -158t14 -167.5q0 -26 -1.5 -52t-3.5 -49
q-12 -117 -52.5 -219.5t-104 -189t-147.5 -157t-182.5 -124t-208.5 -89.5t-226 -54zM512 1403l-33 8q-15 3 -33 6t-36 3q-29 0 -57 -9h1q-14 -6 -28.5 -15.5t-26 -21.5t-19 -25.5t-7.5 -27.5q0 -12 6 -30v1q6 -15 20.5 -28.5t33 -23.5t39.5 -15.5t40 -5.5t33 5
q27 9 53.5 22.5t48.5 27.5q13 8 25.5 16.5t23.5 16.5l77 -102q-48 -37 -109.5 -71.5t-146.5 -80.5l-240 -133l-62 113l167 93q-34 20 -61 50t-42 65q-15 36 -15 80q0 33 11 64.5t30 58.5t45 48.5t56 35.5q25 11 51 15.5t53 4.5q23 0 47.5 -3.5t44.5 -8.5q23 -4 46 -12z" />
    <glyph glyph-name="uniFE86" unicode="&#x624;" horiz-adv-x="1058" arabic-form="final" 
d="M28 -457q141 28 255.5 70.5t201 95t142.5 111.5t80 120q-43 0 -87 1.5t-75 3.5q-116 10 -212 51.5t-153 112.5q-42 54 -59.5 117t-17.5 133q0 54 10 108.5t28 106t42.5 97.5t52.5 84q60 75 131.5 113.5t150.5 38.5q169 0 305 -148q42 -47 76 -104t60 -121.5t42.5 -134.5
t22.5 -143h19q33 0 62 -12t50.5 -33.5t34.5 -50.5t13 -63q0 -32 -13 -60.5t-34.5 -50t-50.5 -34t-62 -12.5h-44q-39 -147 -124.5 -266t-204 -208t-264 -147t-304.5 -83zM518 590q-22 0 -48.5 -19.5t-49.5 -49.5t-38.5 -67t-15.5 -72q0 -34 19 -56t48.5 -35.5t64.5 -20
t68 -9.5q18 -2 39.5 -2.5t44.5 -0.5t45.5 -0.5t41.5 -1.5q-7 49 -22 92t-33.5 80t-40 66.5t-41.5 51.5q-7 7 -17.5 15t-21.5 14.5t-22.5 10.5t-20.5 4zM550 1366l-33 8q-15 3 -33 6t-36 3q-29 0 -57 -9h1q-14 -6 -28.5 -15.5t-26 -21.5t-19 -25.5t-7.5 -27.5q0 -12 6 -30v1
q6 -15 20.5 -28.5t33 -23.5t39.5 -15.5t40 -5.5t33 5q27 9 53.5 22.5t48.5 27.5q13 8 25.5 16.5t23.5 16.5l77 -102q-48 -37 -109.5 -71.5t-146.5 -80.5l-240 -133l-62 113l167 93q-34 20 -61 50t-42 65q-15 36 -15 80q0 33 11 64.5t30 58.5t45 48.5t56 35.5q25 11 51 15.5
t53 4.5q23 0 47.5 -3.5t44.5 -8.5q23 -4 46 -12z" />
    <glyph glyph-name="uniFBE8" unicode="&#x649;" horiz-adv-x="724" arabic-form="initial" 
d="M-165 98q0 33 12.5 62t33.5 50.5t50 33.5t62 12h103h45q37 0 77.5 3t76 12t63 25t39.5 43q8 18 8 54q0 24 -14 72t-37 106.5t-52 122.5t-59 121l286 142q28 -63 55.5 -134t49.5 -144t35.5 -145.5t13.5 -138.5q0 -101 -36 -185q-42 -94 -115 -155.5t-175 -90.5
q-60 -17 -115 -20.5t-103 -3.5h-137h-9q-33 0 -62 12t-50 33.5t-33.5 50.5t-12.5 62z" />
    <glyph glyph-name="uniFBE9" unicode="&#x649;" horiz-adv-x="705" arabic-form="medial" 
d="M-158 98q0 33 12 62t33.5 50t50.5 33.5t62 12.5h17q139 0 210 44.5t71 135.5q0 18 0.5 32t-3 36.5t-13 59t-28.5 100.5l285 69q21 -60 37 -134.5t16 -162.5q0 -29 5.5 -60.5t18 -58t34 -44t54.5 -17.5q32 0 61 -12.5t50.5 -33.5t34.5 -50t13 -62t-12.5 -62t-34.5 -50.5
t-50.5 -33.5t-60.5 -12q-96 0 -164 27.5t-117 73.5q-72 -52 -171.5 -76.5t-235.5 -24.5h-17q-33 0 -62 12t-50.5 33.5t-33.5 50.5t-12 62z" />
    <glyph glyph-name="uniFEF3" unicode="&#x64a;" horiz-adv-x="804" arabic-form="initial" 
d="M754 -346l-192 -193l-190 190l-188 -188l-194 193l192 193l190 -190l188 188zM-208 98q0 33 12.5 62t33.5 50.5t50 33.5t62 12h111h48q45 0 99 4t104 13t90.5 24.5t59.5 39.5q11 17 11 46q0 43 -20.5 102t-48.5 120t-57.5 117t-47.5 93l285 140q31 -54 60 -127.5t52 -151
t37 -152t14 -129.5q0 -101 -36 -185q-42 -94 -115 -155.5t-175 -90.5q-30 -8 -75 -13t-91 -7.5t-87 -3t-64 -0.5h-145h-9q-33 0 -62 12t-50 33.5t-33.5 50.5t-12.5 62z" />
    <glyph glyph-name="uniFEF4" unicode="&#x64a;" horiz-adv-x="854" arabic-form="medial" 
d="M-165 98q0 33 12 62t33.5 50.5t50.5 33.5t62 12h76q72 0 138.5 6t117.5 25.5t82.5 55t33.5 94.5q1 22 0.5 36.5t-5.5 35t-14.5 54t-26.5 94.5l291 82q19 -48 35 -127t24 -173q2 -30 7 -62t16.5 -59t31.5 -44.5t52 -17.5q33 0 62 -12t50.5 -33.5t34 -50.5t12.5 -62
t-12.5 -62t-34.5 -50.5t-50.5 -33.5t-60.5 -12q-96 0 -164.5 29.5t-117.5 76.5q-45 -30 -103.5 -50t-124.5 -32.5t-136 -18t-138 -5.5h-76q-33 0 -62 12t-50.5 33.5t-33.5 50.5t-12 62zM729 -380l-192 -193l-190 190l-188 -188l-194 193l192 193l190 -190l188 188z" />
    <glyph glyph-name="uni064A" unicode="&#x64a;" horiz-adv-x="1781" arabic-form="isolated" 
d="M1358 890q30 8 61 11t61 3q67 0 138.5 -19.5t143.5 -57.5l-111 -293q-48 21 -91 32.5t-81 11.5q-26 0 -59 -6q-32 -3 -69 -18.5t-73.5 -39.5t-70.5 -55.5t-60.5 -66.5t-43.5 -72.5t-19 -72.5q-2 -28 16 -45.5t48 -30t68 -22t77 -21.5l29 -7q64 -15 127.5 -34t114.5 -53.5
t82.5 -90.5t31.5 -145q0 -18 -1.5 -37.5t-5.5 -40.5q-10 -54 -36 -105.5t-65.5 -98t-91 -87t-112.5 -72.5q-115 -57 -263 -88.5t-318 -31.5q-204 0 -360 59.5t-259 173.5q-78 93 -114.5 204t-36.5 232q0 26 2 52t4 49q4 72 16 141.5t27.5 131t33.5 114t33 92t25.5 63
t12.5 28.5l251 -105q-25 -59 -47.5 -115.5t-40 -116t-29 -125.5t-14.5 -144q-1 -11 -2 -24t-1 -23q0 -63 19.5 -124t64.5 -110q27 -31 70.5 -54.5t98.5 -40t118 -25t128 -8.5q127 0 237.5 17.5t194.5 46t135.5 66t59.5 76.5q-2 0 -12 2t-25.5 5.5t-35 8t-40.5 9.5l-54 12
q-89 22 -167.5 50.5t-137 75t-93 117t-34.5 178.5q5 115 48 224t116 199t170.5 153.5t211.5 87.5h-1zM1190 -1038l-192 -193l-190 190l-188 -188l-194 193l192 193l190 -190l188 188z" />
    <glyph glyph-name="uniFEF2" unicode="&#x64a;" horiz-adv-x="1726" arabic-form="final" 
d="M830 -712q-93 0 -191.5 10.5t-190 39.5t-170.5 81.5t-133 136.5q-51 81 -79 178t-28 217q0 88 7.5 167.5t23.5 157.5t41.5 158t61.5 170l257 -107q-29 -72 -49.5 -130t-34.5 -105.5t-22 -87.5t-12 -76.5t-5 -72t-1 -74.5q0 -75 24 -130t65 -93t94.5 -62.5t111.5 -37.5
t117.5 -18t112.5 -5q26 0 77 3.5t111.5 12t124 22.5t115.5 34.5t85 48t33 64.5q0 4 -16.5 14t-45 23.5t-66 30t-80.5 33.5h1q-48 15 -100.5 25.5t-103.5 18.5q-8 1 -20.5 3t-25.5 4.5t-25.5 5t-20.5 4.5l41 304h802q32 0 61 -12t50.5 -33.5t34.5 -50.5t13 -62t-13 -62
t-34.5 -50.5t-50.5 -33.5t-61 -12h-111q21 -40 30.5 -80.5t10.5 -69.5q-5 -94 -47.5 -167.5t-109.5 -129.5t-152 -95t-174 -63.5t-175.5 -35.5t-157.5 -11zM1199 -1001l-192 -193l-190 190l-188 -188l-194 193l192 193l190 -190l188 188z" />
    <glyph glyph-name="uni06CC" unicode="&#x6cc;" horiz-adv-x="1759" arabic-form="isolated" 
d="M1358 890q30 8 61 11t61 3q67 0 138.5 -19.5t143.5 -57.5l-111 -293q-48 21 -91 32.5t-81 11.5q-26 0 -59 -6q-32 -3 -69 -18.5t-73.5 -39.5t-70.5 -55.5t-60.5 -66.5t-43.5 -72.5t-19 -72.5q-2 -28 16 -45.5t48 -30t68 -22t77 -21.5l29 -7q64 -15 127.5 -34t114.5 -53.5
t82.5 -90.5t31.5 -145q0 -18 -1.5 -37.5t-5.5 -40.5q-10 -54 -36 -105.5t-65.5 -98t-91 -87t-112.5 -72.5q-115 -57 -263 -88.5t-318 -31.5q-204 0 -360 59.5t-259 173.5q-78 93 -114.5 204t-36.5 232q0 26 2 52t4 49q4 72 16 141.5t27.5 131t33.5 114t33 92t25.5 63
t12.5 28.5l251 -105q-25 -59 -47.5 -115.5t-40 -116t-29 -125.5t-14.5 -144q-1 -11 -2 -24t-1 -23q0 -63 19.5 -124t64.5 -110q27 -31 70.5 -54.5t98.5 -40t118 -25t128 -8.5q127 0 237.5 17.5t194.5 46t135.5 66t59.5 76.5q-2 0 -12 2t-25.5 5.5t-35 8t-40.5 9.5l-54 12
q-89 22 -167.5 50.5t-137 75t-93 117t-34.5 178.5q5 115 48 224t116 199t170.5 153.5t211.5 87.5h-1z" />
    <glyph glyph-name="uniFBFE" unicode="&#x6cc;" horiz-adv-x="799" arabic-form="initial" 
d="M759 -389l-192 -193l-190 190l-188 -188l-194 193l192 193l190 -190l188 188zM-208 98q0 33 12.5 62t33.5 50.5t50 33.5t62 12h111h48q45 0 99 4t104 13t90.5 24.5t59.5 39.5q11 17 11 46q0 43 -20.5 102t-48.5 120t-57.5 117t-47.5 93l285 140q31 -54 60 -127.5t52 -151
t37 -152t14 -129.5q0 -101 -36 -185q-42 -94 -115 -155.5t-175 -90.5q-30 -8 -75 -13t-91 -7.5t-87 -3t-64 -0.5h-145h-9q-33 0 -62 12t-50 33.5t-33.5 50.5t-12.5 62z" />
    <glyph glyph-name="uniFBFF" unicode="&#x6cc;" horiz-adv-x="860" arabic-form="medial" 
d="M-165 98q0 33 12 62t33.5 50.5t50.5 33.5t62 12h76q72 0 138.5 6t117.5 25.5t82.5 55t33.5 94.5q1 22 0.5 36.5t-5.5 35t-14.5 54t-26.5 94.5l291 82q19 -48 35 -127t24 -173q2 -30 7 -62t16.5 -59t31.5 -44.5t52 -17.5q33 0 62 -12t50.5 -33.5t34 -50.5t12.5 -62
t-12.5 -62t-34.5 -50.5t-50.5 -33.5t-60.5 -12q-96 0 -164.5 29.5t-117.5 76.5q-45 -30 -103.5 -50t-124.5 -32.5t-136 -18t-138 -5.5h-76q-33 0 -62 12t-50.5 33.5t-33.5 50.5t-12 62zM792 -419l-192 -193l-190 190l-188 -188l-194 193l192 193l190 -190l188 188z" />
    <glyph glyph-name="uniFBFD" unicode="&#x6cc;" horiz-adv-x="1731" arabic-form="final" 
d="M830 -712q-93 0 -191.5 10.5t-190 39.5t-170.5 81.5t-133 136.5q-51 81 -79 178t-28 217q0 88 7.5 167.5t23.5 157.5t41.5 158t61.5 170l257 -107q-29 -72 -49.5 -130t-34.5 -105.5t-22 -87.5t-12 -76.5t-5 -72t-1 -74.5q0 -75 24 -130t65 -93t94.5 -62.5t111.5 -37.5
t117.5 -18t112.5 -5q26 0 77 3.5t111.5 12t124 22.5t115.5 34.5t85 48t33 64.5q0 4 -16.5 14t-45 23.5t-66 30t-80.5 33.5h1q-48 15 -100.5 25.5t-103.5 18.5q-8 1 -20.5 3t-25.5 4.5t-25.5 5t-20.5 4.5l41 304h802q32 0 61 -12t50.5 -33.5t34.5 -50.5t13 -62t-13 -62
t-34.5 -50.5t-50.5 -33.5t-61 -12h-111q21 -40 30.5 -80.5t10.5 -69.5q-5 -94 -47.5 -167.5t-109.5 -129.5t-152 -95t-174 -63.5t-175.5 -35.5t-157.5 -11z" />
    <glyph glyph-name="uni06D3" unicode="&#x6d3;" horiz-adv-x="2013" arabic-form="isolated" 
d="M846 -203q-61 0 -120 2.5t-114 9.5q-81 9 -150.5 26t-127.5 41q-152 65 -205 175q-30 63 -23.5 129t44.5 132q39 69 112.5 112t173.5 70t221.5 43t255.5 31l-4 -279h1q-60 -7 -132.5 -19t-142 -25.5t-129.5 -28.5t-95 -28q-38 -14 -58 -27q17 -17 71.5 -29t136.5 -20
t187 -11.5t222.5 -3t243 5.5t249 13.5t239 21.5t214.5 29l-37 -283q-126 -32 -258 -50.5t-264 -28t-261.5 -10.5t-249.5 2zM709 1091l-33 8q-15 3 -33 6t-36 3q-29 0 -57 -9h1q-14 -6 -28.5 -15.5t-26 -21.5t-19 -25.5t-7.5 -27.5q0 -12 6 -30v1q6 -15 20.5 -28.5t33 -23.5
t39.5 -15.5t40 -5.5t33 5q27 9 53.5 22.5t48.5 27.5q13 8 25.5 16.5t23.5 16.5l77 -102q-48 -37 -109.5 -71.5t-146.5 -80.5l-240 -133l-62 113l167 93q-34 20 -61 50t-42 65q-15 36 -15 80q0 33 11 64.5t30 58.5t45 48.5t56 35.5q25 11 51 15.5t53 4.5q23 0 47.5 -3.5
t44.5 -8.5q23 -4 46 -12z" />
    <glyph glyph-name="uniFBB1" unicode="&#x6d3;" horiz-adv-x="1308" arabic-form="final" 
d="M890 -522q-88 0 -180 4t-183 15q-162 18 -279 68q-151 64 -204 175q-59 123 20 249q68 107 230 170q37 14 109.5 31t176 31.5t237 24.5t293.5 10h183h7q33 0 61.5 -12.5t50 -34t34 -50t12.5 -61.5t-12.5 -61.5t-34 -50t-50 -34t-61.5 -12.5h-306q-1 0 -20 0.5t-51 0.5
h-73.5t-87.5 -2t-94 -5.5t-92 -9.5q-23 -3 -59 -7.5t-74 -10.5t-72 -12.5t-52 -13.5q-20 -8 -34 -15t-24 -13q35 -23 96 -39.5t137 -27.5t161.5 -17.5t168.5 -10t159 -3.5t133.5 0.5t91 2.5t32.5 3l74 -262q-5 0 -39.5 -3.5t-91.5 -7t-132.5 -6.5t-160.5 -3zM605 814l-33 8
q-15 3 -33 6t-36 3q-29 0 -57 -9h1q-14 -6 -28.5 -15.5t-26 -21.5t-19 -25.5t-7.5 -27.5q0 -12 6 -30v1q6 -15 20.5 -28.5t33 -23.5t39.5 -15.5t40 -5.5t33 5q27 9 53.5 22.5t48.5 27.5q13 8 25.5 16.5t23.5 16.5l77 -102q-48 -37 -109.5 -71.5t-146.5 -80.5l-240 -133
l-62 113l167 93q-34 20 -61 50t-42 65q-15 36 -15 80q0 33 11 64.5t30 58.5t45 48.5t56 35.5q25 11 51 15.5t53 4.5q23 0 47.5 -3.5t44.5 -8.5q23 -4 46 -12z" />
    <glyph glyph-name="uni0626" unicode="&#x626;" horiz-adv-x="1754" arabic-form="isolated" 
d="M1358 890q30 8 61 11t61 3q67 0 138.5 -19.5t143.5 -57.5l-111 -293q-48 21 -91 32.5t-81 11.5q-26 0 -59 -6q-32 -3 -69 -18.5t-73.5 -39.5t-70.5 -55.5t-60.5 -66.5t-43.5 -72.5t-19 -72.5q-2 -28 16 -45.5t48 -30t68 -22t77 -21.5l29 -7q64 -15 127.5 -34t114.5 -53.5
t82.5 -90.5t31.5 -145q0 -18 -1.5 -37.5t-5.5 -40.5q-10 -54 -36 -105.5t-65.5 -98t-91 -87t-112.5 -72.5q-115 -57 -263 -88.5t-318 -31.5q-204 0 -360 59.5t-259 173.5q-78 93 -114.5 204t-36.5 232q0 26 2 52t4 49q4 72 16 141.5t27.5 131t33.5 114t33 92t25.5 63
t12.5 28.5l251 -105q-25 -59 -47.5 -115.5t-40 -116t-29 -125.5t-14.5 -144q-1 -11 -2 -24t-1 -23q0 -63 19.5 -124t64.5 -110q27 -31 70.5 -54.5t98.5 -40t118 -25t128 -8.5q127 0 237.5 17.5t194.5 46t135.5 66t59.5 76.5q-2 0 -12 2t-25.5 5.5t-35 8t-40.5 9.5l-54 12
q-89 22 -167.5 50.5t-137 75t-93 117t-34.5 178.5q5 115 48 224t116 199t170.5 153.5t211.5 87.5h-1zM702 1107l-33 8q-15 3 -33 6t-36 3q-29 0 -57 -9h1q-14 -6 -28.5 -15.5t-26 -21.5t-19 -25.5t-7.5 -27.5q0 -12 6 -30v1q6 -15 20.5 -28.5t33 -23.5t39.5 -15.5t40 -5.5
t33 5q27 9 53.5 22.5t48.5 27.5q13 8 25.5 16.5t23.5 16.5l77 -102q-48 -37 -109.5 -71.5t-146.5 -80.5l-240 -133l-62 113l167 93q-34 20 -61 50t-42 65q-15 36 -15 80q0 33 11 64.5t30 58.5t45 48.5t56 35.5q25 11 51 15.5t53 4.5q23 0 47.5 -3.5t44.5 -8.5q23 -4 46 -12z
" />
    <glyph glyph-name="uniFE8B" unicode="&#x626;" horiz-adv-x="735" arabic-form="initial" 
d="M-165 98q0 33 12.5 62t33.5 50.5t50 33.5t62 12h103h45q37 0 77.5 3t76 12t63 25t39.5 43q8 18 8 54q0 24 -14 72t-37 106.5t-52 122.5t-59 121l286 142q28 -63 55.5 -134t49.5 -144t35.5 -145.5t13.5 -138.5q0 -101 -36 -185q-42 -94 -115 -155.5t-175 -90.5
q-60 -17 -115 -20.5t-103 -3.5h-137h-9q-33 0 -62 12t-50 33.5t-33.5 50.5t-12.5 62zM497 1406l-33 8q-15 3 -33 6t-36 3q-29 0 -57 -9h1q-14 -6 -28.5 -15.5t-26 -21.5t-19 -25.5t-7.5 -27.5q0 -12 6 -30v1q6 -15 20.5 -28.5t33 -23.5t39.5 -15.5t40 -5.5t33 5
q27 9 53.5 22.5t48.5 27.5q13 8 25.5 16.5t23.5 16.5l77 -102q-48 -37 -109.5 -71.5t-146.5 -80.5l-240 -133l-62 113l167 93q-34 20 -61 50t-42 65q-15 36 -15 80q0 33 11 64.5t30 58.5t45 48.5t56 35.5q25 11 51 15.5t53 4.5q23 0 47.5 -3.5t44.5 -8.5q23 -4 46 -12z" />
    <glyph glyph-name="uniFE8C" unicode="&#x626;" horiz-adv-x="715" arabic-form="medial" 
d="M-158 98q0 33 12 62t33.5 50t50.5 33.5t62 12.5h17q139 0 210 44.5t71 135.5q0 18 0.5 32t-3 36.5t-13 59t-28.5 100.5l285 69q21 -60 37 -134.5t16 -162.5q0 -29 5.5 -60.5t18 -58t34 -44t54.5 -17.5q32 0 61 -12.5t50.5 -33.5t34.5 -50t13 -62t-12.5 -62t-34.5 -50.5
t-50.5 -33.5t-60.5 -12q-96 0 -164 27.5t-117 73.5q-72 -52 -171.5 -76.5t-235.5 -24.5h-17q-33 0 -62 12t-50.5 33.5t-33.5 50.5t-12 62zM485 1289l-33 8q-15 3 -33 6t-36 3q-29 0 -57 -9h1q-14 -6 -28.5 -15.5t-26 -21.5t-19 -25.5t-7.5 -27.5q0 -12 6 -30v1
q6 -15 20.5 -28.5t33 -23.5t39.5 -15.5t40 -5.5t33 5q27 9 53.5 22.5t48.5 27.5q13 8 25.5 16.5t23.5 16.5l77 -102q-48 -37 -109.5 -71.5t-146.5 -80.5l-240 -133l-62 113l167 93q-34 20 -61 50t-42 65q-15 36 -15 80q0 33 11 64.5t30 58.5t45 48.5t56 35.5q25 11 51 15.5
t53 4.5q23 0 47.5 -3.5t44.5 -8.5q23 -4 46 -12z" />
    <glyph glyph-name="uniFE8A" unicode="&#x626;" horiz-adv-x="1726" arabic-form="final" 
d="M830 -712q-93 0 -191.5 10.5t-190 39.5t-170.5 81.5t-133 136.5q-51 81 -79 178t-28 217q0 88 7.5 167.5t23.5 157.5t41.5 158t61.5 170l257 -107q-29 -72 -49.5 -130t-34.5 -105.5t-22 -87.5t-12 -76.5t-5 -72t-1 -74.5q0 -75 24 -130t65 -93t94.5 -62.5t111.5 -37.5
t117.5 -18t112.5 -5q26 0 77 3.5t111.5 12t124 22.5t115.5 34.5t85 48t33 64.5q0 4 -16.5 14t-45 23.5t-66 30t-80.5 33.5h1q-48 15 -100.5 25.5t-103.5 18.5q-8 1 -20.5 3t-25.5 4.5t-25.5 5t-20.5 4.5l41 304h802q32 0 61 -12t50.5 -33.5t34.5 -50.5t13 -62t-13 -62
t-34.5 -50.5t-50.5 -33.5t-61 -12h-111q21 -40 30.5 -80.5t10.5 -69.5q-5 -94 -47.5 -167.5t-109.5 -129.5t-152 -95t-174 -63.5t-175.5 -35.5t-157.5 -11zM918 677l-33 8q-15 3 -33 6t-36 3q-29 0 -57 -9h1q-14 -6 -28.5 -15.5t-26 -21.5t-19 -25.5t-7.5 -27.5q0 -12 6 -30
v1q6 -15 20.5 -28.5t33 -23.5t39.5 -15.5t40 -5.5t33 5q27 9 53.5 22.5t48.5 27.5q13 8 25.5 16.5t23.5 16.5l77 -102q-48 -37 -109.5 -71.5t-146.5 -80.5l-240 -133l-62 113l167 93q-34 20 -61 50t-42 65q-15 36 -15 80q0 33 11 64.5t30 58.5t45 48.5t56 35.5
q25 11 51 15.5t53 4.5q23 0 47.5 -3.5t44.5 -8.5q23 -4 46 -12z" />
    <glyph glyph-name="uni06C2" unicode="&#x6c2;" horiz-adv-x="993" 
d="M495 -60q-5 0 -27.5 1.5t-55 6.5t-73 16t-81.5 30q-109 52 -169 142.5t-60 210.5q0 200 177 415q14 17 23.5 28t17.5 20t15.5 16.5l17.5 17.5q-12 10 -23.5 19t-19.5 17l-18 16l199 243q51 -38 122 -102.5t164 -164.5q259 -295 259 -525q0 -118 -56.5 -209t-156.5 -143
q-35 -17 -71.5 -27.5t-70.5 -16.5t-63.5 -8.5t-49.5 -2.5zM689 347q0 31 -20 70t-52.5 81.5t-72.5 86t-80 83.5q-27 -30 -57 -67.5t-55 -79.5t-41 -86.5t-14 -87.5q1 -24 23 -42t52.5 -29t64.5 -16.5t58 -5.5q30 0 64.5 4.5t63 15.5t47.5 29t19 44zM472 1592l-33 8
q-15 3 -33 6t-36 3q-29 0 -57 -9h1q-14 -6 -28.5 -15.5t-26 -21.5t-19 -25.5t-7.5 -27.5q0 -12 6 -30v1q6 -15 20.5 -28.5t33 -23.5t39.5 -15.5t40 -5.5t33 5q27 9 53.5 22.5t48.5 27.5q13 8 25.5 16.5t23.5 16.5l77 -102q-48 -37 -109.5 -71.5t-146.5 -80.5l-240 -133
l-62 113l167 93q-34 20 -61 50t-42 65q-15 36 -15 80q0 33 11 64.5t30 58.5t45 48.5t56 35.5q25 11 51 15.5t53 4.5q23 0 47.5 -3.5t44.5 -8.5q23 -4 46 -12z" />
    <glyph glyph-name="uniFBA6" unicode="&#x6c1;" horiz-adv-x="983" arabic-form="isolated" 
d="M485 -60q-5 0 -27.5 1.5t-55 6.5t-73 16t-81.5 30q-109 52 -169 142.5t-60 210.5q0 200 177 415q14 17 23.5 28t17.5 20t15.5 16.5l17.5 17.5q-12 10 -23.5 19t-19.5 17l-18 16l199 243q51 -38 122 -102.5t164 -164.5q259 -295 259 -525q0 -118 -56.5 -209t-156.5 -143
q-35 -17 -71.5 -27.5t-70.5 -16.5t-63.5 -8.5t-49.5 -2.5zM679 347q0 31 -20 70t-52.5 81.5t-72.5 86t-80 83.5q-27 -30 -57 -67.5t-55 -79.5t-41 -86.5t-14 -87.5q1 -24 23 -42t52.5 -29t64.5 -16.5t58 -5.5q30 0 64.5 4.5t63 15.5t47.5 29t19 44z" />
    <glyph glyph-name="uni06C3" unicode="&#x6c3;" horiz-adv-x="1020" 
d="M522 -60q-5 0 -27.5 1.5t-55 6.5t-73 16t-81.5 30q-109 52 -169 142.5t-60 210.5q0 200 177 415q14 17 23.5 28t17.5 20t15.5 16.5l17.5 17.5q-12 10 -23.5 19t-19.5 17l-18 16l199 243q51 -38 122 -102.5t164 -164.5q259 -295 259 -525q0 -118 -56.5 -209t-156.5 -143
q-35 -17 -71.5 -27.5t-70.5 -16.5t-63.5 -8.5t-49.5 -2.5zM716 347q0 31 -20 70t-52.5 81.5t-72.5 86t-80 83.5q-27 -30 -57 -67.5t-55 -79.5t-41 -86.5t-14 -87.5q1 -24 23 -42t52.5 -29t64.5 -16.5t58 -5.5q30 0 64.5 4.5t63 15.5t47.5 29t19 44zM829 1369l-192 -193
l-190 190l-188 -188l-194 193l192 193l190 -190l188 188z" />
    <glyph glyph-name="uniFBAB" unicode="&#x6be;" horiz-adv-x="1220" arabic-form="final" 
d="M19 17q0 33 9 56t26.5 40t42 30t55.5 25l124 49q4 66 21 146.5t45.5 163t67.5 161.5t87.5 141t105 101.5t120.5 43.5q67 -1 124 -37.5t97.5 -95.5t63.5 -134t23 -152q0 -91 -39 -177t-102 -160.5t-143.5 -134t-164.5 -97.5q7 -24 29.5 -57.5t51 -67.5t57.5 -64t49 -48
q-1 58 17 118.5t50.5 116.5t76.5 105.5t94.5 86.5t104.5 58.5t107 21.5q33 0 62 -12.5t50.5 -33.5t34 -50t12.5 -62t-12.5 -62t-34 -50.5t-50.5 -33.5t-62 -12h-4q-44 -6 -85 -29.5t-72.5 -59t-50.5 -79t-19 -88.5q0 -20 3 -37.5t11 -35.5t21.5 -38t34.5 -43l-183 -223
q-120 73 -210.5 145t-156.5 146t-110.5 152t-73.5 163h-4l-128 -48q-31 -12 -62 -2t-55.5 33t-40 55.5t-15.5 65.5zM783 511q2 28 -0.5 59.5t-10 61t-20.5 53.5t-32 36q-19 -10 -41.5 -38t-45.5 -68t-44.5 -87.5t-38.5 -96.5t-27.5 -95.5t-11.5 -83.5q43 8 89.5 32.5t86 60
t66.5 78.5t30 88z" />
    <glyph glyph-name="uniFBAC" unicode="&#x6be;" horiz-adv-x="1570" arabic-form="initial" 
d="M-168 99q0 33 12.5 61.5t33.5 50t50 33.5t62 12h9h28.5t31 1t42 2t61.5 3q-35 60 -53 127.5t-18 136.5q0 52 10 104t30 99.5t50 90t71 77.5l-52 29l193 284q43 -30 103 -61t126 -61.5t132.5 -59t122.5 -53.5q95 -44 168.5 -77.5t132.5 -66t106 -68.5t88 -84
q52 -66 75 -144t23 -151q0 -112 -57.5 -211.5t-169.5 -166.5q-31 -18 -76.5 -31t-95 -21.5t-97.5 -12.5t-84 -4q-42 0 -91 3.5t-98.5 11t-96.5 19.5t-86 28q-48 -14 -110.5 -25t-131.5 -18.5t-140 -11.5t-137 -4h-9q-33 0 -62 12.5t-50 34t-33.5 50.5t-12.5 62zM559 746
q-32 5 -68.5 -19t-66.5 -62t-48 -83.5t-14 -84.5v1q3 -26 20 -53.5t40.5 -53t50.5 -45t50 -28.5q38 4 74.5 18t65.5 42t47 72t18 108q0 33 -18.5 65t-44.5 58.5t-55.5 44t-50.5 20.5zM991 580q0 -42 -10 -88t-27 -91t-38.5 -87.5t-45.5 -78.5h9q73 0 134.5 5.5t106.5 22
t71.5 46t31.5 78.5q2 24 -20 52.5t-56.5 57t-76.5 55.5t-79 48v-20z" />
    <glyph glyph-name="uniFBAD" unicode="&#x6be;" horiz-adv-x="1003" arabic-form="medial" 
d="M-159 98q0 33 12 62t33.5 50t50.5 33.5t62 12.5h52q3 66 20.5 143.5t47.5 156t71 152t90.5 131.5t107.5 94.5t121 40.5q67 -1 124.5 -37.5t99.5 -95.5t66 -134t24 -152q0 -91 -39.5 -177t-104 -160.5t-146 -134t-165.5 -97.5q7 -24 29.5 -57.5t51 -67.5t57.5 -64t49 -48
q-1 58 17 118.5t50.5 116.5t76.5 105.5t94.5 86.5t104.5 58.5t107 21.5q33 0 62 -12.5t50.5 -33.5t34 -50t12.5 -62t-12.5 -62t-34 -50.5t-50.5 -33.5t-62 -12h-4q-44 -6 -85 -29.5t-72.5 -59t-50.5 -79t-19 -88.5q0 -20 3 -37.5t11 -35.5t21.5 -38t34.5 -43l-183 -223
q-120 73 -211 149t-157.5 155.5t-112 161.5t-74.5 167h-4h-103q-33 0 -62 12t-50.5 33.5t-33.5 50.5t-12 62zM569 511q2 28 -0.5 59.5t-10 61t-20.5 53.5t-32 36q-19 -10 -41.5 -38t-45.5 -68t-44.5 -87.5t-38.5 -96.5t-27.5 -95.5t-11.5 -83.5q43 8 89.5 32.5t86 60
t66.5 78.5t30 88z" />
    <glyph glyph-name="uniFE70" unicode="&#xfe70;" arabic-form="isolated" 
d="M456 1268l-482 -200v177l482 191v-168zM456 1554l-482 -200v177l482 191v-168z" />
    <glyph glyph-name="uniFE72" unicode="&#xfe72;" arabic-form="isolated" 
d="M-30 1157q10 16 23.5 34.5t22.5 38t10 40t-14 41.5q-6 9 -25 5.5t-40 -12t-39.5 -18.5t-24.5 -15l-78 88q4 4 18.5 18t37 28t52 25t64.5 10q39 -2 75.5 -18t53.5 -50q13 -27 17.5 -47t3.5 -36t-5.5 -29t-8.5 -25q14 5 32.5 12t37.5 15t37.5 16t32.5 15q-76 42 -109 89.5
t-33 89.5q0 20 4 36.5t11 30.5q13 26 33.5 48.5t45.5 39.5t53 26.5t56 9.5q29 0 54.5 -10t46.5 -27t36 -41.5t24 -52.5q6 -19 8.5 -37.5t2.5 -37.5q0 -25 -4 -51t-9 -48l16 -8t13 -7l-41 -128l-58 16q-28 -25 -64.5 -46t-75.5 -38t-77.5 -30t-71 -22.5t-55.5 -14.5t-30 -6z
M350 1450q0 13 -4 26.5t-11 25t-17.5 19.5t-23.5 10q-14 1 -35.5 -10.5t-34.5 -30.5q-2 -3 4.5 -10t18 -16t26 -18.5t28.5 -16.5l-1 1l46 -23q2 10 3 21t1 22z" />
    <glyph glyph-name="uniFE74" unicode="&#xfe74;" arabic-form="isolated" 
d="M461 -551l-482 -200v177l482 191v-168zM461 -265l-482 -200v177l482 191v-168z" />
    <glyph glyph-name="uniFE76" unicode="&#xfe76;" arabic-form="isolated" 
d="M452 1330l-482 -200v177l482 191v-168z" />
    <glyph glyph-name="uniFE78" unicode="&#xfe78;" arabic-form="isolated" 
d="M-76 1211q20 6 51.5 15t67 20.5t72.5 26t67 31.5l-27 11q-33 16 -55.5 36.5t-36 43t-19 46t-5.5 45.5q0 36 14 67q13 26 33.5 48.5t45.5 39t53 26t57 9.5q17 0 34.5 -4t32.5 -11q32 -17 57 -47t36 -67v1q7 -21 9.5 -40.5t2.5 -39.5q0 -45 -11 -91l29 -6l-43 -141
q-23 4 -37.5 8t-24.5 8q-38 -32 -86.5 -59.5t-95 -49t-85 -36t-56.5 -20.5l-40 -10zM219 1547q-7 0 -17 -4t-20 -11t-18.5 -15.5t-13.5 -18.5q3 -7 18.5 -19t36.5 -25.5t43 -25.5t38 -19q1 4 0.5 6t-0.5 7q0 20 -4.5 40.5t-13 37.5t-21 29.5t-28.5 17.5z" />
    <glyph glyph-name="uniFE7A" unicode="&#xfe7a;" arabic-form="isolated" 
d="M461 -311l-482 -200v177l482 191v-168z" />
    <glyph glyph-name="uniFE7C" unicode="&#xfe7c;" arabic-form="isolated" 
d="M114 1099q-37 1 -64.5 9t-47.5 19.5t-33 25t-21 26.5q-13 22 -19 48.5t-6 49.5q0 25 5 52.5t11.5 52t14 43.5t12.5 27l120 -63q-14 -26 -22.5 -57t-8.5 -53q0 -18 12.5 -28.5t32.5 -10.5q24 0 36.5 14t18 34.5t6.5 45t3 45.5l100 38q7 -59 19.5 -91t25.5 -47t24.5 -18
t16.5 -3q23 2 40 13.5t17 28.5t-10 39.5t-24.5 46t-32 45.5t-32.5 39l123 85q7 -10 24 -36.5t34.5 -61.5t31 -74t13.5 -75q0 -34 -15 -68.5t-40.5 -62.5t-59.5 -45.5t-71 -17.5q-23 0 -51.5 7t-55.5 30q-26 -26 -56.5 -39t-70.5 -13z" />
    <glyph glyph-name="uniFE7E" unicode="&#xfe7e;" arabic-form="isolated" 
d="M206 1236q21 0 39 9.5t31.5 23.5t21 30.5t7.5 30.5q0 13 -8 29t-21.5 29.5t-31.5 22.5t-38 9q-21 0 -39.5 -9t-33 -22.5t-23 -29.5t-8.5 -29q0 -14 8.5 -30.5t23 -30.5t33 -23.5t39.5 -9.5zM206 1579q47 1 89 -21t73.5 -58t50 -80.5t18.5 -89.5t-18.5 -89.5t-50 -80.5
t-73.5 -58t-89 -22t-89.5 22t-74 57.5t-50 80.5t-18.5 90t18.5 89.5t50 80.5t73.5 58t90 21z" />
    <glyph glyph-name="uniFC5E" unicode="&#xfc5e;" arabic-form="isolated" 
d="M107 1115q-37 1 -64.5 9t-47.5 19.5t-33 25t-21 26.5q-13 22 -19 48.5t-6 49.5q0 25 5 52.5t11.5 52t14 43.5t12.5 27l120 -63q-14 -26 -22.5 -57t-8.5 -53q0 -18 12.5 -28.5t32.5 -10.5q24 0 36.5 14t18 34.5t6.5 45t3 45.5l100 38q7 -59 19.5 -91t25.5 -47t24.5 -18
t16.5 -3q23 2 40 13.5t17 28.5t-10 39.5t-24.5 46t-32 45.5t-32.5 39l123 85q7 -10 24 -36.5t34.5 -61.5t31 -74t13.5 -75q0 -34 -15 -68.5t-40.5 -62.5t-59.5 -45.5t-71 -17.5q-23 0 -51.5 7t-55.5 30q-26 -26 -56.5 -39t-70.5 -13zM-72 1616q10 16 23.5 34.5t22.5 38
t10 40t-14 41.5q-6 9 -25 5.5t-40 -12t-39.5 -18.5t-24.5 -15l-78 88q4 4 18.5 18t37 28t52 25t64.5 10q39 -2 75.5 -18t53.5 -50q13 -27 17.5 -47t3.5 -36t-5.5 -29t-8.5 -25q14 5 32.5 12t37.5 15t37.5 16t32.5 15q-76 42 -109 89.5t-33 89.5q0 20 4 36.5t11 30.5
q13 26 33.5 48.5t45.5 39.5t53 26.5t56 9.5q29 0 54.5 -10t46.5 -27t36 -41.5t24 -52.5q6 -19 8.5 -37.5t2.5 -37.5q0 -25 -4 -51t-9 -48l16 -8t13 -7l-41 -128l-58 16q-28 -25 -64.5 -46t-75.5 -38t-77.5 -30t-71 -22.5t-55.5 -14.5t-30 -6zM308 1909q0 13 -4 26.5t-11 25
t-17.5 19.5t-23.5 10q-14 1 -35.5 -10.5t-34.5 -30.5q-2 -3 4.5 -10t18 -16t26 -18.5t28.5 -16.5l-1 1l46 -23q2 10 3 21t1 22z" />
    <glyph glyph-name="uniFC5F" unicode="&#xfc5f;" arabic-form="isolated" 
d="M75 1735q-37 1 -64.5 9t-47.5 19.5t-33 25t-21 26.5q-13 22 -19 48.5t-6 49.5q0 25 5 52.5t11.5 52t14 43.5t12.5 27l120 -63q-14 -26 -22.5 -57t-8.5 -53q0 -18 12.5 -28.5t32.5 -10.5q24 0 36.5 14t18 34.5t6.5 45t3 45.5l100 38q7 -59 19.5 -91t25.5 -47t24.5 -18
t16.5 -3q23 2 40 13.5t17 28.5t-10 39.5t-24.5 46t-32 45.5t-32.5 39l123 85q7 -10 24 -36.5t34.5 -61.5t31 -74t13.5 -75q0 -34 -15 -68.5t-40.5 -62.5t-59.5 -45.5t-71 -17.5q-23 0 -51.5 7t-55.5 30q-26 -26 -56.5 -39t-70.5 -13zM478 1292l-482 -200v177l482 191v-168z
M478 1578l-482 -200v177l482 191v-168z" />
    <glyph glyph-name="uniFC60" unicode="&#xfc60;" arabic-form="isolated" 
d="M105 1101q-37 1 -64.5 9t-47.5 19.5t-33 25t-21 26.5q-13 22 -19 48.5t-6 49.5q0 25 5 52.5t11.5 52t14 43.5t12.5 27l120 -63q-14 -26 -22.5 -57t-8.5 -53q0 -18 12.5 -28.5t32.5 -10.5q24 0 36.5 14t18 34.5t6.5 45t3 45.5l100 38q7 -59 19.5 -91t25.5 -47t24.5 -18
t16.5 -3q23 2 40 13.5t17 28.5t-10 39.5t-24.5 46t-32 45.5t-32.5 39l123 85q7 -10 24 -36.5t34.5 -61.5t31 -74t13.5 -75q0 -34 -15 -68.5t-40.5 -62.5t-59.5 -45.5t-71 -17.5q-23 0 -51.5 7t-55.5 30q-26 -26 -56.5 -39t-70.5 -13zM432 1687l-482 -200v177l482 191v-168z
" />
    <glyph glyph-name="uniFC61" unicode="&#xfc61;" arabic-form="isolated" 
d="M103 1095q-37 1 -64.5 9t-47.5 19.5t-33 25t-21 26.5q-13 22 -19 48.5t-6 49.5q0 25 5 52.5t11.5 52t14 43.5t12.5 27l120 -63q-14 -26 -22.5 -57t-8.5 -53q0 -18 12.5 -28.5t32.5 -10.5q24 0 36.5 14t18 34.5t6.5 45t3 45.5l100 38q7 -59 19.5 -91t25.5 -47t24.5 -18
t16.5 -3q23 2 40 13.5t17 28.5t-10 39.5t-24.5 46t-32 45.5t-32.5 39l123 85q7 -10 24 -36.5t34.5 -61.5t31 -74t13.5 -75q0 -34 -15 -68.5t-40.5 -62.5t-59.5 -45.5t-71 -17.5q-23 0 -51.5 7t-55.5 30q-26 -26 -56.5 -39t-70.5 -13zM-54 1641q20 6 51.5 15t67 20.5t72.5 26
t67 31.5l-27 11q-33 16 -55.5 36.5t-36 43t-19 46t-5.5 45.5q0 36 14 67q13 26 33.5 48.5t45.5 39t53 26t57 9.5q17 0 34.5 -4t32.5 -11q32 -17 57 -47t36 -67v1q7 -21 9.5 -40.5t2.5 -39.5q0 -45 -11 -91l29 -6l-43 -141q-23 4 -37.5 8t-24.5 8q-38 -32 -86.5 -59.5
t-95 -49t-85 -36t-56.5 -20.5l-40 -10zM241 1977q-7 0 -17 -4t-20 -11t-18.5 -15.5t-13.5 -18.5q3 -7 18.5 -19t36.5 -25.5t43 -25.5t38 -19q1 4 0.5 6t-0.5 7q0 20 -4.5 40.5t-13 37.5t-21 29.5t-28.5 17.5z" />
    <glyph glyph-name="uniFC62" unicode="&#xfc62;" arabic-form="isolated" 
d="M110 1452q-37 1 -64.5 9t-47.5 19.5t-33 25t-21 26.5q-13 22 -19 48.5t-6 49.5q0 25 5 52.5t11.5 52t14 43.5t12.5 27l120 -63q-14 -26 -22.5 -57t-8.5 -53q0 -18 12.5 -28.5t32.5 -10.5q24 0 36.5 14t18 34.5t6.5 45t3 45.5l100 38q7 -59 19.5 -91t25.5 -47t24.5 -18
t16.5 -3q23 2 40 13.5t17 28.5t-10 39.5t-24.5 46t-32 45.5t-32.5 39l123 85q7 -10 24 -36.5t34.5 -61.5t31 -74t13.5 -75q0 -34 -15 -68.5t-40.5 -62.5t-59.5 -45.5t-71 -17.5q-23 0 -51.5 7t-55.5 30q-26 -26 -56.5 -39t-70.5 -13zM491 1285l-482 -200v177l482 191v-168z
" />
    <glyph glyph-name="uniFC63" unicode="&#xfc63;" arabic-form="isolated" 
d="M94 1079q-37 1 -64.5 9t-47.5 19.5t-33 25t-21 26.5q-13 22 -19 48.5t-6 49.5q0 25 5 52.5t11.5 52t14 43.5t12.5 27l120 -63q-14 -26 -22.5 -57t-8.5 -53q0 -18 12.5 -28.5t32.5 -10.5q24 0 36.5 14t18 34.5t6.5 45t3 45.5l100 38q7 -59 19.5 -91t25.5 -47t24.5 -18
t16.5 -3q23 2 40 13.5t17 28.5t-10 39.5t-24.5 46t-32 45.5t-32.5 39l123 85q7 -10 24 -36.5t34.5 -61.5t31 -74t13.5 -75q0 -34 -15 -68.5t-40.5 -62.5t-59.5 -45.5t-71 -17.5q-23 0 -51.5 7t-55.5 30q-26 -26 -56.5 -39t-70.5 -13zM92 1545q7 27 12.5 56.5t9 58t5 53
t1.5 41.5t-1.5 41.5t-5 52t-9 56.5t-12.5 56l147 48q6 -26 11.5 -57.5t9.5 -64t6.5 -63.5t2.5 -55q0 -23 -1.5 -54.5t-5 -67.5t-9 -74.5t-12.5 -75.5z" />
    <glyph glyph-name=".notdef" horiz-adv-x="1229" 
d="M102 -362v1806h1024v-1806h-1024zM217 -248h795v1577h-795v-1577z" />
    <glyph glyph-name="NULL" 
 />
    <glyph glyph-name="nonmarkingreturn" horiz-adv-x="602" 
 />
    <glyph glyph-name="space" unicode=" " horiz-adv-x="550" 
 />
    <glyph glyph-name="space" unicode="&#xa0;" horiz-adv-x="550" 
 />
    <glyph glyph-name="uni0640" unicode="&#x640;" horiz-adv-x="907" 
d="M-163 98q0 33 13 62t35.5 50t52 33.5t62.5 12.5h908q32 0 61 -12.5t50.5 -33.5t34.5 -50t13 -62t-13 -62t-34.5 -50.5t-50.5 -33.5t-61 -12h-909q-32 0 -61.5 12t-52 33.5t-35.5 50.5t-13 62z" />
    <glyph glyph-name="uni066E" unicode="&#x66e;" horiz-adv-x="1982" 
d="M994 -60q-188 0 -336.5 22.5t-260.5 64.5q-227 88 -312 258v-1q-48 93 -48 206q0 49 12 106t31 111q24 63 52 111.5t58 102.5l235 -197q-15 -21 -35 -54.5t-38.5 -70.5t-31 -74.5t-12.5 -65.5q0 -20 6 -33q20 -41 79.5 -72t149.5 -52.5t205 -32.5t246 -11q71 0 161.5 7
t186.5 22.5t191 40t174 59.5q-12 47 -28.5 90t-40.5 89.5t-57 99.5t-78 121l246 160q18 -29 42 -71t48.5 -90.5t48 -102.5t42 -108t28.5 -105.5t8 -96.5q-5 -84 -58 -148.5t-135.5 -112.5t-186 -81t-210 -53t-206.5 -29t-176 -9z" />
    <glyph glyph-name="feh_dotless.isol" horiz-adv-x="1948" 
d="M977 -60q-9 0 -41 0.5t-79.5 3.5t-106.5 8t-121 15t-123 24.5t-113 35.5q-227 88 -312 258v-1q-48 93 -48 206q0 49 12 106t31 111q24 63 52 111.5t58 102.5l235 -197q-15 -21 -35 -54.5t-38.5 -70.5t-31 -74.5t-12.5 -65.5q0 -20 6 -33q20 -41 78.5 -72.5t147 -53.5
t203 -33t246.5 -11q37 0 96 1.5t127.5 5t141 10t138 16.5t117.5 23.5t79 31.5q-101 -11 -186 -8.5t-152 16.5t-114.5 38.5t-72.5 56.5v-1q-27 34 -50.5 91t-23.5 141q0 45 6 84q30 170 120 281l-1 -1q54 72 122 107.5t143 35.5q76 0 150 -37t134 -100q43 -49 77.5 -111
t59 -132t38 -145.5t13.5 -151.5q0 -23 -1 -45.5t-3 -42.5q-12 -103 -57.5 -179t-116.5 -129.5t-162 -87t-194.5 -52t-214.5 -25.5t-221 -7zM1473 867q-23 1 -46.5 -13.5t-43 -38.5t-32 -55t-12.5 -63q0 -28 13 -50q7 -12 28.5 -20.5t51 -14t63.5 -9t65 -4.5t56.5 0t37.5 3
q-9 45 -23.5 91t-36.5 84t-52 63t-69 27z" />
    <glyph glyph-name="uni06A1.fina" horiz-adv-x="2106" 
d="M963 -60q-8 0 -40.5 0.5t-80.5 3.5t-107.5 8.5t-122 15t-123.5 24t-113 35.5q-227 88 -312 258v-1q-48 93 -48 206q0 49 12 106t31 111q24 63 52 111.5t58 102.5l235 -197q-15 -21 -35 -54.5t-38.5 -70.5t-31 -74.5t-12.5 -65.5q0 -20 6 -33q20 -41 78.5 -72.5t147 -53.5
t203 -33t246.5 -11q39 0 84 0.5t85 1.5t70.5 2t41.5 2q-36 40 -65 99t-33 134q1 94 32 181.5t88 159.5q63 78 145 122t170 40q87 -4 162 -45t129.5 -106t86 -147.5t31.5 -169.5q0 -69 -23 -135.5t-58 -126.5q48 -5 100.5 -8.5t92.5 -3.5q34 0 63 -12t50.5 -33t33.5 -50
t12 -63q0 -33 -12 -62t-33.5 -50.5t-50.5 -33.5t-63 -12h-9q-32 0 -70 1.5t-76 3.5t-74.5 5.5t-65.5 7.5q-54 8 -109.5 21t-115.5 42q-24 -14 -66.5 -25t-95.5 -20t-113.5 -16t-121.5 -11.5t-119.5 -6.5t-107.5 -2zM1730 507q0 32 -15.5 61t-38 52t-48.5 38.5t-47 21.5
q-23 -5 -52.5 -18t-56 -36.5t-44.5 -57t-18 -79.5q0 -15 15.5 -41.5t40 -54t56 -51t64.5 -33.5q25 14 51 38.5t46.5 52t33.5 56t13 51.5z" />
    <glyph glyph-name="uni066F" unicode="&#x66f;" horiz-adv-x="1581" 
d="M775 -381q87 0 162.5 24t137 66.5t107.5 101.5t73 129l-190 1q-118 10 -213 51.5t-152 114.5l1 -1q-42 51 -66 112t-24 133q0 54 12 109t32.5 107.5t46.5 99.5t54 84q58 75 130 114t151 39q168 0 305 -149q48 -54 85.5 -121t63.5 -143t40 -158.5t14 -166.5
q0 -23 -0.5 -45.5t-1.5 -45.5q0 -10 -4 -46.5t-15.5 -89t-31.5 -116t-53 -126.5q-42 -81 -104.5 -152t-131.5 -119q-88 -60 -197.5 -92.5t-234.5 -32.5q-103 0 -202.5 22t-177.5 60q-85 43 -153 104.5t-113 140.5v-1q-49 79 -74 171.5t-25 198.5q0 75 7.5 143.5t24 136
t43.5 137t66 146.5l252 -106q-39 -72 -63.5 -134.5t-38 -118t-18.5 -106t-5 -97.5q0 -89 40 -160t106.5 -120t153.5 -74.5t181 -24.5zM1037 585q-29 3 -58.5 -17.5t-53.5 -54t-38 -75.5t-11 -82v1q2 -27 29 -45.5t62 -30t69 -17t49 -6.5q17 -2 40 -2.5t44 -0.5q35 0 60 0.5
t48 1.5q-2 28 -11 62t-24 69t-35.5 69t-46.5 61t-57 45t-66 22z" />
    <glyph glyph-name="onedot.above" horiz-adv-x="1024" 
d="M518 1448l222 -222l-222 -222l-222 222z" />
    <glyph glyph-name="twodots.above" horiz-adv-x="1024" 
d="M905 1021l-192 -193l-190 190l-188 -188l-194 193l192 193l190 -190l188 188z" />
    <glyph glyph-name="threedots.above" horiz-adv-x="1151" 
d="M953 1153l-192 -193l-190 190l-188 -188l-194 193l192 193l190 -190l188 188zM393 1443l178 178l179 -179l-178 -178z" />
    <glyph glyph-name="threedots.below" horiz-adv-x="1057" 
d="M728 -437l-188 188l-190 -190l-192 193l194 193l188 -188l190 190l192 -193zM541 -355l178 -178l-179 -179l-178 178z" />
    <glyph glyph-name="uni0660" unicode="&#x660;" horiz-adv-x="919" 
d="M318 464q0 -31 11.5 -58t32 -47.5t47.5 -32t58 -11.5t58.5 11.5t48 32t32.5 47.5t12 58t-12 58.5t-32.5 48t-48 32.5t-58.5 12t-58 -12t-47.5 -32.5t-32 -48t-11.5 -58.5zM93 464q0 77 29.5 145.5t80 119.5t118.5 81t146 30q77 0 145.5 -30t119.5 -81t81 -119.5
t30 -145.5q0 -78 -30 -146t-81 -118.5t-119.5 -80t-145.5 -29.5q-78 0 -146 29.5t-118.5 80t-80 118.5t-29.5 146z" />
    <glyph glyph-name="uni0661" unicode="&#x661;" horiz-adv-x="728" 
d="M261 -58q0 132 -1.5 267.5t-8 268.5t-18.5 260.5t-33.5 245t-53.5 221.5t-78 190l255 159q52 -81 86.5 -170t58.5 -184t39.5 -196t29.5 -205q10 -81 16 -173.5t9.5 -188.5t4.5 -190t1 -176v-43v-86h-307z" />
    <glyph glyph-name="uni0662" unicode="&#x662;" horiz-adv-x="1127" 
d="M1029 1530q11 -72 17 -132t6 -111q0 -99 -26 -192t-98 -184q-60 -71 -140.5 -106.5t-178.5 -35.5q-26 0 -50.5 1.5t-47.5 5.5q12 -103 18.5 -214t9.5 -222.5t3.5 -218.5t0.5 -201h-307q0 168 -3.5 338t-16 329t-36.5 301t-64 254v-1l-22 53l-6 16h1l-4 9v-1
q-10 25 -24 56t-45 85l258 164q21 -33 35.5 -59.5t25.5 -49t19.5 -42t16.5 -38.5l27 -66q18 -42 38 -78t44.5 -62t56 -40.5t72.5 -13.5q52 1 79.5 24t40 57.5t14 77t1.5 82.5q0 38 -4.5 74.5t-12.5 86.5z" />
    <glyph glyph-name="uni0663" unicode="&#x663;" horiz-adv-x="1499" 
d="M1374 1532q12 -64 19.5 -109.5t12.5 -80t7 -62.5t2 -58q0 -105 -25.5 -180t-72.5 -133q-45 -53 -109 -83t-139 -30q-25 0 -54.5 4t-60.5 14t-62 27.5t-59 44.5q-51 -55 -112 -81.5t-144 -26.5q-19 0 -36.5 0.5t-34.5 3.5q11 -94 18 -202t10.5 -219.5t5 -220.5t1.5 -205
h-310q1 20 2 50t1.5 62.5t1 63t0.5 50.5q0 87 -2.5 186t-10 202.5t-22 210t-38.5 209t-59 199t-83 180.5l273 159q29 -45 51.5 -89t39.5 -81l35 -84q22 -50 38 -83t31.5 -52t35.5 -26.5t52 -7.5q28 0 45.5 14t28 37.5t14.5 54.5t4 64q0 37 -3.5 74t-6.5 69l-4 40l282 40
q2 -10 3 -26.5t3 -29.5q5 -44 13 -99.5t21.5 -104t35.5 -81.5t56 -33q18 0 29 12.5t17 31t8.5 39t2.5 37.5q0 14 -1 30t-4.5 43t-11 69.5t-19.5 109.5z" />
    <glyph glyph-name="uni0664" unicode="&#x664;" horiz-adv-x="1313" 
d="M804 636q-72 0 -141 13.5t-132 44.5q12 -108 19 -208t11 -194.5t5 -184t1 -177.5h-307q0 202 -8 399.5t-33.5 379.5t-74 342.5t-130.5 288.5l259 163q32 -54 60 -101.5t49 -94.5q31 44 72.5 81t89.5 64t101 44t106 21q14 1 31.5 1h32.5q43 0 86.5 -4.5t87.5 -18
t87.5 -39.5t85.5 -68l-160 -252q0 1 -22 13t-56.5 26.5t-76 25.5t-80.5 10q-22 -3 -49.5 -11.5t-54.5 -21t-52.5 -28.5t-44 -33.5t-29 -36.5t-7.5 -37v1q6 -31 35.5 -51.5t70 -32.5t84.5 -16.5t80 -4.5q35 0 76 5.5t83.5 16.5t83.5 27.5t76 38.5l129 -240
q-118 -86 -229.5 -118.5t-214.5 -32.5z" />
    <glyph glyph-name="uni0665" unicode="&#x665;" horiz-adv-x="1401" 
d="M933 -91q-71 0 -134 29.5t-108 77.5q-49 -50 -111.5 -78t-135.5 -28q-78 0 -141.5 34t-111 87.5t-77 119.5t-40.5 131q-4 25 -6 53t-2 57q0 54 7 111.5t20 114.5q18 78 47.5 157.5t71.5 165t96.5 180t122.5 202.5q-10 11 -22 22.5t-21 21.5l214 215q9 -10 22 -23
t27.5 -26.5t28.5 -27t26 -24.5v1l10.5 -10.5l10.5 -10.5q77 -72 153 -147.5t146 -163.5q95 -121 166.5 -253.5t116.5 -267.5q15 -48 23 -102.5t8 -111.5q0 -93 -23.5 -182t-72.5 -159.5t-126 -115.5t-183 -49h-2zM832 548q0 -40 4 -95.5t15 -107t30 -89t49 -42.5
q28 6 53.5 25t44.5 46.5t30 59.5t11 64q0 34 -5.5 68.5t-12.5 60.5h1q-30 90 -78 170t-104.5 151t-116 132.5t-111.5 113.5l-12 12q-46 -62 -91 -134.5t-83 -147t-67.5 -146.5t-44.5 -133q-8 -41 -13 -88.5t-5 -92.5q0 -32 9.5 -61t26 -50.5t37.5 -34t45 -12.5q13 0 28 8.5
t30 24t28.5 38t22.5 50.5q11 37 18 73t12 64q2 17 4.5 38t4.5 37z" />
    <glyph glyph-name="uni0666" unicode="&#x666;" horiz-adv-x="1277" 
d="M59 5q1 4 19 45.5t48.5 104t72 139t90.5 152.5q45 69 85.5 124.5t83.5 97.5q-62 13 -115 46.5t-93 81.5t-62.5 109t-22.5 129q0 50 12.5 99.5t36.5 96t58 88t77 76.5q73 56 162 85t187 29q80 0 163 -27.5t172 -78.5l-139 -230q-31 14 -58.5 21.5t-51.5 10.5t-44.5 3.5
t-38.5 0.5h-15q-24 0 -51 -5t-52 -13.5t-46.5 -18.5t-34.5 -20h1q-32 -28 -48 -57.5t-16 -55.5q0 -39 35 -66t107 -27h15.5t15.5 1q45 -1 95 5.5t103 17.5t107 25.5t107 29.5l109 -264l-99 -46q-106 -40 -195 -106.5t-161 -145t-128 -161.5t-96 -156.5t-64.5 -129.5
t-34.5 -80q-2 -3 -3 -6.5t-3 -6.5q-2 -4 -3 -7z" />
    <glyph glyph-name="uni0667" unicode="&#x667;" horiz-adv-x="1368" 
d="M541 -83q0 158 -18.5 300.5t-51 272t-77.5 246.5t-97.5 225.5t-111 209t-118.5 195.5l257 165q72 -119 130 -239.5t105 -240.5t84 -237.5t67 -229.5q24 87 51 180t56 184.5t59 179t60.5 164t59.5 139.5t57 106l256 -163q-38 -60 -76.5 -135t-76 -160.5t-74 -179.5
t-70.5 -191q-78 -224 -120.5 -422t-44.5 -369h-306z" />
    <glyph glyph-name="uni0668" unicode="&#x668;" horiz-adv-x="1390" 
d="M1071 -94q-27 42 -57.5 102.5t-62 132.5t-63.5 154.5t-62.5 168.5t-59 173.5t-52.5 171.5q-33 -106 -73 -218t-89 -227t-108 -232t-129 -232l-257 164q90 143 175 299.5t151.5 334.5t106.5 382t40 442l325 -1q3 -109 25 -238.5t58.5 -266.5t83 -274.5t98 -262.5
t104.5 -231t101 -180z" />
    <glyph glyph-name="uni0669" unicode="&#x669;" horiz-adv-x="1220" 
d="M728 991q8 77 -41 182q-57 121 -135 119q-83 -2 -145 -97q-25 -39 -35 -77q-10 -39 0 -60q28 -57 150 -78q118 -20 206 11zM1107 22l-11 -10l2 -4l-226 -150l-7 13q-117 213 -172 791q-26 -3 -59 -3q-117 0 -217 30q-136 40 -222 156q-70 94 -61 242q8 130 70 254
q61 121 153 188t198 67q152 0 258 -109q125 -128 159 -400q11 -84 13 -182v-74q0 -15 -1 -31v-13v-12v-1q-1 -18 -1 -23q0 -176 40 -384q22 -121 51 -233q25 -100 33 -112v0z" />
    <glyph glyph-name="uni06F4" unicode="&#x6f4;" horiz-adv-x="1313" 
d="M804 636q-72 0 -141 13.5t-132 44.5q12 -108 19 -208t11 -194.5t5 -184t1 -177.5h-307q0 202 -8 399.5t-33.5 379.5t-74 342.5t-130.5 288.5l259 163q32 -54 60 -101.5t49 -94.5q31 44 72.5 81t89.5 64t101 44t106 21q14 1 31.5 1h32.5q43 0 86.5 -4.5t87.5 -18
t87.5 -39.5t85.5 -68l-160 -252q0 1 -22 13t-56.5 26.5t-76 25.5t-80.5 10q-22 -3 -49.5 -11.5t-54.5 -21t-52.5 -28.5t-44 -33.5t-29 -36.5t-7.5 -37v1q6 -31 35.5 -51.5t70 -32.5t84.5 -16.5t80 -4.5q35 0 76 5.5t83.5 16.5t83.5 27.5t76 38.5l129 -240
q-118 -86 -229.5 -118.5t-214.5 -32.5z" />
    <glyph glyph-name="uni06F5" unicode="&#x6f5;" horiz-adv-x="1401" 
d="M933 -91q-71 0 -134 29.5t-108 77.5q-49 -50 -111.5 -78t-135.5 -28q-78 0 -141.5 34t-111 87.5t-77 119.5t-40.5 131q-4 25 -6 53t-2 57q0 54 7 111.5t20 114.5q18 78 47.5 157.5t71.5 165t96.5 180t122.5 202.5q-10 11 -22 22.5t-21 21.5l214 215q9 -10 22 -23
t27.5 -26.5t28.5 -27t26 -24.5v1l10.5 -10.5l10.5 -10.5q77 -72 153 -147.5t146 -163.5q95 -121 166.5 -253.5t116.5 -267.5q15 -48 23 -102.5t8 -111.5q0 -93 -23.5 -182t-72.5 -159.5t-126 -115.5t-183 -49h-2zM832 548q0 -40 4 -95.5t15 -107t30 -89t49 -42.5
q28 6 53.5 25t44.5 46.5t30 59.5t11 64q0 34 -5.5 68.5t-12.5 60.5h1q-30 90 -78 170t-104.5 151t-116 132.5t-111.5 113.5l-12 12q-46 -62 -91 -134.5t-83 -147t-67.5 -146.5t-44.5 -133q-8 -41 -13 -88.5t-5 -92.5q0 -32 9.5 -61t26 -50.5t37.5 -34t45 -12.5q13 0 28 8.5
t30 24t28.5 38t22.5 50.5q11 37 18 73t12 64q2 17 4.5 38t4.5 37z" />
    <glyph glyph-name="uni06F6" unicode="&#x6f6;" horiz-adv-x="1277" 
d="M59 5q1 4 19 45.5t48.5 104t72 139t90.5 152.5q45 69 85.5 124.5t83.5 97.5q-62 13 -115 46.5t-93 81.5t-62.5 109t-22.5 129q0 50 12.5 99.5t36.5 96t58 88t77 76.5q73 56 162 85t187 29q80 0 163 -27.5t172 -78.5l-139 -230q-31 14 -58.5 21.5t-51.5 10.5t-44.5 3.5
t-38.5 0.5h-15q-24 0 -51 -5t-52 -13.5t-46.5 -18.5t-34.5 -20h1q-32 -28 -48 -57.5t-16 -55.5q0 -39 35 -66t107 -27h15.5t15.5 1q45 -1 95 5.5t103 17.5t107 25.5t107 29.5l109 -264l-99 -46q-106 -40 -195 -106.5t-161 -145t-128 -161.5t-96 -156.5t-64.5 -129.5
t-34.5 -80q-2 -3 -3 -6.5t-3 -6.5q-2 -4 -3 -7z" />
    <glyph glyph-name="uni066A" unicode="&#x66a;" horiz-adv-x="1217" 
d="M1204 207l-244 -243l-245 245l244 243zM481 1327l-244 -243l-245 245l244 243zM97 -61l637 1690h352l-641 -1690h-348z" />
    <glyph glyph-name="uni061F" unicode="&#x61f;" horiz-adv-x="1024" 
d="M408 419q0 56 -1.5 95.5t-3.5 67t-5.5 44t-7.5 25.5q-20 43 -112 113q-172 154 -228 242q-54 85 -54 184q0 91 39 170t109 145q149 131 383 131q237 0 363 -129v1q127 -127 119 -349l-270 -30q-3 149 -67 206q-63 57 -157 57q-44 0 -87 -11t-78.5 -35t-58 -61t-24.5 -88
q-3 -45 41.5 -100.5t119.5 -112.5q85 -63 140.5 -115.5t77.5 -94.5q17 -35 26.5 -78.5t9.5 -94.5v-182h-274zM561 290l222 -222l-222 -222l-222 222z" />
    <glyph glyph-name="uni060C" unicode="&#x60c;" horiz-adv-x="512" 
d="M481 149q0 -61 -51 -121q-65 -72 -165 -72q-114 0 -180 87q-57 75 -57 185q0 256 284 459q10 -7 32 -24t47 -37t48.5 -38.5t36.5 -28.5q-81 -60 -133 -115t-72 -100q44 6 80.5 -7t63.5 -40t44 -65t22 -81v-2z" />
    <glyph glyph-name="uni061B" unicode="&#x61b;" horiz-adv-x="512" 
d="M435 125q0 -68 -52 -120q-51 -48 -118 -48q-69 0 -120 48q-50 50 -50 120t50 120t120 50q69 0 119 -50q51 -51 51 -120zM469 668q0 -39 -16 -74t-43 -61.5t-63 -42t-75 -15.5q-112 0 -179 87q-27 36 -43.5 83.5t-16.5 101.5q0 260 232 408l149 -142q-69 -43 -105 -79
t-47 -78q45 6 81.5 -5t63.5 -36t43 -62.5t19 -84.5z" />
    <glyph glyph-name="uni066B" unicode="&#x66b;" horiz-adv-x="589" 
d="M-76 -186l518 1164h232l-517 -1164h-233z" />
    <glyph glyph-name="uni066C" unicode="&#x66c;" horiz-adv-x="589" 
d="M65 132q0 42 18 77.5t48 61.5t68.5 41.5t78.5 16.5q117 2 182 -83q58 -74 59 -185v1q10 -312 -400 -517l-84 203q214 94 249 199l-32 -2q-183 -1 -187 186v1z" />
    <glyph glyph-name="uni066D" unicode="&#x66d;" horiz-adv-x="990" 
d="M521 1143l92 -322l334 11l26 -75l-280 -188l113 -314l-66 -45l-261 205l-265 -209l-56 54l111 309q-69 45 -138.5 92.5t-136.5 92.5l21 78l334 -11q22 78 46 161t46 161h80z" />
    <glyph glyph-name="uni064B" unicode="&#x64b;" 
d="M456 1268l-482 -200v177l482 191v-168zM456 1554l-482 -200v177l482 191v-168z" />
    <glyph glyph-name="uni064D" unicode="&#x64d;" 
d="M461 -551l-482 -200v177l482 191v-168zM461 -265l-482 -200v177l482 191v-168z" />
    <glyph glyph-name="uni064E" unicode="&#x64e;" 
d="M452 1330l-482 -200v177l482 191v-168z" />
    <glyph glyph-name="uni064F" unicode="&#x64f;" 
d="M-76 1211q20 6 51.5 15t67 20.5t72.5 26t67 31.5l-27 11q-33 16 -55.5 36.5t-36 43t-19 46t-5.5 45.5q0 36 14 67q13 26 33.5 48.5t45.5 39t53 26t57 9.5q17 0 34.5 -4t32.5 -11q32 -17 57 -47t36 -67v1q7 -21 9.5 -40.5t2.5 -39.5q0 -45 -11 -91l29 -6l-43 -141
q-23 4 -37.5 8t-24.5 8q-38 -32 -86.5 -59.5t-95 -49t-85 -36t-56.5 -20.5l-40 -10zM219 1547q-7 0 -17 -4t-20 -11t-18.5 -15.5t-13.5 -18.5q3 -7 18.5 -19t36.5 -25.5t43 -25.5t38 -19q1 4 0.5 6t-0.5 7q0 20 -4.5 40.5t-13 37.5t-21 29.5t-28.5 17.5z" />
    <glyph glyph-name="uni064C" unicode="&#x64c;" 
d="M-30 1157q10 16 23.5 34.5t22.5 38t10 40t-14 41.5q-6 9 -25 5.5t-40 -12t-39.5 -18.5t-24.5 -15l-78 88q4 4 18.5 18t37 28t52 25t64.5 10q39 -2 75.5 -18t53.5 -50q13 -27 17.5 -47t3.5 -36t-5.5 -29t-8.5 -25q14 5 32.5 12t37.5 15t37.5 16t32.5 15q-76 42 -109 89.5
t-33 89.5q0 20 4 36.5t11 30.5q13 26 33.5 48.5t45.5 39.5t53 26.5t56 9.5q29 0 54.5 -10t46.5 -27t36 -41.5t24 -52.5q6 -19 8.5 -37.5t2.5 -37.5q0 -25 -4 -51t-9 -48l16 -8t13 -7l-41 -128l-58 16q-28 -25 -64.5 -46t-75.5 -38t-77.5 -30t-71 -22.5t-55.5 -14.5t-30 -6z
M350 1450q0 13 -4 26.5t-11 25t-17.5 19.5t-23.5 10q-14 1 -35.5 -10.5t-34.5 -30.5q-2 -3 4.5 -10t18 -16t26 -18.5t28.5 -16.5l-1 1l46 -23q2 10 3 21t1 22z" />
    <glyph glyph-name="uni0650" unicode="&#x650;" 
d="M461 -311l-482 -200v177l482 191v-168z" />
    <glyph glyph-name="uni0651" unicode="&#x651;" 
d="M114 1099q-37 1 -64.5 9t-47.5 19.5t-33 25t-21 26.5q-13 22 -19 48.5t-6 49.5q0 25 5 52.5t11.5 52t14 43.5t12.5 27l120 -63q-14 -26 -22.5 -57t-8.5 -53q0 -18 12.5 -28.5t32.5 -10.5q24 0 36.5 14t18 34.5t6.5 45t3 45.5l100 38q7 -59 19.5 -91t25.5 -47t24.5 -18
t16.5 -3q23 2 40 13.5t17 28.5t-10 39.5t-24.5 46t-32 45.5t-32.5 39l123 85q7 -10 24 -36.5t34.5 -61.5t31 -74t13.5 -75q0 -34 -15 -68.5t-40.5 -62.5t-59.5 -45.5t-71 -17.5q-23 0 -51.5 7t-55.5 30q-26 -26 -56.5 -39t-70.5 -13z" />
    <glyph glyph-name="uni0652" unicode="&#x652;" 
d="M206 1236q21 0 39 9.5t31.5 23.5t21 30.5t7.5 30.5q0 13 -8 29t-21.5 29.5t-31.5 22.5t-38 9q-21 0 -39.5 -9t-33 -22.5t-23 -29.5t-8.5 -29q0 -14 8.5 -30.5t23 -30.5t33 -23.5t39.5 -9.5zM206 1579q47 1 89 -21t73.5 -58t50 -80.5t18.5 -89.5t-18.5 -89.5t-50 -80.5
t-73.5 -58t-89 -22t-89.5 22t-74 57.5t-50 80.5t-18.5 90t18.5 89.5t50 80.5t73.5 58t90 21z" />
    <glyph glyph-name="uni0653" unicode="&#x653;" 
d="M-209 1146q0 6 6.5 22.5t15 35.5t16.5 35.5t11 21.5q36 55 84.5 90t96.5 46q10 2 25 2.5t24 0.5q48 0 87 -11.5t70 -25.5l31 -15q17 -8 34 -14.5t36 -7.5q16 -1 33 8t33.5 24.5t32 34.5t29.5 38l156 -101q-1 -3 -11 -18.5t-28.5 -37.5t-44 -46.5t-57.5 -45t-69.5 -33.5
t-79.5 -12q-31 -2 -63 12.5t-65.5 31t-68.5 28t-73 3.5q-23 -5 -37.5 -17.5t-24.5 -29t-17 -35.5t-15 -37z" />
    <glyph glyph-name="uni0654" unicode="&#x654;" 
d="M325 1589l-16 2t-16 3q-14 2 -31.5 3.5t-33.5 1.5q-26 0 -53 -9.5t-48 -25.5t-31 -38.5t-1 -47.5v1q7 -16 23.5 -30t39 -23t49 -10.5t52.5 7.5q26 8 57.5 25t57.5 34q16 10 31 20t30 21l62 -146q-18 -11 -35 -22t-40.5 -25.5t-57 -34t-83.5 -48t-120 -67t-166 -90.5
l-51 145l129 76q-29 21 -51.5 49t-36.5 60q-16 35 -16 86q0 35 11.5 68.5t31.5 62.5t47.5 52.5t60.5 37.5q26 11 53.5 16t56.5 5q24 0 49 -3.5t45 -7.5q12 -2 23.5 -4.5t22.5 -5.5z" />
    <glyph glyph-name="uni0655" unicode="&#x655;" 
d="M363 -268l-16 2t-16 3q-14 2 -31.5 3.5t-33.5 1.5q-26 0 -53 -9.5t-48 -25.5t-31 -38.5t-1 -47.5v1q7 -16 23.5 -30t39 -23t49 -10.5t52.5 7.5q26 8 57.5 25t57.5 34q16 10 31 20t30 21l62 -146q-18 -11 -35 -22t-40.5 -25.5t-57 -34t-83.5 -48t-120 -67t-166 -90.5
l-51 145l129 76q-29 21 -51.5 49t-36.5 60q-16 35 -16 86q0 35 11.5 68.5t31.5 62.5t47.5 52.5t60.5 37.5q26 11 53.5 16t56.5 5q24 0 49 -3.5t45 -7.5q12 -2 23.5 -4.5t22.5 -5.5z" />
    <glyph glyph-name="uni0670" unicode="&#x670;" 
d="M103 1139q7 27 12.5 56.5t9 58t5 53t1.5 41.5t-1.5 41.5t-5 52t-9 56.5t-12.5 56l147 48q6 -26 11.5 -57.5t9.5 -64t6.5 -63.5t2.5 -55q0 -23 -1.5 -54.5t-5 -67.5t-9 -74.5t-12.5 -75.5z" />
    <glyph glyph-name="uni0656" unicode="&#x656;" 
d="M126 -587q7 27 12.5 56.5t9 58t5 53t1.5 41.5t-1.5 41.5t-5 52t-9 56.5t-12.5 56l160 48q6 -26 11.5 -57.5t9.5 -64t6.5 -63.5t2.5 -55q0 -23 -1.5 -54.5t-5 -67.5t-9 -74.5t-12.5 -75.5z" />
    <glyph glyph-name="uni0615" unicode="&#x615;" 
d="M185 1075q-15 0 -30 0.5t-29 1.5q-131 6 -309 74l54 134q34 -13 62.5 -23t54.5 -17l13 21l24 33q5 36 8 65t3 56q0 26 -2 55.5t-5 68.5q-4 48 -8 89.5t-9 73.5q-2 19 -5 36t-5 33l146 40q2 -28 6.5 -65t7.5 -65q6 -57 11.5 -114t7.5 -117q42 31 83 51t79 27
q36 6 75.5 -2.5t73.5 -30t58 -54.5t28 -76q2 -26 -3.5 -51.5t-16 -49.5t-24.5 -44.5t-28 -35.5q-41 -37 -83.5 -59.5t-83.5 -34.5t-80 -16t-74 -4zM123 1221h37q25 0 63 3.5t79 12t80 22.5t66 35q12 13 19 27t7 25q0 10 -10.5 19.5t-27 15.5t-35.5 8.5t-35 -0.5
q-18 -3 -44 -14t-55.5 -28.5t-59.5 -41t-55 -50.5l-6 -7z" />
    <glyph glyph-name="wasla" 
d="M-126 1228q33 20 61 33q25 12 52 20.5t44 4.5q12 -1 24 -5t22 -9q5 -3 11 -6t11 -7q14 23 34.5 52t46.5 55q37 35 86.5 58.5t106.5 23.5q36 0 68.5 -14t57.5 -40t35 -57.5t6.5 -63.5t-19.5 -63t-44 -56q-47 -33 -110.5 -52.5t-128.5 -20.5t-124 20t-97 70
q-17 -2 -37 -10.5t-37 -18.5q-10 -5 -19.5 -11.5t-19.5 -13.5zM444 1305q-17 19 -40 23t-48 -2t-50.5 -19.5t-48 -30t-40 -33.5t-26.5 -29h26q22 0 53.5 2t63.5 6.5t59 11.5t41 18l-1 -1q17 14 19 37l-4 10t-4 7z" />
    <glyph glyph-name="beh_dotless_alt.init" horiz-adv-x="843" 
d="M-158 98q0 33 12.5 62t33.5 50.5t50 33.5t62 12h111h48q45 0 99 4t104 13t90.5 24.5t59.5 39.5q11 17 11 46q0 43 -20.5 102t-48.5 120t-57.5 117t-47.5 93l285 140q31 -54 60 -127.5t52 -151t37 -152t14 -129.5q0 -101 -36 -185q-42 -94 -115 -155.5t-175 -90.5
q-30 -8 -75 -13t-91 -7.5t-87 -3t-64 -0.5h-145h-9q-33 0 -62 12t-50 33.5t-33.5 50.5t-12.5 62z" />
    <glyph glyph-name="beh_dotless_alt.medi" horiz-adv-x="852" 
d="M-165 98q0 33 12 62t33.5 50.5t50.5 33.5t62 12h76q72 0 138.5 6t117.5 25.5t82.5 55t33.5 94.5q1 22 0.5 36.5t-5.5 35t-14.5 54t-26.5 94.5l291 82q19 -48 35 -127t24 -173q2 -30 7 -62t16.5 -59t31.5 -44.5t52 -17.5q33 0 62 -12t50.5 -33.5t34 -50.5t12.5 -62
t-12.5 -62t-34.5 -50.5t-50.5 -33.5t-60.5 -12q-96 0 -164.5 29.5t-117.5 76.5q-45 -30 -103.5 -50t-124.5 -32.5t-136 -18t-138 -5.5h-76q-33 0 -62 12t-50.5 33.5t-33.5 50.5t-12 62z" />
    <glyph glyph-name="onedot.below" horiz-adv-x="1024" 
d="M654 -358l-213 -213l-214 214l213 213z" />
    <glyph glyph-name="twodots.below" horiz-adv-x="1024" 
d="M893 -367l-192 -193l-190 190l-188 -188l-194 193l192 193l190 -190l188 188z" />
    <glyph glyph-name="alef_alt.isol" horiz-adv-x="509" 
d="M121 -63q5 77 9.5 161t7.5 166t5 159.5t2 141.5q0 167 -5 287t-12 205.5t-15.5 143t-15.5 101.5l-13 76l311 99q4 -14 7 -26t5.5 -28.5t6 -40.5t7.5 -63t9.5 -95t13.5 -137q5 -78 8.5 -140t5.5 -121t3 -121.5t1 -141.5q0 -130 -4 -275.5t-15 -305.5z" />
    <glyph glyph-name="alef_alt.fina" horiz-adv-x="640" 
d="M638 -60q-123 0 -211 30.5t-152 93.5q-40 40 -61.5 84t-31 86.5t-11 80.5t-1.5 65q1 48 2.5 119.5t1.5 165.5t-1 200.5t-5.5 197t-13 173.5t-23.5 160l308 93q12 -66 19 -139.5t11 -159.5t6 -164.5t3 -163.5q0 -25 0.5 -54t0.5 -58.5t0.5 -56.5t0.5 -48q0 -52 -0.5 -95
t-1.5 -85q0 -15 -0.5 -39.5t-0.5 -39.5q-1 -33 0.5 -61t12.5 -38q13 -14 50.5 -21.5t88.5 -8.5h9q32 0 61 -13t50.5 -34.5t34.5 -50.5t13 -61q0 -33 -13 -62t-34.5 -50.5t-50.5 -33.5t-61 -12z" />
    <glyph glyph-name="uni06D5" unicode="&#x6d5;" horiz-adv-x="983" 
d="M485 -60q-5 0 -27.5 1.5t-55 6.5t-73 16t-81.5 30q-109 52 -169 142.5t-60 210.5q0 200 177 415q14 17 23.5 28t17.5 20t15.5 16.5l17.5 17.5q-12 10 -23.5 19t-19.5 17l-18 16l199 243q51 -38 122 -102.5t164 -164.5q259 -295 259 -525q0 -118 -56.5 -209t-156.5 -143
q-35 -17 -71.5 -27.5t-70.5 -16.5t-63.5 -8.5t-49.5 -2.5zM679 347q0 31 -20 70t-52.5 81.5t-72.5 86t-80 83.5q-27 -30 -57 -67.5t-55 -79.5t-41 -86.5t-14 -87.5q1 -24 23 -42t52.5 -29t64.5 -16.5t58 -5.5q30 0 64.5 4.5t63 15.5t47.5 29t19 44z" />
    <glyph glyph-name="heh_ae.fina" horiz-adv-x="1090" 
d="M544 80q-142 0 -244 38.5t-162 108.5q-35 45 -50.5 97.5t-15.5 100.5q0 42 7 76t17 58q40 84 98.5 147t122 109.5t126 77.5t111.5 51q-2 23 -3.5 47t-3.5 46l-5 63l312 67q1 -9 4.5 -42t8 -78.5t10 -97t10 -96.5t8 -78t4.5 -40q15 -123 25.5 -202t18 -125.5t12.5 -67
t8 -27.5q15 -32 45.5 -44.5t81.5 -12.5q32 0 61 -12t50.5 -33.5t34.5 -50.5t13 -62t-13 -62t-34.5 -50t-50.5 -33.5t-61 -12.5q-21 0 -47 1.5t-54.5 6t-59 13t-60.5 22.5q-42 20 -73.5 45.5t-60.5 64.5q-51 -7 -98.5 -10t-92.5 -3zM538 394q21 0 43.5 1.5t43.5 3.5
q-5 34 -10.5 76t-10.5 90l-10 92q-38 -19 -85 -45.5t-88.5 -56t-69.5 -60t-28 -56.5q0 -13 22.5 -21.5t55.5 -14t70 -7.5t67 -2z" />
    <glyph glyph-name="uni06C2" unicode="&#x6c2;" horiz-adv-x="1395" 
d="M1380 256q33 0 61.5 -12.5t50 -34t34 -50t12.5 -61.5t-12.5 -61.5t-34 -50t-50 -34t-61.5 -12.5q-3 0 -5.5 0.5t-5.5 0.5q-83 1 -149 26.5t-121.5 66.5t-103.5 92.5t-94 105.5q-29 34 -58.5 70.5t-59.5 66.5t-61 49t-63 19q-14 0 -29 -2.5t-32 -7.5q-39 -15 -72.5 -53.5
t-61.5 -92t-50 -117.5t-40 -129l-300 80q27 100 63.5 193.5t88 171t120.5 134.5t160 85q42 13 79.5 18.5t73.5 5.5q83 0 150.5 -25t124.5 -66t105.5 -92.5t95.5 -105.5q27 -32 56.5 -63t59.5 -56t61 -41.5t61 -17.5h1h6v0zM479 1123l-33 8q-15 3 -33 6t-36 3q-29 0 -57 -9h1
q-14 -6 -28.5 -15.5t-26 -21.5t-19 -25.5t-7.5 -27.5q0 -12 6 -30v1q6 -15 20.5 -28.5t33 -23.5t39.5 -15.5t40 -5.5t33 5q27 9 53.5 22.5t48.5 27.5q13 8 25.5 16.5t23.5 16.5l77 -102q-48 -37 -109.5 -71.5t-146.5 -80.5l-240 -133l-62 113l167 93q-34 20 -61 50t-42 65
q-15 36 -15 80q0 33 11 64.5t30 58.5t45 48.5t56 35.5q25 11 51 15.5t53 4.5q23 0 47.5 -3.5t44.5 -8.5q23 -4 46 -12z" />
    <glyph glyph-name="uni06C3" unicode="&#x6c3;" horiz-adv-x="1417" 
d="M1400 256q33 0 61.5 -12.5t50 -34t34 -50t12.5 -61.5t-12.5 -61.5t-34 -50t-50 -34t-61.5 -12.5q-3 0 -5.5 0.5t-5.5 0.5q-83 1 -149 26.5t-121.5 66.5t-103.5 92.5t-94 105.5q-29 34 -58.5 70.5t-59.5 66.5t-61 49t-63 19q-14 0 -29 -2.5t-32 -7.5q-39 -15 -72.5 -53.5
t-61.5 -92t-50 -117.5t-40 -129l-300 80q27 100 63.5 193.5t88 171t120.5 134.5t160 85q42 13 79.5 18.5t73.5 5.5q83 0 150.5 -25t124.5 -66t105.5 -92.5t95.5 -105.5q27 -32 56.5 -63t59.5 -56t61 -41.5t61 -17.5h1h6v0zM966 1045l-192 -193l-190 190l-188 -188l-194 193
l192 193l190 -190l188 188z" />
    <glyph glyph-name="uni06F0" unicode="&#x6f0;" horiz-adv-x="947" 
d="M318 484q0 -31 11.5 -58t32 -47.5t47.5 -32t58 -11.5t58.5 11.5t48 32t32.5 47.5t12 58t-12 58.5t-32.5 48t-48 32.5t-58.5 12t-58 -12t-47.5 -32.5t-32 -48t-11.5 -58.5zM93 484q0 77 29.5 145.5t80 119.5t118.5 81t146 30q77 0 145.5 -30t119.5 -81t81 -119.5
t30 -145.5q0 -78 -30 -146t-81 -118.5t-119.5 -80t-145.5 -29.5q-78 0 -146 29.5t-118.5 80t-80 118.5t-29.5 146z" />
    <glyph glyph-name="uni06F1" unicode="&#x6f1;" horiz-adv-x="711" 
d="M261 -58q0 132 -1.5 267.5t-8 268.5t-18.5 260.5t-33.5 245t-53.5 221.5t-78 190l255 159q52 -81 86.5 -170t58.5 -184t39.5 -196t29.5 -205q10 -81 16 -173.5t9.5 -188.5t4.5 -190t1 -176v-43v-86h-307z" />
    <glyph glyph-name="uni06F2" unicode="&#x6f2;" horiz-adv-x="1133" 
d="M1029 1530q11 -72 17 -132t6 -111q0 -99 -26 -192t-98 -184q-60 -71 -140.5 -106.5t-178.5 -35.5q-26 0 -50.5 1.5t-47.5 5.5q12 -103 18.5 -214t9.5 -222.5t3.5 -218.5t0.5 -201h-307q0 168 -3.5 338t-16 329t-36.5 301t-64 254v-1l-22 53l-6 16h1l-4 9v-1
q-10 25 -24 56t-45 85l258 164q21 -33 35.5 -59.5t25.5 -49t19.5 -42t16.5 -38.5l27 -66q18 -42 38 -78t44.5 -62t56 -40.5t72.5 -13.5q52 1 79.5 24t40 57.5t14 77t1.5 82.5q0 38 -4.5 74.5t-12.5 86.5z" />
    <glyph glyph-name="uni06F3" unicode="&#x6f3;" horiz-adv-x="1510" 
d="M1374 1532q12 -64 19.5 -109.5t12.5 -80t7 -62.5t2 -58q0 -105 -25.5 -180t-72.5 -133q-45 -53 -109 -83t-139 -30q-25 0 -54.5 4t-60.5 14t-62 27.5t-59 44.5q-51 -55 -112 -81.5t-144 -26.5q-19 0 -36.5 0.5t-34.5 3.5q11 -94 18 -202t10.5 -219.5t5 -220.5t1.5 -205
h-310q1 20 2 50t1.5 62.5t1 63t0.5 50.5q0 87 -2.5 186t-10 202.5t-22 210t-38.5 209t-59 199t-83 180.5l273 159q29 -45 51.5 -89t39.5 -81l35 -84q22 -50 38 -83t31.5 -52t35.5 -26.5t52 -7.5q28 0 45.5 14t28 37.5t14.5 54.5t4 64q0 37 -3.5 74t-6.5 69l-4 40l282 40
q2 -10 3 -26.5t3 -29.5q5 -44 13 -99.5t21.5 -104t35.5 -81.5t56 -33q18 0 29 12.5t17 31t8.5 39t2.5 37.5q0 14 -1 30t-4.5 43t-11 69.5t-19.5 109.5z" />
    <glyph glyph-name="uni06F9" unicode="&#x6f9;" horiz-adv-x="1234" 
d="M732 991q8 77 -41 182q-57 121 -135 119q-83 -2 -145 -97q-25 -39 -35 -77q-10 -39 0 -60q28 -57 150 -78q118 -20 206 11zM1111 22l-11 -10l2 -4l-226 -150l-7 13q-117 213 -172 791q-26 -3 -59 -3q-117 0 -217 30q-136 40 -222 156q-70 94 -61 242q8 130 70 254
q61 121 153 188t198 67q152 0 258 -109q125 -128 159 -400q11 -84 13 -182v-74q0 -15 -1 -31v-13v-12v-1q-1 -18 -1 -23q0 -176 40 -384q22 -121 51 -233q25 -100 33 -112v0z" />
    <glyph glyph-name="uni06F7" unicode="&#x6f7;" horiz-adv-x="1406" 
d="M541 -83q0 158 -18.5 300.5t-51 272t-77.5 246.5t-97.5 225.5t-111 209t-118.5 195.5l257 165q72 -119 130 -239.5t105 -240.5t84 -237.5t67 -229.5q24 87 51 180t56 184.5t59 179t60.5 164t59.5 139.5t57 106l256 -163q-38 -60 -76.5 -135t-76 -160.5t-74 -179.5
t-70.5 -191q-78 -224 -120.5 -422t-44.5 -369h-306z" />
    <glyph glyph-name="uni06F8" unicode="&#x6f8;" horiz-adv-x="1417" 
d="M1071 -94q-27 42 -57.5 102.5t-62 132.5t-63.5 154.5t-62.5 168.5t-59 173.5t-52.5 171.5q-33 -106 -73 -218t-89 -227t-108 -232t-129 -232l-257 164q90 143 175 299.5t151.5 334.5t106.5 382t40 442l325 -1q3 -109 25 -238.5t58.5 -266.5t83 -274.5t98 -262.5
t104.5 -231t101 -180z" />
    <glyph glyph-name="uni06F4.urdu" horiz-adv-x="1264" 
d="M1215 1254q-77 -66 -147 -147q-30 -35 -62 -76.5t-62 -88t-57.5 -98.5t-48.5 -108l-182 -56q-23 108 -52 198.5t-65 144.5q-15 21 -34.5 41t-42.5 34.5t-49 20.5t-54 0q-10 -2 -13.5 -12t-3.5 -21q0 -21 13 -56.5t35 -82t51 -104t61 -121.5l88 -182q37 -84 65 -165.5
t47 -156.5t29 -140t12 -116l-265 -72q-9 58 -22 118.5t-29 119t-34 112.5t-37 101q-40 94 -80.5 188t-82.5 182q-16 36 -32 77.5t-28.5 86.5t-20.5 90.5t-8 88.5q0 44 8 85.5t26 79t47 70.5t71 60q26 16 73.5 30t104.5 14t115.5 -31.5t107.5 -80.5q14 -14 30.5 -36.5t31 -52
t25 -66t12.5 -78.5q20 53 54 117t74 123.5t83 107t82 68.5z" />
    <glyph glyph-name="uni06F7.urdu" horiz-adv-x="1098" 
d="M971 -12l-71 -20q-29 -8 -60 -15.5t-50 -9.5l3 1q-33 -6 -73.5 -10.5t-86 -7.5t-93.5 -4.5t-94 -1.5t-87 3t-92 9q-54 5 -108 14t-96 22q-14 63 -22.5 118t-8.5 103q0 106 36.5 210.5t102.5 213.5q60 103 163 249.5t267 338.5q21 26 47.5 57t53 61t49 55t35.5 39
q23 -24 53.5 -59.5t59.5 -69.5l68 -82q-16 -19 -30 -36.5t-28 -34.5l-86 -107l1 1l-240 -312q-58 -76 -112.5 -147.5t-98 -133.5t-73 -112t-37.5 -82q1 0 5.5 -0.5t24.5 -2.5t60.5 -5.5t114.5 -9.5q45 0 106 3.5t125 11.5t124 20t104 29z" />
    <glyph glyph-name="Ghunna_above" 
d="M184 1098q-55 0 -105 17.5t-87 49.5q-33 30 -56.5 73.5t-31.5 91.5q-3 21 -3 51q0 19 2.5 36.5t10.5 42t22.5 60.5t39.5 92l124 -50q-29 -43 -44.5 -98.5t-9.5 -107.5v2q2 -9 14.5 -20.5t33 -22.5t46.5 -19t54 -9h-2q31 1 64 5t60 15.5t44.5 32.5t17.5 56q0 25 -15 57
t-33.5 60.5t-35 48t-19.5 19.5l135 124q2 -2 10.5 -16t20.5 -36.5t25.5 -52.5t24.5 -63t18.5 -67.5t7.5 -67.5q0 -27 -3.5 -54t-13.5 -56q-14 -40 -41.5 -76t-63.5 -60q-38 -24 -89 -40t-108 -18h-14z" />
    <glyph glyph-name="uni0651064B" 
d="M114 1076q-37 1 -64.5 9t-47.5 19.5t-33 25t-21 26.5q-13 22 -19 48.5t-6 49.5q0 25 5 52.5t11.5 52t14 43.5t12.5 27l120 -63q-14 -26 -22.5 -57t-8.5 -53q0 -18 12.5 -28.5t32.5 -10.5q24 0 36.5 14t18 34.5t6.5 45t3 45.5l100 38q7 -59 19.5 -91t25.5 -47t24.5 -18
t16.5 -3q23 2 40 13.5t17 28.5t-10 39.5t-24.5 46t-32 45.5t-32.5 39l123 85q7 -10 24 -36.5t34.5 -61.5t31 -74t13.5 -75q0 -34 -15 -68.5t-40.5 -62.5t-59.5 -45.5t-71 -17.5q-23 0 -51.5 7t-55.5 30q-26 -26 -56.5 -39t-70.5 -13zM486 1680l-482 -200v177l482 191v-168z
M486 1966l-482 -200v177l482 191v-168z" />
    <glyph glyph-name="uni0654064B" 
d="M325 1589l-16 2t-16 3q-14 2 -31.5 3.5t-33.5 1.5q-26 0 -53 -9.5t-48 -25.5t-31 -38.5t-1 -47.5v1q7 -16 23.5 -30t39 -23t49 -10.5t52.5 7.5q26 8 57.5 25t57.5 34q16 10 31 20t30 21l62 -146q-18 -11 -35 -22t-40.5 -25.5t-57 -34t-83.5 -48t-120 -67t-166 -90.5
l-51 145l129 76q-29 21 -51.5 49t-36.5 60q-16 35 -16 86q0 35 11.5 68.5t31.5 62.5t47.5 52.5t60.5 37.5q26 11 53.5 16t56.5 5q24 0 49 -3.5t45 -7.5q12 -2 23.5 -4.5t22.5 -5.5zM413 1937l-482 -200v177l482 191v-168zM413 2223l-482 -200v177l482 191v-168z" />
    <glyph glyph-name="uni0654064E" 
d="M325 1569l-16 2t-16 3q-14 2 -31.5 3.5t-33.5 1.5q-26 0 -53 -9.5t-48 -25.5t-31 -38.5t-1 -47.5v1q7 -16 23.5 -30t39 -23t49 -10.5t52.5 7.5q26 8 57.5 25t57.5 34q16 10 31 20t30 21l62 -146q-18 -11 -35 -22t-40.5 -25.5t-57 -34t-83.5 -48t-120 -67t-166 -90.5
l-51 145l129 76q-29 21 -51.5 49t-36.5 60q-16 35 -16 86q0 35 11.5 68.5t31.5 62.5t47.5 52.5t60.5 37.5q26 11 53.5 16t56.5 5q24 0 49 -3.5t45 -7.5q12 -2 23.5 -4.5t22.5 -5.5zM433 1925l-482 -200v177l482 191v-168z" />
    <glyph glyph-name="uni0654064C" 
d="M325 1559l-16 2t-16 3q-14 2 -31.5 3.5t-33.5 1.5q-26 0 -53 -9.5t-48 -25.5t-31 -38.5t-1 -47.5v1q7 -16 23.5 -30t39 -23t49 -10.5t52.5 7.5q26 8 57.5 25t57.5 34q16 10 31 20t30 21l62 -146q-18 -11 -35 -22t-40.5 -25.5t-57 -34t-83.5 -48t-120 -67t-166 -90.5
l-51 145l129 76q-29 21 -51.5 49t-36.5 60q-16 35 -16 86q0 35 11.5 68.5t31.5 62.5t47.5 52.5t60.5 37.5q26 11 53.5 16t56.5 5q24 0 49 -3.5t45 -7.5q12 -2 23.5 -4.5t22.5 -5.5zM-95 1828q10 16 23.5 34.5t22.5 38t10 40t-14 41.5q-6 9 -25 5.5t-40 -12t-39.5 -18.5
t-24.5 -15l-78 88q4 4 18.5 18t37 28t52 25t64.5 10q39 -2 75.5 -18t53.5 -50q13 -27 17.5 -47t3.5 -36t-5.5 -29t-8.5 -25q14 5 32.5 12t37.5 15t37.5 16t32.5 15q-76 42 -109 89.5t-33 89.5q0 20 4 36.5t11 30.5q13 26 33.5 48.5t45.5 39.5t53 26.5t56 9.5q29 0 54.5 -10
t46.5 -27t36 -41.5t24 -52.5q6 -19 8.5 -37.5t2.5 -37.5q0 -25 -4 -51t-9 -48l16 -8t13 -7l-41 -128l-58 16q-28 -25 -64.5 -46t-75.5 -38t-77.5 -30t-71 -22.5t-55.5 -14.5t-30 -6zM285 2121q0 13 -4 26.5t-11 25t-17.5 19.5t-23.5 10q-14 1 -35.5 -10.5t-34.5 -30.5
q-2 -3 4.5 -10t18 -16t26 -18.5t28.5 -16.5l-1 1l46 -23q2 10 3 21t1 22z" />
    <glyph glyph-name="uni0654064F" 
d="M325 1549l-16 2t-16 3q-14 2 -31.5 3.5t-33.5 1.5q-26 0 -53 -9.5t-48 -25.5t-31 -38.5t-1 -47.5v1q7 -16 23.5 -30t39 -23t49 -10.5t52.5 7.5q26 8 57.5 25t57.5 34q16 10 31 20t30 21l62 -146q-18 -11 -35 -22t-40.5 -25.5t-57 -34t-83.5 -48t-120 -67t-166 -90.5
l-51 145l129 76q-29 21 -51.5 49t-36.5 60q-16 35 -16 86q0 35 11.5 68.5t31.5 62.5t47.5 52.5t60.5 37.5q26 11 53.5 16t56.5 5q24 0 49 -3.5t45 -7.5q12 -2 23.5 -4.5t22.5 -5.5zM-91 1837q20 6 51.5 15t67 20.5t72.5 26t67 31.5l-27 11q-33 16 -55.5 36.5t-36 43t-19 46
t-5.5 45.5q0 36 14 67q13 26 33.5 48.5t45.5 39t53 26t57 9.5q17 0 34.5 -4t32.5 -11q32 -17 57 -47t36 -67v1q7 -21 9.5 -40.5t2.5 -39.5q0 -45 -11 -91l29 -6l-43 -141q-23 4 -37.5 8t-24.5 8q-38 -32 -86.5 -59.5t-95 -49t-85 -36t-56.5 -20.5l-40 -10zM204 2173
q-7 0 -17 -4t-20 -11t-18.5 -15.5t-13.5 -18.5q3 -7 18.5 -19t36.5 -25.5t43 -25.5t38 -19q1 4 0.5 6t-0.5 7q0 20 -4.5 40.5t-13 37.5t-21 29.5t-28.5 17.5z" />
    <glyph glyph-name="uni06540652" 
d="M335 1559l-16 2t-16 3q-14 2 -31.5 3.5t-33.5 1.5q-26 0 -53 -9.5t-48 -25.5t-31 -38.5t-1 -47.5v1q7 -16 23.5 -30t39 -23t49 -10.5t52.5 7.5q26 8 57.5 25t57.5 34q16 10 31 20t30 21l62 -146q-18 -11 -35 -22t-40.5 -25.5t-57 -34t-83.5 -48t-120 -67t-166 -90.5
l-51 145l129 76q-29 21 -51.5 49t-36.5 60q-16 35 -16 86q0 35 11.5 68.5t31.5 62.5t47.5 52.5t60.5 37.5q26 11 53.5 16t56.5 5q24 0 49 -3.5t45 -7.5q12 -2 23.5 -4.5t22.5 -5.5zM190 1941q21 0 39 9.5t31.5 23.5t21 30.5t7.5 30.5q0 13 -8 29t-21.5 29.5t-31.5 22.5
t-38 9q-21 0 -39.5 -9t-33 -22.5t-23 -29.5t-8.5 -29q0 -14 8.5 -30.5t23 -30.5t33 -23.5t39.5 -9.5zM190 2284q47 1 89 -21t73.5 -58t50 -80.5t18.5 -89.5t-18.5 -89.5t-50 -80.5t-73.5 -58t-89 -22t-89.5 22t-74 57.5t-50 80.5t-18.5 90t18.5 89.5t50 80.5t73.5 58t90 21z
" />
    <glyph glyph-name="uni0655064D" 
d="M407 -240l-16 2t-16 3q-14 2 -31.5 3.5t-33.5 1.5q-26 0 -53 -9.5t-48 -25.5t-31 -38.5t-1 -47.5v1q7 -16 23.5 -30t39 -23t49 -10.5t52.5 7.5q26 8 57.5 25t57.5 34q16 10 31 20t30 21l62 -146q-18 -11 -35 -22t-40.5 -25.5t-57 -34t-83.5 -48t-120 -67t-166 -90.5
l-51 145l129 76q-29 21 -51.5 49t-36.5 60q-16 35 -16 86q0 35 11.5 68.5t31.5 62.5t47.5 52.5t60.5 37.5q26 11 53.5 16t56.5 5q24 0 49 -3.5t45 -7.5q12 -2 23.5 -4.5t22.5 -5.5zM523 -1127l-482 -200v177l482 191v-168zM523 -841l-482 -200v177l482 191v-168z" />
    <glyph glyph-name="uni06550650" 
d="M401 -241l-16 2t-16 3q-14 2 -31.5 3.5t-33.5 1.5q-26 0 -53 -9.5t-48 -25.5t-31 -38.5t-1 -47.5v1q7 -16 23.5 -30t39 -23t49 -10.5t52.5 7.5q26 8 57.5 25t57.5 34q16 10 31 20t30 21l62 -146q-18 -11 -35 -22t-40.5 -25.5t-57 -34t-83.5 -48t-120 -67t-166 -90.5
l-51 145l129 76q-29 21 -51.5 49t-36.5 60q-16 35 -16 86q0 35 11.5 68.5t31.5 62.5t47.5 52.5t60.5 37.5q26 11 53.5 16t56.5 5q24 0 49 -3.5t45 -7.5q12 -2 23.5 -4.5t22.5 -5.5zM535 -828l-482 -200v177l482 191v-168z" />
    <glyph glyph-name="diagonal" horiz-adv-x="1024" 
d="M918 1717l-828 -350l8 150l765 319z" />
    <glyph glyph-name="uni200C" unicode="&#x200c;" horiz-adv-x="148" 
 />
    <glyph glyph-name="exclam" unicode="!" horiz-adv-x="579" 
d="M192 398l-49 755v419h277v-419l-36 -755h-192zM293 290l222 -222l-222 -222l-222 222z" />
    <glyph glyph-name="quotedbl" unicode="&#x22;" horiz-adv-x="795" 
d="M322 1571l-48 -497h-197v664h245v-167zM715 1571l-47 -497h-196v664h243v-167z" />
    <glyph glyph-name="numbersign" unicode="#" horiz-adv-x="1477" 
d="M807 375h-233l-87 -496h-222l87 496h-275v208h312l60 344h-281v211h319l88 503h220l-88 -503h235l88 503h222l-89 -503h265v-211h-302l-61 -344h271v-208h-307l-87 -496h-222zM610 583h234l60 344h-235z" />
    </font>
</defs>
</svg>
