<?xml version="1.0" standalone="no"?>
<!DOCTYPE svg PUBLIC "-//W3C//DTD SVG 1.1//EN" "http://www.w3.org/Graphics/SVG/1.1/DTD/svg11.dtd" >
<svg xmlns="http://www.w3.org/2000/svg" xmlns:xlink="http://www.w3.org/1999/xlink" version="1.1">
<metadata>
Created by FontForge 20170910 at Fri Feb 12 01:33:28 2016
 By Jimmy Wärting
Copyright (c) 2015 by www.fontiran.com (Moslem Ebrahimi). All rights reserved.
</metadata>
<defs>
<font id="IRANSansWebFaNum-UltraLight" horiz-adv-x="0" >
  <font-face 
    font-family="IRANSansWeb(FaNum) UltraLight"
    font-weight="200"
    font-stretch="normal"
    units-per-em="2300"
    panose-1="2 4 5 3 5 2 1 2 2 3"
    ascent="1840"
    descent="-460"
    x-height="1189"
    cap-height="1641"
    bbox="-1183 -1126 2950 2263"
    underline-thickness="100"
    underline-position="-650"
    unicode-range="U+0020-FEFC"
  />
<missing-glyph horiz-adv-x="1229" 
d="M102 1444h1024v-1806h-1024v1806zM1012 -248v1577h-795v-1577h795z" />
    <glyph glyph-name="uniFEFB" unicode="&#xfedf;&#xfe8e;" horiz-adv-x="1247" arabic-form="isolated" 
d="M1170 579q1 -8 0.5 -14.5t0.5 -12.5q6 -59 -4.5 -118.5t-33 -114.5t-54.5 -102t-69 -80q-31 -29 -73 -52.5t-90 -42.5t-99.5 -33.5t-101.5 -26.5l1 1q-41 -8 -89.5 -13t-98.5 -7t-98.5 -1t-88.5 6q1 9 2 16t3.5 18t6 29.5t9.5 50.5q39 -3 84.5 -3.5t93.5 2.5t96 9t93 16
q24 59 19.5 131.5t-29.5 152.5t-65.5 163t-89 164t-99.5 156t-96.5 138t-81 110.5t-52.5 73.5l98 69q51 -72 115 -160.5t128 -185.5t122 -199t97.5 -202.5t54 -196t-8.5 -178.5q65 22 120 65t93.5 100t57 125t10.5 141l-44 455q-12 109 -28 216.5t-27 218.5l119 13
q4 -28 11 -79.5t16 -119.5t18.5 -150t19 -172t18 -185t14.5 -189v-2v0z" />
    <glyph glyph-name="uniFEFC" unicode="&#xfee0;&#xfe8e;" horiz-adv-x="1461" arabic-form="final" 
d="M1297 203q23 -16 43 -25.5t39.5 -14t39 -6t42.5 -1.5h9q24 0 41.5 -17t17.5 -41q0 -25 -17.5 -41.5t-41.5 -16.5h-49q-10 0 -40 3.5t-70.5 22t-87.5 57t-90 109.5q-38 -55 -101 -100.5t-159 -78.5t-229 -53t-310 -24q1 9 2 16t3.5 18t6 29.5t9.5 50.5q49 0 93 1.5t86 5
t83.5 10t86.5 16.5q17 70 8 150t-38.5 166.5t-77.5 178t-109.5 185t-134.5 187t-152 184.5q28 19 49.5 35t47.5 35q127 -167 232.5 -312.5t177 -277.5t102 -253t7.5 -238q60 22 110 50.5t85.5 65.5t54.5 83.5t16 103.5q-7 144 -18 279.5t-23 261.5t-23.5 242t-20.5 221
q0 1 -0.5 2t-0.5 2q34 3 61 6.5t58 6.5q1 -2 6 -51.5t12.5 -133t17 -192t19 -228.5t18.5 -243t16 -235q5 -70 24 -117.5t69 -83.5z" />
    <glyph glyph-name="uniFEF7" unicode="&#xfedf;&#xfe84;" horiz-adv-x="1247" arabic-form="isolated" 
d="M1170 579q1 -8 0.5 -14.5t0.5 -12.5q6 -59 -4.5 -118.5t-33 -114.5t-54.5 -102t-69 -80q-31 -29 -73 -52.5t-90 -42.5t-99.5 -33.5t-101.5 -26.5l1 1q-41 -8 -89.5 -13t-98.5 -7t-98.5 -1t-88.5 6q1 9 2 16t3.5 18t6 29.5t9.5 50.5q39 -3 84.5 -3.5t93.5 2.5t96 9t93 16
q24 59 19.5 131.5t-29.5 152.5t-65.5 163t-89 164t-99.5 156t-96.5 138t-81 110.5t-52.5 73.5l98 69q51 -72 115 -160.5t128 -185.5t122 -199t97.5 -202.5t54 -196t-8.5 -178.5q65 22 120 65t93.5 100t57 125t10.5 141l-44 455q-12 109 -28 216.5t-27 218.5l119 13
q4 -28 11 -79.5t16 -119.5t18.5 -150t19 -172t18 -185t14.5 -189v-2v0zM303 1677q-13 1 -29 3.5t-34 2.5q-15 0 -30 -2.5t-30 -8.5v2q-31 -13 -50 -39.5t-19 -57.5q0 -14 8 -33l-1 1q7 -17 19.5 -31t29 -24t36 -15.5t39.5 -5.5q11 0 20.5 1t20.5 5q25 8 49 20t43 23
q24 13 42 27l57 -72q-38 -27 -95 -58t-139 -74l-220 -117l-46 81l173 92q-41 16 -70.5 46t-46.5 66q-13 33 -13 68q0 29 9 56.5t26 51t40.5 42t52.5 29.5q44 18 95 18q22 0 42.5 -3t36.5 -6l37 -9l-27 -85z" />
    <glyph glyph-name="uniFEF8" unicode="&#xfee0;&#xfe84;" horiz-adv-x="1470" arabic-form="final" 
d="M1297 203q23 -16 43 -25.5t39.5 -14t39 -6t42.5 -1.5h9q24 0 41.5 -17t17.5 -41q0 -25 -17.5 -41.5t-41.5 -16.5h-49q-10 0 -40 3.5t-70.5 22t-87.5 57t-90 109.5q-38 -55 -101 -100.5t-159 -78.5t-229 -53t-310 -24q1 9 2 16t3.5 18t6 29.5t9.5 50.5q49 0 93 1.5t86 5
t83.5 10t86.5 16.5q17 70 8 150t-38.5 166.5t-77.5 178t-109.5 185t-134.5 187t-152 184.5q28 19 49.5 35t47.5 35q127 -167 232.5 -312.5t177 -277.5t102 -253t7.5 -238q60 22 110 50.5t85.5 65.5t54.5 83.5t16 103.5q-7 144 -18 279.5t-23 261.5t-23.5 242t-20.5 221
q0 1 -0.5 2t-0.5 2q34 3 61 6.5t58 6.5q1 -2 6 -51.5t12.5 -133t17 -192t19 -228.5t18.5 -243t16 -235q5 -70 24 -117.5t69 -83.5zM363 1678q-13 1 -29 3.5t-34 2.5q-15 0 -30 -2.5t-30 -8.5v2q-31 -13 -50 -39.5t-19 -57.5q0 -14 8 -33l-1 1q7 -17 19.5 -31t29 -24
t36 -15.5t39.5 -5.5q11 0 20.5 1t20.5 5q25 8 49 20t43 23q24 13 42 27l57 -72q-38 -27 -95 -58t-139 -74l-220 -117l-46 81l173 92q-41 16 -70.5 46t-46.5 66q-13 33 -13 68q0 29 9 56.5t26 51t40.5 42t52.5 29.5q44 18 95 18q22 0 42.5 -3t36.5 -6l37 -9l-27 -85z" />
    <glyph glyph-name="uniFEF9" unicode="&#xfedf;&#xfe88;" horiz-adv-x="1247" arabic-form="isolated" 
d="M1170 579q1 -8 0.5 -14.5t0.5 -12.5q6 -59 -4.5 -118.5t-33 -114.5t-54.5 -102t-69 -80q-31 -29 -73 -52.5t-90 -42.5t-99.5 -33.5t-101.5 -26.5l1 1q-41 -8 -89.5 -13t-98.5 -7t-98.5 -1t-88.5 6q1 9 2 16t3.5 18t6 29.5t9.5 50.5q39 -3 84.5 -3.5t93.5 2.5t96 9t93 16
q24 59 19.5 131.5t-29.5 152.5t-65.5 163t-89 164t-99.5 156t-96.5 138t-81 110.5t-52.5 73.5l98 69q51 -72 115 -160.5t128 -185.5t122 -199t97.5 -202.5t54 -196t-8.5 -178.5q65 22 120 65t93.5 100t57 125t10.5 141l-44 455q-12 109 -28 216.5t-27 218.5l119 13
q4 -28 11 -79.5t16 -119.5t18.5 -150t19 -172t18 -185t14.5 -189v-2v0zM669 -233q-13 1 -29 3.5t-34 2.5q-15 0 -30 -2.5t-30 -8.5v2q-31 -13 -50 -39.5t-19 -57.5q0 -14 8 -33l-1 1q7 -17 19.5 -31t29 -24t36 -15.5t39.5 -5.5q11 0 20.5 1t20.5 5q25 8 49 20t43 23
q24 13 42 27l57 -72q-38 -27 -95 -58t-139 -74l-220 -117l-46 81l173 92q-41 16 -70.5 46t-46.5 66q-13 33 -13 68q0 29 9 56.5t26 51t40.5 42t52.5 29.5q44 18 95 18q22 0 42.5 -3t36.5 -6l37 -9l-27 -85z" />
    <glyph glyph-name="uniFEFA" unicode="&#xfee0;&#xfe88;" horiz-adv-x="1470" arabic-form="final" 
d="M1297 203q23 -16 43 -25.5t39.5 -14t39 -6t42.5 -1.5h9q24 0 41.5 -17t17.5 -41q0 -25 -17.5 -41.5t-41.5 -16.5h-49q-10 0 -40 3.5t-70.5 22t-87.5 57t-90 109.5q-38 -55 -101 -100.5t-159 -78.5t-229 -53t-310 -24q1 9 2 16t3.5 18t6 29.5t9.5 50.5q49 0 93 1.5t86 5
t83.5 10t86.5 16.5q17 70 8 150t-38.5 166.5t-77.5 178t-109.5 185t-134.5 187t-152 184.5q28 19 49.5 35t47.5 35q127 -167 232.5 -312.5t177 -277.5t102 -253t7.5 -238q60 22 110 50.5t85.5 65.5t54.5 83.5t16 103.5q-7 144 -18 279.5t-23 261.5t-23.5 242t-20.5 221
q0 1 -0.5 2t-0.5 2q34 3 61 6.5t58 6.5q1 -2 6 -51.5t12.5 -133t17 -192t19 -228.5t18.5 -243t16 -235q5 -70 24 -117.5t69 -83.5zM717 -198q-13 1 -29 3.5t-34 2.5q-15 0 -30 -2.5t-30 -8.5v2q-31 -13 -50 -39.5t-19 -57.5q0 -14 8 -33l-1 1q7 -17 19.5 -31t29 -24
t36 -15.5t39.5 -5.5q11 0 20.5 1t20.5 5q25 8 49 20t43 23q24 13 42 27l57 -72q-38 -27 -95 -58t-139 -74l-220 -117l-46 81l173 92q-41 16 -70.5 46t-46.5 66q-13 33 -13 68q0 29 9 56.5t26 51t40.5 42t52.5 29.5q44 18 95 18q22 0 42.5 -3t36.5 -6l37 -9l-27 -85z" />
    <glyph glyph-name="uniFEF5" unicode="&#xfedf;&#xfe82;" horiz-adv-x="1350" arabic-form="isolated" 
d="M1272 579q1 -8 0.5 -14.5t0.5 -12.5q6 -59 -4.5 -118.5t-33 -114.5t-54.5 -102t-69 -80q-31 -29 -73 -52.5t-90 -42.5t-99.5 -33.5t-101.5 -26.5l1 1q-41 -8 -89.5 -13t-98.5 -7t-98.5 -1t-88.5 6q1 9 2 16t3.5 18t6 29.5t9.5 50.5q39 -3 84.5 -3.5t93.5 2.5t96 9t93 16
q24 59 19.5 131.5t-29.5 152.5t-65.5 163t-89 164t-99.5 156t-96.5 138t-81 110.5t-52.5 73.5l98 69q51 -72 115 -160.5t128 -185.5t122 -199t97.5 -202.5t54 -196t-8.5 -178.5q65 22 120 65t93.5 100t57 125t10.5 141l-44 455q-12 109 -28 216.5t-27 218.5l119 13
q4 -28 11 -79.5t16 -119.5t18.5 -150t19 -172t18 -185t14.5 -189v-2v0zM1 1345q5 15 15 38t21 43q29 45 67 73.5t80 36.5q10 2 20.5 2.5t18.5 0.5q42 0 75.5 -10.5t62.5 -22.5t57.5 -20.5t61.5 -9.5q25 -1 47.5 8.5t41.5 24t34 30t24 26.5q21 -12 41 -25.5t42 -27.5
q-9 -13 -30 -36.5t-51.5 -46t-69.5 -38.5t-84 -15q-36 1 -67.5 9.5t-65.5 20.5l-15 6q-35 14 -65 22t-64 3h1q-19 -3 -35.5 -16.5t-30 -31.5t-23.5 -38t-16 -36l-93 30v0z" />
    <glyph glyph-name="uniFEF6" unicode="&#xfee0;&#xfe82;" horiz-adv-x="1470" arabic-form="final" 
d="M1297 203q23 -16 43 -25.5t39.5 -14t39 -6t42.5 -1.5h9q24 0 41.5 -17t17.5 -41q0 -25 -17.5 -41.5t-41.5 -16.5h-49q-10 0 -40 3.5t-70.5 22t-87.5 57t-90 109.5q-38 -55 -101 -100.5t-159 -78.5t-229 -53t-310 -24q1 9 2 16t3.5 18t6 29.5t9.5 50.5q49 0 93 1.5t86 5
t83.5 10t86.5 16.5q17 70 8 150t-38.5 166.5t-77.5 178t-109.5 185t-134.5 187t-152 184.5q28 19 49.5 35t47.5 35q127 -167 232.5 -312.5t177 -277.5t102 -253t7.5 -238q60 22 110 50.5t85.5 65.5t54.5 83.5t16 103.5q-7 144 -18 279.5t-23 261.5t-23.5 242t-20.5 221
q0 1 -0.5 2t-0.5 2q34 3 61 6.5t58 6.5q1 -2 6 -51.5t12.5 -133t17 -192t19 -228.5t18.5 -243t16 -235q5 -70 24 -117.5t69 -83.5zM-51 1348q5 15 15 38t21 43q29 45 67 73.5t80 36.5q10 2 20.5 2.5t18.5 0.5q42 0 75.5 -10.5t62.5 -22.5t57.5 -20.5t61.5 -9.5
q25 -1 47.5 8.5t41.5 24t34 30t24 26.5q21 -12 41 -25.5t42 -27.5q-9 -13 -30 -36.5t-51.5 -46t-69.5 -38.5t-84 -15q-36 1 -67.5 9.5t-65.5 20.5l-15 6q-35 14 -65 22t-64 3h1q-19 -3 -35.5 -16.5t-30 -31.5t-23.5 -38t-16 -36l-93 30v0z" />
    <glyph glyph-name="uni06440671.isol" unicode="&#xfedf;&#xfb51;" horiz-adv-x="1247" 
d="M1170 579q1 -8 0.5 -14.5t0.5 -12.5q6 -59 -4.5 -118.5t-33 -114.5t-54.5 -102t-69 -80q-31 -29 -73 -52.5t-90 -42.5t-99.5 -33.5t-101.5 -26.5l1 1q-41 -8 -89.5 -13t-98.5 -7t-98.5 -1t-88.5 6q1 9 2 16t3.5 18t6 29.5t9.5 50.5q39 -3 84.5 -3.5t93.5 2.5t96 9t93 16
q24 59 19.5 131.5t-29.5 152.5t-65.5 163t-89 164t-99.5 156t-96.5 138t-81 110.5t-52.5 73.5l98 69q51 -72 115 -160.5t128 -185.5t122 -199t97.5 -202.5t54 -196t-8.5 -178.5q65 22 120 65t93.5 100t57 125t10.5 141l-44 455q-12 109 -28 216.5t-27 218.5l119 13
q4 -28 11 -79.5t16 -119.5t18.5 -150t19 -172t18 -185t14.5 -189v-2v0zM-25 1460q29 15 50 21q20 7 42 11.5t36 2.5q18 -4 32.5 -13.5t25.5 -19.5t18 -19q7 13 16.5 30t21.5 35.5t26.5 37t30.5 34.5q28 27 63 45.5t72 23.5h-1q15 4 35 4q61 0 101 -43q39 -39 34 -89
q-3 -58 -51 -101q-21 -17 -48.5 -28t-57 -17.5t-59.5 -9t-57 -2.5q-24 0 -49.5 2t-49.5 8.5t-46 19t-40 32.5h1l-4 3v-1q-8 5 -14 10t-14 5q-14 0 -29 -4t-30 -9t-28 -11.5l-21 -10.5l-9 47zM307 1420q49 0 100 10.5t84 35.5q28 25 31 59q0 16 -5.5 27t-10.5 15
q-21 24 -45 27.5t-44 -0.5q-26 -5 -54 -19t-51 -37q-14 -14 -26 -29.5t-22 -31t-18 -29t-13 -23.5z" />
    <glyph glyph-name="uni06440671.fina" unicode="&#xfee0;&#xfb51;" horiz-adv-x="1470" 
d="M1297 203q23 -16 43 -25.5t39.5 -14t39 -6t42.5 -1.5h9q24 0 41.5 -17t17.5 -41q0 -25 -17.5 -41.5t-41.5 -16.5h-49q-10 0 -40 3.5t-70.5 22t-87.5 57t-90 109.5q-38 -55 -101 -100.5t-159 -78.5t-229 -53t-310 -24q1 9 2 16t3.5 18t6 29.5t9.5 50.5q49 0 93 1.5t86 5
t83.5 10t86.5 16.5q17 70 8 150t-38.5 166.5t-77.5 178t-109.5 185t-134.5 187t-152 184.5q28 19 49.5 35t47.5 35q127 -167 232.5 -312.5t177 -277.5t102 -253t7.5 -238q60 22 110 50.5t85.5 65.5t54.5 83.5t16 103.5q-7 144 -18 279.5t-23 261.5t-23.5 242t-20.5 221
q0 1 -0.5 2t-0.5 2q34 3 61 6.5t58 6.5q1 -2 6 -51.5t12.5 -133t17 -192t19 -228.5t18.5 -243t16 -235q5 -70 24 -117.5t69 -83.5zM1 1457q29 15 50 21q20 7 42 11.5t36 2.5q18 -4 32.5 -13.5t25.5 -19.5t18 -19q7 13 16.5 30t21.5 35.5t26.5 37t30.5 34.5q28 27 63 45.5
t72 23.5h-1q15 4 35 4q61 0 101 -43q39 -39 34 -89q-3 -58 -51 -101q-21 -17 -48.5 -28t-57 -17.5t-59.5 -9t-57 -2.5q-24 0 -49.5 2t-49.5 8.5t-46 19t-40 32.5h1l-4 3v-1q-8 5 -14 10t-14 5q-14 0 -29 -4t-30 -9t-28 -11.5l-21 -10.5l-9 47zM333 1417q49 0 100 10.5
t84 35.5q28 25 31 59q0 16 -5.5 27t-10.5 15q-21 24 -45 27.5t-44 -0.5q-26 -5 -54 -19t-51 -37q-14 -14 -26 -29.5t-22 -31t-18 -29t-13 -23.5z" />
    <glyph glyph-name="uniFDF2" unicode="&#xfedf;&#xfee0;&#x651;&#xfeea;" horiz-adv-x="1922" arabic-form="isolated" 
d="M948 40q-24 4 -42.5 10t-33.5 17q-35 17 -68 49t-63 80q-76 -11 -135.5 -16.5t-104.5 -5.5q-237 0 -328 111q-25 30 -35 63.5t-10 65.5q0 28 5.5 50.5t12.5 38.5v-1q39 80 101.5 141.5t130.5 106.5t132.5 74.5t108.5 46.5l-15 163q32 2 59 5t58 6q26 -310 52.5 -496
t48.5 -248q27 -72 67.5 -108t88.5 -38q18 -1 35.5 -1h32.5h27.5t25.5 1q54 4 94 33t60 71q8 21 8 76q0 42 -2.5 105.5t-7.5 155t-12.5 213t-17.5 280.5q34 3 64.5 6.5t62.5 6.5q5 -66 8 -117t5.5 -97.5t5 -94t6.5 -106.5q7 -100 10 -168.5t4.5 -115t4 -76t8 -51.5
t16.5 -40.5t30 -43.5q17 -23 42 -33.5t54 -11.5q52 -1 97.5 4.5t78 25.5t49.5 58.5t12 104.5q-1 7 -18 224.5t-53 645.5q29 6 57 12.5t57 13.5q16 -216 28 -386t20.5 -291.5t12.5 -193t4 -90.5q-2 -69 -29.5 -114.5t-72 -72.5t-102 -38t-118.5 -11q-34 0 -66.5 5.5t-61.5 17
t-54.5 30t-44.5 44.5q-32 -36 -68 -56t-71.5 -29.5t-67.5 -11.5t-56 -2h-112zM639 754q-51 -20 -107.5 -48.5t-109 -66t-97 -83.5t-71.5 -100q-2 -6 -4.5 -17.5t-2.5 -22.5q0 -15 4.5 -31t16.5 -30q11 -12 40.5 -29.5t84.5 -26.5q24 -3 52.5 -5t62.5 -2q58 0 192 15z
M1152 1268q-46 0 -79 36v-1q-18 25 -26.5 61t-6.5 87q1 25 3.5 45.5t4.5 30.5q17 -3 30.5 -7t28.5 -7l-2 -23q-1 -10 -2 -21t-1 -21v-1q-2 -36 3.5 -63t15.5 -41q5 -5 11 -9t20 -4q16 0 29 8.5t23.5 22t19 30.5t14.5 33q12 35 16.5 61.5t6.5 37.5q17 -1 32.5 -0.5t31.5 -0.5
q0 -17 3 -33q2 -14 5.5 -31.5t8.5 -34.5q4 -14 10.5 -30t15.5 -29.5t20 -22t25 -8.5q21 0 34 10q6 8 14.5 28.5t8.5 65.5q0 21 -5.5 44t-13 45t-16 40.5t-15.5 30.5l53 30q5 -9 15 -28.5t19.5 -45.5t17 -56t7.5 -60q0 -94 -43 -137q-22 -22 -44.5 -25.5t-31.5 -3.5
q-26 0 -49.5 13t-41.5 34q-7 9 -15 24.5t-19 41.5q-17 -36 -35 -58.5t-35.5 -35t-34 -17.5t-31.5 -5zM1230 1662q8 32 12 67t4 69q0 35 -4 70.5t-12 66.5l60 17q7 -30 11 -65t4 -75q0 -38 -3.5 -78t-13.5 -88z" />
    <glyph glyph-name="uniFDFC" unicode="&#x631;&#xfef3;&#xfe8e;&#x644;" horiz-adv-x="2998" arabic-form="isolated" 
d="M1211 137q0 -65 -7 -128t-29 -125q-30 -84 -87.5 -150.5t-132.5 -112.5t-161.5 -70t-175.5 -24q-83 0 -161.5 22t-145.5 67q-50 36 -92 80.5t-72 96t-46.5 108.5t-16.5 118q0 57 5 114t17 112.5t33 109.5t54 105l61 -52l29 -24q-48 -78 -63.5 -160.5t-15.5 -173.5
q0 -20 0.5 -39.5t2.5 -36.5q5 -65 34.5 -118.5t75 -95t103.5 -68.5t121 -38q17 -3 36 -5t40 -2q50 0 102 11t100 31.5t91 50t75 66.5q34 38 54.5 79.5t32 85t15 89t3.5 92.5v33l-31 909l-14 421q2 0 16 1t44 3l61 4l26 -745l2 -67zM2193 935q48 -108 81.5 -216.5
t33.5 -225.5q0 -66 -23.5 -131.5t-71.5 -116.5q-34 -29 -76.5 -48t-88.5 -30.5t-94 -16.5t-93 -5l-72 1q-56 4 -108.5 20.5t-95 46t-71 73t-37.5 102.5q-1 6 -1.5 14t-0.5 27v54t0.5 95t2 149t3.5 217q0 35 -3 84t-8 104t-11 112t-12.5 108t-13.5 92.5t-12 65.5l130 22
q1 -16 3.5 -30t6 -31.5t7 -42t7.5 -60.5q10 -118 18 -226.5t11 -215t0.5 -214t-14.5 -223.5q1 -33 7.5 -71t31.5 -71t74 -56t134 -26q53 -2 112.5 3.5t110.5 26.5t86.5 61t41.5 108q1 52 -8.5 107.5t-26.5 111.5t-38.5 110t-43.5 102q15 0 40.5 10.5t46.5 20.5v-1
q22 11 28 13zM2703 367q-6 38 -16 82t-22.5 89.5t-26 90.5t-27.5 86l116 37q5 -19 11.5 -37.5t11.5 -35.5q3 -8 5.5 -17t4.5 -17q13 -43 26.5 -89t24 -93.5t17.5 -95.5t7 -95q0 -17 -1 -33t-3 -32q-15 -109 -70 -206.5t-135 -181t-176 -151t-192 -117.5l-52 107
q57 29 113 64.5t108.5 76.5t99.5 88t85 99q47 67 72.5 141t25.5 148q0 25 -2 47t-5 45zM1731 -236l-135 132l131 131l135 -132zM2064 -239l-134 134l132 132l132 -135z" />
    <glyph glyph-name="uni0621" unicode="&#x621;" horiz-adv-x="1019" arabic-form="isolated" 
d="M770 575q-18 7 -40 14q-18 5 -38 10.5t-39 9.5q-22 3 -49 3q-15 0 -29 -1t-29 -4q-63 -19 -100.5 -66.5t-37.5 -110.5q0 -37 15.5 -70.5t41 -60t60 -45t71.5 -25.5q7 -1 15 -1.5t20 -0.5q31 0 63 7t63.5 17t61 23t55.5 26l24.5 -45.5t22.5 -42.5q-24 -13 -56 -26.5
t-89 -36t-146 -55t-226 -83.5l-184 -68q-10 27 -18.5 49t-17.5 49l302 115q-67 42 -113 98t-61 112q-7 27 -7 60q0 63 26 116t68.5 91.5t98.5 60t116 21.5q12 0 25.5 -1.5t27.5 -3.5q51 -9 90 -22t58 -21l-45 -92v0z" />
    <glyph glyph-name="uni0627" unicode="&#x627;" horiz-adv-x="482" arabic-form="isolated" 
d="M275 1530q1 -25 4.5 -94.5t8.5 -168.5t9.5 -219t7.5 -245.5t4 -248.5t-2.5 -227t-12 -182t-23.5 -113l-115 25q10 23 16.5 78.5t10.5 134.5t5 177t0 206.5t-3.5 222.5t-6.5 225t-8.5 214.5t-9.5 190.5l115 24v0z" />
    <glyph glyph-name="uniFE8E" unicode="&#x627;" horiz-adv-x="624" arabic-form="final" 
d="M626 40q-103 0 -174 23t-119 71q-29 28 -44.5 62t-22 69.5t-7.5 69.5t-1 62q2 70 2.5 160.5t0 191t-2.5 206t-5.5 205t-9 188t-12.5 155.5l116 22q9 -67 15 -154.5t9.5 -186.5t5.5 -205.5t2 -211.5t-0.5 -204.5t-1.5 -184.5q0 -26 0.5 -48.5t4.5 -42.5t12.5 -37.5
t24.5 -32.5q27 -27 76.5 -43.5t121.5 -17.5h9q24 0 41.5 -17t17.5 -41q0 -25 -17.5 -41.5t-41.5 -16.5z" />
    <glyph glyph-name="uni062D" unicode="&#x62d;" horiz-adv-x="1596" arabic-form="isolated" 
d="M868 -630q139 0 264 38t246 119l67 -96q-137 -90 -285.5 -139.5t-321.5 -49.5q-97 0 -187.5 18t-170 52.5t-145.5 85.5t-112.5 116.5t-72.5 145.5t-25 173q0 114 40.5 214.5t114.5 185t178.5 150.5t233 111.5t278 67.5t313.5 18q-51 29 -98 62.5t-94 67.5t-96 66.5
t-104 57.5t-117.5 41.5t-137.5 19.5q-42 0 -88.5 -16.5t-90.5 -44t-83.5 -62.5t-67.5 -72q-10 6 -16 10t-14.5 10t-23 16t-41.5 28q34 51 81 97t104.5 80t124 54t140.5 20q78 0 149 -20t137 -53t129 -76t126.5 -88.5t128.5 -91t135 -83.5l-33 -138l-169 2
q-129 7 -253.5 -11.5t-236 -57.5t-207 -96t-166 -127t-113.5 -150t-50 -165q-1 -83 23 -152t67.5 -123.5t103 -95t130 -67t148.5 -39.5t158 -13z" />
    <glyph glyph-name="uniFEA3" unicode="&#x62d;" horiz-adv-x="1548" arabic-form="initial" 
d="M-61 98q0 25 17.5 41.5t42.5 16.5h198q137 0 279.5 29.5t285 77.5t282.5 110.5t272 128.5q-65 24 -115.5 43.5t-91 36t-73 31t-61.5 28.5h1q-48 23 -94 44t-89.5 37.5t-83.5 26.5t-75 10q-57 0 -105.5 -26.5t-86.5 -64t-65.5 -77.5t-42.5 -66q-32 14 -56 23.5t-53 22.5
q14 24 37 59.5t52 71.5q69 82 152 128t168 46q45 0 92.5 -10.5t96.5 -28.5t99.5 -41t102.5 -48q57 -26 108 -49.5t101.5 -44.5t102 -39.5t110.5 -35.5q5 -24 7.5 -37.5t7.5 -34.5q3 -13 5 -26t5 -27q-30 -14 -48 -23.5t-37 -20t-46 -25.5t-75 -39q-107 -53 -234 -107.5
t-265 -98.5t-283 -72t-287 -28h-198q-25 0 -42.5 17t-17.5 41z" />
    <glyph glyph-name="uniFEA4" unicode="&#x62d;" horiz-adv-x="1667" arabic-form="medial" 
d="M-59 97q0 24 17 41.5t42 17.5h183q138 0 264 26t244 67.5t230 94.5t221 107l109 54q-98 23 -174 56.5t-146 68.5q-48 24 -96 47t-94.5 41t-92 29t-87.5 11q-58 0 -106.5 -26.5t-86.5 -63.5t-65 -76.5t-42 -66.5l-107 49q14 23 36 59t51 71q35 38 74 70t80 55t83 35.5
t83 12.5q46 0 93.5 -10.5t96.5 -28.5t99.5 -41t101.5 -47q57 -27 110.5 -54t106 -49t107 -37.5t114.5 -19.5l27 -125q-14 -6 -20.5 -10.5t-19.5 -12.5t-38 -22t-74 -38q15 -52 44 -89t65.5 -62.5t77 -40t78.5 -22.5t70.5 -10t52.5 -2h6h8q25 0 42 -17.5t17 -41.5
q0 -25 -17 -41t-42 -16h-14q-92 0 -171 19.5t-142.5 57t-110 90.5t-73.5 121q-108 -54 -223.5 -106t-237 -92.5t-250 -65.5t-262.5 -25l-183 1q-25 0 -42 16t-17 41z" />
    <glyph glyph-name="uniFEA2" unicode="&#x62d;" horiz-adv-x="1702" arabic-form="final" 
d="M912 -751q-98 0 -190 20.5t-172 58.5t-146 92t-113 120.5t-73 144t-26 163.5q0 95 32.5 198.5t112.5 206.5q54 67 127.5 119t158.5 94h-1q58 26 137 50.5t169 44t186 32t188 14.5q-152 69 -259.5 118.5t-185 82t-130 48t-94.5 15.5q-54 0 -100.5 -18t-86.5 -48.5t-73 -71
t-59 -84.5l-91 51q30 58 71 110t92.5 91.5t113 63t132.5 23.5q65 0 135.5 -19.5t143.5 -51t147.5 -71t147 -80t142 -78t133.5 -64.5q-3 -13 -5 -23.5t-5 -23t-6.5 -30.5t-9.5 -46h-45h-32t-32.5 -1t-47.5 -2q-5 -31 -7.5 -60.5t1.5 -58.5t15 -57.5t34 -58.5q26 -35 60 -56
t77.5 -32.5t98.5 -15t123 -3.5q24 0 41.5 -17.5t17.5 -42.5q0 -24 -17.5 -40t-41.5 -16q-340 0 -452 153q-44 60 -64.5 135.5t1.5 158.5q-68 -9 -136 -20.5t-134 -27t-128 -35.5t-117 -45q-25 -12 -59 -32t-72 -48.5t-75.5 -66.5t-69.5 -84.5t-54.5 -103.5t-29.5 -123
q-1 -8 -1 -18.5v-18.5q0 -83 24 -152.5t66.5 -126t101 -99.5t127.5 -72t146 -44t156 -15q132 0 257 39.5t228 126.5q7 -8 12 -14.5t12.5 -16t19 -23.5t31.5 -38q-65 -51 -136.5 -85.5t-145.5 -55.5t-149 -30t-147 -9z" />
    <glyph glyph-name="uni062F" unicode="&#x62f;" horiz-adv-x="1127" arabic-form="isolated" 
d="M545 41q-41 0 -95.5 9t-110.5 24t-106.5 33.5t-81.5 37.5l52 117q37 -20 82.5 -37.5t95.5 -31t101.5 -21.5t101.5 -8q79 0 149.5 22.5t116.5 78.5q33 40 33 101q0 49 -23 107t-61 117.5t-87 118t-99.5 109t-99 90.5t-86.5 63l56 104q57 -37 117 -86.5t116.5 -107.5
t106.5 -122.5t87.5 -132.5t59.5 -137.5t22 -136.5q0 -43 -12 -84t-39 -76q-86 -102 -237 -135q-33 -8 -73.5 -12t-85.5 -4z" />
    <glyph glyph-name="uni0631" unicode="&#x631;" horiz-adv-x="717" arabic-form="isolated" 
d="M468 600q16 -54 35.5 -123.5t36.5 -140.5t28 -136t11 -110q0 -80 -23 -155.5t-64 -145.5t-97.5 -134t-123.5 -121t-142 -106t-153 -90l-51 104q105 55 202 125.5t171.5 153.5t119.5 176t45 193q0 61 -10.5 122.5t-27 122t-35.5 118.5t-36 111l114 36v0z" />
    <glyph glyph-name="uniFEAE" unicode="&#x631;" horiz-adv-x="816" arabic-form="final" 
d="M585 69q0 -119 -50.5 -228.5t-134.5 -205t-192.5 -176t-224.5 -142.5q-10 20 -15.5 30t-13.5 28q-5 11 -11.5 22.5t-12.5 23.5q103 55 200 125t172 152.5t120.5 176t45.5 195.5q0 52 -10.5 112.5t-26.5 122.5t-35 123t-35 114l111 35q38 -111 76.5 -190.5t80.5 -130.5
t89 -75.5t102 -24.5h5q25 0 42 -17.5t17 -41.5q0 -25 -17 -41t-42 -16q-12 0 -42 1.5t-66 12t-73 32t-65 62.5l6 -79v0z" />
    <glyph glyph-name="uni0633" unicode="&#x633;" horiz-adv-x="2654" arabic-form="isolated" 
d="M2412 869q16 -32 38.5 -82.5t43 -111t35 -127.5t14.5 -133q-1 -78 -18 -145t-53 -117t-92.5 -79t-136.5 -31q-84 -2 -147.5 42t-100.5 123q-27 -44 -60 -74.5t-70 -50t-76 -29.5t-77 -12q-57 -1 -101.5 13.5t-74.5 31.5q-36 20 -61 47v-90q0 -116 -28.5 -212t-79 -171.5
t-120 -130.5t-151 -89.5t-172 -49.5t-183.5 -10q-126 0 -227.5 34t-180.5 106q-47 42 -82 95t-58 113.5t-34.5 126t-11.5 131.5q0 138 39.5 269t114.5 256q21 -17 44 -31t46 -30q-27 -48 -50 -106t-39.5 -120.5t-26 -126.5t-9.5 -124q0 -47 6 -98t24 -101.5t50 -97
t84.5 -83.5t128 -62t179.5 -32q163 7 280 43.5t192.5 103t111 163t35.5 224.5q0 75 -13.5 143t-34.5 131.5t-47 124t-52 119.5q30 17 52 29t50 28q1 -4 3 -8.5t5 -11.5l37 -83q27 -63 61 -124.5t76.5 -110t95 -78.5t116.5 -31q70 4 114 36.5t69 91t33.5 141.5t8.5 188l114 8
q1 -27 2.5 -73t8 -98.5t18.5 -106.5t34.5 -97.5t57 -71t84.5 -27.5q43 0 76.5 23.5t56.5 62.5t34.5 89t9.5 103q-3 54 -15 107t-29 102t-36 92t-36 76l101 61v0z" />
    <glyph glyph-name="uniFEB3" unicode="&#x633;" horiz-adv-x="1609" arabic-form="initial" 
d="M-55 99q0 23 16.5 40t39.5 17q55 0 102.5 22t87.5 59t72 86t57 102.5t43 109t29 105.5l115 -23q-9 -29 -19 -64.5t-19 -74t-14.5 -77t-5.5 -72.5q0 -35 6.5 -67.5t23 -58t45.5 -41t73 -15.5q55 0 99.5 26t79 68.5t60.5 97t45 113t31.5 115.5t20.5 104q9 -2 16 -3.5t18 -4
t29 -6t48 -9.5l-9.5 -57t-11 -70t-9 -74.5t-3.5 -68.5q0 -45 8 -87.5t29 -75t57.5 -52t92.5 -19.5q49 0 84.5 16.5t59 45.5t34.5 68.5t11 85.5q0 54 -12.5 115t-31 120t-40 112.5t-39.5 91.5q30 16 53 29t50 27q16 -33 40 -88t46 -121.5t37.5 -139.5t15.5 -143
q0 -77 -21.5 -139t-64.5 -106t-108 -67.5t-152 -22.5q-33 0 -72.5 14t-75.5 41t-63.5 65.5t-37.5 86.5q-19 -45 -53 -83.5t-76.5 -66t-90.5 -43t-94 -14.5q-53 1 -95 18t-73 45t-50 65.5t-25 80.5q-28 -43 -65 -79t-82 -62.5t-97 -41t-110 -14.5q-23 2 -39 19t-16 40z" />
    <glyph glyph-name="uniFEB4" unicode="&#x633;" horiz-adv-x="1851" arabic-form="medial" 
d="M-61 98q0 23 18.5 39.5t41.5 18.5h8q54 0 101.5 26.5t88 70t74 98.5t59.5 112t44.5 111.5t29.5 96.5l113 -31q-8 -36 -18.5 -83.5t-18 -98.5t-9 -101.5t9.5 -92t36.5 -70t72.5 -36.5q58 -10 105 16t84 73.5t64.5 109.5t47.5 123.5t32.5 115.5t19.5 87q32 -6 58.5 -11.5
t55.5 -10.5q-8 -48 -13 -99.5t-5 -112.5q0 -28 2.5 -61t9 -65t18.5 -61.5t31.5 -52.5t47.5 -36.5t66 -13.5q48 0 82 22t57 58t36.5 81.5t20.5 93.5t9 94t2 82q0 23 -1.5 46t-3.5 47q34 2 61.5 5t57.5 6q4 -57 14.5 -121t36.5 -145q89 -272 259 -272h8q25 0 41.5 -16.5
t16.5 -41.5q0 -24 -16.5 -41t-41.5 -17h-8q-63 0 -118.5 21.5t-100 57t-75.5 82t-45 97.5q-8 -53 -31.5 -100t-61 -82t-88 -55.5t-111.5 -20.5q-58 0 -103 16.5t-79 47t-57.5 74.5t-38.5 99q-22 -50 -53 -94t-71 -76.5t-89 -51t-107 -18.5q-99 0 -166.5 60t-91.5 181
q-28 -46 -63.5 -89t-79 -76t-95.5 -53t-113 -20h-9q-24 0 -41.5 17t-17.5 41z" />
    <glyph glyph-name="uniFEB2" unicode="&#x633;" horiz-adv-x="2889" arabic-form="final" 
d="M2891 156q24 0 41.5 -17t17.5 -42q0 -24 -17.5 -40.5t-41.5 -16.5h-20q-64 0 -117 20.5t-95 55t-73.5 81t-52.5 98.5q-14 -52 -38 -98.5t-59.5 -81.5t-83.5 -55.5t-111 -20.5q-31 0 -66.5 9.5t-69 29.5t-63 50t-48.5 71q-57 -85 -126 -122.5t-157 -37.5q-60 0 -102 12
t-70 26q-31 15 -55 38q-2 -183 -53 -321.5t-143 -231.5t-222 -139.5t-290 -46.5q-8 0 -17 0.5t-17 0.5q-121 0 -225.5 37t-182.5 103h1q-34 31 -63.5 70t-52.5 83t-39 92t-23 98q-9 60 -9 114q0 91 15 168.5t34 137.5q23 78 50.5 138.5t50.5 99.5q16 -12 27.5 -21t21.5 -17
t20.5 -15.5l24.5 -17.5q-19 -32 -41 -83.5t-40.5 -115.5t-31 -136t-12.5 -145q0 -49 6 -91q4 -29 14.5 -68t32.5 -81.5t58 -83.5t90 -74t129 -53t176 -20q161 4 274 47.5t183.5 120t102.5 183t32 236.5q0 111 -27.5 219t-80.5 233l106 56q17 -43 33.5 -91.5t36 -96.5
t44 -92.5t57 -78.5t74.5 -54t98 -20q57 0 97.5 20.5t67.5 55.5t43 81.5t24.5 99t11.5 107.5t5 108l124 -8l-7 -133q0 -49 6 -107.5t24.5 -109.5t52.5 -85t90 -34q57 0 97.5 33.5t66 86t36 116.5t6.5 124q-2 37 -3 75.5t-6 96.5l124 8q5 -57 11.5 -117.5t26.5 -136.5
q38 -139 109 -211t158 -72h20v0z" />
    <glyph glyph-name="uni0635" unicode="&#x635;" horiz-adv-x="2867" arabic-form="isolated" 
d="M1285 -463q-51 -44 -118 -75t-142.5 -48.5t-155.5 -21.5t-158.5 5t-151 31.5t-131.5 57.5q-57 33 -98.5 79t-72.5 106v-1q-41 92 -49 196t7.5 209.5t50.5 207.5t81 189q29 -18 50.5 -32.5t47.5 -31.5q-35 -66 -65.5 -154t-46.5 -182t-11 -185.5t41 -164.5
q45 -90 144.5 -142.5t240.5 -66.5q63 -7 128 -3.5t125.5 18t114 39.5t92.5 61q49 46 82 98t52.5 106t28 107.5t8.5 103.5q0 75 -12.5 152t-30 147.5t-37.5 130.5t-35 101l109 42q55 -130 108 -219q18 -28 39 -52t42.5 -43.5t41 -34t34.5 -23.5q33 61 78.5 127.5t101 130
t120 121t135.5 100.5t147 68.5t156 25.5q75 0 147.5 -27t129 -76t89.5 -116t29 -148q-3 -49 -19 -95.5t-41.5 -88.5t-60.5 -79t-75 -65v1q-59 -35 -121 -58t-123 -36t-120.5 -18t-113.5 -5q-87 0 -164 10.5t-149.5 34t-144 61t-148.5 90.5q4 -92 1.5 -181.5t-23 -173.5
t-64 -162.5t-120.5 -148.5v1zM1738 196q96 -41 185 -56.5t181 -15.5q52 0 107 6t108 18.5t101.5 30.5t88.5 42q31 21 58.5 46.5t48.5 55.5t34.5 63.5t16.5 69.5q4 55 -21.5 99t-68 75.5t-95 49t-102.5 19.5q-66 -1 -131 -23.5t-126 -60t-117 -87t-105.5 -105t-90.5 -114
t-72 -113.5z" />
    <glyph glyph-name="uniFEBB" unicode="&#x635;" horiz-adv-x="1871" arabic-form="initial" 
d="M696 129q44 -11 107.5 -17t138.5 -6t156 7.5t159 25t149 45t125.5 67.5t87.5 93.5t36 122.5q3 58 -22.5 105t-66 79.5t-90 50t-94.5 17.5q-51 0 -101 -15.5t-98.5 -41.5t-94.5 -60.5t-89 -72.5q-47 -44 -95.5 -102t-90.5 -115.5t-73 -106.5t-44 -76zM-59 98
q0 25 17.5 41.5t41.5 16.5q67 0 114.5 11t80.5 27.5t53.5 36t33.5 36.5q40 54 58.5 122.5t34.5 147.5q6 32 12 62.5t13 57.5l114 -34q-14 -54 -21 -114.5t0 -119.5t31.5 -113.5t73.5 -96.5q16 36 46.5 88t72 110.5t93 120t108.5 115.5q49 47 106.5 88t119 71t125.5 47
t127 17q74 0 140.5 -25t116.5 -72.5t79.5 -115.5t29.5 -153q0 -78 -36 -157t-107 -136q-65 -53 -140.5 -85t-156 -51t-162.5 -27t-159 -12q-102 -6 -193.5 -1t-168 30t-136.5 74.5t-99 132.5q-75 -103 -171 -150t-224 -48h-9q-24 0 -41.5 16.5t-17.5 41.5z" />
    <glyph glyph-name="uniFEBC" unicode="&#x635;" horiz-adv-x="1933" arabic-form="medial" 
d="M-59 97q0 25 17 42t41 17h9q66 2 109.5 9t69.5 19q54 28 95 82q38 51 61 120t43 162q9 42 13.5 65t10.5 44l112 -35q-11 -38 -20 -82t-9 -93q0 -27 2.5 -60.5t14 -68.5t35 -69.5t65.5 -64.5q31 65 74 134t95.5 135t113.5 126.5t128.5 110t141 84.5t151.5 50q47 10 99 10
q74 0 141.5 -23.5t119 -67.5t81.5 -109t29 -147q-1 -39 -14 -85t-37.5 -91t-59.5 -86t-80 -69h340q25 0 42.5 -17t17.5 -42t-17.5 -41t-42.5 -16l-252 -1q-105 0 -171 6.5t-108 26.5q-109 -30 -215.5 -46.5t-200.5 -16.5q-26 0 -71.5 2.5t-101 11t-115.5 24.5t-114 43
t-97.5 67t-65.5 96q-98 -129 -188 -170q-86 -43 -234 -43q-24 0 -41 16t-17 41zM727 156q30 -9 57 -15t57 -9.5t65 -5t81 -1.5q78 0 158 7.5t155.5 24.5t142.5 45.5t118 69.5q48 38 79.5 89.5t34.5 123.5q3 58 -19 101.5t-58.5 72.5t-83.5 43t-93 14q-22 0 -43 -2t-42 -5
q-68 -11 -131 -40.5t-120 -71.5t-108.5 -94.5t-96.5 -110.5t-83.5 -118.5t-69.5 -117.5z" />
    <glyph glyph-name="uniFEBA" unicode="&#x635;" horiz-adv-x="2868" arabic-form="final" 
d="M1699 192q100 -39 190.5 -54.5t183.5 -15.5q52 0 111.5 6.5t119.5 22t115 40.5t97 63t67.5 90t25.5 120q0 43 -13 81t-41 68q-45 48 -98.5 66.5t-110.5 18.5q-56 0 -109 -15t-102.5 -41t-95.5 -60.5t-89 -74.5q-39 -37 -77.5 -81t-72 -87t-60 -81.5t-41.5 -65.5zM2868 40
q-44 0 -86.5 8.5t-80.5 23t-69 33.5t-52 40q-66 -42 -131 -68.5t-125.5 -41.5t-115.5 -21.5t-101 -7.5q-12 -1 -23 -1h-23q-97 0 -192.5 16.5t-171.5 43.5q-46 18 -108 53t-135 87v-8t0.5 -15.5t0.5 -16v-8.5q1 -12 2 -29t2 -34.5t1.5 -33t0.5 -25.5v-25.5t-2 -26.5
q-11 -133 -58 -242q-28 -57 -67.5 -111.5t-84.5 -94.5v1q-87 -69 -199.5 -107.5t-248.5 -38.5q-21 0 -46.5 1t-49.5 3q-91 11 -171.5 33t-140.5 58q-115 67 -172 185q-54 115 -53 262q1 63 9.5 126t26.5 130q11 45 25 87t28 78.5t28 67t25 52.5l67 -43l34 -22
q-15 -32 -36.5 -84.5t-41.5 -117.5t-34 -137.5t-14 -144.5q0 -54 10.5 -106t31.5 -97q48 -87 145 -142.5t241 -67.5q20 -2 41.5 -2.5t41.5 -0.5q234 0 377 117q46 40 77 87t50.5 95.5t28.5 96t12 88.5q1 13 1.5 26.5t0.5 27.5q0 74 -13 152.5t-31.5 150t-38 130t-32.5 93.5
l111 44q38 -85 73.5 -145t68.5 -111q14 -21 42 -50t79 -67q21 39 50 83.5t63.5 90t74 90t81.5 85.5q46 45 99.5 86t113.5 72t125 49.5t133 18.5q82 0 160.5 -31t133.5 -91q45 -54 68 -116t23 -128q0 -54 -16 -109t-49 -110q10 -13 32 -26.5t50 -25t58.5 -18.5t57.5 -7h8
q25 0 42 -17t17 -42q0 -24 -17 -40.5t-42 -16.5z" />
    <glyph glyph-name="uni0637" unicode="&#x637;" horiz-adv-x="1776" arabic-form="isolated" 
d="M856 40q-33 0 -64.5 1t-61.5 3h-3q-137 9 -285.5 39.5t-297.5 84.5l42 109q113 -41 253 -76q10 15 28 41t40.5 56.5t47 63.5t47.5 62q7 50 11 90.5t5.5 77t2 71t0.5 71.5q0 42 -3.5 110t-9.5 147t-13 161.5t-14 154.5t-13.5 125t-10.5 74l114 25q3 -31 9.5 -87t14 -130.5
t15.5 -163t14.5 -184.5t11 -195.5t4.5 -195.5q54 57 119 114t137.5 102.5t151 74t160.5 28.5q63 0 125 -18t112.5 -53.5t83 -89t36.5 -123.5q3 -48 -8 -97t-30 -93t-43.5 -80.5t-49.5 -61.5q-73 -72 -162 -118.5t-180.5 -73t-178.5 -36.5t-157 -10zM566 176q35 -3 69 -7
t69.5 -7t73.5 -5t82 -1q68 0 143 3.5t152.5 22.5t154.5 58t149 110q21 21 41.5 50.5t35.5 63t22.5 68.5t1.5 67q-9 46 -34 79.5t-60 54.5t-76 31t-81 10q-78 0 -153 -31t-145 -80.5t-133 -110t-118 -119.5z" />
    <glyph glyph-name="uniFEC3" unicode="&#x637;" horiz-adv-x="1509" arabic-form="initial" 
d="M531 156q73 0 153.5 3t165 20.5t171.5 55.5t173 109q27 23 50.5 53t39.5 64t22.5 71t-0.5 75q-8 42 -32.5 73.5t-59 52t-75 30.5t-80.5 10q-16 0 -29.5 -1.5t-26.5 -3.5q-70 -17 -137.5 -52t-131.5 -82.5t-124 -105t-115 -120t-103.5 -127t-89.5 -125.5h229zM-62 98
q0 23 18 40.5t41 17.5h9h167q23 38 62 99t99 149q12 69 18 166t7 228q0 60 -1.5 132t-6 159t-11.5 191t-18 229l118 25q10 -83 18 -172.5t13 -182t8 -185.5t3 -183q0 -18 -0.5 -51.5t-1.5 -70t-1.5 -70t-0.5 -52.5q152 141 279 219.5t230 97.5h-1q38 7 84 7q69 0 132.5 -21
t117.5 -72h-1q37 -39 60.5 -86.5t28.5 -105.5q4 -50 -7.5 -99.5t-31.5 -94t-46 -82t-51 -64.5l2 1q-85 -75 -174 -120t-176.5 -69t-170.5 -31.5t-155 -7.5l-592 1h-9q-23 0 -41 16.5t-18 41.5z" />
    <glyph glyph-name="uniFEC4" unicode="&#x637;" horiz-adv-x="1583" arabic-form="medial" 
d="M484 155q94 0 187.5 1.5t184.5 18.5t177.5 55.5t166.5 113.5q22 21 42.5 50.5t36 64t23 71t3.5 69.5q-7 51 -36.5 86t-71.5 55.5t-90 27t-93 0.5q-54 -7 -133 -44t-172.5 -110.5t-195.5 -186.5t-201 -271zM-66 98q0 25 16.5 41.5t41.5 16.5h8h167q25 41 47 73t42.5 59.5
t40.5 52.5t41 53q16 22 23 93.5t7 171.5q0 64 -2 139t-5.5 154.5t-8.5 159t-10.5 152.5t-11.5 135.5t-12 107.5q33 6 58.5 11.5t56.5 10.5q13 -90 23.5 -190.5t17.5 -218t11 -255t4 -300.5q35 32 76.5 68.5t88 72t96 68.5t101.5 57.5t105 39.5t105 15q62 0 124.5 -18.5
t113 -54t83.5 -88t36 -120.5q4 -92 -18 -159.5t-59.5 -120t-86.5 -93t-98 -76.5h433q25 0 41.5 -16t16.5 -41q0 -24 -16.5 -41t-41.5 -17q-20 0 -40.5 -0.5t-48 -0.5t-66 -0.5t-93.5 -0.5q-85 0 -185 7.5t-197 37.5q-103 -30 -189.5 -37t-164.5 -7h-613q-25 0 -41.5 16.5
t-16.5 41.5z" />
    <glyph glyph-name="uniFEC2" unicode="&#x637;" horiz-adv-x="1867" arabic-form="final" 
d="M947 40q-21 -1 -40.5 -1h-39.5q-23 0 -49.5 0.5t-76.5 3.5h-3q-137 9 -285.5 39.5t-297.5 84.5l20 53q5 15 10.5 28t11.5 28q113 -41 253 -76q10 15 26 38t35.5 49.5t40.5 54t41 53.5l26 38q11 70 13.5 160t-1 189t-11.5 201.5t-17.5 197.5t-19 178t-16.5 143l115 27
q30 -230 46.5 -464.5t22.5 -490.5q54 51 119.5 107.5t138.5 103.5t152 78t160 31q61 0 123.5 -20.5t113.5 -57.5t83.5 -90t34.5 -117q2 -78 -20.5 -147t-61.5 -127t-90 -103.5t-106 -75.5h93h369h8q25 0 41.5 -16.5t16.5 -41.5q0 -24 -16.5 -41t-41.5 -17h-921zM572 169
q180 -8 323 -1t253.5 31t190 66t132.5 105q19 20 36.5 47t30.5 58.5t19.5 65t2.5 66.5q-6 50 -35 84t-70 54t-89 26t-92 0q-109 -17 -235.5 -105t-267.5 -244z" />
    <glyph glyph-name="uni0639" unicode="&#x639;" horiz-adv-x="1477" arabic-form="isolated" 
d="M828 -755q-70 0 -143 11.5t-143.5 37.5t-137 68t-123.5 103q-69 75 -105 170.5t-36 201.5t36.5 205.5t105.5 187.5v-1q32 39 72.5 76t86 70.5t94.5 61.5t99 49l97 32q-66 26 -109.5 64t-69 81.5t-35.5 90t-10 90.5q0 79 32 148t85.5 121.5t124 84t147.5 35.5
q48 2 97 -8.5t95.5 -30t90.5 -47t82 -60.5l-74 -92q-20 19 -42.5 35t-46.5 30q-42 24 -93 42t-106 14q-58 -5 -111.5 -27t-93.5 -59.5t-62 -89.5t-17 -116q5 -65 39.5 -107.5t85 -68t111 -36t117.5 -10.5q25 0 52.5 1.5t52.5 5.5q75 10 127.5 21t71.5 19l18 -130
q-29 -5 -55 -9.5t-51.5 -9t-52 -9t-56.5 -9.5q-89 -15 -155 -30t-119 -31.5t-97.5 -35t-90.5 -40.5q-27 -14 -62.5 -36t-73.5 -54t-75.5 -73t-68 -92.5t-51 -114t-24.5 -135.5q0 -114 48 -201t127.5 -146.5t183 -89.5t215.5 -30q126 0 249.5 36.5t229.5 114.5l70 -101
q-71 -51 -144 -85.5t-143.5 -55t-138 -29t-127.5 -8.5z" />
    <glyph glyph-name="uniFECB" unicode="&#x639;" horiz-adv-x="1072" arabic-form="initial" 
d="M872 662q-24 16 -48 30.5t-49 27.5q-43 22 -93.5 40.5t-98.5 18.5q-68 0 -119.5 -23t-86 -61.5t-52 -88.5t-17.5 -103q0 -71 31.5 -129.5t84.5 -99.5t121.5 -62t142.5 -18q42 3 81.5 7t74 8.5t63 9.5t47.5 9q4 -34 7 -58t7 -55q-55 -14 -125 -27t-160.5 -23.5
t-205.5 -16.5t-259 -6l-218 -2q-25 0 -42.5 16.5t-17.5 41.5t17.5 41.5t42.5 16.5l386 4q-54 49 -91 93.5t-60 86.5t-33 82t-10 81q0 79 29.5 150.5t81.5 125t124 85t156 31.5q67 0 125 -16t104.5 -38.5t80 -47t52.5 -41.5l-73 -90v0z" />
    <glyph glyph-name="uniFECC" unicode="&#x639;" horiz-adv-x="1138" arabic-form="medial" 
d="M1142 156q24 0 41.5 -17.5t17.5 -42.5q0 -24 -17.5 -40.5t-41.5 -16.5q-155 0 -290 30t-252 99q-66 -32 -142 -56t-154.5 -40.5t-157 -24.5t-149.5 -8q-24 0 -41.5 16.5t-17.5 40.5q0 25 17.5 42.5t41.5 17.5q53 0 116.5 6t129 17.5t128.5 28t115 37.5q-46 42 -84.5 81
t-73 77t-65.5 74.5t-62 73.5l-74 87q2 29 5 53.5t5 53.5q44 37 94.5 63t100.5 44t97.5 28t85.5 15q22 2 45 3.5t42 1.5q72 0 142 -13.5t127 -36.5q43 -20 70.5 -43.5t44 -46.5t23 -44t6.5 -36q5 -42 -21.5 -99.5t-72 -119t-103.5 -121t-116 -104.5q105 -40 219.5 -60
t220.5 -20zM595 306q36 17 72.5 46.5t70 66t62.5 76.5t50.5 77.5t34 69.5t12.5 53q-66 45 -145 66.5t-160 21.5q-78 0 -166 -24.5t-179 -78.5q99 -120 181.5 -214t166.5 -160z" />
    <glyph glyph-name="uniFECA" unicode="&#x639;" horiz-adv-x="1355" arabic-form="final" 
d="M663 -627q73 -9 148.5 -9t149.5 12t145.5 36t136.5 63q17 -28 30 -51.5t30 -49.5q-106 -64 -230 -97t-256 -33q-92 0 -181.5 17.5t-171 54.5t-151.5 94t-122 137v-1q-29 48 -48 108.5t-19 126.5q0 69 20 134.5t49 117.5t75.5 100.5t104.5 91t124.5 79t135.5 64.5
q-50 44 -91.5 84.5t-77.5 77t-67.5 71t-61.5 66.5l-10 95q30 42 72 72.5t87 52t88.5 35.5t76.5 22l-1 -1q109 23 204 23q52 0 99.5 -6.5t89.5 -20.5q93 -28 138 -82.5t47 -127.5q2 -78 -37.5 -143.5t-102.5 -119.5q-37 -29 -95 -62.5t-130 -66.5q64 -39 124.5 -72t121 -57.5
t121.5 -38t127 -13.5q24 -1 40.5 -18t16.5 -41q0 -25 -16.5 -41t-40.5 -17q-79 0 -156.5 18t-154.5 50.5t-154.5 78t-155.5 99.5q-56 -22 -114.5 -49t-113.5 -60t-103.5 -72t-84.5 -86.5t-57 -103t-21 -120.5q0 -56 20.5 -107.5t55 -96t78.5 -82t91 -65.5t93 -46t85 -24z
M444 722q73 -78 146.5 -152.5t161.5 -147.5q86 35 154.5 68.5t116.5 69.5t73.5 77t25.5 91q0 20 -11.5 36t-28.5 28t-37 21t-37 15q-36 11 -74.5 16t-80.5 5q-50 0 -103 -8.5t-106.5 -24.5t-104 -39.5t-95.5 -54.5z" />
    <glyph glyph-name="uniFEDB" unicode="&#x643;" horiz-adv-x="962" arabic-form="initial" 
d="M-68 97q0 26 19 42.5t49 16.5h56h49q64 0 127 1.5t120 10t106 26.5t84.5 50t56 81t20.5 120q0 51 -16 109q-12 43 -54.5 107.5t-105.5 138t-141 150t-161 144.5q1 15 2.5 29t4 32t5.5 41.5t7 57.5q116 50 217 93t193.5 82.5t178.5 76t172 73.5q11 -27 25 -53t25 -55
l-740 -310q31 -27 65.5 -56.5t69 -61t68 -64t63.5 -65.5q66 -73 110.5 -140t72 -127.5t39 -115t11.5 -102.5q0 -74 -23 -137.5t-65.5 -113.5t-103 -84t-136.5 -48q-19 -4 -39 -5.5t-40 -1.5l-323 1q-29 0 -48.5 16.5t-19.5 40.5z" />
    <glyph glyph-name="uniFEDC" unicode="&#x643;" horiz-adv-x="1188" arabic-form="medial" 
d="M-69 98q0 24 17.5 41t41.5 17h9h330q46 0 92 19.5t84 51.5t64 72t32 82q3 59 -16.5 124t-55 130.5t-82.5 129.5t-98.5 122.5t-104.5 108.5t-99 88q5 45 10 88.5t12 88.5q210 90 411.5 177.5t411.5 177.5q11 -27 24 -53t25 -55l-813 -352q104 -84 175 -159t122 -145.5
t88 -138t73 -135.5q30 -57 55 -103t51 -88q32 -53 68 -95t78.5 -71.5t93.5 -46t113 -18.5h44q25 0 41.5 -17t16.5 -41q0 -25 -16.5 -41.5t-41.5 -16.5h-8q-69 0 -121 8.5t-100 24.5h1q-32 12 -65 34t-65.5 51t-64 63.5t-60.5 71.5q-60 -111 -108 -156h1q-30 -27 -63.5 -44.5
t-69.5 -28.5t-74 -16.5t-76 -7.5h1h-325q-24 0 -41.5 16.5t-17.5 41.5z" />
    <glyph glyph-name="uni0643" unicode="&#x643;" horiz-adv-x="1996" arabic-form="isolated" 
d="M1836 508q-1 -45 -11 -90.5t-33 -90.5q-36 -69 -103 -122t-160 -91h1q-108 -39 -249 -62t-310 -23q-171 2 -313 23.5t-248 58.5q-68 29 -122.5 64.5t-93 80.5t-59.5 100t-21 124q0 33 8.5 75.5t22 85t31.5 81.5t37 66q27 -21 48.5 -36.5t43.5 -35.5q-15 -24 -28.5 -53.5
t-23 -60.5t-15.5 -62.5t-6 -58.5q0 -93 58.5 -156.5t159.5 -102.5t235 -56.5t286 -17.5q166 0 293 17.5t221 55.5q75 30 125.5 69.5t78.5 93.5q17 32 23.5 66t7.5 67l-17 433q-3 84 -7 161.5t-8.5 143.5t-8.5 117.5t-7 83.5q34 3 59.5 6t56.5 6q3 -32 14 -162t20 -353v1z
M1103 886q-14 2 -28 3.5t-23 1.5q-36 0 -66 -13q-35 -14 -56 -45t-21 -66q0 -19 8 -40q8 -17 22 -32.5t32 -27.5t39.5 -19.5t43.5 -7.5q21 0 45 8q35 12 72 32.5t61 36.5l49 -62l-449 -250l-44 63l191 107q-51 26 -86.5 58t-48.5 63q-5 15 -9 32.5t-4 38.5q0 30 9 57.5
t25.5 51.5t39.5 43t52 31q48 19 95 19q23 0 53 -5t56 -11l-25 -71z" />
    <glyph glyph-name="uniFEDA" unicode="&#x643;" horiz-adv-x="2062" arabic-form="final" 
d="M1873 265q23 -48 68 -76t121 -33q24 0 41 -17t17 -41t-17 -41t-41 -17h-5q-42 2 -88.5 13t-75.5 28q-79 44 -146 178q-57 -57 -116.5 -98t-119.5 -65h1q-108 -39 -249 -62t-310 -23q-171 2 -313 23.5t-248 58.5q-91 36 -158.5 89.5t-99.5 119.5q-20 36 -29 75.5t-9 84.5
q0 42 10 88t27 94q16 42 32 73t30 53l94 -71q-14 -23 -26 -48t-23 -53q-26 -72 -26 -135q0 -27 7 -55t18 -52q30 -52 92 -94t153 -71t209 -45t260 -16q328 0 514 73q57 23 99 48t70 68t42 111t14 178q0 126 -15 324q-3 84 -7 161.5t-8.5 143.5t-8.5 117.5t-7 83.5
q34 3 59.5 6t56.5 6q1 -15 4.5 -59t8.5 -111.5t10.5 -155t10.5 -189.5q2 -39 4.5 -78.5t5.5 -71.5q1 -14 2 -29t2.5 -39.5t3 -63t3.5 -99.5q5 -102 19 -172.5t37 -116.5zM1078 885q-14 2 -28 3.5t-23 1.5q-36 0 -66 -13q-35 -14 -56 -45t-21 -66q0 -19 8 -40q8 -17 22 -32.5
t32 -27.5t39.5 -19.5t43.5 -7.5q21 0 45 8q35 12 72 32.5t61 36.5l49 -62l-449 -250l-44 63l191 107q-51 26 -86.5 58t-48.5 63q-5 15 -9 32.5t-4 38.5q0 30 9 57.5t25.5 51.5t39.5 43t52 31q48 19 95 19q23 0 53 -5t56 -11l-25 -71z" />
    <glyph glyph-name="uni0644" unicode="&#x644;" horiz-adv-x="1440" arabic-form="isolated" 
d="M311 321q-14 -31 -26.5 -63t-23.5 -66q-19 -58 -34.5 -130t-15.5 -144q0 -73 20.5 -131.5t54 -104.5t77 -79t90 -55t92.5 -33.5t84 -13.5h-1q7 -1 15.5 -1h17.5q54 0 111.5 11.5t113 36.5t105 63.5t86.5 92.5t59 124t22 158q0 71 -1.5 164.5t-4.5 201t-7 222.5
t-8.5 228.5t-8.5 220t-8 196.5t-7.5 158t-5.5 104q11 0 19.5 0.5t20 1t29 2t47.5 3.5q7 -155 13.5 -302.5t11.5 -290.5q5 -121 9.5 -248.5t8.5 -248t6 -227t2 -185.5q0 -113 -27.5 -201.5t-74 -155.5t-107.5 -113.5t-128.5 -76t-137 -42.5t-132.5 -13h-16.5t-17.5 1
q-56 3 -118.5 18t-122.5 43t-114.5 70.5t-95 100.5t-64.5 133t-23 168q1 94 13.5 168t29.5 130t35.5 94t30.5 59l107 -48v0z" />
    <glyph glyph-name="uniFEDF" unicode="&#x644;" horiz-adv-x="558" arabic-form="initial" 
d="M-58 98q0 25 17 41.5t41 16.5h9h47q133 0 193 60q34 34 51 91.5t12 142.5l-52 998q34 3 59.5 6t56.5 6q1 -10 3 -35.5t5.5 -74t7.5 -123.5t9.5 -184t11.5 -256t13 -338q1 -33 -2.5 -74.5t-14 -85t-29.5 -84.5t-49 -72q-45 -48 -114.5 -70.5t-160.5 -22.5h-47h-9
q-24 0 -41 17t-17 41z" />
    <glyph glyph-name="uniFEE0" unicode="&#x644;" horiz-adv-x="661" arabic-form="medial" 
d="M-58 98q0 24 17 41t41 17h9h86q33 1 57 3.5t41.5 6t30 9.5t23.5 15q19 16 31.5 38.5t20.5 49t12 55.5t5 58q3 73 5.5 162.5t3.5 187t1.5 199t-1.5 198.5t-5.5 185.5t-9.5 159.5q29 3 57.5 6.5t57.5 8.5q6 -73 9.5 -163t5 -189t1 -202t-1 -202t-2 -189.5t-2.5 -163.5
q0 -12 1.5 -29t5.5 -36t11 -39.5t19 -39.5t28 -35t38.5 -28t52.5 -19t71 -7q25 0 42.5 -17t17.5 -41q0 -25 -17.5 -41.5t-42.5 -16.5q-91 -2 -160 34t-117 88q-29 -32 -57 -55t-59.5 -38t-68 -22t-82.5 -7h-109h-9q-24 0 -41 16.5t-17 41.5z" />
    <glyph glyph-name="uniFEDE" unicode="&#x644;" horiz-adv-x="1490" arabic-form="final" 
d="M291 325q-29 -59 -51 -126q-19 -57 -34.5 -130t-15.5 -151q0 -73 22 -132.5t57.5 -106t80.5 -80t91.5 -55.5t90.5 -32.5t78 -10.5q50 0 109 7t117.5 25.5t113 50t96 81t66.5 119t25 162.5q0 70 -1.5 165t-4.5 204.5t-7 228t-8.5 235.5t-8.5 227t-8 203t-7.5 163.5
t-5.5 108.5q11 0 19.5 0.5t20 1t29 2t47.5 3.5l15 -350q3 -77 6.5 -165t7 -181t7 -188.5t6.5 -188.5q6 -74 34 -130q12 -24 30 -47.5t43.5 -41.5t59 -29t77.5 -11q25 0 42 -17.5t17 -41.5q0 -25 -17 -41t-42 -16q-66 0 -126.5 15.5t-111.5 57.5q0 -14 0.5 -37.5t1 -48.5
t1 -47.5t0.5 -33.5q0 -118 -29.5 -205t-79.5 -149.5t-115 -102.5t-136.5 -63t-144.5 -32t-138 -9q-94 0 -189.5 30.5t-172.5 95.5t-125.5 166t-48.5 241q0 100 12.5 178t30.5 136t36.5 96.5t30.5 59.5l107 -63v0z" />
    <glyph glyph-name="uni0645" unicode="&#x645;" horiz-adv-x="1178" arabic-form="isolated" 
d="M137 198q0 12 2.5 32.5t9.5 43.5t19.5 45t33.5 37q14 12 36.5 21t54.5 9q16 0 42 -4.5t62 -15.5q16 48 34.5 93.5t39.5 87.5q30 57 59.5 98.5t58.5 71.5q88 88 190 84q146 -6 231 -115v1q29 -43 50 -105t27 -126v1q1 -11 1 -21v-21q0 -108 -37 -198q-24 -60 -63.5 -97.5
t-84.5 -47.5h1q-23 -3 -54 2t-72.5 18t-95.5 34t-123 49v-1q-57 23 -116.5 46.5t-107.5 39.5q-1 0 -2.5 0.5t-3.5 0.5q-13 4 -30.5 7.5t-32.5 -6.5q-5 -6 -7.5 -10.5t-3.5 -11t-1 -15.5v-23l34 -893h-116zM603 284q45 -20 90 -37.5t83 -31.5q38 -13 66.5 -20t40.5 -8
q33 23 54 63.5t31.5 87t10.5 93t-9 81.5q-16 58 -43.5 92.5t-57 52t-56 22.5t-39.5 5q-45 0 -98.5 -51t-99.5 -141q-7 -13 -14 -28.5t-15.5 -36t-19 -46.5t-23.5 -59l100 -39z" />
    <glyph glyph-name="uniFEE3" unicode="&#x645;" horiz-adv-x="1138" arabic-form="initial" 
d="M-57 98q0 24 17 40t42 18h-1q92 0 156.5 29.5t111.5 78t81.5 111t67.5 128.5q26 52 51.5 100.5t54.5 84.5q40 46 87 71t101 25q66 0 121 -28t100 -79q21 -27 38 -61.5t29 -72.5t18.5 -78.5t6.5 -80.5q0 -92 -30 -168l1 1q-26 -61 -67.5 -103t-93.5 -56q-14 -3 -34 -5.5
t-37 -2.5q-68 0 -158 35q-48 19 -102.5 50.5t-118.5 79.5l-28 -27q-145 -148 -356 -148q-25 0 -41.5 17t-16.5 41zM452 313q48 -35 96.5 -62.5t93.5 -46t83.5 -28.5t66.5 -10q11 0 22.5 1t22.5 5q21 8 37.5 27t27.5 45.5t17 58.5t6 67q0 49 -12.5 99t-38.5 92t-66 70.5
t-94 34.5q-27 0 -50.5 -14t-46.5 -41t-46 -67t-49 -92z" />
    <glyph glyph-name="uniFEE4" unicode="&#x645;" horiz-adv-x="1141" arabic-form="medial" 
d="M846 200q49 49 48 153v1v2q-1 17 -1 32l-1 4l-1 10q-10 100 -68 178q-64 87 -148 87q-60 0 -118 -83q-22 -32 -48 -82l-22 -45l-21 -45q-4 -9 -10 -19l-11 -17l-10 -14l-8 -15l-16 -31l29 -20q3 -2 7 -4q4 -3 9 -6q11 -8 24 -16q34 -21 67 -39q97 -54 160 -65
q22 -4 41 -4q61 0 98 38zM1140 158q24 0 41 -17t17 -41t-17 -41t-41 -17q-99 0 -163 84l-32 41l-31 -42q-26 -33 -57 -53q-41 -27 -89 -27q-12 0 -25 2q-117 16 -254 84q-44 21 -84 45q-13 8 -24 15l-6 4l-2 1v1l-34 23l-22 -35v0l-1 -1q-2 -2 -4 -5q-6 -8 -13 -16
q-25 -27 -57 -48q-43 -31 -96 -49q-70 -24 -150 -24q-24 0 -41 17t-17 41t17 41t41 17q146 0 257 130q42 48 80 115q14 25 29 56l13 26l6 13l6 11v1q13 27 18 37l2 4q60 118 101 162q67 72 167 72q118 0 205 -99q85 -96 107 -242q6 -43 3 -89v-4l1 -3q5 -47 22 -85
q13 -29 32 -51q43 -54 95 -54z" />
    <glyph glyph-name="uniFEE2" unicode="&#x645;" horiz-adv-x="1210" arabic-form="final" 
d="M842 169q49 0 83 65q32 61 33 138v13v1l-1 16q-11 101 -60 174q-60 91 -152 91l-10 -1q-79 -4 -151 -115q-63 -94 -116 -248q206 -81 356 -131q8 -3 18 -3zM1206 155q25 0 41 -15q16 -16 16 -40q0 -25 -15 -42q-17 -17 -43 -17q-100 0 -164 76l-32 39l-30 -41
q-22 -29 -47 -46q-34 -23 -71 -23q-24 0 -50 9q-173 59 -579 202l31 -959q-33 -2 -60 -4q-37 -2 -60 -3q-1 26 -3 55q-1 37 -3 76q-4 102 -9 203q-12 286 -21 513q-5 131 52 190q39 40 104 40q21 0 103 -21q34 109 98 218q128 219 276 219q119 0 205 -98q85 -97 107 -243
q6 -41 3 -88v-4l1 -3q6 -49 24 -89q13 -30 33 -53q45 -51 93 -51z" />
    <glyph glyph-name="uni0647" unicode="&#x647;" horiz-adv-x="974" arabic-form="isolated" 
d="M485 36q-5 0 -23 1t-45 5t-60.5 13t-67.5 25q-84 38 -127 105t-43 158q0 79 40.5 169.5t112.5 181.5q13 15 31.5 34.5t38.5 39.5t40.5 39.5t37.5 34.5l-77 74l80 80q16 -14 37 -34.5t45.5 -46t51.5 -54.5t54 -59q53 -62 97.5 -125t76.5 -122t50 -113t18 -99
q0 -91 -39.5 -157.5t-117.5 -104.5q-30 -14 -60.5 -22.5t-58 -13.5t-51.5 -7t-41 -2zM489 762q-42 -38 -89 -87t-86.5 -104.5t-66 -113.5t-26.5 -113q0 -20 4.5 -41t17 -41.5t34.5 -40t56 -35.5h-1q21 -11 44.5 -17t45 -9t38.5 -4t25 -1q10 0 28 0.5t40 3.5t45.5 9t45.5 17
q48 26 77 60t29 93q0 72 -67.5 178t-193.5 246z" />
    <glyph glyph-name="uniFEEB" unicode="&#x647;" horiz-adv-x="1433" arabic-form="initial" 
d="M-68 99q0 23 18 40t44 17h9q12 0 32 1.5t63.5 4.5t117.5 7.5t192 10.5q-103 91 -151.5 177t-48.5 166q0 54 19.5 114.5t58.5 114.5t97 95t136 56l-143 55l61 113q3 0 27 -9.5t65 -26.5t97 -40t122 -50q90 -39 175.5 -80t158.5 -82.5t129 -83t86 -81.5h-1q84 -116 84 -236
q0 -88 -46.5 -163.5t-141.5 -126.5q-25 -15 -62 -25.5t-77.5 -17t-81.5 -9.5t-75 -3q-88 0 -169.5 13.5t-165.5 48.5q-50 -16 -116 -27.5t-140.5 -18.5t-152 -10t-149.5 -3h-9q-26 0 -44 17t-18 42zM700 173q48 -12 83 -17t61.5 -6.5t46 -1t34.5 0.5q86 0 151.5 19.5
t109 53.5t65.5 78t22 94q0 46 -27 99.5t-79.5 106t-128.5 100.5t-174 82q21 -34 31 -66t13.5 -59t3.5 -49v-37q0 -47 -15 -101.5t-43 -108.5t-67 -103t-87 -85zM640 821q-33 8 -70.5 -2.5t-74 -34.5t-69.5 -57.5t-57.5 -72t-37 -77.5t-8.5 -74q7 -43 27 -82.5t50 -75
t67.5 -65.5t79.5 -53q60 24 105 64t75 88t45 100t15 100q0 44 -10.5 85.5t-30 74.5t-46.5 55t-60 27z" />
    <glyph glyph-name="uniFEEC" unicode="&#x647;" horiz-adv-x="1005" arabic-form="medial" 
d="M525 753q-36 -6 -72 -38t-67.5 -81t-57 -110t-42 -124t-22 -124t3.5 -110q73 -4 141 18.5t119.5 67.5t81.5 111.5t27 150.5q-1 33 -5 69.5t-16 70t-33.5 60t-57.5 39.5zM-59 98q0 24 16.5 41t41.5 17h154q-3 57 6 130t29.5 150t52 152t72.5 136t91.5 101.5t109.5 48.5
q54 0 97 -38t72.5 -97t45 -130t15.5 -136q0 -92 -35.5 -166t-96 -128.5t-142 -88t-173.5 -43.5q11 -45 33.5 -102t55.5 -115t75 -111t93 -90q-2 21 -3 33t-1.5 19.5t-0.5 10.5v6q0 59 20 116t53.5 108t79 93.5t96 74t104 49t103.5 17.5q25 0 42 -17t17 -41q0 -25 -17 -41.5
t-42 -16.5h-10q-65 -3 -123.5 -34.5t-102.5 -81t-69.5 -112t-25.5 -128.5q0 -51 16.5 -98.5t52.5 -92.5l-82 -98q-190 124 -310.5 286.5t-174.5 358.5h-177q-25 0 -41.5 16.5t-16.5 41.5z" />
    <glyph glyph-name="uniFEEA" unicode="&#x647;" horiz-adv-x="1090" arabic-form="final" 
d="M544 180q-238 0 -329 111q-24 30 -33.5 65.5t-9.5 68.5q0 29 4.5 53t11.5 40v-1q25 53 62 97t80 80.5t89.5 65.5t91 51.5t83.5 38.5t68 27l-15 142q32 7 60 13.5t57 13.5q1 -8 3.5 -33.5t6.5 -59t7.5 -71t7.5 -71t6.5 -58.5t3.5 -32v1q15 -131 28.5 -215t24 -134t18 -72
t10.5 -29q15 -34 34 -56t44.5 -35.5t58 -19t73.5 -5.5q24 0 41.5 -16.5t17.5 -41.5q0 -24 -17.5 -41t-41.5 -17q-37 0 -85 6t-94 27h1q-68 31 -129 130q-75 -11 -133 -17t-106 -6zM626 738q-26 -11 -61.5 -26.5t-74 -36t-75.5 -45.5t-66.5 -54.5t-47.5 -63.5t-18 -73
q0 -43 22 -71t58 -44.5t82 -23t93 -6.5t103 7t102 15q-7 34 -15.5 84t-17 108.5t-17 122.5t-16.5 127z" />
    <glyph glyph-name="uni0648" unicode="&#x648;" horiz-adv-x="1051" arabic-form="isolated" 
d="M518 690q-27 0 -54 -15t-51.5 -40t-45.5 -58.5t-36.5 -69.5t-24.5 -73.5t-9 -71.5q0 -37 11 -67.5t29 -50.5q33 -36 73.5 -54t83.5 -25t86 -7h81q16 0 37 0.5t42.5 1.5t40.5 2t30 2q-3 76 -16.5 144t-34.5 125t-47 102t-53 77q-12 13 -27.5 26.5t-33.5 25t-38.5 19
t-42.5 7.5zM124 -541q150 35 271 97.5t208.5 141.5t139.5 167.5t64 174.5h-101q-12 -1 -23.5 -1h-24.5q-54 0 -113 7t-113.5 22.5t-100 41.5t-73.5 65q-27 38 -44.5 86t-17.5 102q1 40 11.5 88.5t29.5 98t46.5 96t63 82.5t78.5 57.5t93 21.5q124 0 231 -116v1
q42 -46 75 -104.5t56.5 -126t35.5 -141.5t12 -150q0 -163 -63.5 -302t-170.5 -246.5t-247 -179t-294 -98.5z" />
    <glyph glyph-name="uniFEEE" unicode="&#x648;" horiz-adv-x="1043" arabic-form="final" 
d="M126 -540q150 35 271 97.5t208 141t139 166.5t64 175h-100q-37 0 -77 1t-79 4q-97 7 -171 40.5t-120 87.5q-29 37 -43 86t-14 100q0 44 9 90t24.5 90t36 84t43.5 72v-1q43 54 95.5 83.5t106.5 29.5q124 0 231 -116v1q40 -44 72.5 -103t55.5 -128t36.5 -146.5t15.5 -158.5
h113q25 0 42.5 -16.5t17.5 -42.5q0 -23 -17.5 -40t-42.5 -17h-124q-29 -144 -101.5 -261t-175.5 -205.5t-228.5 -146.5t-259.5 -83zM519 690q-27 0 -53 -15t-50 -40t-43.5 -58.5t-34.5 -69.5t-23 -73.5t-8 -71.5q0 -38 11 -68t28 -51q19 -23 47 -38.5t58 -24.5t58.5 -13.5
t49.5 -5.5q25 -2 52.5 -2.5t54.5 -0.5q32 0 70 -1t76 2q-3 76 -16.5 144.5t-34.5 126.5t-47 104t-53 78q-12 13 -27.5 26.5t-33.5 25t-38.5 19t-42.5 7.5z" />
    <glyph glyph-name="uni0649" unicode="&#x649;" horiz-adv-x="1733" arabic-form="isolated" 
d="M1379 792q28 6 52.5 8.5t47.5 2.5q60 0 109.5 -11t81.5 -22q-5 -11 -9 -18.5t-9 -18t-13.5 -27.5t-22.5 -47q-18 6 -45 11t-56 7.5t-58.5 1.5t-51.5 -7h2q-41 -4 -85 -24.5t-86.5 -52t-80 -73t-66 -87t-45.5 -94t-17 -94.5q0 -18 2.5 -36t8.5 -37q12 -35 38 -59
t61.5 -40.5t77 -28t84.5 -21.5h-1q50 -12 100 -27t90 -39.5t65 -63t25 -97.5q0 -25 -6 -61v1q-17 -88 -80.5 -162.5t-171.5 -128.5q-106 -54 -240.5 -82t-294.5 -28q-179 0 -317 52t-226 148v-1q-60 72 -93.5 165t-33.5 199q0 45 6 95v-1q11 79 29.5 164t39 162t39.5 139.5
t30 96.5l116 -43q-42 -129 -76.5 -265.5t-54.5 -266.5q-2 -17 -3.5 -37.5t-1.5 -43.5q0 -33 5.5 -69.5t17 -73.5t29.5 -72t44 -66q72 -75 186 -116t264 -41q151 0 272 25.5t206.5 68t133.5 97t54 111.5q3 28 -13.5 50t-45 38t-65 28t-73.5 21q-48 13 -103 30t-104 43
t-85.5 64t-47.5 94q-10 47 -10 96q0 98 37.5 190.5t102.5 168.5t151 130t184 75z" />
    <glyph glyph-name="uniFEF0" unicode="&#x649;" horiz-adv-x="1715" arabic-form="final" 
d="M830 -612q-83 0 -172 8t-171 31.5t-150 67t-110 115.5q-89 131 -89 341v23t1 24q7 128 43.5 276t108.5 325l108 -43q-33 -87 -59.5 -171t-45 -162t-28.5 -148t-10 -128q0 -167 68 -270q30 -44 69.5 -74t84 -49t92 -29t94 -14.5t89 -5t77.5 -0.5q32 0 88.5 5.5t123 18
t135.5 34t125 53t91.5 74.5t35.5 100q0 17 -10 39.5t-35 48t-67.5 51.5t-106.5 50q-34 12 -68 21t-65 15.5t-57 11.5t-44 9l8 121l732 -1q24 0 41.5 -16.5t17.5 -41.5t-17.5 -41.5t-41.5 -16.5h-350q55 -45 90 -83.5t55 -69.5t27.5 -55.5t7.5 -41.5q-1 -78 -37 -138
t-94.5 -104.5t-133.5 -75t-154 -49.5t-156.5 -27t-140.5 -8z" />
    <glyph glyph-name="uni066E.init" unicode="&#x66e;" horiz-adv-x="700" 
d="M-65 98q0 25 17 41.5t41 16.5h148q58 0 116 10t104.5 36.5t75.5 72.5t29 118q0 98 -45 241q-7 22 -16.5 47t-20 49.5t-20 46.5t-16.5 39q29 14 54.5 27t52.5 27q14 -32 35.5 -84.5t41.5 -115.5q25 -79 38 -147t13 -128q0 -84 -26 -145v1q-33 -69 -90 -118.5t-138 -72.5
q-51 -14 -98 -17t-92 -3h-146q-24 0 -41 16.5t-17 41.5z" />
    <glyph glyph-name="uni066E.medi" unicode="&#x66e;" horiz-adv-x="705" 
d="M-54 98q0 24 16.5 41t41.5 17h17q189 0 277.5 68.5t88.5 207.5q0 52 -9 101.5t-26 116.5q12 3 21.5 5.5t20.5 6t27.5 8.5t42.5 13q21 -78 31 -143t12 -125q2 -61 9 -109t27.5 -81.5t58.5 -51t102 -17.5q24 0 41.5 -17t17.5 -41q0 -25 -17.5 -41.5t-40.5 -16.5
q-90 0 -155.5 40t-114.5 104q-75 -72 -175 -108t-239 -36h-17q-25 0 -41.5 16.5t-16.5 41.5z" />
    <glyph glyph-name="uni066E.fina" unicode="&#x66e;" horiz-adv-x="2316" 
d="M1955 188q-19 23 -38.5 62.5t-39.5 96.5q-298 -310 -849 -310q-293 2 -484 67.5t-275 207.5q-33 55 -47 114t-14 119q0 75 17 138q14 57 29 99.5t27 68.5q9 -5 16 -9l17.5 -10t27 -15.5t43.5 -24.5q-8 -18 -19 -43.5t-21 -56t-16.5 -65t-6.5 -70.5q0 -45 11 -89.5
t34 -86.5q69 -109 238 -167t423 -58q227 0 389.5 41t270.5 130l-1 -1q44 35 77 76t57.5 84.5t42 88.5t31.5 88l114 -33q-6 -18 -11 -40t-8 -45.5t-5 -46t-2 -40.5q2 -48 15 -100t49 -97q42 -49 109 -77t160 -28q25 0 42 -16.5t17 -41.5t-17 -41.5t-42 -16.5h-8
q-121 2 -208 39t-145 109z" />
    <glyph glyph-name="uni066F.init" unicode="&#x66f;" horiz-adv-x="895" 
d="M428 967q-19 0 -48 -15.5t-58 -45.5t-54 -74t-35 -102q-3 -11 -3.5 -22t-0.5 -23q0 -27 7 -53.5t24 -45.5h-1q12 -15 34 -28t50 -23.5t59.5 -17.5t62.5 -9q26 -2 50.5 -2h46.5q21 0 50 0.5t80 5.5q-4 61 -16.5 118t-31 107.5t-42.5 92.5t-51 72q-10 11 -23.5 22.5t-29 21
t-33.5 15.5t-37 6zM-61 98q0 25 17.5 41.5t42.5 16.5q143 0 253 11.5t193.5 38.5t145 71.5t107.5 110.5h-192q-49 0 -95.5 8t-87.5 24t-75 38t-58 51q-12 11 -21.5 30.5t-16 43.5t-10 51.5t-3.5 54.5q0 14 1.5 28.5t3.5 28.5q13 70 38.5 130.5t60.5 105.5q39 51 86.5 77
t98.5 26q114 0 210 -105q38 -42 68 -95.5t51 -114t32 -126.5t11 -133q0 -95 -29 -167.5t-81.5 -125t-125.5 -87.5t-160 -55.5t-186 -28.5t-204 -7h-17q-24 0 -41 17t-17 41z" />
    <glyph glyph-name="uni066F.medi" unicode="&#x66f;" horiz-adv-x="1019" 
d="M508 781q-33 0 -74 -17t-76 -51.5t-59 -86.5t-24 -123q0 -29 16 -69t46.5 -79.5t76 -73.5t105.5 -52q48 21 84.5 53t61 69t37.5 77t13 78q0 52 -19 101.5t-49 88t-66.5 62t-72.5 23.5zM-58 98q0 25 16.5 41.5t41.5 16.5q36 0 83 2t98 5t102 8t96 11q-50 22 -88.5 62.5
t-64.5 86t-39.5 91t-13.5 78.5q0 70 25.5 139.5t70.5 125.5t106.5 92.5t133.5 40.5q73 -6 131 -39t98 -84t61.5 -114.5t21.5 -130.5q0 -78 -37 -163.5t-118 -172.5q46 -10 94 -17t93.5 -11.5t87.5 -7t77 -2.5q26 0 42.5 -16.5t16.5 -41.5t-16.5 -41.5t-42.5 -16.5h-9
q-60 0 -128.5 4.5t-126.5 13.5q-63 10 -120.5 23t-111.5 32q-97 -37 -230 -55t-284 -18h-8q-25 0 -41.5 16.5t-16.5 41.5z" />
    <glyph glyph-name="uni066F.fina" unicode="&#x66f;" horiz-adv-x="1570" 
d="M1022 688q-55 0 -110 -69l1 1q-32 -39 -58 -94t-38 -118q-2 -14 -3 -27.5t-1 -27.5q0 -32 8.5 -61.5t25.5 -50.5q19 -21 47.5 -36t59 -24t59 -14t48.5 -7q48 -2 92 -3t79 -1h83q-3 78 -16.5 147t-34 127t-46 103.5t-53.5 77.5q-12 13 -27.5 26.5t-33.5 24.5t-39 18.5
t-43 7.5zM1232 37q-77 0 -177 6q-99 8 -173 41t-119 87l1 -1q-28 38 -44 85.5t-16 98.5q0 16 2 35.5t6 42.5q12 78 40 143.5t68 116.5q90 114 202 114q63 0 121 -29t109 -86q39 -45 70.5 -104t55 -127.5t37.5 -145t17 -155.5q10 0 27.5 -0.5t37 -1t39.5 -1t35 -0.5
q24 0 41.5 -16.5t17.5 -41.5q0 -24 -17.5 -41t-41.5 -17h-9h-139q-5 -29 -13 -65t-19 -74.5t-25.5 -78t-32.5 -75.5q-38 -72 -89.5 -133t-112.5 -104h1q-155 -107 -375 -107q-94 0 -176 17.5t-154 55.5q-75 36 -130 87.5t-95 117.5q-83 139 -83 322q0 13 0.5 28t1.5 29v-1
q9 99 43 212t88 225l104 -56q-119 -241 -119 -438q0 -146 66 -258q66 -109 181 -165.5t273 -56.5q160 0 277.5 71t190.5 202q29 54 49 119.5t32 122.5h-74z" />
    <glyph glyph-name="uniFBA8" unicode="&#x6c1;" horiz-adv-x="728" arabic-form="initial" 
d="M-58 98q0 25 17 41.5t41 16.5h103q51 0 97.5 5.5t86 20.5t71 43t52.5 73v-1q18 37 18 96q0 98 -45 241q-7 22 -16.5 47t-20 49.5t-20 46.5t-16.5 39q30 16 54 29.5t52 27.5q14 -30 35.5 -83t42.5 -120q25 -79 38 -147t13 -128q0 -84 -26 -145v1q-33 -69 -90 -118.5
t-138 -72.5q-51 -14 -98 -17t-92 -3h-92h-9q-24 0 -41 16.5t-17 41.5zM487 -432q-23 3 -45.5 15t-40.5 30.5t-29 43t-12 52.5q1 38 11 75.5t29.5 76.5t47.5 81.5t64 90.5l47 -31q-19 -29 -39.5 -61t-37.5 -63.5t-28 -61.5t-11 -54q0 -42 23.5 -66.5t80.5 -44.5z" />
    <glyph glyph-name="uniFBA9" unicode="&#x6c1;" horiz-adv-x="1018" arabic-form="medial" 
d="M-58 98q0 24 17 41t41 17q21 0 44 2.5t43.5 7.5t37 11.5t25.5 14.5q24 20 34.5 45t22.5 63l113 -41q-7 -40 -9 -77t-2 -76q0 -239 197 -466q10 55 23 110t29.5 105t35.5 92.5t42 74.5q35 50 96.5 83.5t140.5 44.5q26 4 47 5t38 1h61q24 0 41 -17t17 -41t-17 -41t-41 -17
h-60q-26 0 -57.5 -3.5t-63.5 -12.5t-60.5 -25.5t-47.5 -42.5q-31 -44 -51.5 -95t-33.5 -103.5t-19 -103.5t-7 -94l-64 -36l-43 -24q-149 97 -229 242h1q-71 129 -90 334q-21 -6 -45 -12t-49 -11.5t-49.5 -9t-45.5 -3.5h-5q-24 0 -41 17t-17 41zM833 -654q-23 3 -45.5 15
t-40.5 30.5t-29 43t-12 52.5q1 38 11 75.5t29.5 76.5t47.5 81.5t64 90.5l47 -31q-19 -29 -39.5 -61t-37.5 -63.5t-28 -61.5t-11 -54q0 -42 23.5 -66.5t80.5 -44.5z" />
    <glyph glyph-name="uni06BE" unicode="&#x6be;" horiz-adv-x="1537" arabic-form="isolated" 
d="M50 202q0 23 17 36.5t43 13.5q15 0 48.5 -11t83 -23.5t114.5 -23.5t142 -11q-103 91 -151.5 177t-48.5 166q0 54 19.5 114.5t58.5 114.5t97 95t136 56l-143 55l61 113q3 0 27 -9.5t65 -26.5t97 -40t122 -50q90 -39 175.5 -80t158.5 -82.5t128.5 -83t85.5 -81.5
q84 -116 84 -236q0 -88 -46.5 -163.5t-141.5 -126.5q-25 -15 -62 -25.5t-77.5 -17t-81.5 -9.5t-75 -3q-88 0 -169.5 13.5t-165.5 48.5q-30 -10 -83.5 -16.5t-125.5 -4t-159 15.5t-185 42q-48 15 -48 63zM790 176q48 -12 83 -17t61.5 -6.5t46 -1t34.5 0.5q86 0 151.5 19.5
t109 53.5t65.5 78t22 94q0 46 -27 99.5t-79.5 106t-128.5 100.5t-174 82q21 -34 31 -66t13.5 -59t3.5 -49v-37q0 -47 -15 -101.5t-43 -108.5t-67 -103t-87 -85zM730 824q-33 8 -70.5 -2.5t-74 -34.5t-69.5 -57.5t-57.5 -72t-37 -77.5t-8.5 -74q7 -43 27 -82.5t50 -75
t67.5 -65.5t79.5 -53q60 24 105 64t75 88t45 100t15 100q0 44 -10.5 85.5t-30 74.5t-46.5 55t-60 27z" />
    <glyph glyph-name="uni06D2" unicode="&#x6d2;" horiz-adv-x="1959" arabic-form="isolated" 
d="M990 -51q-84 0 -167.5 -1t-168 3.5t-170 17.5t-174.5 42q-59 25 -97.5 57.5t-57.5 70.5q-7 14 -11.5 31t-4.5 37q0 21 7 46.5t24 52.5q26 39 72 72.5t111 58.5q32 12 64 21.5t60.5 16t53 10.5t41.5 6q68 9 113 14t71.5 8t38.5 4t14 1l-23 -115l-35 -5q-21 -3 -60 -8
t-103 -13q-59 -8 -112.5 -21.5t-97 -30.5t-74.5 -37.5t-44 -42.5q-14 -22 -13.5 -35.5t4.5 -21.5q18 -39 65.5 -64t112.5 -39t141 -20t151 -7t142.5 0.5t115.5 1.5q79 0 167.5 4.5t176.5 12t171.5 16.5t154 17.5t122.5 15.5t78 11q-7 -30 -15 -57.5t-15 -57.5l-49 -7
t-108 -14t-149.5 -17t-173.5 -17t-180.5 -13t-168.5 -5z" />
    <glyph glyph-name="uniFBAF" unicode="&#x6d2;" horiz-adv-x="1559" arabic-form="final" 
d="M930 -429q-70 0 -160.5 1.5t-184 9t-181 22.5t-151.5 43q-119 50 -156 128q-7 14 -11.5 31t-4.5 38t7 46t25 54q37 59 105.5 99.5t159 65.5t197.5 36t221 11h763h1q24 0 41 -17t17 -41t-17 -41t-41 -17h-5h-759q-141 0 -244 -15t-173.5 -38t-112 -51t-60.5 -54
q-13 -20 -13.5 -34t4.5 -22q19 -26 61 -46.5t100 -36t129 -26t146 -16.5t151 -9t146 -3q50 0 104 1.5t106.5 4t100 5.5t84.5 5.5t60 5t27 3.5l32 -119q-3 0 -26.5 -2t-62 -4.5t-89 -5.5t-106.5 -6t-115 -4.5t-115 -1.5zM1412 -285q2 0 2 -0.5t-2 -0.5v1z" />
    <glyph glyph-name="uni06A9" unicode="&#x6a9;" horiz-adv-x="2059" arabic-form="isolated" 
d="M1297 1158q99 -83 196 -169t174 -173.5t125 -175.5t48 -175q0 -16 0.5 -37.5t-4.5 -47.5t-18 -55.5t-39.5 -61t-69.5 -64.5t-107 -65q-125 -55 -262 -73.5t-276 -18.5h-44t-44 1q-170 4 -312.5 24t-248.5 55q-41 18 -81 42t-74.5 51t-61 57t-41.5 60q-38 71 -38 159
q0 42 10 88.5t27 94.5q17 40 33.5 71.5t29.5 53.5q10 -8 17 -13.5t17 -12.5t24 -17t37 -26q-19 -33 -31 -57t-20 -45q-26 -72 -26 -136q0 -30 6.5 -56t17.5 -50q27 -54 88.5 -95.5t153 -70t211 -43.5t262.5 -16q20 -2 41.5 -2.5t41.5 -0.5q70 0 142.5 7.5t136.5 18.5t114 24
t76 24l-1 -1q110 38 161.5 97t51.5 127q0 48 -21.5 99.5t-58 103.5t-84.5 104t-100 101t-104.5 94t-98.5 83l-56 46l20 171l800 333l47 -107z" />
    <glyph glyph-name="uniFB8F" unicode="&#x6a9;" horiz-adv-x="2321" arabic-form="final" 
d="M2320 156q25 0 41.5 -16.5t16.5 -41.5q0 -24 -16.5 -41t-41.5 -17q-157 0 -293.5 71t-236.5 211q-24 -40 -50 -70.5t-52.5 -53.5t-53.5 -39.5t-54 -28.5h1q-100 -46 -232 -68t-300 -22h-92q-51 0 -101 2t-96 7q-69 7 -139.5 17t-139 28t-131.5 46.5t-117 71.5
q-28 22 -51.5 52t-45.5 70v-2q-17 35 -27 78.5t-10 91.5q0 42 8 83.5t27 84.5q17 39 34 72t30 56l96 -71l-23 -44q-9 -17 -17 -33.5t-10 -24.5q-14 -35 -20 -68.5t-6 -65.5q0 -29 6.5 -56t17.5 -51q45 -88 168.5 -142t320.5 -74q84 -5 165 -8t155 -3q85 0 156 6.5t127.5 17
t99.5 23t73 23.5q110 43 157.5 104t47.5 135q0 55 -25 114t-66 118t-93.5 115.5t-107.5 107.5t-108 94.5t-94 75.5q2 24 4 42t5 41l9 79l837 360l45 -108l-820 -348q94 -66 177.5 -138.5t151 -148t116.5 -152t74 -150.5q18 -51 39 -103.5t52 -101.5t76 -91.5t112 -73.5
q84 -40 216 -42h8v0z" />
    <glyph glyph-name="uni06AF" unicode="&#x6af;" horiz-adv-x="2086" arabic-form="isolated" 
d="M1297 1157q99 -83 196 -169t174 -173.5t125 -175.5t48 -175q0 -16 0.5 -37.5t-4.5 -47.5t-18 -55.5t-39.5 -61t-69.5 -64.5t-107 -65q-125 -55 -262 -73.5t-276 -18.5h-44t-44 1q-170 4 -312.5 24t-248.5 55q-41 18 -81 42t-74.5 51t-61 57t-41.5 60q-38 71 -38 159
q0 42 10 88.5t27 94.5q17 40 33.5 71.5t29.5 53.5q10 -8 17 -13.5t17 -12.5t24 -17t37 -26q-19 -33 -31 -57t-20 -45q-26 -72 -26 -136q0 -30 6.5 -56t17.5 -50q27 -54 88.5 -95.5t153 -70t211 -43.5t262.5 -16q20 -2 41.5 -2.5t41.5 -0.5q70 0 142.5 7.5t136.5 18.5t114 24
t76 24l-1 -1q110 38 161.5 97t51.5 127q0 48 -21.5 99.5t-58 103.5t-84.5 104t-100 101t-104.5 94t-98.5 83l-56 46l20 171l800 333l47 -107zM1975 1751q-182 -78 -360 -155t-362 -154l5 84l686 290l31 -65v0z" />
    <glyph glyph-name="uniFB94" unicode="&#x6af;" horiz-adv-x="970" arabic-form="initial" 
d="M-64 97q0 26 19 42.5t49 16.5h56h49q64 0 127 1.5t120 10t106 26.5t84.5 50t56 81t20.5 120q0 51 -16 109q-12 43 -54.5 107.5t-105.5 138t-141 150t-161 144.5q1 15 2.5 29t4 32t5.5 41.5t7 57.5q116 50 217 93t193.5 82.5t178.5 76t172 73.5q11 -27 25 -53t25 -55
l-740 -310q31 -27 65.5 -56.5t69 -61t68 -64t63.5 -65.5q66 -73 110.5 -140t72 -127.5t39 -115t11.5 -102.5q0 -74 -23 -137.5t-65.5 -113.5t-103 -84t-136.5 -48q-19 -4 -39 -5.5t-40 -1.5l-323 1q-29 0 -48.5 16.5t-19.5 40.5zM873 1726q-182 -78 -360 -155t-362 -154
l5 84l686 290l31 -65v0z" />
    <glyph glyph-name="uniFB95" unicode="&#x6af;" horiz-adv-x="1187" arabic-form="medial" 
d="M-58 98q0 24 17.5 41t41.5 17h9h330q46 0 92 19.5t84 51.5t64 72t32 82q3 59 -16.5 124t-55 130.5t-82.5 129.5t-98.5 122.5t-104.5 108.5t-99 88q5 45 10 88.5t12 88.5q210 90 411.5 177.5t411.5 177.5q11 -27 24 -53t25 -55l-813 -352q104 -84 175 -159t122 -145.5
t88 -138t73 -135.5q30 -57 55 -103t51 -88q32 -53 68 -95t78.5 -71.5t93.5 -46t113 -18.5h44q25 0 41.5 -17t16.5 -41q0 -25 -16.5 -41.5t-41.5 -16.5h-8q-69 0 -121 8.5t-100 24.5h1q-32 12 -65 34t-65.5 51t-64 63.5t-60.5 71.5q-60 -111 -108 -156h1q-30 -27 -63.5 -44.5
t-69.5 -28.5t-74 -16.5t-76 -7.5h1h-325q-24 0 -41.5 16.5t-17.5 41.5zM939 1774q-182 -78 -360 -155t-362 -154l5 84l686 290l31 -65v0z" />
    <glyph glyph-name="uniFB93" unicode="&#x6af;" horiz-adv-x="2309" arabic-form="final" 
d="M2320 156q25 0 41.5 -16.5t16.5 -41.5q0 -24 -16.5 -41t-41.5 -17q-157 0 -293.5 71t-236.5 211q-24 -40 -50 -70.5t-52.5 -53.5t-53.5 -39.5t-54 -28.5h1q-100 -46 -232 -68t-300 -22h-92q-51 0 -101 2t-96 7q-69 7 -139.5 17t-139 28t-131.5 46.5t-117 71.5
q-28 22 -51.5 52t-45.5 70v-2q-17 35 -27 78.5t-10 91.5q0 42 8 83.5t27 84.5q17 39 34 72t30 56l96 -71l-23 -44q-9 -17 -17 -33.5t-10 -24.5q-14 -35 -20 -68.5t-6 -65.5q0 -29 6.5 -56t17.5 -51q45 -88 168.5 -142t320.5 -74q84 -5 165 -8t155 -3q85 0 156 6.5t127.5 17
t99.5 23t73 23.5q110 43 157.5 104t47.5 135q0 55 -25 114t-66 118t-93.5 115.5t-107.5 107.5t-108 94.5t-94 75.5q2 24 4 42t5 41l9 79l837 360l45 -108l-820 -348q94 -66 177.5 -138.5t151 -148t116.5 -152t74 -150.5q18 -51 39 -103.5t52 -101.5t76 -91.5t112 -73.5
q84 -40 216 -42h8v0zM2025 1767q-105 -45 -201 -87t-190.5 -83.5t-190.5 -84t-201 -87.5l3 40l3 45q95 40 184 78.5t178.5 77.5t183.5 80t200 86l31 -65v0z" />
    <glyph glyph-name="uni06BA" unicode="&#x6ba;" horiz-adv-x="1630" arabic-form="isolated" 
d="M767 -648q-144 3 -259 43.5t-195.5 116t-123 185t-42.5 251.5q0 72 12 146.5t32 145.5t47 135.5t57 116.5l96 -70q-19 -32 -41 -83.5t-40.5 -115t-31 -136t-12.5 -145.5q0 -47 9 -99.5t31 -103.5t58.5 -98t92.5 -83.5t133 -59.5t179 -27q136 0 245 38.5t185.5 108.5
t117.5 168t41 218q0 83 -15.5 161t-38 144t-47.5 118.5t-44 84.5q30 19 54 35t51 33q17 -30 44 -85.5t52.5 -130t44 -165t18.5 -190.5q0 -150 -50 -271.5t-139.5 -207.5t-214 -132.5t-272.5 -46.5q-8 0 -17 0.5t-17 0.5z" />
    <glyph glyph-name="uniFB9F" unicode="&#x6ba;" horiz-adv-x="1709" arabic-form="final" 
d="M1707 40q-126 0 -283 94q0 -6 1 -23.5t1.5 -37t1.5 -37t1 -23.5q0 -63 -9 -126.5t-28 -126.5v1q-39 -106 -108 -183t-157 -127t-189 -74t-204 -24q-263 0 -421 120.5t-204 362.5v-1q-9 57 -9 114q0 73 12 147t33 143.5t48 134t57 118.5l48 -36q11 -9 22.5 -17.5
t24.5 -17.5q-20 -36 -42.5 -91.5t-41 -121t-31 -136t-12.5 -135.5q0 -48 7 -86q-3 -36 10.5 -78t42 -84.5t71.5 -82t100 -69.5t126.5 -48.5t151.5 -18.5q106 0 196.5 23.5t161 66.5t120 103t74.5 133q17 54 24 107t7 104q0 62 -9 122t-24 115t-33 104t-36 90q-13 31 -23 48
l-14 32l99 63l3 -6t7.5 -14.5t14.5 -29t23 -48.5q58 -112 111.5 -177t102 -98.5t92.5 -42.5t83 -9q25 0 42 -16.5t17 -41.5q0 -24 -17 -41t-42 -17z" />
    <glyph glyph-name="uniFEAA" unicode="&#x62f;" horiz-adv-x="1253" arabic-form="final" 
d="M501 34q-103 0 -197 39.5t-169 111.5q6 9 11.5 17t12.5 19t17.5 26t27.5 38q75 -58 156 -94.5t154 -36.5q125 0 215 40.5t147 107.5q-76 186 -154.5 374.5t-156.5 374.5q9 4 17 7t19 7.5t28 11.5t45 19l72 -174q37 -91 95 -229.5t140 -337.5l-1 1q18 -46 35.5 -83
t45.5 -63t72 -40t116 -14q24 0 41.5 -16.5t17.5 -41.5t-17.5 -41.5t-41.5 -16.5q-60 0 -107.5 12t-85.5 32t-67.5 47.5t-53.5 57.5q-45 -38 -87.5 -67t-92 -48.5t-110.5 -29.5t-144 -10z" />
    <glyph glyph-name="uni06C1" unicode="&#x6c1;" horiz-adv-x="1252" arabic-form="final" 
d="M1254 156q24 0 41 -17t17 -41t-17 -41t-41 -17q-71 0 -127 22t-104 58.5t-89.5 83t-83.5 94.5q-35 41 -70.5 80t-74 69t-80.5 48.5t-90 18.5q-22 0 -44 -3t-46 -11q-54 -20 -98.5 -62t-80 -100t-62.5 -128t-48 -146l-112 30q24 90 56 173t76 151.5t101.5 118.5t133.5 73
q35 11 65.5 15.5t58.5 4.5q67 0 123.5 -22t105 -58t91 -82t83.5 -94q33 -39 68.5 -77.5t74.5 -70t82 -51t91 -19.5z" />
    <glyph glyph-name="uni0686" unicode="&#x686;" horiz-adv-x="1670" arabic-form="isolated" 
d="M883 -630q139 0 264 38t246 119l67 -96q-137 -90 -285.5 -139.5t-321.5 -49.5q-97 0 -187.5 18t-170 52.5t-145.5 85.5t-112.5 116.5t-72.5 145.5t-25 173q0 114 40.5 214.5t114.5 185t178.5 150.5t233 111.5t278 67.5t313.5 18q-51 29 -98 62.5t-94 67.5t-96 66.5
t-104 57.5t-117.5 41.5t-137.5 19.5q-42 0 -88.5 -16.5t-90.5 -44t-83.5 -62.5t-67.5 -72q-10 6 -16 10t-14.5 10t-23 16t-41.5 28q34 51 81 97t104.5 80t124 54t140.5 20q78 0 149 -20t137 -53t129 -76t126.5 -88.5t128.5 -91t135 -83.5l-33 -138l-169 2
q-129 7 -253.5 -11.5t-236 -57.5t-207 -96t-166 -127t-113.5 -150t-50 -165q-1 -83 23 -152t67.5 -123.5t103 -95t130 -67t148.5 -39.5t158 -13zM1221.4 -4.80957l-128.872 -128.888l-126.948 126.964l128.872 128.889zM830.936 -6.7334l-128.872 -128.888l-126.948 127.926
l128.872 128.889zM1034.82 -265.472l-128.872 -128.888l-126.948 126.964l128.872 128.889z" />
    <glyph glyph-name="uniFB7B" unicode="&#x686;" horiz-adv-x="1703" arabic-form="final" 
d="M1168.06 -58.9238l-125.217 -125.331l-123.347 123.46l125.216 125.331zM788.674 -60.7949l-125.216 -125.33l-123.347 124.395l125.216 125.331zM986.777 -312.391l-125.216 -125.331l-123.348 123.46l125.216 125.33zM912 -751q-98 0 -190 20.5t-172 58.5t-146 92
t-113 120.5t-73 144t-26 163.5q0 95 32.5 198.5t112.5 206.5q54 67 127.5 119t158.5 94h-1q58 26 137 50.5t169 44t186 32t188 14.5q-152 69 -259.5 118.5t-185 82t-130 48t-94.5 15.5q-54 0 -100.5 -18t-86.5 -48.5t-73 -71t-59 -84.5l-91 51q30 58 71 110t92.5 91.5
t113 63t132.5 23.5q65 0 135.5 -19.5t143.5 -51t147.5 -71t147 -80t142 -78t133.5 -64.5q-3 -13 -5 -23.5t-5 -23t-6.5 -30.5t-9.5 -46h-45h-32t-32.5 -1t-47.5 -2q-5 -31 -7.5 -60.5t1.5 -58.5t15 -57.5t34 -58.5q26 -35 60 -56t77.5 -32.5t98.5 -15t123 -3.5
q24 0 41.5 -17.5t17.5 -42.5q0 -24 -17.5 -40t-41.5 -16q-340 0 -452 153q-44 60 -64.5 135.5t1.5 158.5q-68 -9 -136 -20.5t-134 -27t-128 -35.5t-117 -45q-25 -12 -59 -32t-72 -48.5t-75.5 -66.5t-69.5 -84.5t-54.5 -103.5t-29.5 -123q-1 -8 -1 -18.5v-18.5
q0 -83 24 -152.5t66.5 -126t101 -99.5t127.5 -72t146 -44t156 -15q132 0 257 39.5t228 126.5q7 -8 12 -14.5t12.5 -16t19 -23.5t31.5 -38q-65 -51 -136.5 -85.5t-145.5 -55.5t-149 -30t-147 -9z" />
    <glyph glyph-name="uni0623" unicode="&#x623;" horiz-adv-x="525" arabic-form="isolated" 
d="M242 41q5 72 8.5 135.5t5.5 123t3 117t1 118.5q0 49 -0.5 98.5t-1.5 101.5q-2 75 -5 142t-8 116l-4 55q-5 71 -11.5 142t-16.5 144q12 2 20.5 3t16 1.5l15 1t18.5 0.5q11 1 22.5 2t22.5 3q8 -60 14.5 -125t12 -131t10 -131t7.5 -124q2 -63 3.5 -132t1.5 -148
q0 -117 -4 -246.5t-14 -271.5l-117 5v0zM353 1863q-13 1 -29 3.5t-34 2.5q-15 0 -30 -2.5t-30 -8.5v2q-31 -13 -50 -39.5t-19 -57.5q0 -14 8 -33l-1 1q7 -17 19.5 -31t29 -24t36 -15.5t39.5 -5.5q11 0 20.5 1t20.5 5q25 8 49 20t43 23q24 13 42 27l57 -72q-38 -27 -95 -58
t-139 -74l-220 -117l-46 81l173 92q-41 16 -70.5 46t-46.5 66q-13 33 -13 68q0 29 9 56.5t26 51t40.5 42t52.5 29.5q44 18 95 18q22 0 42.5 -3t36.5 -6l37 -9l-27 -85z" />
    <glyph glyph-name="uniFE84" unicode="&#x623;" horiz-adv-x="673" arabic-form="final" 
d="M665 40q-103 0 -174 23t-119 71q-29 28 -44.5 62t-22 67.5t-7.5 64.5t-1 52v10q1 35 2.5 106.5t1.5 168.5q0 57 -0.5 124.5t-2 139.5t-3.5 144.5t-5.5 140t-8 127t-10.5 104.5l116 22q7 -49 12 -112t8.5 -134t5.5 -147.5t3 -151.5t1.5 -146t0.5 -131q0 -70 -0.5 -140
t-1.5 -127q0 -20 1.5 -43t6 -45t12.5 -41t22 -32q27 -27 76.5 -43.5t121.5 -17.5h9q24 0 41.5 -17t17.5 -41q0 -25 -17.5 -41.5t-41.5 -16.5zM404 1916q-13 1 -29 3.5t-34 2.5q-15 0 -30 -2.5t-30 -8.5v2q-31 -13 -50 -39.5t-19 -57.5q0 -14 8 -33l-1 1q7 -17 19.5 -31
t29 -24t36 -15.5t39.5 -5.5q11 0 20.5 1t20.5 5q25 8 49 20t43 23q24 13 42 27l57 -72q-38 -27 -95 -58t-139 -74l-220 -117l-46 81l173 92q-41 16 -70.5 46t-46.5 66q-13 33 -13 68q0 29 9 56.5t26 51t40.5 42t52.5 29.5q44 18 95 18q22 0 42.5 -3t36.5 -6l37 -9l-27 -85z
" />
    <glyph glyph-name="uni0625" unicode="&#x625;" horiz-adv-x="525" arabic-form="isolated" 
d="M223 41q5 72 8.5 135.5t5.5 123t3 117t1 118.5q0 49 -0.5 98.5t-1.5 101.5q-2 75 -5 142t-8 116l-4 55q-5 71 -11.5 142t-16.5 144q12 2 20.5 3t16 1.5l15 1t18.5 0.5q11 1 22.5 2t22.5 3q8 -60 14.5 -125t12 -131t10 -131t7.5 -124q2 -63 3.5 -132t1.5 -148
q0 -117 -4 -246.5t-14 -271.5l-117 5v0zM417 -187q-13 1 -29 3.5t-34 2.5q-15 0 -30 -2.5t-30 -8.5v2q-31 -13 -50 -39.5t-19 -57.5q0 -14 8 -33l-1 1q7 -17 19.5 -31t29 -24t36 -15.5t39.5 -5.5q11 0 20.5 1t20.5 5q25 8 49 20t43 23q24 13 42 27l57 -72q-38 -27 -95 -58
t-139 -74l-220 -117l-46 81l173 92q-41 16 -70.5 46t-46.5 66q-13 33 -13 68q0 29 9 56.5t26 51t40.5 42t52.5 29.5q44 18 95 18q22 0 42.5 -3t36.5 -6l37 -9l-27 -85z" />
    <glyph glyph-name="uniFE88" unicode="&#x625;" horiz-adv-x="673" arabic-form="final" 
d="M665 40q-103 0 -174 23t-119 71q-29 28 -44.5 62t-22 67.5t-7.5 64.5t-1 52v10q1 35 2.5 106.5t1.5 168.5q0 57 -0.5 124.5t-2 139.5t-3.5 144.5t-5.5 140t-8 127t-10.5 104.5l116 22q7 -49 12 -112t8.5 -134t5.5 -147.5t3 -151.5t1.5 -146t0.5 -131q0 -70 -0.5 -140
t-1.5 -127q0 -20 1.5 -43t6 -45t12.5 -41t22 -32q27 -27 76.5 -43.5t121.5 -17.5h9q24 0 41.5 -17t17.5 -41q0 -25 -17.5 -41.5t-41.5 -16.5zM526 -128q-13 1 -29 3.5t-34 2.5q-15 0 -30 -2.5t-30 -8.5v2q-31 -13 -50 -39.5t-19 -57.5q0 -14 8 -33l-1 1q7 -17 19.5 -31
t29 -24t36 -15.5t39.5 -5.5q11 0 20.5 1t20.5 5q25 8 49 20t43 23q24 13 42 27l57 -72q-38 -27 -95 -58t-139 -74l-220 -117l-46 81l173 92q-41 16 -70.5 46t-46.5 66q-13 33 -13 68q0 29 9 56.5t26 51t40.5 42t52.5 29.5q44 18 95 18q22 0 42.5 -3t36.5 -6l37 -9l-27 -85z
" />
    <glyph glyph-name="uni0622" unicode="&#x622;" horiz-adv-x="681" arabic-form="isolated" 
d="M315 41q5 72 8.5 135.5t5.5 123t3 117t1 118.5q0 49 -0.5 98.5t-1.5 101.5q-2 75 -5 142t-8 116l-4 55q-5 71 -11.5 142t-16.5 144q12 2 20.5 3t16 1.5l15 1t18.5 0.5q11 1 22.5 2t22.5 3q8 -60 14.5 -125t12 -131t10 -131t7.5 -124q2 -63 3.5 -132t1.5 -148
q0 -117 -4 -246.5t-14 -271.5l-117 5v0zM-28 1440q5 15 15 38t21 43q29 45 67 73.5t80 36.5q10 2 20.5 2.5t18.5 0.5q42 0 75.5 -10.5t62.5 -22.5t57.5 -20.5t61.5 -9.5q25 -1 47.5 8.5t41.5 24t34 30t24 26.5q21 -12 41 -25.5t42 -27.5q-9 -13 -30 -36.5t-51.5 -46
t-69.5 -38.5t-84 -15q-36 1 -67.5 9.5t-65.5 20.5l-15 6q-35 14 -65 22t-64 3h1q-19 -3 -35.5 -16.5t-30 -31.5t-23.5 -38t-16 -36l-93 30v0z" />
    <glyph glyph-name="uniFE82" unicode="&#x622;" horiz-adv-x="684" arabic-form="final" 
d="M665 40q-103 0 -174 23t-119 71q-29 28 -44.5 62t-22 67.5t-7.5 64.5t-1 52v10q1 35 2.5 106.5t1.5 168.5q0 57 -0.5 124.5t-2 139.5t-3.5 144.5t-5.5 140t-8 127t-10.5 104.5l116 22q7 -49 12 -112t8.5 -134t5.5 -147.5t3 -151.5t1.5 -146t0.5 -131q0 -70 -0.5 -140
t-1.5 -127q0 -20 1.5 -43t6 -45t12.5 -41t22 -32q27 -27 76.5 -43.5t121.5 -17.5h9q24 0 41.5 -17t17.5 -41q0 -25 -17.5 -41.5t-41.5 -16.5zM-56 1568q5 15 15 38t21 43q29 45 67 73.5t80 36.5q10 2 20.5 2.5t18.5 0.5q42 0 75.5 -10.5t62.5 -22.5t57.5 -20.5t61.5 -9.5
q25 -1 47.5 8.5t41.5 24t34 30t24 26.5q21 -12 41 -25.5t42 -27.5q-9 -13 -30 -36.5t-51.5 -46t-69.5 -38.5t-84 -15q-36 1 -67.5 9.5t-65.5 20.5l-15 6q-35 14 -65 22t-64 3h1q-19 -3 -35.5 -16.5t-30 -31.5t-23.5 -38t-16 -36l-93 30v0z" />
    <glyph glyph-name="uni0671" unicode="&#x671;" horiz-adv-x="573" arabic-form="isolated" 
d="M238 41q5 72 8.5 135.5t5.5 123t3 117t1 118.5q0 49 -0.5 98.5t-1.5 101.5q-2 75 -5 142t-8 116l-4 55q-5 71 -11.5 142t-16.5 144q12 2 20.5 3t16 1.5l15 1t18.5 0.5q11 1 22.5 2t22.5 3q8 -60 14.5 -125t12 -131t10 -131t7.5 -124q2 -63 3.5 -132t1.5 -148
q0 -117 -4 -246.5t-14 -271.5l-117 5v0zM-56 1549q29 15 50 21q20 7 42 11.5t36 2.5q18 -4 32.5 -13.5t25.5 -19.5t18 -19q7 13 16.5 30t21.5 35.5t26.5 37t30.5 34.5q28 27 63 45.5t72 23.5h-1q15 4 35 4q61 0 101 -43q39 -39 34 -89q-3 -58 -51 -101q-21 -17 -48.5 -28
t-57 -17.5t-59.5 -9t-57 -2.5q-24 0 -49.5 2t-49.5 8.5t-46 19t-40 32.5h1l-4 3v-1q-8 5 -14 10t-14 5q-14 0 -29 -4t-30 -9t-28 -11.5l-21 -10.5l-9 47zM276 1509q49 0 100 10.5t84 35.5q28 25 31 59q0 16 -5.5 27t-10.5 15q-21 24 -45 27.5t-44 -0.5q-26 -5 -54 -19
t-51 -37q-14 -14 -26 -29.5t-22 -31t-18 -29t-13 -23.5z" />
    <glyph glyph-name="uniFB51" unicode="&#x671;" horiz-adv-x="678" arabic-form="final" 
d="M665 40q-103 0 -174 23t-119 71q-29 28 -44.5 62t-22 67.5t-7.5 64.5t-1 52v10q1 35 2.5 106.5t1.5 168.5q0 57 -0.5 124.5t-2 139.5t-3.5 144.5t-5.5 140t-8 127t-10.5 104.5l116 22q7 -49 12 -112t8.5 -134t5.5 -147.5t3 -151.5t1.5 -146t0.5 -131q0 -70 -0.5 -140
t-1.5 -127q0 -20 1.5 -43t6 -45t12.5 -41t22 -32q27 -27 76.5 -43.5t121.5 -17.5h9q24 0 41.5 -17t17.5 -41q0 -25 -17.5 -41.5t-41.5 -16.5zM-6 1674q29 15 50 21q20 7 42 11.5t36 2.5q18 -4 32.5 -13.5t25.5 -19.5t18 -19q7 13 16.5 30t21.5 35.5t26.5 37t30.5 34.5
q28 27 63 45.5t72 23.5h-1q15 4 35 4q61 0 101 -43q39 -39 34 -89q-3 -58 -51 -101q-21 -17 -48.5 -28t-57 -17.5t-59.5 -9t-57 -2.5q-24 0 -49.5 2t-49.5 8.5t-46 19t-40 32.5h1l-4 3v-1q-8 5 -14 10t-14 5q-14 0 -29 -4t-30 -9t-28 -11.5l-21 -10.5l-9 47zM326 1634
q49 0 100 10.5t84 35.5q28 25 31 59q0 16 -5.5 27t-10.5 15q-21 24 -45 27.5t-44 -0.5q-26 -5 -54 -19t-51 -37q-14 -14 -26 -29.5t-22 -31t-18 -29t-13 -23.5z" />
    <glyph glyph-name="uni0628" unicode="&#x628;" horiz-adv-x="1975" arabic-form="isolated" 
d="M998 40q-171 2 -313.5 23.5t-247.5 57.5q-88 37 -157.5 91t-100.5 118q-20 36 -29 75.5t-9 84.5q0 42 10 88t27 94q16 42 32 73t30 53q28 -20 48 -36t45 -35q-2 -3 -2.5 -4t-4.5 -9.5t-13 -28t-28 -59.5q-29 -72 -29 -135q0 -27 7 -55t18 -52q30 -52 92.5 -94t154 -71
t210 -45t260.5 -16q82 0 179 9.5t199 30.5t205 56t196 86q-6 66 -26 131t-45 123t-51 105t-44 76l99 64q10 -17 27.5 -47.5t37.5 -70t40 -85t36.5 -93t27 -95t10.5 -90.5q0 -39 -22.5 -72.5t-73.5 -67.5h1q-68 -39 -165.5 -72t-207 -57t-220 -37t-203.5 -12zM1011 -493
l-134 134l133 133l134 -134z" />
    <glyph glyph-name="uniFE91" unicode="&#x628;" horiz-adv-x="664" arabic-form="initial" 
d="M-65 98q0 25 17 41.5t41 16.5h148q58 0 116 10t104.5 36.5t75.5 72.5t29 118q0 98 -45 241q-7 22 -16.5 47t-20 49.5t-20 46.5t-16.5 39q29 14 54.5 27t52.5 27q14 -32 35.5 -84.5t41.5 -115.5q25 -79 38 -147t13 -128q0 -84 -26 -145v1q-33 -69 -90 -118.5t-138 -72.5
q-51 -14 -98 -17t-92 -3h-146q-24 0 -41 16.5t-17 41.5zM295 -508l-134 134l133 133l134 -134z" />
    <glyph glyph-name="uniFE92" unicode="&#x628;" horiz-adv-x="718" arabic-form="medial" 
d="M-54 98q0 24 16.5 41t41.5 17h17q189 0 277.5 68.5t88.5 207.5q0 52 -9 101.5t-26 116.5q12 3 21.5 5.5t20.5 6t27.5 8.5t42.5 13q21 -78 31 -143t12 -125q2 -61 9 -109t27.5 -81.5t58.5 -51t102 -17.5q24 0 41.5 -17t17.5 -41q0 -25 -17.5 -41.5t-40.5 -16.5
q-90 0 -155.5 40t-114.5 104q-75 -72 -175 -108t-239 -36h-17q-25 0 -41.5 16.5t-16.5 41.5zM390 -493l-134 134l133 133l134 -134z" />
    <glyph glyph-name="uniFE90" unicode="&#x628;" horiz-adv-x="2245" arabic-form="final" 
d="M1876 188q-19 23 -38.5 62.5t-39.5 96.5q-298 -310 -849 -310q-293 2 -484 67.5t-275 207.5q-33 55 -47 114t-14 119q0 75 17 138q14 57 29 99.5t27 68.5q9 -5 16 -9l17.5 -10t27 -15.5t43.5 -24.5q-8 -18 -19 -43.5t-21 -56t-16.5 -65t-6.5 -70.5q0 -45 11 -89.5
t34 -86.5q69 -109 238 -167t423 -58q227 0 389.5 41t270.5 130l-1 -1q44 35 77 76t57.5 84.5t42 88.5t31.5 88l114 -33q-6 -18 -11 -40t-8 -45.5t-5 -46t-2 -40.5q2 -48 15 -100t49 -97q42 -49 109 -77t160 -28q25 0 42 -16.5t17 -41.5t-17 -41.5t-42 -16.5h-8
q-121 2 -208 39t-145 109zM991 -494l-134 134l133 133l134 -134z" />
    <glyph glyph-name="uni067E" unicode="&#x67e;" horiz-adv-x="1964" arabic-form="isolated" 
d="M992 40q-171 2 -313.5 23.5t-247.5 57.5q-88 37 -157.5 91t-100.5 118q-20 36 -29 75.5t-9 84.5q0 42 10 88t27 94q16 42 32 73t30 53q28 -20 48 -36t45 -35q-2 -3 -2.5 -4t-4.5 -9.5t-13 -28t-28 -59.5q-29 -72 -29 -135q0 -27 7 -55t18 -52q30 -52 92.5 -94t154 -71
t210 -45t260.5 -16q82 0 179 9.5t199 30.5t205 56t196 86q-6 66 -26 131t-45 123t-51 105t-44 76l99 64q10 -17 27.5 -47.5t37.5 -70t40 -85t36.5 -93t27 -95t10.5 -90.5q0 -39 -22.5 -72.5t-73.5 -67.5h1q-68 -39 -165.5 -72t-207 -57t-220 -37t-203.5 -12zM1343 -307
l-134 -134l-132 132l134 134zM937 -309l-134 -134l-132 133l134 134zM1149 -578l-134 -134l-132 132l134 134z" />
    <glyph glyph-name="uniFB57" unicode="&#x67e;" horiz-adv-x="2247" arabic-form="final" 
d="M1876 188q-19 23 -38.5 62.5t-39.5 96.5q-298 -310 -849 -310q-293 2 -484 67.5t-275 207.5q-33 55 -47 114t-14 119q0 75 17 138q14 57 29 99.5t27 68.5q9 -5 16 -9l17.5 -10t27 -15.5t43.5 -24.5q-8 -18 -19 -43.5t-21 -56t-16.5 -65t-6.5 -70.5q0 -45 11 -89.5
t34 -86.5q69 -109 238 -167t423 -58q227 0 389.5 41t270.5 130l-1 -1q44 35 77 76t57.5 84.5t42 88.5t31.5 88l114 -33q-6 -18 -11 -40t-8 -45.5t-5 -46t-2 -40.5q2 -48 15 -100t49 -97q42 -49 109 -77t160 -28q25 0 42 -16.5t17 -41.5t-17 -41.5t-42 -16.5h-8
q-121 2 -208 39t-145 109zM1353 -296l-134 -134l-132 132l134 134zM947 -298l-134 -134l-132 133l134 134zM1159 -567l-134 -134l-132 132l134 134z" />
    <glyph glyph-name="uniFB58" unicode="&#x67e;" horiz-adv-x="831" arabic-form="initial" 
d="M-58 98q0 25 17 41.5t41 16.5h111q42 0 93.5 1t104.5 7t102.5 20t88.5 40.5t62.5 67.5t23.5 101q0 48 -14 108.5t-37 132.5q-7 22 -16.5 47t-20 49.5t-20 46.5t-16.5 39q29 14 54.5 27t52.5 27q14 -32 35.5 -84.5t41.5 -115.5q25 -79 38 -147t13 -128q0 -84 -26 -145v1
q-33 -69 -90 -118.5t-138 -72.5q-25 -7 -65 -11t-82.5 -6t-81 -2.5t-60.5 -0.5h-154q-24 0 -41 16.5t-17 41.5zM708 -347l-134 -134l-132 132l134 134zM302 -349l-134 -134l-132 133l134 134zM514 -618l-134 -134l-132 132l134 134z" />
    <glyph glyph-name="uniFB59" unicode="&#x67e;" horiz-adv-x="859" arabic-form="medial" 
d="M-61 98q0 25 16.5 41.5t41.5 16.5h76q93 0 177.5 9.5t148 38t100.5 81t34 138.5q-1 25 -3 48.5t-5.5 48.5t-9.5 52.5t-15 62.5q12 3 20.5 5.5t16 5l15 5t18.5 5.5l41 12q15 -60 22.5 -111.5t13.5 -105.5l5 -49q5 -45 13 -89t29 -79t59 -56.5t102 -21.5q25 0 42.5 -16.5
t17.5 -41.5t-17.5 -41.5t-40.5 -16.5q-90 0 -156.5 42t-114.5 106q-42 -41 -101 -69t-127.5 -45.5t-142 -25.5t-142.5 -8h-76q-25 0 -41.5 16.5t-16.5 41.5zM699 -301l-134 -134l-132 132l134 134zM293 -303l-134 -134l-132 133l134 134zM505 -572l-134 -134l-132 132
l134 134z" />
    <glyph glyph-name="uni062A" unicode="&#x62a;" horiz-adv-x="1948" arabic-form="isolated" 
d="M979 40q-171 2 -313.5 23.5t-247.5 57.5q-88 37 -157.5 91t-100.5 118q-20 36 -29 75.5t-9 84.5q0 42 10 88t27 94q16 42 32 73t30 53q28 -20 48 -36t45 -35q-2 -3 -2.5 -4t-4.5 -9.5t-13 -28t-28 -59.5q-29 -72 -29 -135q0 -27 7 -55t18 -52q30 -52 92.5 -94t154 -71
t210 -45t260.5 -16q82 0 179 9.5t199 30.5t205 56t196 86q-6 66 -26 131t-45 123t-51 105t-44 76l99 64q10 -17 27.5 -47.5t37.5 -70t40 -85t36.5 -93t27 -95t10.5 -90.5q0 -39 -22.5 -72.5t-73.5 -67.5h1q-68 -39 -165.5 -72t-207 -57t-220 -37t-203.5 -12zM826 858
l-134 133l132 133l134 -134zM1182 856l-134 134l132 132l133 -134z" />
    <glyph glyph-name="uniFE97" unicode="&#x62a;" horiz-adv-x="788" arabic-form="initial" 
d="M244 1114l-134 133l132 133l134 -134zM600 1112l-134 134l132 132l133 -134zM-94 98q0 25 17 41.5t41 16.5h111q42 0 93.5 1t104.5 7t102.5 20t88.5 40.5t62.5 67.5t23.5 101q0 48 -14 108.5t-37 132.5q-7 22 -16.5 47t-20 49.5t-20 46.5t-16.5 39q29 14 54.5 27t52.5 27
q14 -32 35.5 -84.5t41.5 -115.5q25 -79 38 -147t13 -128q0 -84 -26 -145v1q-33 -69 -90 -118.5t-138 -72.5q-25 -7 -65 -11t-82.5 -6t-81 -2.5t-60.5 -0.5h-154q-24 0 -41 16.5t-17 41.5z" />
    <glyph glyph-name="uniFE98" unicode="&#x62a;" horiz-adv-x="870" arabic-form="medial" 
d="M-61 98q0 25 16.5 41.5t41.5 16.5h76q93 0 177.5 9.5t148 38t100.5 81t34 138.5q-1 25 -3 48.5t-5.5 48.5t-9.5 52.5t-15 62.5q12 3 20.5 5.5t16 5l15 5t18.5 5.5l41 12q15 -60 22.5 -111.5t13.5 -105.5l5 -49q5 -45 13 -89t29 -79t59 -56.5t102 -21.5q25 0 42.5 -16.5
t17.5 -41.5t-17.5 -41.5t-40.5 -16.5q-90 0 -156.5 42t-114.5 106q-42 -41 -101 -69t-127.5 -45.5t-142 -25.5t-142.5 -8h-76q-25 0 -41.5 16.5t-16.5 41.5zM265 890l-134 133l132 133l134 -134zM621 888l-134 134l132 132l133 -134z" />
    <glyph glyph-name="uniFE96" unicode="&#x62a;" horiz-adv-x="2241" arabic-form="final" 
d="M1876 188q-19 23 -38.5 62.5t-39.5 96.5q-298 -310 -849 -310q-293 2 -484 67.5t-275 207.5q-33 55 -47 114t-14 119q0 75 17 138q14 57 29 99.5t27 68.5q9 -5 16 -9l17.5 -10t27 -15.5t43.5 -24.5q-8 -18 -19 -43.5t-21 -56t-16.5 -65t-6.5 -70.5q0 -45 11 -89.5
t34 -86.5q69 -109 238 -167t423 -58q227 0 389.5 41t270.5 130l-1 -1q44 35 77 76t57.5 84.5t42 88.5t31.5 88l114 -33q-6 -18 -11 -40t-8 -45.5t-5 -46t-2 -40.5q2 -48 15 -100t49 -97q42 -49 109 -77t160 -28q25 0 42 -16.5t17 -41.5t-17 -41.5t-42 -16.5h-8
q-121 2 -208 39t-145 109zM847 853l-134 133l132 133l134 -134zM1203 851l-134 134l132 132l133 -134z" />
    <glyph glyph-name="uni062B" unicode="&#x62b;" horiz-adv-x="1964" arabic-form="isolated" 
d="M986 40q-171 2 -313.5 23.5t-247.5 57.5q-88 37 -157.5 91t-100.5 118q-20 36 -29 75.5t-9 84.5q0 42 10 88t27 94q16 42 32 73t30 53q28 -20 48 -36t45 -35q-2 -3 -2.5 -4t-4.5 -9.5t-13 -28t-28 -59.5q-29 -72 -29 -135q0 -27 7 -55t18 -52q30 -52 92.5 -94t154 -71
t210 -45t260.5 -16q82 0 179 9.5t199 30.5t205 56t196 86q-6 66 -26 131t-45 123t-51 105t-44 76l99 64q10 -17 27.5 -47.5t37.5 -70t40 -85t36.5 -93t27 -95t10.5 -90.5q0 -39 -22.5 -72.5t-73.5 -67.5h1q-68 -39 -165.5 -72t-207 -57t-220 -37t-203.5 -12zM1204 1101
l134 -134l-132 -132l-134 134zM798 1103l134 -134l-132 -133l-134 134zM1005 1374l133 -133l-132 -132l-133 133z" />
    <glyph glyph-name="uniFE9B" unicode="&#x62b;" horiz-adv-x="799" arabic-form="initial" 
d="M657 1374l134 -134l-132 -132l-134 134zM251 1376l134 -134l-132 -133l-134 134zM458 1647l133 -133l-132 -132l-133 133zM-58 98q0 25 17 41.5t41 16.5h111q42 0 93.5 1t104.5 7t102.5 20t88.5 40.5t62.5 67.5t23.5 101q0 48 -14 108.5t-37 132.5q-7 22 -16.5 47
t-20 49.5t-20 46.5t-16.5 39q29 14 54.5 27t52.5 27q14 -32 35.5 -84.5t41.5 -115.5q25 -79 38 -147t13 -128q0 -84 -26 -145v1q-33 -69 -90 -118.5t-138 -72.5q-25 -7 -65 -11t-82.5 -6t-81 -2.5t-60.5 -0.5h-154q-24 0 -41 16.5t-17 41.5z" />
    <glyph glyph-name="uniFE9C" unicode="&#x62b;" horiz-adv-x="864" arabic-form="medial" 
d="M-61 98q0 25 16.5 41.5t41.5 16.5h76q93 0 177.5 9.5t148 38t100.5 81t34 138.5q-1 25 -3 48.5t-5.5 48.5t-9.5 52.5t-15 62.5q12 3 20.5 5.5t16 5l15 5t18.5 5.5l41 12q15 -60 22.5 -111.5t13.5 -105.5l5 -49q5 -45 13 -89t29 -79t59 -56.5t102 -21.5q25 0 42.5 -16.5
t17.5 -41.5t-17.5 -41.5t-40.5 -16.5q-90 0 -156.5 42t-114.5 106q-42 -41 -101 -69t-127.5 -45.5t-142 -25.5t-142.5 -8h-76q-25 0 -41.5 16.5t-16.5 41.5zM613 1140l134 -134l-132 -132l-134 134zM207 1142l134 -134l-132 -133l-134 134zM414 1413l133 -133l-132 -132
l-133 133z" />
    <glyph glyph-name="uniFE9A" unicode="&#x62b;" horiz-adv-x="2233" arabic-form="final" 
d="M1876 188q-19 23 -38.5 62.5t-39.5 96.5q-298 -310 -849 -310q-293 2 -484 67.5t-275 207.5q-33 55 -47 114t-14 119q0 75 17 138q14 57 29 99.5t27 68.5q9 -5 16 -9l17.5 -10t27 -15.5t43.5 -24.5q-8 -18 -19 -43.5t-21 -56t-16.5 -65t-6.5 -70.5q0 -45 11 -89.5
t34 -86.5q69 -109 238 -167t423 -58q227 0 389.5 41t270.5 130l-1 -1q44 35 77 76t57.5 84.5t42 88.5t31.5 88l114 -33q-6 -18 -11 -40t-8 -45.5t-5 -46t-2 -40.5q2 -48 15 -100t49 -97q42 -49 109 -77t160 -28q25 0 42 -16.5t17 -41.5t-17 -41.5t-42 -16.5h-8
q-121 2 -208 39t-145 109zM1252 1101l134 -134l-132 -132l-134 134zM846 1103l134 -134l-132 -133l-134 134zM1053 1374l133 -133l-132 -132l-133 133z" />
    <glyph glyph-name="uni0679" unicode="&#x679;" horiz-adv-x="1970" arabic-form="isolated" 
d="M993 40q-171 2 -313.5 23.5t-247.5 57.5q-88 37 -157.5 91t-100.5 118q-20 36 -29 75.5t-9 84.5q0 42 10 88t27 94q16 42 32 73t30 53q28 -20 48 -36t45 -35q-2 -3 -2.5 -4t-4.5 -9.5t-13 -28t-28 -59.5q-29 -72 -29 -135q0 -27 7 -55t18 -52q30 -52 92.5 -94t154 -71
t210 -45t260.5 -16q82 0 179 9.5t199 30.5t205 56t196 86q-6 66 -26 131t-45 123t-51 105t-44 76l99 64q10 -17 27.5 -47.5t37.5 -70t40 -85t36.5 -93t27 -95t10.5 -90.5q0 -39 -22.5 -72.5t-73.5 -67.5h1q-68 -39 -165.5 -72t-207 -57t-220 -37t-203.5 -12zM1259 893
q16 37 7 65q-11 34 -45 50q-21 10 -46 10q-13 0 -24 -3q-30 -8 -65 -27q-87 -47 -151 -130l-63 -81q58 -6 100 -6q76 0 115 8q59 12 104 41q49 31 67 71zM1338 953q2 -59 -35 -114q-31 -45 -81 -76q-98 -60 -245 -60h-26q-147 5 -283 55l-5 2l32 62q59 -21 104 -32l61 82v2
q0 2 1 12q1 11 1 23q2 35 3 53q1 107 -18 276q-3 22 -14 103l74 18q23 -178 29 -262q4 -60 4 -138q50 46 92 74q60 39 111 50q15 3 31 3q54 0 99 -29q54 -35 63 -93q1 -2 1 -8z" />
    <glyph glyph-name="uniFB68" unicode="&#x679;" horiz-adv-x="774" arabic-form="initial" 
d="M-63 98q0 25 17 41.5t41 16.5h148q58 0 116 10t104.5 36.5t75.5 72.5t29 118q0 98 -45 241q-7 22 -16.5 47t-20 49.5t-20 46.5t-16.5 39q29 14 54.5 27t52.5 27q14 -32 35.5 -84.5t41.5 -115.5q25 -79 38 -147t13 -128q0 -84 -26 -145v1q-33 -69 -90 -118.5t-138 -72.5
q-51 -14 -98 -17t-92 -3h-146q-24 0 -41 16.5t-17 41.5zM454 1175q16 37 7 65q-11 34 -45 50q-21 10 -46 10q-13 0 -24 -3q-30 -8 -65 -27q-87 -47 -151 -130l-63 -81q58 -6 100 -6q76 0 115 8q59 12 104 41q49 31 67 71zM533 1235q2 -59 -35 -114q-31 -45 -81 -76
q-98 -60 -245 -60h-26q-147 5 -283 55l-5 2l32 62q59 -21 104 -32l61 82v2q0 2 1 12q1 11 1 23q2 35 3 53q1 107 -18 276q-3 22 -14 103l74 18q23 -178 29 -262q4 -60 4 -138q50 46 92 74q60 39 111 50q15 3 31 3q54 0 99 -29q54 -35 63 -93q1 -2 1 -8z" />
    <glyph glyph-name="uniFB69" unicode="&#x679;" horiz-adv-x="859" arabic-form="medial" 
d="M-61 98q0 25 16.5 41.5t41.5 16.5h76q93 0 177.5 9.5t148 38t100.5 81t34 138.5q-1 25 -3 48.5t-5.5 48.5t-9.5 52.5t-15 62.5q12 3 20.5 5.5t16 5l15 5t18.5 5.5l41 12q15 -60 22.5 -111.5t13.5 -105.5l5 -49q5 -45 13 -89t29 -79t59 -56.5t102 -21.5q25 0 42.5 -16.5
t17.5 -41.5t-17.5 -41.5t-40.5 -16.5q-90 0 -156.5 42t-114.5 106q-42 -41 -101 -69t-127.5 -45.5t-142 -25.5t-142.5 -8h-76q-25 0 -41.5 16.5t-16.5 41.5zM545 990q16 37 7 65q-11 34 -45 50q-21 10 -46 10q-13 0 -24 -3q-30 -8 -65 -27q-87 -47 -151 -130l-63 -81
q58 -6 100 -6q76 0 115 8q59 12 104 41q49 31 67 71zM624 1050q2 -59 -35 -114q-31 -45 -81 -76q-98 -60 -245 -60h-26q-147 5 -283 55l-5 2l32 62q59 -21 104 -32l61 82v2q0 2 1 12q1 11 1 23q2 35 3 53q1 107 -18 276q-3 22 -14 103l74 18q23 -178 29 -262q4 -60 4 -138
q50 46 92 74q60 39 111 50q15 3 31 3q54 0 99 -29q54 -35 63 -93q1 -2 1 -8z" />
    <glyph glyph-name="uniFB67" unicode="&#x679;" horiz-adv-x="2236" arabic-form="final" 
d="M1876 188q-19 23 -38.5 62.5t-39.5 96.5q-298 -310 -849 -310q-293 2 -484 67.5t-275 207.5q-33 55 -47 114t-14 119q0 75 17 138q14 57 29 99.5t27 68.5q9 -5 16 -9l17.5 -10t27 -15.5t43.5 -24.5q-8 -18 -19 -43.5t-21 -56t-16.5 -65t-6.5 -70.5q0 -45 11 -89.5
t34 -86.5q69 -109 238 -167t423 -58q227 0 389.5 41t270.5 130l-1 -1q44 35 77 76t57.5 84.5t42 88.5t31.5 88l114 -33q-6 -18 -11 -40t-8 -45.5t-5 -46t-2 -40.5q2 -48 15 -100t49 -97q42 -49 109 -77t160 -28q25 0 42 -16.5t17 -41.5t-17 -41.5t-42 -16.5h-8
q-121 2 -208 39t-145 109zM1251 960q16 37 7 65q-11 34 -45 50q-21 10 -46 10q-13 0 -24 -3q-30 -8 -65 -27q-87 -47 -151 -130l-63 -81q58 -6 100 -6q76 0 115 8q59 12 104 41q49 31 67 71zM1330 1020q2 -59 -35 -114q-31 -45 -81 -76q-98 -60 -245 -60h-26q-147 5 -283 55
l-5 2l32 62q59 -21 104 -32l61 82v2q0 2 1 12q1 11 1 23q2 35 3 53q1 107 -18 276q-3 22 -14 103l74 18q23 -178 29 -262q4 -60 4 -138q50 46 92 74q60 39 111 50q15 3 31 3q54 0 99 -29q54 -35 63 -93q1 -2 1 -8z" />
    <glyph glyph-name="uni0629" unicode="&#x629;" horiz-adv-x="1020" arabic-form="isolated" 
d="M522 36q-5 0 -23 1t-45 5t-60.5 13t-67.5 25q-84 38 -127 105t-43 158q0 79 40.5 169.5t112.5 181.5q13 15 31.5 34.5t38.5 39.5t40.5 39.5t37.5 34.5l-77 74l80 80q16 -14 37 -34.5t45.5 -46t51.5 -54.5t54 -59q53 -62 97.5 -125t76.5 -122t50 -113t18 -99
q0 -91 -39.5 -157.5t-117.5 -104.5q-30 -14 -60.5 -22.5t-58 -13.5t-51.5 -7t-41 -2zM526 762q-42 -38 -89 -87t-86.5 -104.5t-66 -113.5t-26.5 -113q0 -20 4.5 -41t17 -41.5t34.5 -40t56 -35.5h-1q21 -11 44.5 -17t45 -9t38.5 -4t25 -1q10 0 28 0.5t40 3.5t45.5 9t45.5 17
q48 26 77 60t29 93q0 72 -67.5 178t-193.5 246zM283 1228l-134 133l132 133l134 -134zM639 1226l-134 134l132 132l133 -134z" />
    <glyph glyph-name="uniFE94" unicode="&#x629;" horiz-adv-x="1126" arabic-form="final" 
d="M581 180q-238 0 -329 111q-24 30 -33.5 65.5t-9.5 68.5q0 29 4.5 53t11.5 40v-1q25 53 62 97t80 80.5t89.5 65.5t91 51.5t83.5 38.5t68 27l-15 142q32 7 60 13.5t57 13.5q1 -8 3.5 -33.5t6.5 -59t7.5 -71t7.5 -71t6.5 -58.5t3.5 -32v1q15 -131 28.5 -215t24 -134t18 -72
t10.5 -29q15 -34 34 -56t44.5 -35.5t58 -19t73.5 -5.5q24 0 41.5 -16.5t17.5 -41.5q0 -24 -17.5 -41t-41.5 -17q-37 0 -85 6t-94 27h1q-68 31 -129 130q-75 -11 -133 -17t-106 -6zM663 738q-26 -11 -61.5 -26.5t-74 -36t-75.5 -45.5t-66.5 -54.5t-47.5 -63.5t-18 -73
q0 -43 22 -71t58 -44.5t82 -23t93 -6.5t103 7t102 15q-7 34 -15.5 84t-17 108.5t-17 122.5t-16.5 127zM448 1294l-134 133l132 133l134 -134zM804 1292l-134 134l132 132l133 -134z" />
    <glyph glyph-name="uniFB7C" unicode="&#x686;" horiz-adv-x="1559" arabic-form="initial" 
d="M-61 98q0 25 17.5 41.5t42.5 16.5h198q137 0 279.5 29.5t285 77.5t282.5 110.5t272 128.5q-65 24 -115.5 43.5t-91 36t-73 31t-61.5 28.5h1q-48 23 -94 44t-89.5 37.5t-83.5 26.5t-75 10q-57 0 -105.5 -26.5t-86.5 -64t-65.5 -77.5t-42.5 -66q-32 14 -56 23.5t-53 22.5
q14 24 37 59.5t52 71.5q69 82 152 128t168 46q45 0 92.5 -10.5t96.5 -28.5t99.5 -41t102.5 -48q57 -26 108 -49.5t101.5 -44.5t102 -39.5t110.5 -35.5q5 -24 7.5 -37.5t7.5 -34.5q3 -13 5 -26t5 -27q-30 -14 -48 -23.5t-37 -20t-46 -25.5t-75 -39q-107 -53 -234 -107.5
t-265 -98.5t-283 -72t-287 -28h-198q-25 0 -42.5 17t-17.5 41zM1086 -290l-134 -134l-132 132l134 134zM680 -292l-134 -134l-132 133l134 134zM892 -561l-134 -134l-132 132l134 134z" />
    <glyph glyph-name="uniFB7D" unicode="&#x686;" horiz-adv-x="1663" arabic-form="medial" 
d="M-59 97q0 24 17 41.5t42 17.5h183q138 0 264 26t244 67.5t230 94.5t221 107l109 54q-98 23 -174 56.5t-146 68.5q-48 24 -96 47t-94.5 41t-92 29t-87.5 11q-58 0 -106.5 -26.5t-86.5 -63.5t-65 -76.5t-42 -66.5l-107 49q14 23 36 59t51 71q35 38 74 70t80 55t83 35.5
t83 12.5q46 0 93.5 -10.5t96.5 -28.5t99.5 -41t101.5 -47q57 -27 110.5 -54t106 -49t107 -37.5t114.5 -19.5l27 -125q-14 -6 -20.5 -10.5t-19.5 -12.5t-38 -22t-74 -38q15 -52 44 -89t65.5 -62.5t77 -40t78.5 -22.5t70.5 -10t52.5 -2h6h8q25 0 42 -17.5t17 -41.5
q0 -25 -17 -41t-42 -16h-14q-92 0 -171 19.5t-142.5 57t-110 90.5t-73.5 121q-108 -54 -223.5 -106t-237 -92.5t-250 -65.5t-262.5 -25l-183 1q-25 0 -42 16t-17 41zM1085 -296l-134 -134l-132 132l134 134zM679 -298l-134 -134l-132 133l134 134zM891 -567l-134 -134
l-132 132l134 134z" />
    <glyph glyph-name="uni062C" unicode="&#x62c;" horiz-adv-x="1647" arabic-form="isolated" 
d="M874 -630q139 0 264 38t246 119l67 -96q-137 -90 -285.5 -139.5t-321.5 -49.5q-97 0 -187.5 18t-170 52.5t-145.5 85.5t-112.5 116.5t-72.5 145.5t-25 173q0 114 40.5 214.5t114.5 185t178.5 150.5t233 111.5t278 67.5t313.5 18q-51 29 -98 62.5t-94 67.5t-96 66.5
t-104 57.5t-117.5 41.5t-137.5 19.5q-42 0 -88.5 -16.5t-90.5 -44t-83.5 -62.5t-67.5 -72q-10 6 -16 10t-14.5 10t-23 16t-41.5 28q34 51 81 97t104.5 80t124 54t140.5 20q78 0 149 -20t137 -53t129 -76t126.5 -88.5t128.5 -91t135 -83.5l-33 -138l-169 2
q-129 7 -253.5 -11.5t-236 -57.5t-207 -96t-166 -127t-113.5 -150t-50 -165q-1 -83 23 -152t67.5 -123.5t103 -95t130 -67t148.5 -39.5t158 -13zM892 -221l-134 134l133 133l134 -134z" />
    <glyph glyph-name="uniFE9F" unicode="&#x62c;" horiz-adv-x="1548" arabic-form="initial" 
d="M-61 98q0 25 17.5 41.5t42.5 16.5h198q137 0 279.5 29.5t285 77.5t282.5 110.5t272 128.5q-65 24 -115.5 43.5t-91 36t-73 31t-61.5 28.5h1q-48 23 -94 44t-89.5 37.5t-83.5 26.5t-75 10q-57 0 -105.5 -26.5t-86.5 -64t-65.5 -77.5t-42.5 -66q-32 14 -56 23.5t-53 22.5
q14 24 37 59.5t52 71.5q69 82 152 128t168 46q45 0 92.5 -10.5t96.5 -28.5t99.5 -41t102.5 -48q57 -26 108 -49.5t101.5 -44.5t102 -39.5t110.5 -35.5q5 -24 7.5 -37.5t7.5 -34.5q3 -13 5 -26t5 -27q-30 -14 -48 -23.5t-37 -20t-46 -25.5t-75 -39q-107 -53 -234 -107.5
t-265 -98.5t-283 -72t-287 -28h-198q-25 0 -42.5 17t-17.5 41zM765 -497l-134 134l133 133l134 -134z" />
    <glyph glyph-name="uniFEA0" unicode="&#x62c;" horiz-adv-x="1663" arabic-form="medial" 
d="M-59 97q0 24 17 41.5t42 17.5h183q138 0 264 26t244 67.5t230 94.5t221 107l109 54q-98 23 -174 56.5t-146 68.5q-48 24 -96 47t-94.5 41t-92 29t-87.5 11q-58 0 -106.5 -26.5t-86.5 -63.5t-65 -76.5t-42 -66.5l-107 49q14 23 36 59t51 71q35 38 74 70t80 55t83 35.5
t83 12.5q46 0 93.5 -10.5t96.5 -28.5t99.5 -41t101.5 -47q57 -27 110.5 -54t106 -49t107 -37.5t114.5 -19.5l27 -125q-14 -6 -20.5 -10.5t-19.5 -12.5t-38 -22t-74 -38q15 -52 44 -89t65.5 -62.5t77 -40t78.5 -22.5t70.5 -10t52.5 -2h6h8q25 0 42 -17.5t17 -41.5
q0 -25 -17 -41t-42 -16h-14q-92 0 -171 19.5t-142.5 57t-110 90.5t-73.5 121q-108 -54 -223.5 -106t-237 -92.5t-250 -65.5t-262.5 -25l-183 1q-25 0 -42 16t-17 41zM789 -495l-134 134l133 133l134 -134z" />
    <glyph glyph-name="uniFE9E" unicode="&#x62c;" horiz-adv-x="1696" arabic-form="final" 
d="M912 -751q-98 0 -190 20.5t-172 58.5t-146 92t-113 120.5t-73 144t-26 163.5q0 95 32.5 198.5t112.5 206.5q54 67 127.5 119t158.5 94h-1q58 26 137 50.5t169 44t186 32t188 14.5q-152 69 -259.5 118.5t-185 82t-130 48t-94.5 15.5q-54 0 -100.5 -18t-86.5 -48.5t-73 -71
t-59 -84.5l-91 51q30 58 71 110t92.5 91.5t113 63t132.5 23.5q65 0 135.5 -19.5t143.5 -51t147.5 -71t147 -80t142 -78t133.5 -64.5q-3 -13 -5 -23.5t-5 -23t-6.5 -30.5t-9.5 -46h-45h-32t-32.5 -1t-47.5 -2q-5 -31 -7.5 -60.5t1.5 -58.5t15 -57.5t34 -58.5q26 -35 60 -56
t77.5 -32.5t98.5 -15t123 -3.5q24 0 41.5 -17.5t17.5 -42.5q0 -24 -17.5 -40t-41.5 -16q-340 0 -452 153q-44 60 -64.5 135.5t1.5 158.5q-68 -9 -136 -20.5t-134 -27t-128 -35.5t-117 -45q-25 -12 -59 -32t-72 -48.5t-75.5 -66.5t-69.5 -84.5t-54.5 -103.5t-29.5 -123
q-1 -8 -1 -18.5v-18.5q0 -83 24 -152.5t66.5 -126t101 -99.5t127.5 -72t146 -44t156 -15q132 0 257 39.5t228 126.5q7 -8 12 -14.5t12.5 -16t19 -23.5t31.5 -38q-65 -51 -136.5 -85.5t-145.5 -55.5t-149 -30t-147 -9zM899 -254l-134 134l133 133l134 -134z" />
    <glyph glyph-name="uni062E" unicode="&#x62e;" horiz-adv-x="1633" arabic-form="isolated" 
d="M868 -630q139 0 264 38t246 119l67 -96q-137 -90 -285.5 -139.5t-321.5 -49.5q-97 0 -187.5 18t-170 52.5t-145.5 85.5t-112.5 116.5t-72.5 145.5t-25 173q0 114 40.5 214.5t114.5 185t178.5 150.5t233 111.5t278 67.5t313.5 18q-51 29 -98 62.5t-94 67.5t-96 66.5
t-104 57.5t-117.5 41.5t-137.5 19.5q-42 0 -88.5 -16.5t-90.5 -44t-83.5 -62.5t-67.5 -72q-10 6 -16 10t-14.5 10t-23 16t-41.5 28q34 51 81 97t104.5 80t124 54t140.5 20q78 0 149 -20t137 -53t129 -76t126.5 -88.5t128.5 -91t135 -83.5l-33 -138l-169 2
q-129 7 -253.5 -11.5t-236 -57.5t-207 -96t-166 -127t-113.5 -150t-50 -165q-1 -83 23 -152t67.5 -123.5t103 -95t130 -67t148.5 -39.5t158 -13zM609 1229l-134 134l133 133l134 -134z" />
    <glyph glyph-name="uniFEA7" unicode="&#x62e;" horiz-adv-x="1548" arabic-form="initial" 
d="M-61 98q0 25 17.5 41.5t42.5 16.5h198q137 0 279.5 29.5t285 77.5t282.5 110.5t272 128.5q-65 24 -115.5 43.5t-91 36t-73 31t-61.5 28.5h1q-48 23 -94 44t-89.5 37.5t-83.5 26.5t-75 10q-57 0 -105.5 -26.5t-86.5 -64t-65.5 -77.5t-42.5 -66q-32 14 -56 23.5t-53 22.5
q14 24 37 59.5t52 71.5q69 82 152 128t168 46q45 0 92.5 -10.5t96.5 -28.5t99.5 -41t102.5 -48q57 -26 108 -49.5t101.5 -44.5t102 -39.5t110.5 -35.5q5 -24 7.5 -37.5t7.5 -34.5q3 -13 5 -26t5 -27q-30 -14 -48 -23.5t-37 -20t-46 -25.5t-75 -39q-107 -53 -234 -107.5
t-265 -98.5t-283 -72t-287 -28h-198q-25 0 -42.5 17t-17.5 41zM597 1078l-134 134l133 133l134 -134z" />
    <glyph glyph-name="uniFEA8" unicode="&#x62e;" horiz-adv-x="1669" arabic-form="medial" 
d="M-59 97q0 24 17 41.5t42 17.5h183q138 0 264 26t244 67.5t230 94.5t221 107l109 54q-98 23 -174 56.5t-146 68.5q-48 24 -96 47t-94.5 41t-92 29t-87.5 11q-58 0 -106.5 -26.5t-86.5 -63.5t-65 -76.5t-42 -66.5l-107 49q14 23 36 59t51 71q35 38 74 70t80 55t83 35.5
t83 12.5q46 0 93.5 -10.5t96.5 -28.5t99.5 -41t101.5 -47q57 -27 110.5 -54t106 -49t107 -37.5t114.5 -19.5l27 -125q-14 -6 -20.5 -10.5t-19.5 -12.5t-38 -22t-74 -38q15 -52 44 -89t65.5 -62.5t77 -40t78.5 -22.5t70.5 -10t52.5 -2h6h8q25 0 42 -17.5t17 -41.5
q0 -25 -17 -41t-42 -16h-14q-92 0 -171 19.5t-142.5 57t-110 90.5t-73.5 121q-108 -54 -223.5 -106t-237 -92.5t-250 -65.5t-262.5 -25l-183 1q-25 0 -42 16t-17 41zM540 1091l-134 134l133 133l134 -134z" />
    <glyph glyph-name="uniFEA6" unicode="&#x62e;" horiz-adv-x="1707" arabic-form="final" 
d="M912 -751q-98 0 -190 20.5t-172 58.5t-146 92t-113 120.5t-73 144t-26 163.5q0 95 32.5 198.5t112.5 206.5q54 67 127.5 119t158.5 94h-1q58 26 137 50.5t169 44t186 32t188 14.5q-152 69 -259.5 118.5t-185 82t-130 48t-94.5 15.5q-54 0 -100.5 -18t-86.5 -48.5t-73 -71
t-59 -84.5l-91 51q30 58 71 110t92.5 91.5t113 63t132.5 23.5q65 0 135.5 -19.5t143.5 -51t147.5 -71t147 -80t142 -78t133.5 -64.5q-3 -13 -5 -23.5t-5 -23t-6.5 -30.5t-9.5 -46h-45h-32t-32.5 -1t-47.5 -2q-5 -31 -7.5 -60.5t1.5 -58.5t15 -57.5t34 -58.5q26 -35 60 -56
t77.5 -32.5t98.5 -15t123 -3.5q24 0 41.5 -17.5t17.5 -42.5q0 -24 -17.5 -40t-41.5 -16q-340 0 -452 153q-44 60 -64.5 135.5t1.5 158.5q-68 -9 -136 -20.5t-134 -27t-128 -35.5t-117 -45q-25 -12 -59 -32t-72 -48.5t-75.5 -66.5t-69.5 -84.5t-54.5 -103.5t-29.5 -123
q-1 -8 -1 -18.5v-18.5q0 -83 24 -152.5t66.5 -126t101 -99.5t127.5 -72t146 -44t156 -15q132 0 257 39.5t228 126.5q7 -8 12 -14.5t12.5 -16t19 -23.5t31.5 -38q-65 -51 -136.5 -85.5t-145.5 -55.5t-149 -30t-147 -9zM601 1229l-134 134l133 133l134 -134z" />
    <glyph glyph-name="uni0630" unicode="&#x630;" horiz-adv-x="1138" arabic-form="isolated" 
d="M545 41q-41 0 -95.5 9t-110.5 24t-106.5 33.5t-81.5 37.5l52 117q37 -20 82.5 -37.5t95.5 -31t101.5 -21.5t101.5 -8q79 0 149.5 22.5t116.5 78.5q33 40 33 101q0 49 -23 107t-61 117.5t-87 118t-99.5 109t-99 90.5t-86.5 63l56 104q57 -37 117 -86.5t116.5 -107.5
t106.5 -122.5t87.5 -132.5t59.5 -137.5t22 -136.5q0 -43 -12 -84t-39 -76q-86 -102 -237 -135q-33 -8 -73.5 -12t-85.5 -4zM463 1331l-134 134l133 133l134 -134z" />
    <glyph glyph-name="uniFEAC" unicode="&#x630;" horiz-adv-x="1247" arabic-form="final" 
d="M501 34q-103 0 -197 39.5t-169 111.5q6 9 11.5 17t12.5 19t17.5 26t27.5 38q75 -58 156 -94.5t154 -36.5q125 0 215 40.5t147 107.5q-76 186 -154.5 374.5t-156.5 374.5q9 4 17 7t19 7.5t28 11.5t45 19l72 -174q37 -91 95 -229.5t140 -337.5l-1 1q18 -46 35.5 -83
t45.5 -63t72 -40t116 -14q24 0 41.5 -16.5t17.5 -41.5t-17.5 -41.5t-41.5 -16.5q-60 0 -107.5 12t-85.5 32t-67.5 47.5t-53.5 57.5q-45 -38 -87.5 -67t-92 -48.5t-110.5 -29.5t-144 -10zM627 1335l-134 134l133 133l134 -134z" />
    <glyph glyph-name="uni0688" unicode="&#x688;" horiz-adv-x="1149" arabic-form="isolated" 
d="M553 41q-41 0 -95.5 9t-110.5 24t-106.5 33.5t-81.5 37.5l52 117q37 -20 82.5 -37.5t95.5 -31t101.5 -21.5t101.5 -8q79 0 149.5 22.5t116.5 78.5q33 40 33 101q0 49 -23 107t-61 117.5t-87 118t-99.5 109t-99 90.5t-86.5 63l56 104q57 -37 117 -86.5t116.5 -107.5
t106.5 -122.5t87.5 -132.5t59.5 -137.5t22 -136.5q0 -43 -12 -84t-39 -76q-86 -102 -237 -135q-33 -8 -73.5 -12t-85.5 -4zM726 1484q16 37 7 65q-11 34 -45 50q-21 10 -46 10q-13 0 -24 -3q-30 -8 -65 -27q-87 -47 -151 -130l-63 -81q58 -6 100 -6q76 0 115 8q59 12 104 41
q49 31 67 71zM805 1544q2 -59 -35 -114q-31 -45 -81 -76q-98 -60 -245 -60h-26q-147 5 -283 55l-5 2l32 62q59 -21 104 -32l61 82v2q0 2 1 12q1 11 1 23q2 35 3 53q1 107 -18 276q-3 22 -14 103l74 18q23 -178 29 -262q4 -60 4 -138q50 46 92 74q60 39 111 50q15 3 31 3
q54 0 99 -29q54 -35 63 -93q1 -2 1 -8z" />
    <glyph glyph-name="uniFB89" unicode="&#x688;" horiz-adv-x="1242" arabic-form="final" 
d="M501 34q-103 0 -197 39.5t-169 111.5q6 9 11.5 17t12.5 19t17.5 26t27.5 38q75 -58 156 -94.5t154 -36.5q125 0 215 40.5t147 107.5q-76 186 -154.5 374.5t-156.5 374.5q9 4 17 7t19 7.5t28 11.5t45 19l72 -174q37 -91 95 -229.5t140 -337.5l-1 1q18 -46 35.5 -83
t45.5 -63t72 -40t116 -14q24 0 41.5 -16.5t17.5 -41.5t-17.5 -41.5t-41.5 -16.5q-60 0 -107.5 12t-85.5 32t-67.5 47.5t-53.5 57.5q-45 -38 -87.5 -67t-92 -48.5t-110.5 -29.5t-144 -10zM847 1483q16 37 7 65q-11 34 -45 50q-21 10 -46 10q-13 0 -24 -3q-30 -8 -65 -27
q-87 -47 -151 -130l-63 -81q58 -6 100 -6q76 0 115 8q59 12 104 41q49 31 67 71zM926 1543q2 -59 -35 -114q-31 -45 -81 -76q-98 -60 -245 -60h-26q-147 5 -283 55l-5 2l32 62q59 -21 104 -32l61 82v2q0 2 1 12q1 11 1 23q2 35 3 53q1 107 -18 276q-3 22 -14 103l74 18
q23 -178 29 -262q4 -60 4 -138q50 46 92 74q60 39 111 50q15 3 31 3q54 0 99 -29q54 -35 63 -93q1 -2 1 -8z" />
    <glyph glyph-name="uni0632" unicode="&#x632;" horiz-adv-x="722" arabic-form="isolated" 
d="M468 600q16 -54 35.5 -123.5t36.5 -140.5t28 -136t11 -110q0 -80 -23 -155.5t-64 -145.5t-97.5 -134t-123.5 -121t-142 -106t-153 -90l-51 104q105 55 202 125.5t171.5 153.5t119.5 176t45 193q0 61 -10.5 122.5t-27 122t-35.5 118.5t-36 111l114 36v0zM399 924l-134 134
l133 133l134 -134z" />
    <glyph glyph-name="uniFEB0" unicode="&#x632;" horiz-adv-x="819" arabic-form="final" 
d="M585 69q0 -119 -50.5 -228.5t-134.5 -205t-192.5 -176t-224.5 -142.5q-10 20 -15.5 30t-13.5 28q-5 11 -11.5 22.5t-12.5 23.5q103 55 200 125t172 152.5t120.5 176t45.5 195.5q0 52 -10.5 112.5t-26.5 122.5t-35 123t-35 114l111 35q38 -111 76.5 -190.5t80.5 -130.5
t89 -75.5t102 -24.5h5q25 0 42 -17.5t17 -41.5q0 -25 -17 -41t-42 -16q-12 0 -42 1.5t-66 12t-73 32t-65 62.5l6 -79v0zM392 862l-134 134l133 133l134 -134z" />
    <glyph glyph-name="uni0691" unicode="&#x691;" horiz-adv-x="864" arabic-form="isolated" 
d="M468 600q16 -54 35.5 -123.5t36.5 -140.5t28 -136t11 -110q0 -80 -23 -155.5t-64 -145.5t-97.5 -134t-123.5 -121t-142 -106t-153 -90l-51 104q105 55 202 125.5t171.5 153.5t119.5 176t45 193q0 61 -10.5 122.5t-27 122t-35.5 118.5t-36 111l114 36v0zM644 995
q16 37 7 65q-11 34 -45 50q-21 10 -46 10q-13 0 -24 -3q-30 -8 -65 -27q-87 -47 -151 -130l-63 -81q58 -6 100 -6q76 0 115 8q59 12 104 41q49 31 67 71zM723 1055q2 -59 -35 -114q-31 -45 -81 -76q-98 -60 -245 -60h-26q-147 5 -283 55l-5 2l32 62q59 -21 104 -32l61 82v2
q0 2 1 12q1 11 1 23q2 35 3 53q1 107 -18 276q-3 22 -14 103l74 18q23 -178 29 -262q4 -60 4 -138q50 46 92 74q60 39 111 50q15 3 31 3q54 0 99 -29q54 -35 63 -93q1 -2 1 -8z" />
    <glyph glyph-name="uniFB8D" unicode="&#x691;" horiz-adv-x="822" arabic-form="final" 
d="M585 69q0 -119 -50.5 -228.5t-134.5 -205t-192.5 -176t-224.5 -142.5q-10 20 -15.5 30t-13.5 28q-5 11 -11.5 22.5t-12.5 23.5q103 55 200 125t172 152.5t120.5 176t45.5 195.5q0 52 -10.5 112.5t-26.5 122.5t-35 123t-35 114l111 35q38 -111 76.5 -190.5t80.5 -130.5
t89 -75.5t102 -24.5h5q25 0 42 -17.5t17 -41.5q0 -25 -17 -41t-42 -16q-12 0 -42 1.5t-66 12t-73 32t-65 62.5l6 -79v0zM618 1016q16 37 7 65q-11 34 -45 50q-21 10 -46 10q-13 0 -24 -3q-30 -8 -65 -27q-87 -47 -151 -130l-63 -81q58 -6 100 -6q76 0 115 8q59 12 104 41
q49 31 67 71zM697 1076q2 -59 -35 -114q-31 -45 -81 -76q-98 -60 -245 -60h-26q-147 5 -283 55l-5 2l32 62q59 -21 104 -32l61 82v2q0 2 1 12q1 11 1 23q2 35 3 53q1 107 -18 276q-3 22 -14 103l74 18q23 -178 29 -262q4 -60 4 -138q50 46 92 74q60 39 111 50q15 3 31 3
q54 0 99 -29q54 -35 63 -93q1 -2 1 -8z" />
    <glyph glyph-name="uni0698" unicode="&#x698;" horiz-adv-x="930" arabic-form="isolated" 
d="M576 570q16 -54 35.5 -123.5t36.5 -140.5t28 -136t11 -110q0 -80 -23 -155.5t-64 -145.5t-97.5 -134t-123.5 -121t-142 -106t-153 -90l-51 104q105 55 202 125.5t171.5 153.5t119.5 176t45 193q0 61 -10.5 122.5t-27 122t-35.5 118.5t-36 111l114 36v0zM677 1105
l134 -134l-132 -132l-134 134zM271 1107l134 -134l-132 -133l-134 134zM478 1378l133 -133l-132 -132l-133 133z" />
    <glyph glyph-name="uniFB8B" unicode="&#x698;" horiz-adv-x="871" arabic-form="final" 
d="M635 69q0 -119 -50.5 -228.5t-134.5 -205t-192.5 -176t-224.5 -142.5q-10 20 -15.5 30t-13.5 28q-5 11 -11.5 22.5t-12.5 23.5q103 55 200 125t172 152.5t120.5 176t45.5 195.5q0 52 -10.5 112.5t-26.5 122.5t-35 123t-35 114l111 35q38 -111 76.5 -190.5t80.5 -130.5
t89 -75.5t102 -24.5h5q25 0 42 -17.5t17 -41.5q0 -25 -17 -41t-42 -16q-12 0 -42 1.5t-66 12t-73 32t-65 62.5l6 -79v0zM644 1100l134 -134l-132 -132l-134 134zM238 1102l134 -134l-132 -133l-134 134zM445 1373l133 -133l-132 -132l-133 133z" />
    <glyph glyph-name="uni0634" unicode="&#x634;" horiz-adv-x="2681" arabic-form="isolated" 
d="M2412 869q16 -32 38.5 -82.5t43 -111t35 -127.5t14.5 -133q-1 -78 -18 -145t-53 -117t-92.5 -79t-136.5 -31q-84 -2 -147.5 42t-100.5 123q-27 -44 -60 -74.5t-70 -50t-76 -29.5t-77 -12q-57 -1 -101.5 13.5t-74.5 31.5q-36 20 -61 47v-90q0 -116 -28.5 -212t-79 -171.5
t-120 -130.5t-151 -89.5t-172 -49.5t-183.5 -10q-126 0 -227.5 34t-180.5 106q-47 42 -82 95t-58 113.5t-34.5 126t-11.5 131.5q0 138 39.5 269t114.5 256q21 -17 44 -31t46 -30q-27 -48 -50 -106t-39.5 -120.5t-26 -126.5t-9.5 -124q0 -47 6 -98t24 -101.5t50 -97
t84.5 -83.5t128 -62t179.5 -32q163 7 280 43.5t192.5 103t111 163t35.5 224.5q0 75 -13.5 143t-34.5 131.5t-47 124t-52 119.5q30 17 52 29t50 28q1 -4 3 -8.5t5 -11.5l37 -83q27 -63 61 -124.5t76.5 -110t95 -78.5t116.5 -31q70 4 114 36.5t69 91t33.5 141.5t8.5 188l114 8
q1 -27 2.5 -73t8 -98.5t18.5 -106.5t34.5 -97.5t57 -71t84.5 -27.5q43 0 76.5 23.5t56.5 62.5t34.5 89t9.5 103q-3 54 -15 107t-29 102t-36 92t-36 76l101 61v0zM2098 1275l134 -134l-132 -132l-134 134zM1692 1277l134 -134l-132 -133l-134 134zM1899 1548l133 -133
l-132 -132l-133 133z" />
    <glyph glyph-name="uniFEB7" unicode="&#x634;" horiz-adv-x="1609" arabic-form="initial" 
d="M-55 99q0 23 16.5 40t39.5 17q55 0 102.5 22t87.5 59t72 86t57 102.5t43 109t29 105.5l115 -23q-9 -29 -19 -64.5t-19 -74t-14.5 -77t-5.5 -72.5q0 -35 6.5 -67.5t23 -58t45.5 -41t73 -15.5q55 0 99.5 26t79 68.5t60.5 97t45 113t31.5 115.5t20.5 104q9 -2 16 -3.5t18 -4
t29 -6t48 -9.5l-9.5 -57t-11 -70t-9 -74.5t-3.5 -68.5q0 -45 8 -87.5t29 -75t57.5 -52t92.5 -19.5q49 0 84.5 16.5t59 45.5t34.5 68.5t11 85.5q0 54 -12.5 115t-31 120t-40 112.5t-39.5 91.5q30 16 53 29t50 27q16 -33 40 -88t46 -121.5t37.5 -139.5t15.5 -143
q0 -77 -21.5 -139t-64.5 -106t-108 -67.5t-152 -22.5q-33 0 -72.5 14t-75.5 41t-63.5 65.5t-37.5 86.5q-19 -45 -53 -83.5t-76.5 -66t-90.5 -43t-94 -14.5q-53 1 -95 18t-73 45t-50 65.5t-25 80.5q-28 -43 -65 -79t-82 -62.5t-97 -41t-110 -14.5q-23 2 -39 19t-16 40z
M1133 1288l134 -134l-132 -132l-134 134zM727 1290l134 -134l-132 -133l-134 134zM934 1561l133 -133l-132 -132l-133 133z" />
    <glyph glyph-name="uniFEB8" unicode="&#x634;" horiz-adv-x="1876" arabic-form="medial" 
d="M-54 98q0 23 18.5 39.5t41.5 18.5h8q54 0 101.5 26.5t88 70t74 98.5t59.5 112t44.5 111.5t29.5 96.5l113 -31q-8 -36 -18.5 -83.5t-18 -98.5t-9 -101.5t9.5 -92t36.5 -70t72.5 -36.5q58 -10 105 16t84 73.5t64.5 109.5t47.5 123.5t32.5 115.5t19.5 87q32 -6 58.5 -11.5
t55.5 -10.5q-8 -48 -13 -99.5t-5 -112.5q0 -28 2.5 -61t9 -65t18.5 -61.5t31.5 -52.5t47.5 -36.5t66 -13.5q48 0 82 22t57 58t36.5 81.5t20.5 93.5t9 94t2 82q0 23 -1.5 46t-3.5 47q34 2 61.5 5t57.5 6q4 -57 14.5 -121t36.5 -145q89 -272 259 -272h8q25 0 41.5 -16.5
t16.5 -41.5q0 -24 -16.5 -41t-41.5 -17h-8q-63 0 -118.5 21.5t-100 57t-75.5 82t-45 97.5q-8 -53 -31.5 -100t-61 -82t-88 -55.5t-111.5 -20.5q-58 0 -103 16.5t-79 47t-57.5 74.5t-38.5 99q-22 -50 -53 -94t-71 -76.5t-89 -51t-107 -18.5q-99 0 -166.5 60t-91.5 181
q-28 -46 -63.5 -89t-79 -76t-95.5 -53t-113 -20h-9q-24 0 -41.5 17t-17.5 41zM1201 1258l134 -134l-132 -132l-134 134zM795 1260l134 -134l-132 -133l-134 134zM1002 1531l133 -133l-132 -132l-133 133z" />
    <glyph glyph-name="uniFEB6" unicode="&#x634;" horiz-adv-x="2889" arabic-form="final" 
d="M2891 156q24 0 41.5 -17t17.5 -42q0 -24 -17.5 -40.5t-41.5 -16.5h-20q-64 0 -117 20.5t-95 55t-73.5 81t-52.5 98.5q-14 -52 -38 -98.5t-59.5 -81.5t-83.5 -55.5t-111 -20.5q-31 0 -66.5 9.5t-69 29.5t-63 50t-48.5 71q-57 -85 -126 -122.5t-157 -37.5q-60 0 -102 12
t-70 26q-31 15 -55 38q-2 -183 -53 -321.5t-143 -231.5t-222 -139.5t-290 -46.5q-8 0 -17 0.5t-17 0.5q-121 0 -225.5 37t-182.5 103h1q-34 31 -63.5 70t-52.5 83t-39 92t-23 98q-9 60 -9 114q0 91 15 168.5t34 137.5q23 78 50.5 138.5t50.5 99.5q16 -12 27.5 -21t21.5 -17
t20.5 -15.5l24.5 -17.5q-19 -32 -41 -83.5t-40.5 -115.5t-31 -136t-12.5 -145q0 -49 6 -91q4 -29 14.5 -68t32.5 -81.5t58 -83.5t90 -74t129 -53t176 -20q161 4 274 47.5t183.5 120t102.5 183t32 236.5q0 111 -27.5 219t-80.5 233l106 56q17 -43 33.5 -91.5t36 -96.5
t44 -92.5t57 -78.5t74.5 -54t98 -20q57 0 97.5 20.5t67.5 55.5t43 81.5t24.5 99t11.5 107.5t5 108l124 -8l-7 -133q0 -49 6 -107.5t24.5 -109.5t52.5 -85t90 -34q57 0 97.5 33.5t66 86t36 116.5t6.5 124q-2 37 -3 75.5t-6 96.5l124 8q5 -57 11.5 -117.5t26.5 -136.5
q38 -139 109 -211t158 -72h20v0zM2196 1183l134 -134l-132 -132l-134 134zM1790 1185l134 -134l-132 -133l-134 134zM1997 1456l133 -133l-132 -132l-133 133z" />
    <glyph glyph-name="uni0636" unicode="&#x636;" horiz-adv-x="2894" arabic-form="isolated" 
d="M1285 -463q-51 -44 -118 -75t-142.5 -48.5t-155.5 -21.5t-158.5 5t-151 31.5t-131.5 57.5q-57 33 -98.5 79t-72.5 106v-1q-41 92 -49 196t7.5 209.5t50.5 207.5t81 189q29 -18 50.5 -32.5t47.5 -31.5q-35 -66 -65.5 -154t-46.5 -182t-11 -185.5t41 -164.5
q45 -90 144.5 -142.5t240.5 -66.5q63 -7 128 -3.5t125.5 18t114 39.5t92.5 61q49 46 82 98t52.5 106t28 107.5t8.5 103.5q0 75 -12.5 152t-30 147.5t-37.5 130.5t-35 101l109 42q55 -130 108 -219q18 -28 39 -52t42.5 -43.5t41 -34t34.5 -23.5q33 61 78.5 127.5t101 130
t120 121t135.5 100.5t147 68.5t156 25.5q75 0 147.5 -27t129 -76t89.5 -116t29 -148q-3 -49 -19 -95.5t-41.5 -88.5t-60.5 -79t-75 -65v1q-59 -35 -121 -58t-123 -36t-120.5 -18t-113.5 -5q-87 0 -164 10.5t-149.5 34t-144 61t-148.5 90.5q4 -92 1.5 -181.5t-23 -173.5
t-64 -162.5t-120.5 -148.5v1zM1738 196q96 -41 185 -56.5t181 -15.5q52 0 107 6t108 18.5t101.5 30.5t88.5 42q31 21 58.5 46.5t48.5 55.5t34.5 63.5t16.5 69.5q4 55 -21.5 99t-68 75.5t-95 49t-102.5 19.5q-66 -1 -131 -23.5t-126 -60t-117 -87t-105.5 -105t-90.5 -114
t-72 -113.5zM2274 1117l-134 134l133 133l134 -134z" />
    <glyph glyph-name="uniFEBF" unicode="&#x636;" horiz-adv-x="1894" arabic-form="initial" 
d="M696 129q44 -11 107.5 -17t138.5 -6t156 7.5t159 25t149 45t125.5 67.5t87.5 93.5t36 122.5q3 58 -22.5 105t-66 79.5t-90 50t-94.5 17.5q-51 0 -101 -15.5t-98.5 -41.5t-94.5 -60.5t-89 -72.5q-47 -44 -95.5 -102t-90.5 -115.5t-73 -106.5t-44 -76zM-59 98
q0 25 17.5 41.5t41.5 16.5q67 0 114.5 11t80.5 27.5t53.5 36t33.5 36.5q40 54 58.5 122.5t34.5 147.5q6 32 12 62.5t13 57.5l114 -34q-14 -54 -21 -114.5t0 -119.5t31.5 -113.5t73.5 -96.5q16 36 46.5 88t72 110.5t93 120t108.5 115.5q49 47 106.5 88t119 71t125.5 47
t127 17q74 0 140.5 -25t116.5 -72.5t79.5 -115.5t29.5 -153q0 -78 -36 -157t-107 -136q-65 -53 -140.5 -85t-156 -51t-162.5 -27t-159 -12q-102 -6 -193.5 -1t-168 30t-136.5 74.5t-99 132.5q-75 -103 -171 -150t-224 -48h-9q-24 0 -41.5 16.5t-17.5 41.5zM1299 1117
l-134 134l133 133l134 -134z" />
    <glyph glyph-name="uniFEC0" unicode="&#x636;" horiz-adv-x="1931" arabic-form="medial" 
d="M-59 97q0 25 17 42t41 17h9q66 2 109.5 9t69.5 19q54 28 95 82q38 51 61 120t43 162q9 42 13.5 65t10.5 44l112 -35q-11 -38 -20 -82t-9 -93q0 -27 2.5 -60.5t14 -68.5t35 -69.5t65.5 -64.5q31 65 74 134t95.5 135t113.5 126.5t128.5 110t141 84.5t151.5 50q47 10 99 10
q74 0 141.5 -23.5t119 -67.5t81.5 -109t29 -147q-1 -39 -14 -85t-37.5 -91t-59.5 -86t-80 -69h340q25 0 42.5 -17t17.5 -42t-17.5 -41t-42.5 -16l-252 -1q-105 0 -171 6.5t-108 26.5q-109 -30 -215.5 -46.5t-200.5 -16.5q-26 0 -71.5 2.5t-101 11t-115.5 24.5t-114 43
t-97.5 67t-65.5 96q-98 -129 -188 -170q-86 -43 -234 -43q-24 0 -41 16t-17 41zM727 156q30 -9 57 -15t57 -9.5t65 -5t81 -1.5q78 0 158 7.5t155.5 24.5t142.5 45.5t118 69.5q48 38 79.5 89.5t34.5 123.5q3 58 -19 101.5t-58.5 72.5t-83.5 43t-93 14q-22 0 -43 -2t-42 -5
q-68 -11 -131 -40.5t-120 -71.5t-108.5 -94.5t-96.5 -110.5t-83.5 -118.5t-69.5 -117.5zM1354 1095l-134 134l133 133l134 -134z" />
    <glyph glyph-name="uniFEBE" unicode="&#x636;" horiz-adv-x="2867" arabic-form="final" 
d="M1699 192q100 -39 190.5 -54.5t183.5 -15.5q52 0 111.5 6.5t119.5 22t115 40.5t97 63t67.5 90t25.5 120q0 43 -13 81t-41 68q-45 48 -98.5 66.5t-110.5 18.5q-56 0 -109 -15t-102.5 -41t-95.5 -60.5t-89 -74.5q-39 -37 -77.5 -81t-72 -87t-60 -81.5t-41.5 -65.5zM2868 40
q-44 0 -86.5 8.5t-80.5 23t-69 33.5t-52 40q-66 -42 -131 -68.5t-125.5 -41.5t-115.5 -21.5t-101 -7.5q-12 -1 -23 -1h-23q-97 0 -192.5 16.5t-171.5 43.5q-46 18 -108 53t-135 87v-8t0.5 -15.5t0.5 -16v-8.5q1 -12 2 -29t2 -34.5t1.5 -33t0.5 -25.5v-25.5t-2 -26.5
q-11 -133 -58 -242q-28 -57 -67.5 -111.5t-84.5 -94.5v1q-87 -69 -199.5 -107.5t-248.5 -38.5q-21 0 -46.5 1t-49.5 3q-91 11 -171.5 33t-140.5 58q-115 67 -172 185q-54 115 -53 262q1 63 9.5 126t26.5 130q11 45 25 87t28 78.5t28 67t25 52.5l67 -43l34 -22
q-15 -32 -36.5 -84.5t-41.5 -117.5t-34 -137.5t-14 -144.5q0 -54 10.5 -106t31.5 -97q48 -87 145 -142.5t241 -67.5q20 -2 41.5 -2.5t41.5 -0.5q234 0 377 117q46 40 77 87t50.5 95.5t28.5 96t12 88.5q1 13 1.5 26.5t0.5 27.5q0 74 -13 152.5t-31.5 150t-38 130t-32.5 93.5
l111 44q38 -85 73.5 -145t68.5 -111q14 -21 42 -50t79 -67q21 39 50 83.5t63.5 90t74 90t81.5 85.5q46 45 99.5 86t113.5 72t125 49.5t133 18.5q82 0 160.5 -31t133.5 -91q45 -54 68 -116t23 -128q0 -54 -16 -109t-49 -110q10 -13 32 -26.5t50 -25t58.5 -18.5t57.5 -7h8
q25 0 42 -17t17 -42q0 -24 -17 -40.5t-42 -16.5zM2296 1069l-134 134l133 133l134 -134z" />
    <glyph glyph-name="uni0638" unicode="&#x638;" horiz-adv-x="1787" arabic-form="isolated" 
d="M856 40q-33 0 -64.5 1t-61.5 3h-3q-137 9 -285.5 39.5t-297.5 84.5l42 109q113 -41 253 -76q10 15 28 41t40.5 56.5t47 63.5t47.5 62q7 50 11 90.5t5.5 77t2 71t0.5 71.5q0 42 -3.5 110t-9.5 147t-13 161.5t-14 154.5t-13.5 125t-10.5 74l114 25q3 -31 9.5 -87t14 -130.5
t15.5 -163t14.5 -184.5t11 -195.5t4.5 -195.5q54 57 119 114t137.5 102.5t151 74t160.5 28.5q63 0 125 -18t112.5 -53.5t83 -89t36.5 -123.5q3 -48 -8 -97t-30 -93t-43.5 -80.5t-49.5 -61.5q-73 -72 -162 -118.5t-180.5 -73t-178.5 -36.5t-157 -10zM566 176q35 -3 69 -7
t69.5 -7t73.5 -5t82 -1q68 0 143 3.5t152.5 22.5t154.5 58t149 110q21 21 41.5 50.5t35.5 63t22.5 68.5t1.5 67q-9 46 -34 79.5t-60 54.5t-76 31t-81 10q-78 0 -153 -31t-145 -80.5t-133 -110t-118 -119.5zM1299 1205l-134 134l133 133l134 -134z" />
    <glyph glyph-name="uniFEC7" unicode="&#x638;" horiz-adv-x="1520" arabic-form="initial" 
d="M531 156q73 0 153.5 3t165 20.5t171.5 55.5t173 109q27 23 50.5 53t39.5 64t22.5 71t-0.5 75q-8 42 -32.5 73.5t-59 52t-75 30.5t-80.5 10q-16 0 -29.5 -1.5t-26.5 -3.5q-70 -17 -137.5 -52t-131.5 -82.5t-124 -105t-115 -120t-103.5 -127t-89.5 -125.5h229zM-62 98
q0 23 18 40.5t41 17.5h9h167q23 38 62 99t99 149q12 69 18 166t7 228q0 60 -1.5 132t-6 159t-11.5 191t-18 229l118 25q10 -83 18 -172.5t13 -182t8 -185.5t3 -183q0 -18 -0.5 -51.5t-1.5 -70t-1.5 -70t-0.5 -52.5q152 141 279 219.5t230 97.5h-1q38 7 84 7q69 0 132.5 -21
t117.5 -72h-1q37 -39 60.5 -86.5t28.5 -105.5q4 -50 -7.5 -99.5t-31.5 -94t-46 -82t-51 -64.5l2 1q-85 -75 -174 -120t-176.5 -69t-170.5 -31.5t-155 -7.5l-592 1h-9q-23 0 -41 16.5t-18 41.5zM1048 1210l-134 134l133 133l134 -134z" />
    <glyph glyph-name="uniFEC8" unicode="&#x638;" horiz-adv-x="1570" arabic-form="medial" 
d="M484 155q94 0 187.5 1.5t184.5 18.5t177.5 55.5t166.5 113.5q22 21 42.5 50.5t36 64t23 71t3.5 69.5q-7 51 -36.5 86t-71.5 55.5t-90 27t-93 0.5q-54 -7 -133 -44t-172.5 -110.5t-195.5 -186.5t-201 -271zM-66 98q0 25 16.5 41.5t41.5 16.5h8h167q25 41 47 73t42.5 59.5
t40.5 52.5t41 53q16 22 23 93.5t7 171.5q0 64 -2 139t-5.5 154.5t-8.5 159t-10.5 152.5t-11.5 135.5t-12 107.5q33 6 58.5 11.5t56.5 10.5q13 -90 23.5 -190.5t17.5 -218t11 -255t4 -300.5q35 32 76.5 68.5t88 72t96 68.5t101.5 57.5t105 39.5t105 15q62 0 124.5 -18.5
t113 -54t83.5 -88t36 -120.5q4 -92 -18 -159.5t-59.5 -120t-86.5 -93t-98 -76.5h433q25 0 41.5 -16t16.5 -41q0 -24 -16.5 -41t-41.5 -17q-20 0 -40.5 -0.5t-48 -0.5t-66 -0.5t-93.5 -0.5q-85 0 -185 7.5t-197 37.5q-103 -30 -189.5 -37t-164.5 -7h-613q-25 0 -41.5 16.5
t-16.5 41.5zM1057 1221l-134 134l133 133l134 -134z" />
    <glyph glyph-name="uniFEC6" unicode="&#x638;" horiz-adv-x="1868" arabic-form="final" 
d="M947 40q-21 -1 -40.5 -1h-39.5q-23 0 -49.5 0.5t-76.5 3.5h-3q-137 9 -285.5 39.5t-297.5 84.5l20 53q5 15 10.5 28t11.5 28q113 -41 253 -76q10 15 26 38t35.5 49.5t40.5 54t41 53.5l26 38q11 70 13.5 160t-1 189t-11.5 201.5t-17.5 197.5t-19 178t-16.5 143l115 27
q30 -230 46.5 -464.5t22.5 -490.5q54 51 119.5 107.5t138.5 103.5t152 78t160 31q61 0 123.5 -20.5t113.5 -57.5t83.5 -90t34.5 -117q2 -78 -20.5 -147t-61.5 -127t-90 -103.5t-106 -75.5h93h369h8q25 0 41.5 -16.5t16.5 -41.5q0 -24 -16.5 -41t-41.5 -17h-921zM572 169
q180 -8 323 -1t253.5 31t190 66t132.5 105q19 20 36.5 47t30.5 58.5t19.5 65t2.5 66.5q-6 50 -35 84t-70 54t-89 26t-92 0q-109 -17 -235.5 -105t-267.5 -244zM1283 1222l-134 134l133 133l134 -134z" />
    <glyph glyph-name="uni063A" unicode="&#x63a;" horiz-adv-x="1477" arabic-form="isolated" 
d="M828 -755q-70 0 -143 11.5t-143.5 37.5t-137 68t-123.5 103q-69 75 -105 170.5t-36 201.5t36.5 205.5t105.5 187.5v-1q32 39 72.5 76t86 70.5t94.5 61.5t99 49l97 32q-66 26 -109.5 64t-69 81.5t-35.5 90t-10 90.5q0 79 32 148t85.5 121.5t124 84t147.5 35.5
q48 2 97 -8.5t95.5 -30t90.5 -47t82 -60.5l-74 -92q-20 19 -42.5 35t-46.5 30q-42 24 -93 42t-106 14q-58 -5 -111.5 -27t-93.5 -59.5t-62 -89.5t-17 -116q5 -65 39.5 -107.5t85 -68t111 -36t117.5 -10.5q25 0 52.5 1.5t52.5 5.5q75 10 127.5 21t71.5 19l18 -130
q-29 -5 -55 -9.5t-51.5 -9t-52 -9t-56.5 -9.5q-89 -15 -155 -30t-119 -31.5t-97.5 -35t-90.5 -40.5q-27 -14 -62.5 -36t-73.5 -54t-75.5 -73t-68 -92.5t-51 -114t-24.5 -135.5q0 -114 48 -201t127.5 -146.5t183 -89.5t215.5 -30q126 0 249.5 36.5t229.5 114.5l70 -101
q-71 -51 -144 -85.5t-143.5 -55t-138 -29t-127.5 -8.5zM888 1432l-134 134l133 133l134 -134z" />
    <glyph glyph-name="uniFECF" unicode="&#x63a;" horiz-adv-x="1089" arabic-form="initial" 
d="M872 662q-24 16 -48 30.5t-49 27.5q-43 22 -93.5 40.5t-98.5 18.5q-68 0 -119.5 -23t-86 -61.5t-52 -88.5t-17.5 -103q0 -71 31.5 -129.5t84.5 -99.5t121.5 -62t142.5 -18q42 3 81.5 7t74 8.5t63 9.5t47.5 9q4 -34 7 -58t7 -55q-55 -14 -125 -27t-160.5 -23.5
t-205.5 -16.5t-259 -6l-218 -2q-25 0 -42.5 16.5t-17.5 41.5t17.5 41.5t42.5 16.5l386 4q-54 49 -91 93.5t-60 86.5t-33 82t-10 81q0 79 29.5 150.5t81.5 125t124 85t156 31.5q67 0 125 -16t104.5 -38.5t80 -47t52.5 -41.5l-73 -90v0zM504 1198l-134 134l133 133l134 -134z
" />
    <glyph glyph-name="uniFED0" unicode="&#x63a;" horiz-adv-x="1144" arabic-form="medial" 
d="M1135 156q24 0 41.5 -17.5t17.5 -42.5q0 -24 -17.5 -40.5t-41.5 -16.5q-155 0 -290 30t-252 99q-66 -32 -142 -56t-154.5 -40.5t-157 -24.5t-149.5 -8q-24 0 -41.5 16.5t-17.5 40.5q0 25 17.5 42.5t41.5 17.5q53 0 116.5 6t129 17.5t128.5 28t115 37.5q-46 42 -84.5 81
t-73 77t-65.5 74.5t-62 73.5l-74 87q2 29 5 53.5t5 53.5q44 37 94.5 63t100.5 44t97.5 28t85.5 15q22 2 45 3.5t42 1.5q72 0 142 -13.5t127 -36.5q43 -20 70.5 -43.5t44 -46.5t23 -44t6.5 -36q5 -42 -21.5 -99.5t-72 -119t-103.5 -121t-116 -104.5q105 -40 219.5 -60
t220.5 -20zM588 306q36 17 72.5 46.5t70 66t62.5 76.5t50.5 77.5t34 69.5t12.5 53q-66 45 -145 66.5t-160 21.5q-78 0 -166 -24.5t-179 -78.5q99 -120 181.5 -214t166.5 -160zM598 1185l-134 134l133 133l134 -134z" />
    <glyph glyph-name="uniFECE" unicode="&#x63a;" horiz-adv-x="1351" arabic-form="final" 
d="M657 -627q73 -9 148.5 -9t149.5 12t145.5 36t136.5 63q17 -28 30 -51.5t30 -49.5q-106 -64 -230 -97t-256 -33q-92 0 -181.5 17.5t-171 54.5t-151.5 94t-122 137v-1q-29 48 -48 108.5t-19 126.5q0 69 20 134.5t49 117.5t75.5 100.5t104.5 91t124.5 79t135.5 64.5
q-50 44 -91.5 84.5t-77.5 77t-67.5 71t-61.5 66.5l-10 95q30 42 72 72.5t87 52t88.5 35.5t76.5 22l-1 -1q109 23 204 23q52 0 99.5 -6.5t89.5 -20.5q93 -28 138 -82.5t47 -127.5q2 -78 -37.5 -143.5t-102.5 -119.5q-37 -29 -95 -62.5t-130 -66.5q64 -39 124.5 -72t121 -57.5
t121.5 -38t127 -13.5q24 -1 40.5 -18t16.5 -41q0 -25 -16.5 -41t-40.5 -17q-79 0 -156.5 18t-154.5 50.5t-154.5 78t-155.5 99.5q-56 -22 -114.5 -49t-113.5 -60t-103.5 -72t-84.5 -86.5t-57 -103t-21 -120.5q0 -56 20.5 -107.5t55 -96t78.5 -82t91 -65.5t93 -46t85 -24z
M438 722q73 -78 146.5 -152.5t161.5 -147.5q86 35 154.5 68.5t116.5 69.5t73.5 77t25.5 91q0 20 -11.5 36t-28.5 28t-37 21t-37 15q-36 11 -74.5 16t-80.5 5q-50 0 -103 -8.5t-106.5 -24.5t-104 -39.5t-95.5 -54.5zM753 1208l-134 134l133 133l134 -134z" />
    <glyph glyph-name="uniFB90" unicode="&#x6a9;" horiz-adv-x="936" arabic-form="initial" 
d="M-79 97q0 26 19 42.5t49 16.5h56h49q64 0 127 1.5t120 10t106 26.5t84.5 50t56 81t20.5 120q0 51 -16 109q-12 43 -54.5 107.5t-105.5 138t-141 150t-161 144.5q1 15 2.5 29t4 32t5.5 41.5t7 57.5q116 50 217 93t193.5 82.5t178.5 76t172 73.5q11 -27 25 -53t25 -55
l-740 -310q31 -27 65.5 -56.5t69 -61t68 -64t63.5 -65.5q66 -73 110.5 -140t72 -127.5t39 -115t11.5 -102.5q0 -74 -23 -137.5t-65.5 -113.5t-103 -84t-136.5 -48q-19 -4 -39 -5.5t-40 -1.5l-323 1q-29 0 -48.5 16.5t-19.5 40.5z" />
    <glyph glyph-name="uniFB91" unicode="&#x6a9;" horiz-adv-x="1169" arabic-form="medial" 
d="M-58 98q0 24 17.5 41t41.5 17h9h330q46 0 92 19.5t84 51.5t64 72t32 82q3 59 -16.5 124t-55 130.5t-82.5 129.5t-98.5 122.5t-104.5 108.5t-99 88q5 45 10 88.5t12 88.5q210 90 411.5 177.5t411.5 177.5q11 -27 24 -53t25 -55l-813 -352q104 -84 175 -159t122 -145.5
t88 -138t73 -135.5q30 -57 55 -103t51 -88q32 -53 68 -95t78.5 -71.5t93.5 -46t113 -18.5h44q25 0 41.5 -17t16.5 -41q0 -25 -16.5 -41.5t-41.5 -16.5h-8q-69 0 -121 8.5t-100 24.5h1q-32 12 -65 34t-65.5 51t-64 63.5t-60.5 71.5q-60 -111 -108 -156h1q-30 -27 -63.5 -44.5
t-69.5 -28.5t-74 -16.5t-76 -7.5h1h-325q-24 0 -41.5 16.5t-17.5 41.5z" />
    <glyph glyph-name="uni0641" unicode="&#x641;" horiz-adv-x="1953" arabic-form="isolated" 
d="M1684 987q33 -37 62.5 -88t51 -111t34.5 -127t13 -137q0 -39 -3 -81t-16 -81q-26 -70 -73 -121t-111 -87t-142 -58t-166 -34.5t-184 -17t-195 -4.5q-583 0 -750 285q-34 57 -47.5 116.5t-13.5 116.5q0 48 5 88t12.5 71.5t16.5 56.5t18 43l104 -58q-14 -34 -26 -81
t-12 -119q0 -43 11.5 -88t34.5 -87q66 -106 220 -161.5t396 -65.5q22 -1 43.5 -1h41.5q127 0 245 12.5t215 42.5t166.5 80.5t99.5 127.5q-61 -13 -104 -17t-78 -4q-103 0 -184 30t-132 87q-21 23 -37 64t-16 102q0 43 9 90.5t26 93t42.5 87t57.5 72.5t71 49.5t84 18.5
q115 0 210 -105zM1734 532q-2 66 -17.5 138.5t-46.5 135.5t-77.5 109t-110.5 60q-26 3 -59.5 -21.5t-64.5 -65t-52 -91t-21 -99.5q0 -32 6.5 -60t23.5 -51q18 -23 44.5 -38t58 -24.5t66 -13.5t67.5 -4q45 0 93 7t90 18zM1483 1332l-134 134l133 133l134 -134z" />
    <glyph glyph-name="uniFED3" unicode="&#x641;" horiz-adv-x="903" arabic-form="initial" 
d="M428 967q-19 0 -48 -15.5t-58 -45.5t-54 -74t-35 -102q-3 -11 -3.5 -22t-0.5 -23q0 -27 7 -53.5t24 -45.5h-1q12 -15 34 -28t50 -23.5t59.5 -17.5t62.5 -9q26 -2 50.5 -2h46.5q21 0 50 0.5t80 5.5q-4 61 -16.5 118t-31 107.5t-42.5 92.5t-51 72q-10 11 -23.5 22.5t-29 21
t-33.5 15.5t-37 6zM-61 98q0 25 17.5 41.5t42.5 16.5q143 0 253 11.5t193.5 38.5t145 71.5t107.5 110.5h-192q-49 0 -95.5 8t-87.5 24t-75 38t-58 51q-12 11 -21.5 30.5t-16 43.5t-10 51.5t-3.5 54.5q0 14 1.5 28.5t3.5 28.5q13 70 38.5 130.5t60.5 105.5q39 51 86.5 77
t98.5 26q114 0 210 -105q38 -42 68 -95.5t51 -114t32 -126.5t11 -133q0 -95 -29 -167.5t-81.5 -125t-125.5 -87.5t-160 -55.5t-186 -28.5t-204 -7h-17q-24 0 -41 17t-17 41zM398 1337l-134 134l133 133l134 -134z" />
    <glyph glyph-name="uniFED4" unicode="&#x641;" horiz-adv-x="1019" arabic-form="medial" 
d="M508 781q-33 0 -74 -17t-76 -51.5t-59 -86.5t-24 -123q0 -29 16 -69t46.5 -79.5t76 -73.5t105.5 -52q48 21 84.5 53t61 69t37.5 77t13 78q0 52 -19 101.5t-49 88t-66.5 62t-72.5 23.5zM-58 98q0 25 16.5 41.5t41.5 16.5q36 0 83 2t98 5t102 8t96 11q-50 22 -88.5 62.5
t-64.5 86t-39.5 91t-13.5 78.5q0 70 25.5 139.5t70.5 125.5t106.5 92.5t133.5 40.5q73 -6 131 -39t98 -84t61.5 -114.5t21.5 -130.5q0 -78 -37 -163.5t-118 -172.5q46 -10 94 -17t93.5 -11.5t87.5 -7t77 -2.5q26 0 42.5 -16.5t16.5 -41.5t-16.5 -41.5t-42.5 -16.5h-9
q-60 0 -128.5 4.5t-126.5 13.5q-63 10 -120.5 23t-111.5 32q-97 -37 -230 -55t-284 -18h-8q-25 0 -41.5 16.5t-16.5 41.5zM457 1213l-134 134l133 133l134 -134z" />
    <glyph glyph-name="uniFED2" unicode="&#x641;" horiz-adv-x="2101" arabic-form="final" 
d="M1938 528q-3 -56 -15 -101t-32.5 -84t-49.5 -75t-66 -74q97 -17 180.5 -27.5t152.5 -10.5q24 0 41.5 -16.5t17.5 -41.5q0 -24 -17.5 -41t-41.5 -17q-126 0 -244.5 18.5t-224.5 55.5l-75 -24q-48 -18 -115.5 -31.5t-146.5 -22.5t-166.5 -13.5t-174.5 -4.5
q-297 1 -488.5 71t-276.5 214q-35 57 -48 116.5t-13 117.5q0 47 6.5 88.5t15.5 76.5t19.5 62.5t19.5 47.5l104 -58q-16 -36 -32 -92t-16 -126q0 -45 11.5 -89t34.5 -86q33 -54 84.5 -95t126 -69.5t172.5 -44t224 -18.5h5q27 -1 53 -1.5t49 -0.5q142 0 257.5 15.5t215.5 35.5
q-47 27 -83.5 67.5t-62 85t-38.5 88.5t-13 77q0 69 25 139.5t70 128t106.5 93.5t133.5 36q76 0 131.5 -27.5t93.5 -76.5t59.5 -117t30.5 -149zM1623 244q61 26 102 58.5t66 69t35.5 76.5t10.5 80q0 57 -13 98t-33.5 68.5t-45.5 44.5t-49 25.5t-43.5 11.5t-29.5 3
q-35 0 -74.5 -17.5t-73.5 -53t-56.5 -88.5t-22.5 -124q0 -29 15.5 -65.5t44.5 -72.5t71.5 -67t95.5 -47zM1584 1202l-134 134l133 133l134 -134z" />
    <glyph glyph-name="uniFB6A" unicode="&#x6a4;" horiz-adv-x="1959" arabic-form="isolated" 
d="M1684 987q33 -37 62.5 -88t51 -111t34.5 -127t13 -137q0 -39 -3 -81t-16 -81q-26 -70 -73 -121t-111 -87t-142 -58t-166 -34.5t-184 -17t-195 -4.5q-583 0 -750 285q-34 57 -47.5 116.5t-13.5 116.5q0 48 5 88t12.5 71.5t16.5 56.5t18 43l104 -58q-14 -34 -26 -81
t-12 -119q0 -43 11.5 -88t34.5 -87q66 -106 220 -161.5t396 -65.5q22 -1 43.5 -1h41.5q127 0 245 12.5t215 42.5t166.5 80.5t99.5 127.5q-61 -13 -104 -17t-78 -4q-103 0 -184 30t-132 87q-21 23 -37 64t-16 102q0 43 9 90.5t26 93t42.5 87t57.5 72.5t71 49.5t84 18.5
q115 0 210 -105zM1734 532q-2 66 -17.5 138.5t-46.5 135.5t-77.5 109t-110.5 60q-26 3 -59.5 -21.5t-64.5 -65t-52 -91t-21 -99.5q0 -32 6.5 -60t23.5 -51q18 -23 44.5 -38t58 -24.5t66 -13.5t67.5 -4q45 0 93 7t90 18zM1645 1619l134 -134l-132 -132l-134 134zM1239 1621
l134 -134l-132 -133l-134 134zM1446 1892l133 -133l-132 -132l-133 133z" />
    <glyph glyph-name="uniFB6C" unicode="&#x6a4;" horiz-adv-x="896" arabic-form="initial" 
d="M428 967q-19 0 -48 -15.5t-58 -45.5t-54 -74t-35 -102q-3 -11 -3.5 -22t-0.5 -23q0 -27 7 -53.5t24 -45.5h-1q12 -15 34 -28t50 -23.5t59.5 -17.5t62.5 -9q26 -2 50.5 -2h46.5q21 0 50 0.5t80 5.5q-4 61 -16.5 118t-31 107.5t-42.5 92.5t-51 72q-10 11 -23.5 22.5t-29 21
t-33.5 15.5t-37 6zM-61 98q0 25 17.5 41.5t42.5 16.5q143 0 253 11.5t193.5 38.5t145 71.5t107.5 110.5h-192q-49 0 -95.5 8t-87.5 24t-75 38t-58 51q-12 11 -21.5 30.5t-16 43.5t-10 51.5t-3.5 54.5q0 14 1.5 28.5t3.5 28.5q13 70 38.5 130.5t60.5 105.5q39 51 86.5 77
t98.5 26q114 0 210 -105q38 -42 68 -95.5t51 -114t32 -126.5t11 -133q0 -95 -29 -167.5t-81.5 -125t-125.5 -87.5t-160 -55.5t-186 -28.5t-204 -7h-17q-24 0 -41 17t-17 41zM548 1520l134 -134l-132 -132l-134 134zM142 1522l134 -134l-132 -133l-134 134zM349 1793
l133 -133l-132 -132l-133 133z" />
    <glyph glyph-name="uniFB6D" unicode="&#x6a4;" horiz-adv-x="1009" arabic-form="medial" 
d="M508 781q-33 0 -74 -17t-76 -51.5t-59 -86.5t-24 -123q0 -29 16 -69t46.5 -79.5t76 -73.5t105.5 -52q48 21 84.5 53t61 69t37.5 77t13 78q0 52 -19 101.5t-49 88t-66.5 62t-72.5 23.5zM-58 98q0 25 16.5 41.5t41.5 16.5q36 0 83 2t98 5t102 8t96 11q-50 22 -88.5 62.5
t-64.5 86t-39.5 91t-13.5 78.5q0 70 25.5 139.5t70.5 125.5t106.5 92.5t133.5 40.5q73 -6 131 -39t98 -84t61.5 -114.5t21.5 -130.5q0 -78 -37 -163.5t-118 -172.5q46 -10 94 -17t93.5 -11.5t87.5 -7t77 -2.5q26 0 42.5 -16.5t16.5 -41.5t-16.5 -41.5t-42.5 -16.5h-9
q-60 0 -128.5 4.5t-126.5 13.5q-63 10 -120.5 23t-111.5 32q-97 -37 -230 -55t-284 -18h-8q-25 0 -41.5 16.5t-16.5 41.5zM650 1393l134 -134l-132 -132l-134 134zM244 1395l134 -134l-132 -133l-134 134zM451 1666l133 -133l-132 -132l-133 133z" />
    <glyph glyph-name="uniFB6B" unicode="&#x6a4;" horiz-adv-x="2106" arabic-form="final" 
d="M1938 528q-3 -56 -15 -101t-32.5 -84t-49.5 -75t-66 -74q97 -17 180.5 -27.5t152.5 -10.5q24 0 41.5 -16.5t17.5 -41.5q0 -24 -17.5 -41t-41.5 -17q-126 0 -244.5 18.5t-224.5 55.5l-75 -24q-48 -18 -115.5 -31.5t-146.5 -22.5t-166.5 -13.5t-174.5 -4.5
q-297 1 -488.5 71t-276.5 214q-35 57 -48 116.5t-13 117.5q0 47 6.5 88.5t15.5 76.5t19.5 62.5t19.5 47.5l104 -58q-16 -36 -32 -92t-16 -126q0 -45 11.5 -89t34.5 -86q33 -54 84.5 -95t126 -69.5t172.5 -44t224 -18.5h5q27 -1 53 -1.5t49 -0.5q142 0 257.5 15.5t215.5 35.5
q-47 27 -83.5 67.5t-62 85t-38.5 88.5t-13 77q0 69 25 139.5t70 128t106.5 93.5t133.5 36q76 0 131.5 -27.5t93.5 -76.5t59.5 -117t30.5 -149zM1623 244q61 26 102 58.5t66 69t35.5 76.5t10.5 80q0 57 -13 98t-33.5 68.5t-45.5 44.5t-49 25.5t-43.5 11.5t-29.5 3
q-35 0 -74.5 -17.5t-73.5 -53t-56.5 -88.5t-22.5 -124q0 -29 15.5 -65.5t44.5 -72.5t71.5 -67t95.5 -47zM1787 1406l134 -134l-132 -132l-134 134zM1381 1408l134 -134l-132 -133l-134 134zM1588 1679l133 -133l-132 -132l-133 133z" />
    <glyph glyph-name="uniFED7" unicode="&#x642;" horiz-adv-x="908" arabic-form="initial" 
d="M428 967q-19 0 -48 -15.5t-58 -45.5t-54 -74t-35 -102q-3 -11 -3.5 -22t-0.5 -23q0 -27 7 -53.5t24 -45.5h-1q12 -15 34 -28t50 -23.5t59.5 -17.5t62.5 -9q26 -2 50.5 -2h46.5q21 0 50 0.5t80 5.5q-4 61 -16.5 118t-31 107.5t-42.5 92.5t-51 72q-10 11 -23.5 22.5t-29 21
t-33.5 15.5t-37 6zM-61 98q0 25 17.5 41.5t42.5 16.5q143 0 253 11.5t193.5 38.5t145 71.5t107.5 110.5h-192q-49 0 -95.5 8t-87.5 24t-75 38t-58 51q-12 11 -21.5 30.5t-16 43.5t-10 51.5t-3.5 54.5q0 14 1.5 28.5t3.5 28.5q13 70 38.5 130.5t60.5 105.5q39 51 86.5 77
t98.5 26q114 0 210 -105q38 -42 68 -95.5t51 -114t32 -126.5t11 -133q0 -95 -29 -167.5t-81.5 -125t-125.5 -87.5t-160 -55.5t-186 -28.5t-204 -7h-17q-24 0 -41 17t-17 41zM228 1349l-134 133l132 133l134 -134zM584 1347l-134 134l132 132l133 -134z" />
    <glyph glyph-name="uniFED8" unicode="&#x642;" horiz-adv-x="1037" arabic-form="medial" 
d="M522 781q-33 0 -74 -17t-76 -51.5t-59 -86.5t-24 -123q0 -29 16 -69t46.5 -79.5t76 -73.5t105.5 -52q48 21 84.5 53t61 69t37.5 77t13 78q0 52 -19 101.5t-49 88t-66.5 62t-72.5 23.5zM-44 98q0 25 16.5 41.5t41.5 16.5q36 0 83 2t98 5t102 8t96 11q-50 22 -88.5 62.5
t-64.5 86t-39.5 91t-13.5 78.5q0 70 25.5 139.5t70.5 125.5t106.5 92.5t133.5 40.5q73 -6 131 -39t98 -84t61.5 -114.5t21.5 -130.5q0 -78 -37 -163.5t-118 -172.5q46 -10 94 -17t93.5 -11.5t87.5 -7t77 -2.5q26 0 42.5 -16.5t16.5 -41.5t-16.5 -41.5t-42.5 -16.5h-9
q-60 0 -128.5 4.5t-126.5 13.5q-63 10 -120.5 23t-111.5 32q-97 -37 -230 -55t-284 -18h-8q-25 0 -41.5 16.5t-16.5 41.5zM348 1197l-134 133l132 133l134 -134zM704 1195l-134 134l132 132l133 -134z" />
    <glyph glyph-name="uni0642" unicode="&#x642;" horiz-adv-x="1592" arabic-form="isolated" 
d="M1064 41q-96 8 -171.5 40.5t-120.5 86.5q-28 38 -44.5 85t-16.5 98q0 46 9.5 93.5t25 91.5t37 84t45.5 71q43 57 94.5 85t106.5 28q63 0 120 -29.5t111 -87.5v1q42 -46 74.5 -105t55.5 -126.5t35 -141.5t12 -149q0 -24 -1 -47t-3 -46q1 -2 -1 -31t-12 -75.5t-28.5 -104.5
t-50.5 -119q-79 -152 -202 -235q-155 -107 -374 -107q-96 0 -177.5 17.5t-151.5 54.5q-75 36 -131 86.5t-94 119.5q-85 138 -85 318q0 27 3 59q8 103 40.5 213.5t89.5 222.5l105 -56q-119 -234 -119 -438q0 -144 66 -258q64 -106 180 -162.5t269 -58.5q8 -1 19.5 -1h19.5
q103 0 189 43t152 115t110.5 166t65.5 196zM1027 685q-32 -3 -59.5 -21.5t-50.5 -46.5t-41 -63t-30 -70.5t-18.5 -69t-6.5 -59.5q0 -33 8 -61.5t25 -49.5q20 -24 48.5 -39.5t59 -25.5t59.5 -14.5t49 -6.5q30 -2 59.5 -2.5t54.5 -0.5q14 0 33.5 0.5t39.5 1t37.5 1.5t27.5 2
q-3 77 -16.5 145t-34.5 125t-46.5 102t-52.5 76q-13 13 -28.5 26.5t-33.5 24.5t-38.5 18.5t-42.5 7.5h-2zM825 1034l-134 133l132 133l134 -134zM1181 1032l-134 134l132 132l133 -134z" />
    <glyph glyph-name="uniFED6" unicode="&#x642;" horiz-adv-x="1565" arabic-form="final" 
d="M1022 688q-55 0 -110 -69l1 1q-32 -39 -58 -94t-38 -118q-2 -14 -3 -27.5t-1 -27.5q0 -32 8.5 -61.5t25.5 -50.5q19 -21 47.5 -36t59 -24t59 -14t48.5 -7q48 -2 92 -3t79 -1h83q-3 78 -16.5 147t-34 127t-46 103.5t-53.5 77.5q-12 13 -27.5 26.5t-33.5 24.5t-39 18.5
t-43 7.5zM1232 37q-77 0 -177 6q-99 8 -173 41t-119 87l1 -1q-28 38 -44 85.5t-16 98.5q0 16 2 35.5t6 42.5q12 78 40 143.5t68 116.5q90 114 202 114q63 0 121 -29t109 -86q39 -45 70.5 -104t55 -127.5t37.5 -145t17 -155.5q10 0 27.5 -0.5t37 -1t39.5 -1t35 -0.5
q24 0 41.5 -16.5t17.5 -41.5q0 -24 -17.5 -41t-41.5 -17h-9h-139q-5 -29 -13 -65t-19 -74.5t-25.5 -78t-32.5 -75.5q-38 -72 -89.5 -133t-112.5 -104h1q-155 -107 -375 -107q-94 0 -176 17.5t-154 55.5q-75 36 -130 87.5t-95 117.5q-83 139 -83 322q0 13 0.5 28t1.5 29v-1
q9 99 43 212t88 225l104 -56q-119 -241 -119 -438q0 -146 66 -258q66 -109 181 -165.5t273 -56.5q160 0 277.5 71t190.5 202q29 54 49 119.5t32 122.5h-74zM833 1003l-134 133l132 133l134 -134zM1189 1001l-134 134l132 132l133 -134z" />
    <glyph glyph-name="uniFEE7" unicode="&#x646;" horiz-adv-x="706" arabic-form="initial" 
d="M-65 98q0 25 17 41.5t41 16.5h148q58 0 116 10t104.5 36.5t75.5 72.5t29 118q0 98 -45 241q-7 22 -16.5 47t-20 49.5t-20 46.5t-16.5 39q29 14 54.5 27t52.5 27q14 -32 35.5 -84.5t41.5 -115.5q25 -79 38 -147t13 -128q0 -84 -26 -145v1q-33 -69 -90 -118.5t-138 -72.5
q-51 -14 -98 -17t-92 -3h-146q-24 0 -41 16.5t-17 41.5zM331 1115l-134 134l133 133l134 -134z" />
    <glyph glyph-name="uniFEE8" unicode="&#x646;" horiz-adv-x="705" arabic-form="medial" 
d="M-54 98q0 24 16.5 41t41.5 17h17q189 0 277.5 68.5t88.5 207.5q0 52 -9 101.5t-26 116.5q12 3 21.5 5.5t20.5 6t27.5 8.5t42.5 13q21 -78 31 -143t12 -125q2 -61 9 -109t27.5 -81.5t58.5 -51t102 -17.5q24 0 41.5 -17t17.5 -41q0 -25 -17.5 -41.5t-40.5 -16.5
q-90 0 -155.5 40t-114.5 104q-75 -72 -175 -108t-239 -36h-17q-25 0 -41.5 16.5t-16.5 41.5zM395 994l-134 134l133 133l134 -134z" />
    <glyph glyph-name="uni0646" unicode="&#x646;" horiz-adv-x="1592" arabic-form="isolated" 
d="M767 -648q-144 3 -259 43.5t-195.5 116t-123 185t-42.5 251.5q0 72 12 146.5t32 145.5t47 135.5t57 116.5l96 -70q-19 -32 -41 -83.5t-40.5 -115t-31 -136t-12.5 -145.5q0 -47 9 -99.5t31 -103.5t58.5 -98t92.5 -83.5t133 -59.5t179 -27q136 0 245 38.5t185.5 108.5
t117.5 168t41 218q0 83 -15.5 161t-38 144t-47.5 118.5t-44 84.5q30 19 54 35t51 33q17 -30 44 -85.5t52.5 -130t44 -165t18.5 -190.5q0 -150 -50 -271.5t-139.5 -207.5t-214 -132.5t-272.5 -46.5q-8 0 -17 0.5t-17 0.5zM819 509l-134 134l133 133l134 -134z" />
    <glyph glyph-name="uniFEE6" unicode="&#x646;" horiz-adv-x="1714" arabic-form="final" 
d="M1707 40q-126 0 -283 94q0 -6 1 -23.5t1.5 -37t1.5 -37t1 -23.5q0 -63 -9 -126.5t-28 -126.5v1q-39 -106 -108 -183t-157 -127t-189 -74t-204 -24q-263 0 -421 120.5t-204 362.5v-1q-9 57 -9 114q0 73 12 147t33 143.5t48 134t57 118.5l48 -36q11 -9 22.5 -17.5
t24.5 -17.5q-20 -36 -42.5 -91.5t-41 -121t-31 -136t-12.5 -135.5q0 -48 7 -86q-3 -36 10.5 -78t42 -84.5t71.5 -82t100 -69.5t126.5 -48.5t151.5 -18.5q106 0 196.5 23.5t161 66.5t120 103t74.5 133q17 54 24 107t7 104q0 62 -9 122t-24 115t-33 104t-36 90q-13 31 -23 48
l-14 32l99 63l3 -6t7.5 -14.5t14.5 -29t23 -48.5q58 -112 111.5 -177t102 -98.5t92.5 -42.5t83 -9q25 0 42 -16.5t17 -41.5q0 -24 -17 -41t-42 -17zM770 442l-134 134l133 133l134 -134z" />
    <glyph glyph-name="uni06C0" unicode="&#x6c0;" horiz-adv-x="983" arabic-form="isolated" 
d="M485 36q-5 0 -23 1t-45 5t-60.5 13t-67.5 25q-84 38 -127 105t-43 158q0 79 40.5 169.5t112.5 181.5q13 15 31.5 34.5t38.5 39.5t40.5 39.5t37.5 34.5l-77 74l80 80q16 -14 37 -34.5t45.5 -46t51.5 -54.5t54 -59q53 -62 97.5 -125t76.5 -122t50 -113t18 -99
q0 -91 -39.5 -157.5t-117.5 -104.5q-30 -14 -60.5 -22.5t-58 -13.5t-51.5 -7t-41 -2zM489 762q-42 -38 -89 -87t-86.5 -104.5t-66 -113.5t-26.5 -113q0 -20 4.5 -41t17 -41.5t34.5 -40t56 -35.5h-1q21 -11 44.5 -17t45 -9t38.5 -4t25 -1q10 0 28 0.5t40 3.5t45.5 9t45.5 17
q48 26 77 60t29 93q0 72 -67.5 178t-193.5 246zM498 1562q-13 2 -29.5 4.5t-35.5 2.5q-15 0 -30.5 -2.5t-31.5 -9.5v2q-32 -14 -51.5 -42.5t-19.5 -61.5q0 -15 8 -36l-1 1q7 -18 20 -33t30 -26t37 -17t41 -6q11 0 21 1t21 6q26 8 51 21t45 25q24 14 43 29l59 -78
q-39 -29 -98 -62t-144 -80l-227 -126l-48 87l179 100q-42 17 -73 49t-48 71q-14 36 -14 74q0 31 9.5 60.5t27 55t42 45.5t54.5 32q45 19 98 19q23 0 44 -3t38 -7l38 -9l-28 -92z" />
    <glyph glyph-name="uniFBA5" unicode="&#x6c0;" horiz-adv-x="1090" arabic-form="final" 
d="M544 180q-238 0 -329 111q-24 30 -33.5 65.5t-9.5 68.5q0 29 4.5 53t11.5 40v-1q25 53 62 97t80 80.5t89.5 65.5t91 51.5t83.5 38.5t68 27l-15 142q32 7 60 13.5t57 13.5q1 -8 3.5 -33.5t6.5 -59t7.5 -71t7.5 -71t6.5 -58.5t3.5 -32v1q15 -131 28.5 -215t24 -134t18 -72
t10.5 -29q15 -34 34 -56t44.5 -35.5t58 -19t73.5 -5.5q24 0 41.5 -16.5t17.5 -41.5q0 -24 -17.5 -41t-41.5 -17q-37 0 -85 6t-94 27h1q-68 31 -129 130q-75 -11 -133 -17t-106 -6zM626 738q-26 -11 -61.5 -26.5t-74 -36t-75.5 -45.5t-66.5 -54.5t-47.5 -63.5t-18 -73
q0 -43 22 -71t58 -44.5t82 -23t93 -6.5t103 7t102 15q-7 34 -15.5 84t-17 108.5t-17 122.5t-16.5 127zM647 1554q-13 2 -29.5 4.5t-35.5 2.5q-15 0 -30.5 -2.5t-31.5 -9.5v2q-32 -14 -51.5 -42.5t-19.5 -61.5q0 -15 8 -36l-1 1q7 -18 20 -33t30 -26t37 -17t41 -6q11 0 21 1
t21 6q26 8 51 21t45 25q24 14 43 29l59 -78q-39 -29 -98 -62t-144 -80l-227 -126l-48 87l179 100q-42 17 -73 49t-48 71q-14 36 -14 74q0 31 9.5 60.5t27 55t42 45.5t54.5 32q45 19 98 19q23 0 44 -3t38 -7l38 -9l-28 -92z" />
    <glyph glyph-name="uni0624" unicode="&#x624;" horiz-adv-x="1043" arabic-form="isolated" 
d="M518 690q-27 0 -54 -15t-51.5 -40t-45.5 -58.5t-36.5 -69.5t-24.5 -73.5t-9 -71.5q0 -37 11 -67.5t29 -50.5q33 -36 73.5 -54t83.5 -25t86 -7h81q16 0 37 0.5t42.5 1.5t40.5 2t30 2q-3 76 -16.5 144t-34.5 125t-47 102t-53 77q-12 13 -27.5 26.5t-33.5 25t-38.5 19
t-42.5 7.5zM124 -541q150 35 271 97.5t208.5 141.5t139.5 167.5t64 174.5h-101q-12 -1 -23.5 -1h-24.5q-54 0 -113 7t-113.5 22.5t-100 41.5t-73.5 65q-27 38 -44.5 86t-17.5 102q1 40 11.5 88.5t29.5 98t46.5 96t63 82.5t78.5 57.5t93 21.5q124 0 231 -116v1
q42 -46 75 -104.5t56.5 -126t35.5 -141.5t12 -150q0 -163 -63.5 -302t-170.5 -246.5t-247 -179t-294 -98.5zM475 1344q-13 2 -29.5 4.5t-35.5 2.5q-15 0 -30.5 -2.5t-31.5 -9.5v2q-32 -14 -51.5 -42.5t-19.5 -61.5q0 -15 8 -36l-1 1q7 -18 20 -33t30 -26t37 -17t41 -6
q11 0 21 1t21 6q26 8 51 21t45 25q24 14 43 29l59 -78q-39 -29 -98 -62t-144 -80l-227 -126l-48 87l179 100q-42 17 -73 49t-48 71q-14 36 -14 74q0 31 9.5 60.5t27 55t42 45.5t54.5 32q45 19 98 19q23 0 44 -3t38 -7l38 -9l-28 -92z" />
    <glyph glyph-name="uniFE86" unicode="&#x624;" horiz-adv-x="1058" arabic-form="final" 
d="M126 -540q150 35 271 97.5t208 141t139 166.5t64 175h-100q-37 0 -77 1t-79 4q-97 7 -171 40.5t-120 87.5q-29 37 -43 86t-14 100q0 44 9 90t24.5 90t36 84t43.5 72v-1q43 54 95.5 83.5t106.5 29.5q124 0 231 -116v1q40 -44 72.5 -103t55.5 -128t36.5 -146.5t15.5 -158.5
h113q25 0 42.5 -16.5t17.5 -42.5q0 -23 -17.5 -40t-42.5 -17h-124q-29 -144 -101.5 -261t-175.5 -205.5t-228.5 -146.5t-259.5 -83zM519 690q-27 0 -53 -15t-50 -40t-43.5 -58.5t-34.5 -69.5t-23 -73.5t-8 -71.5q0 -38 11 -68t28 -51q19 -23 47 -38.5t58 -24.5t58.5 -13.5
t49.5 -5.5q25 -2 52.5 -2.5t54.5 -0.5q32 0 70 -1t76 2q-3 76 -16.5 144.5t-34.5 126.5t-47 104t-53 78q-12 13 -27.5 26.5t-33.5 25t-38.5 19t-42.5 7.5zM535 1380q-13 2 -29.5 4.5t-35.5 2.5q-15 0 -30.5 -2.5t-31.5 -9.5v2q-32 -14 -51.5 -42.5t-19.5 -61.5q0 -15 8 -36
l-1 1q7 -18 20 -33t30 -26t37 -17t41 -6q11 0 21 1t21 6q26 8 51 21t45 25q24 14 43 29l59 -78q-39 -29 -98 -62t-144 -80l-227 -126l-48 87l179 100q-42 17 -73 49t-48 71q-14 36 -14 74q0 31 9.5 60.5t27 55t42 45.5t54.5 32q45 19 98 19q23 0 44 -3t38 -7l38 -9l-28 -92z
" />
    <glyph glyph-name="uniFBE8" unicode="&#x649;" horiz-adv-x="708" arabic-form="initial" 
d="M-65 98q0 25 17 41.5t41 16.5h148q58 0 116 10t104.5 36.5t75.5 72.5t29 118q0 98 -45 241q-7 22 -16.5 47t-20 49.5t-20 46.5t-16.5 39q29 14 54.5 27t52.5 27q14 -32 35.5 -84.5t41.5 -115.5q25 -79 38 -147t13 -128q0 -84 -26 -145v1q-33 -69 -90 -118.5t-138 -72.5
q-51 -14 -98 -17t-92 -3h-146q-24 0 -41 16.5t-17 41.5z" />
    <glyph glyph-name="uniFBE9" unicode="&#x649;" horiz-adv-x="705" arabic-form="medial" 
d="M-54 98q0 24 16.5 41t41.5 17h17q189 0 277.5 68.5t88.5 207.5q0 52 -9 101.5t-26 116.5q12 3 21.5 5.5t20.5 6t27.5 8.5t42.5 13q21 -78 31 -143t12 -125q2 -61 9 -109t27.5 -81.5t58.5 -51t102 -17.5q24 0 41.5 -17t17.5 -41q0 -25 -17.5 -41.5t-40.5 -16.5
q-90 0 -155.5 40t-114.5 104q-75 -72 -175 -108t-239 -36h-17q-25 0 -41.5 16.5t-16.5 41.5z" />
    <glyph glyph-name="uniFEF3" unicode="&#x64a;" horiz-adv-x="801" arabic-form="initial" 
d="M191 -477l-134 133l132 133l134 -134zM547 -479l-134 134l132 132l133 -134zM-108 98q0 25 17 41.5t41 16.5h111q42 0 93.5 1t104.5 7t102.5 20t88.5 40.5t62.5 67.5t23.5 101q0 48 -14 108.5t-37 132.5q-7 22 -16.5 47t-20 49.5t-20 46.5t-16.5 39q29 14 54.5 27
t52.5 27q14 -32 35.5 -84.5t41.5 -115.5q25 -79 38 -147t13 -128q0 -84 -26 -145v1q-33 -69 -90 -118.5t-138 -72.5q-25 -7 -65 -11t-82.5 -6t-81 -2.5t-60.5 -0.5h-154q-24 0 -41 16.5t-17 41.5z" />
    <glyph glyph-name="uniFEF4" unicode="&#x64a;" horiz-adv-x="854" arabic-form="medial" 
d="M-61 98q0 25 16.5 41.5t41.5 16.5h76q93 0 177.5 9.5t148 38t100.5 81t34 138.5q-1 25 -3 48.5t-5.5 48.5t-9.5 52.5t-15 62.5q12 3 20.5 5.5t16 5l15 5t18.5 5.5l41 12q15 -60 22.5 -111.5t13.5 -105.5l5 -49q5 -45 13 -89t29 -79t59 -56.5t102 -21.5q25 0 42.5 -16.5
t17.5 -41.5t-17.5 -41.5t-40.5 -16.5q-90 0 -156.5 42t-114.5 106q-42 -41 -101 -69t-127.5 -45.5t-142 -25.5t-142.5 -8h-76q-25 0 -41.5 16.5t-16.5 41.5zM166 -511l-134 133l132 133l134 -134zM522 -513l-134 134l132 132l133 -134z" />
    <glyph glyph-name="uni064A" unicode="&#x64a;" horiz-adv-x="1781" arabic-form="isolated" 
d="M1379 792q28 6 52.5 8.5t47.5 2.5q60 0 109.5 -11t81.5 -22q-5 -11 -9 -18.5t-9 -18t-13.5 -27.5t-22.5 -47q-18 6 -45 11t-56 7.5t-58.5 1.5t-51.5 -7h2q-41 -4 -85 -24.5t-86.5 -52t-80 -73t-66 -87t-45.5 -94t-17 -94.5q0 -18 2.5 -36t8.5 -37q12 -35 38 -59
t61.5 -40.5t77 -28t84.5 -21.5h-1q50 -12 100 -27t90 -39.5t65 -63t25 -97.5q0 -25 -6 -61v1q-17 -88 -80.5 -162.5t-171.5 -128.5q-106 -54 -240.5 -82t-294.5 -28q-179 0 -317 52t-226 148v-1q-60 72 -93.5 165t-33.5 199q0 45 6 95v-1q11 79 29.5 164t39 162t39.5 139.5
t30 96.5l116 -43q-42 -129 -76.5 -265.5t-54.5 -266.5q-2 -17 -3.5 -37.5t-1.5 -43.5q0 -33 5.5 -69.5t17 -73.5t29.5 -72t44 -66q72 -75 186 -116t264 -41q151 0 272 25.5t206.5 68t133.5 97t54 111.5q3 28 -13.5 50t-45 38t-65 28t-73.5 21q-48 13 -103 30t-104 43
t-85.5 64t-47.5 94q-10 47 -10 96q0 98 37.5 190.5t102.5 168.5t151 130t184 75zM627 -1124l-134 133l132 133l134 -134zM983 -1126l-134 134l132 132l133 -134z" />
    <glyph glyph-name="uniFEF2" unicode="&#x64a;" horiz-adv-x="1687" arabic-form="final" 
d="M830 -612q-83 0 -172 8t-171 31.5t-150 67t-110 115.5q-89 131 -89 341v23t1 24q7 128 43.5 276t108.5 325l108 -43q-33 -87 -59.5 -171t-45 -162t-28.5 -148t-10 -128q0 -167 68 -270q30 -44 69.5 -74t84 -49t92 -29t94 -14.5t89 -5t77.5 -0.5q32 0 88.5 5.5t123 18
t135.5 34t125 53t91.5 74.5t35.5 100q0 17 -10 39.5t-35 48t-67.5 51.5t-106.5 50q-34 12 -68 21t-65 15.5t-57 11.5t-44 9l8 121l732 -1q24 0 41.5 -16.5t17.5 -41.5t-17.5 -41.5t-41.5 -16.5h-350q55 -45 90 -83.5t55 -69.5t27.5 -55.5t7.5 -41.5q-1 -78 -37 -138
t-94.5 -104.5t-133.5 -75t-154 -49.5t-156.5 -27t-140.5 -8zM608 -1060l-134 133l132 133l134 -134zM964 -1062l-134 134l132 132l133 -134z" />
    <glyph glyph-name="uni06CC" unicode="&#x6cc;" horiz-adv-x="1759" arabic-form="isolated" 
d="M1379 792q28 6 52.5 8.5t47.5 2.5q60 0 109.5 -11t81.5 -22q-5 -11 -9 -18.5t-9 -18t-13.5 -27.5t-22.5 -47q-18 6 -45 11t-56 7.5t-58.5 1.5t-51.5 -7h2q-41 -4 -85 -24.5t-86.5 -52t-80 -73t-66 -87t-45.5 -94t-17 -94.5q0 -18 2.5 -36t8.5 -37q12 -35 38 -59
t61.5 -40.5t77 -28t84.5 -21.5h-1q50 -12 100 -27t90 -39.5t65 -63t25 -97.5q0 -25 -6 -61v1q-17 -88 -80.5 -162.5t-171.5 -128.5q-106 -54 -240.5 -82t-294.5 -28q-179 0 -317 52t-226 148v-1q-60 72 -93.5 165t-33.5 199q0 45 6 95v-1q11 79 29.5 164t39 162t39.5 139.5
t30 96.5l116 -43q-42 -129 -76.5 -265.5t-54.5 -266.5q-2 -17 -3.5 -37.5t-1.5 -43.5q0 -33 5.5 -69.5t17 -73.5t29.5 -72t44 -66q72 -75 186 -116t264 -41q151 0 272 25.5t206.5 68t133.5 97t54 111.5q3 28 -13.5 50t-45 38t-65 28t-73.5 21q-48 13 -103 30t-104 43
t-85.5 64t-47.5 94q-10 47 -10 96q0 98 37.5 190.5t102.5 168.5t151 130t184 75z" />
    <glyph glyph-name="uniFBFE" unicode="&#x6cc;" horiz-adv-x="801" arabic-form="initial" 
d="M196 -476l-134 133l132 133l134 -134zM552 -478l-134 134l132 132l133 -134zM-108 98q0 25 17 41.5t41 16.5h111q42 0 93.5 1t104.5 7t102.5 20t88.5 40.5t62.5 67.5t23.5 101q0 48 -14 108.5t-37 132.5q-7 22 -16.5 47t-20 49.5t-20 46.5t-16.5 39q29 14 54.5 27
t52.5 27q14 -32 35.5 -84.5t41.5 -115.5q25 -79 38 -147t13 -128q0 -84 -26 -145v1q-33 -69 -90 -118.5t-138 -72.5q-25 -7 -65 -11t-82.5 -6t-81 -2.5t-60.5 -0.5h-154q-24 0 -41 16.5t-17 41.5z" />
    <glyph glyph-name="uniFBFF" unicode="&#x6cc;" horiz-adv-x="860" arabic-form="medial" 
d="M-61 98q0 25 16.5 41.5t41.5 16.5h76q93 0 177.5 9.5t148 38t100.5 81t34 138.5q-1 25 -3 48.5t-5.5 48.5t-9.5 52.5t-15 62.5q12 3 20.5 5.5t16 5l15 5t18.5 5.5l41 12q15 -60 22.5 -111.5t13.5 -105.5l5 -49q5 -45 13 -89t29 -79t59 -56.5t102 -21.5q25 0 42.5 -16.5
t17.5 -41.5t-17.5 -41.5t-40.5 -16.5q-90 0 -156.5 42t-114.5 106q-42 -41 -101 -69t-127.5 -45.5t-142 -25.5t-142.5 -8h-76q-25 0 -41.5 16.5t-16.5 41.5zM174 -511l-134 133l132 133l134 -134zM530 -513l-134 134l132 132l133 -134z" />
    <glyph glyph-name="uniFBFD" unicode="&#x6cc;" horiz-adv-x="1686" arabic-form="final" 
d="M830 -612q-83 0 -172 8t-171 31.5t-150 67t-110 115.5q-89 131 -89 341v23t1 24q7 128 43.5 276t108.5 325l108 -43q-33 -87 -59.5 -171t-45 -162t-28.5 -148t-10 -128q0 -167 68 -270q30 -44 69.5 -74t84 -49t92 -29t94 -14.5t89 -5t77.5 -0.5q32 0 88.5 5.5t123 18
t135.5 34t125 53t91.5 74.5t35.5 100q0 17 -10 39.5t-35 48t-67.5 51.5t-106.5 50q-34 12 -68 21t-65 15.5t-57 11.5t-44 9l8 121l732 -1q24 0 41.5 -16.5t17.5 -41.5t-17.5 -41.5t-41.5 -16.5h-350q55 -45 90 -83.5t55 -69.5t27.5 -55.5t7.5 -41.5q-1 -78 -37 -138
t-94.5 -104.5t-133.5 -75t-154 -49.5t-156.5 -27t-140.5 -8z" />
    <glyph glyph-name="uni06D3" unicode="&#x6d3;" horiz-adv-x="1942" arabic-form="isolated" 
d="M1023 -51q-84 0 -167.5 -1t-168 3.5t-170 17.5t-174.5 42q-59 25 -97.5 57.5t-57.5 70.5q-7 14 -11.5 31t-4.5 37q0 21 7 46.5t24 52.5q26 39 72 72.5t111 58.5q32 12 64 21.5t60.5 16t53 10.5t41.5 6q68 9 113 14t71.5 8t38.5 4t14 1l-23 -115l-35 -5q-21 -3 -60 -8
t-103 -13q-59 -8 -112.5 -21.5t-97 -30.5t-74.5 -37.5t-44 -42.5q-14 -22 -13.5 -35.5t4.5 -21.5q18 -39 65.5 -64t112.5 -39t141 -20t151 -7t142.5 0.5t115.5 1.5q79 0 167.5 4.5t176.5 12t171.5 16.5t154 17.5t122.5 15.5t78 11q-7 -30 -15 -57.5t-15 -57.5l-49 -7
t-108 -14t-149.5 -17t-173.5 -17t-180.5 -13t-168.5 -5zM612 1050q-13 2 -29.5 4.5t-35.5 2.5q-15 0 -30.5 -2.5t-31.5 -9.5v2q-32 -14 -51.5 -42.5t-19.5 -61.5q0 -15 8 -36l-1 1q7 -18 20 -33t30 -26t37 -17t41 -6q11 0 21 1t21 6q26 8 51 21t45 25q24 14 43 29l59 -78
q-39 -29 -98 -62t-144 -80l-227 -126l-48 87l179 100q-42 17 -73 49t-48 71q-14 36 -14 74q0 31 9.5 60.5t27 55t42 45.5t54.5 32q45 19 98 19q23 0 44 -3t38 -7l38 -9l-28 -92z" />
    <glyph glyph-name="uniFBB1" unicode="&#x6d3;" horiz-adv-x="1521" arabic-form="final" 
d="M892 -429q-70 0 -160.5 1.5t-184 9t-181 22.5t-151.5 43q-119 50 -156 128q-7 14 -11.5 31t-4.5 38t7 46t25 54q37 59 105.5 99.5t159 65.5t197.5 36t221 11h763h1q24 0 41 -17t17 -41t-17 -41t-41 -17h-5h-759q-141 0 -244 -15t-173.5 -38t-112 -51t-60.5 -54
q-13 -20 -13.5 -34t4.5 -22q19 -26 61 -46.5t100 -36t129 -26t146 -16.5t151 -9t146 -3q50 0 104 1.5t106.5 4t100 5.5t84.5 5.5t60 5t27 3.5l32 -119q-3 0 -26.5 -2t-62 -4.5t-89 -5.5t-106.5 -6t-115 -4.5t-115 -1.5zM1374 -285q2 0 2 -0.5t-2 -0.5v1zM529 685
q-13 2 -29.5 4.5t-35.5 2.5q-15 0 -30.5 -2.5t-31.5 -9.5v2q-32 -14 -51.5 -42.5t-19.5 -61.5q0 -15 8 -36l-1 1q7 -18 20 -33t30 -26t37 -17t41 -6q11 0 21 1t21 6q26 8 51 21t45 25q24 14 43 29l59 -78q-39 -29 -98 -62t-144 -80l-227 -126l-48 87l179 100q-42 17 -73 49
t-48 71q-14 36 -14 74q0 31 9.5 60.5t27 55t42 45.5t54.5 32q45 19 98 19q23 0 44 -3t38 -7l38 -9l-28 -92z" />
    <glyph glyph-name="uni0626" unicode="&#x626;" horiz-adv-x="1723" arabic-form="isolated" 
d="M1379 792q28 6 52.5 8.5t47.5 2.5q60 0 109.5 -11t81.5 -22q-5 -11 -9 -18.5t-9 -18t-13.5 -27.5t-22.5 -47q-18 6 -45 11t-56 7.5t-58.5 1.5t-51.5 -7h2q-41 -4 -85 -24.5t-86.5 -52t-80 -73t-66 -87t-45.5 -94t-17 -94.5q0 -18 2.5 -36t8.5 -37q12 -35 38 -59
t61.5 -40.5t77 -28t84.5 -21.5h-1q50 -12 100 -27t90 -39.5t65 -63t25 -97.5q0 -25 -6 -61v1q-17 -88 -80.5 -162.5t-171.5 -128.5q-106 -54 -240.5 -82t-294.5 -28q-179 0 -317 52t-226 148v-1q-60 72 -93.5 165t-33.5 199q0 45 6 95v-1q11 79 29.5 164t39 162t39.5 139.5
t30 96.5l116 -43q-42 -129 -76.5 -265.5t-54.5 -266.5q-2 -17 -3.5 -37.5t-1.5 -43.5q0 -33 5.5 -69.5t17 -73.5t29.5 -72t44 -66q72 -75 186 -116t264 -41q151 0 272 25.5t206.5 68t133.5 97t54 111.5q3 28 -13.5 50t-45 38t-65 28t-73.5 21q-48 13 -103 30t-104 43
t-85.5 64t-47.5 94q-10 47 -10 96q0 98 37.5 190.5t102.5 168.5t151 130t184 75zM665 1132q-13 2 -29.5 4.5t-35.5 2.5q-15 0 -30.5 -2.5t-31.5 -9.5v2q-32 -14 -51.5 -42.5t-19.5 -61.5q0 -15 8 -36l-1 1q7 -18 20 -33t30 -26t37 -17t41 -6q11 0 21 1t21 6q26 8 51 21
t45 25q24 14 43 29l59 -78q-39 -29 -98 -62t-144 -80l-227 -126l-48 87l179 100q-42 17 -73 49t-48 71q-14 36 -14 74q0 31 9.5 60.5t27 55t42 45.5t54.5 32q45 19 98 19q23 0 44 -3t38 -7l38 -9l-28 -92z" />
    <glyph glyph-name="uniFE8B" unicode="&#x626;" horiz-adv-x="711" arabic-form="initial" 
d="M-65 98q0 25 17 41.5t41 16.5h148q58 0 116 10t104.5 36.5t75.5 72.5t29 118q0 98 -45 241q-7 22 -16.5 47t-20 49.5t-20 46.5t-16.5 39q29 14 54.5 27t52.5 27q14 -32 35.5 -84.5t41.5 -115.5q25 -79 38 -147t13 -128q0 -84 -26 -145v1q-33 -69 -90 -118.5t-138 -72.5
q-51 -14 -98 -17t-92 -3h-146q-24 0 -41 16.5t-17 41.5zM460 1431q-13 2 -29.5 4.5t-35.5 2.5q-15 0 -30.5 -2.5t-31.5 -9.5v2q-32 -14 -51.5 -42.5t-19.5 -61.5q0 -15 8 -36l-1 1q7 -18 20 -33t30 -26t37 -17t41 -6q11 0 21 1t21 6q26 8 51 21t45 25q24 14 43 29l59 -78
q-39 -29 -98 -62t-144 -80l-227 -126l-48 87l179 100q-42 17 -73 49t-48 71q-14 36 -14 74q0 31 9.5 60.5t27 55t42 45.5t54.5 32q45 19 98 19q23 0 44 -3t38 -7l38 -9l-28 -92z" />
    <glyph glyph-name="uniFE8C" unicode="&#x626;" horiz-adv-x="715" arabic-form="medial" 
d="M-54 98q0 24 16.5 41t41.5 17h17q189 0 277.5 68.5t88.5 207.5q0 52 -9 101.5t-26 116.5q12 3 21.5 5.5t20.5 6t27.5 8.5t42.5 13q21 -78 31 -143t12 -125q2 -61 9 -109t27.5 -81.5t58.5 -51t102 -17.5q24 0 41.5 -17t17.5 -41q0 -25 -17.5 -41.5t-40.5 -16.5
q-90 0 -155.5 40t-114.5 104q-75 -72 -175 -108t-239 -36h-17q-25 0 -41.5 16.5t-16.5 41.5zM448 1314q-13 2 -29.5 4.5t-35.5 2.5q-15 0 -30.5 -2.5t-31.5 -9.5v2q-32 -14 -51.5 -42.5t-19.5 -61.5q0 -15 8 -36l-1 1q7 -18 20 -33t30 -26t37 -17t41 -6q11 0 21 1t21 6
q26 8 51 21t45 25q24 14 43 29l59 -78q-39 -29 -98 -62t-144 -80l-227 -126l-48 87l179 100q-42 17 -73 49t-48 71q-14 36 -14 74q0 31 9.5 60.5t27 55t42 45.5t54.5 32q45 19 98 19q23 0 44 -3t38 -7l38 -9l-28 -92z" />
    <glyph glyph-name="uniFE8A" unicode="&#x626;" horiz-adv-x="1683" arabic-form="final" 
d="M830 -612q-83 0 -172 8t-171 31.5t-150 67t-110 115.5q-89 131 -89 341v23t1 24q7 128 43.5 276t108.5 325l108 -43q-33 -87 -59.5 -171t-45 -162t-28.5 -148t-10 -128q0 -167 68 -270q30 -44 69.5 -74t84 -49t92 -29t94 -14.5t89 -5t77.5 -0.5q32 0 88.5 5.5t123 18
t135.5 34t125 53t91.5 74.5t35.5 100q0 17 -10 39.5t-35 48t-67.5 51.5t-106.5 50q-34 12 -68 21t-65 15.5t-57 11.5t-44 9l8 121l732 -1q24 0 41.5 -16.5t17.5 -41.5t-17.5 -41.5t-41.5 -16.5h-350q55 -45 90 -83.5t55 -69.5t27.5 -55.5t7.5 -41.5q-1 -78 -37 -138
t-94.5 -104.5t-133.5 -75t-154 -49.5t-156.5 -27t-140.5 -8zM881 613q-13 2 -29.5 4.5t-35.5 2.5q-15 0 -30.5 -2.5t-31.5 -9.5v2q-32 -14 -51.5 -42.5t-19.5 -61.5q0 -15 8 -36l-1 1q7 -18 20 -33t30 -26t37 -17t41 -6q11 0 21 1t21 6q26 8 51 21t45 25q24 14 43 29l59 -78
q-39 -29 -98 -62t-144 -80l-227 -126l-48 87l179 100q-42 17 -73 49t-48 71q-14 36 -14 74q0 31 9.5 60.5t27 55t42 45.5t54.5 32q45 19 98 19q23 0 44 -3t38 -7l38 -9l-28 -92z" />
    <glyph glyph-name="uni06C2" unicode="&#x6c2;" horiz-adv-x="993" 
d="M495 36q-5 0 -23 1t-45 5t-60.5 13t-67.5 25q-84 38 -127 105t-43 158q0 79 40.5 169.5t112.5 181.5q13 15 31.5 34.5t38.5 39.5t40.5 39.5t37.5 34.5l-77 74l80 80q16 -14 37 -34.5t45.5 -46t51.5 -54.5t54 -59q53 -62 97.5 -125t76.5 -122t50 -113t18 -99
q0 -91 -39.5 -157.5t-117.5 -104.5q-30 -14 -60.5 -22.5t-58 -13.5t-51.5 -7t-41 -2zM499 762q-42 -38 -89 -87t-86.5 -104.5t-66 -113.5t-26.5 -113q0 -20 4.5 -41t17 -41.5t34.5 -40t56 -35.5h-1q21 -11 44.5 -17t45 -9t38.5 -4t25 -1q10 0 28 0.5t40 3.5t45.5 9t45.5 17
q48 26 77 60t29 93q0 72 -67.5 178t-193.5 246zM491 1556q-13 2 -29.5 4.5t-35.5 2.5q-15 0 -30.5 -2.5t-31.5 -9.5v2q-32 -14 -51.5 -42.5t-19.5 -61.5q0 -15 8 -36l-1 1q7 -18 20 -33t30 -26t37 -17t41 -6q11 0 21 1t21 6q26 8 51 21t45 25q24 14 43 29l59 -78
q-39 -29 -98 -62t-144 -80l-227 -126l-48 87l179 100q-42 17 -73 49t-48 71q-14 36 -14 74q0 31 9.5 60.5t27 55t42 45.5t54.5 32q45 19 98 19q23 0 44 -3t38 -7l38 -9l-28 -92z" />
    <glyph glyph-name="uniFBA6" unicode="&#x6c1;" horiz-adv-x="983" arabic-form="isolated" 
d="M485 36q-5 0 -23 1t-45 5t-60.5 13t-67.5 25q-84 38 -127 105t-43 158q0 79 40.5 169.5t112.5 181.5q13 15 31.5 34.5t38.5 39.5t40.5 39.5t37.5 34.5l-77 74l80 80q16 -14 37 -34.5t45.5 -46t51.5 -54.5t54 -59q53 -62 97.5 -125t76.5 -122t50 -113t18 -99
q0 -91 -39.5 -157.5t-117.5 -104.5q-30 -14 -60.5 -22.5t-58 -13.5t-51.5 -7t-41 -2zM489 762q-42 -38 -89 -87t-86.5 -104.5t-66 -113.5t-26.5 -113q0 -20 4.5 -41t17 -41.5t34.5 -40t56 -35.5h-1q21 -11 44.5 -17t45 -9t38.5 -4t25 -1q10 0 28 0.5t40 3.5t45.5 9t45.5 17
q48 26 77 60t29 93q0 72 -67.5 178t-193.5 246z" />
    <glyph glyph-name="uni06C3" unicode="&#x6c3;" horiz-adv-x="1020" 
d="M522 36q-5 0 -23 1t-45 5t-60.5 13t-67.5 25q-84 38 -127 105t-43 158q0 79 40.5 169.5t112.5 181.5q13 15 31.5 34.5t38.5 39.5t40.5 39.5t37.5 34.5l-77 74l80 80q16 -14 37 -34.5t45.5 -46t51.5 -54.5t54 -59q53 -62 97.5 -125t76.5 -122t50 -113t18 -99
q0 -91 -39.5 -157.5t-117.5 -104.5q-30 -14 -60.5 -22.5t-58 -13.5t-51.5 -7t-41 -2zM526 762q-42 -38 -89 -87t-86.5 -104.5t-66 -113.5t-26.5 -113q0 -20 4.5 -41t17 -41.5t34.5 -40t56 -35.5h-1q21 -11 44.5 -17t45 -9t38.5 -4t25 -1q10 0 28 0.5t40 3.5t45.5 9t45.5 17
q48 26 77 60t29 93q0 72 -67.5 178t-193.5 246zM311 1216l-134 133l132 133l134 -134zM667 1214l-134 134l132 132l133 -134z" />
    <glyph glyph-name="uniFBAB" unicode="&#x6be;" horiz-adv-x="1169" arabic-form="final" 
d="M728 741q-19 -15 -46.5 -42t-56.5 -64q-16 -22 -33.5 -51t-34 -64.5t-30 -77.5t-21.5 -89q-6 -42 -6 -91v-16t1 -16.5t2 -22.5t3 -34l106 20h-2q88 24 146 68t84 110q14 36 20 73t6 66q0 38 -7.5 71t-18.5 56q-8 16 -15 33t-18 32t-29.5 25.5t-49.5 13.5zM76 14
q0 21 17 33.5t55 27.5l240 84q-3 32 -4.5 60.5t-1.5 43.5q0 58 10.5 116.5t27.5 115.5v-1q16 47 36 87.5t41.5 74.5t42 60.5t38.5 46.5q13 15 32 34t41.5 35.5t47 28.5t48.5 13q25 1 49 -11t44.5 -29.5t36 -36t24.5 -29.5q26 -38 45.5 -87t30.5 -97q7 -38 7 -73
q0 -43 -9 -88.5t-24 -93.5v1q-21 -55 -52 -99.5t-76 -76.5q-38 -28 -82 -49.5t-98 -35.5q-7 -2 -38.5 -8l-73.5 -14q67 -166 217 -368q14 78 28.5 132.5t29.5 84.5q52 111 156 188q97 72 210 72q25 0 42 -17t17 -41q0 -25 -17 -41.5t-42 -16.5h-10q-79 -3 -135 -47
q-47 -40 -71.5 -74t-43.5 -74q-13 -27 -25 -67t-12 -88t16.5 -98t58.5 -102l-44 -53q-8 -9 -16 -19l-16 -20q-171 143 -282.5 283.5t-162.5 293.5l-23 64q-17 -6 -39.5 -12.5t-55.5 -15.5t-77.5 -22t-105.5 -33q-23 2 -37.5 18.5t-14.5 39.5z" />
    <glyph glyph-name="uniFBAC" unicode="&#x6be;" horiz-adv-x="1444" arabic-form="initial" 
d="M-68 99q0 23 18 40t44 17h9q12 0 32 1.5t63.5 4.5t117.5 7.5t192 10.5q-103 91 -151.5 177t-48.5 166q0 54 19.5 114.5t58.5 114.5t97 95t136 56l-143 55l61 113q3 0 27 -9.5t65 -26.5t97 -40t122 -50q90 -39 175.5 -80t158.5 -82.5t129 -83t86 -81.5h-1q84 -116 84 -236
q0 -88 -46.5 -163.5t-141.5 -126.5q-25 -15 -62 -25.5t-77.5 -17t-81.5 -9.5t-75 -3q-88 0 -169.5 13.5t-165.5 48.5q-50 -16 -116 -27.5t-140.5 -18.5t-152 -10t-149.5 -3h-9q-26 0 -44 17t-18 42zM700 173q48 -12 83 -17t61.5 -6.5t46 -1t34.5 0.5q86 0 151.5 19.5
t109 53.5t65.5 78t22 94q0 46 -27 99.5t-79.5 106t-128.5 100.5t-174 82q21 -34 31 -66t13.5 -59t3.5 -49v-37q0 -47 -15 -101.5t-43 -108.5t-67 -103t-87 -85zM640 821q-33 8 -70.5 -2.5t-74 -34.5t-69.5 -57.5t-57.5 -72t-37 -77.5t-8.5 -74q7 -43 27 -82.5t50 -75
t67.5 -65.5t79.5 -53q60 24 105 64t75 88t45 100t15 100q0 44 -10.5 85.5t-30 74.5t-46.5 55t-60 27z" />
    <glyph glyph-name="uniFBAD" unicode="&#x6be;" horiz-adv-x="1003" arabic-form="medial" 
d="M525 753q-36 -6 -72 -38t-67.5 -81t-57 -110t-42 -124t-22 -124t3.5 -110q73 -4 141 18.5t119.5 67.5t81.5 111.5t27 150.5q-1 33 -5 69.5t-16 70t-33.5 60t-57.5 39.5zM-59 98q0 24 16.5 41t41.5 17h154q-3 57 6 130t29.5 150t52 152t72.5 136t91.5 101.5t109.5 48.5
q54 0 97 -38t72.5 -97t45 -130t15.5 -136q0 -92 -35.5 -166t-96 -128.5t-142 -88t-173.5 -43.5q11 -45 33.5 -102t55.5 -115t75 -111t93 -90q-2 21 -3 33t-1.5 19.5t-0.5 10.5v6q0 59 20 116t53.5 108t79 93.5t96 74t104 49t103.5 17.5q25 0 42 -17t17 -41q0 -25 -17 -41.5
t-42 -16.5h-10q-65 -3 -123.5 -34.5t-102.5 -81t-69.5 -112t-25.5 -128.5q0 -51 16.5 -98.5t52.5 -92.5l-82 -98q-190 124 -310.5 286.5t-174.5 358.5h-177q-25 0 -41.5 16.5t-16.5 41.5z" />
    <glyph glyph-name="uniFE70" unicode="&#xfe70;" arabic-form="isolated" 
d="M19 1136v79l510 206v-71zM12 1315v79l510 206v-74z" />
    <glyph glyph-name="uniFE72" unicode="&#xfe72;" arabic-form="isolated" 
d="M40 1194q8 17 14 45.5t6 52.5q0 14 -1 26t-5 17q-5 11 -14.5 19t-28.5 10h1q-20 1 -40.5 -9t-35.5 -22l-42 42q8 7 21 16t28.5 16.5t33.5 12t37 3.5q61 -4 89 -55q9 -17 13 -35t4 -38q0 -31 -11 -86q28 9 60 20.5t64.5 25.5t64 30.5t58.5 34.5l-80 34q-53 26 -73.5 63.5
t-20.5 71.5q0 15 3 27t8 21q21 44 62.5 72t86.5 28q12 0 25.5 -3.5t22.5 -7.5q25 -12 44.5 -36.5t27.5 -52.5q9 -32 9 -63q0 -28 -6.5 -61t-15.5 -63l32 -12l-24 -53l-39 11q-37 -35 -86.5 -62t-99 -46.5t-92 -31.5t-65.5 -17l-35 48v7zM342 1577q-12 0 -27 -5t-29 -14
t-25 -21.5t-17 -26.5l1 1q-2 -5 -2 -16.5t5.5 -26.5t18.5 -31t37 -29q23 -11 44.5 -19.5t45.5 -19.5q6 23 11.5 52.5t5.5 53.5q0 13 -2 26.5t-7 25.5q-6 17 -20 33.5t-40 16.5z" />
    <glyph glyph-name="uniFE74" unicode="&#xfe74;" arabic-form="isolated" 
d="M20 -615v79l510 206v-71zM13 -436v79l510 206v-74z" />
    <glyph glyph-name="uniFE76" unicode="&#xfe76;" arabic-form="isolated" 
d="M12 1144v79l510 206v-74z" />
    <glyph glyph-name="uniFE78" unicode="&#xfe78;" arabic-form="isolated" 
d="M155 1239q85 39 149 83q-18 7 -36 15q-23 11 -43 21q-110 56 -100 134q10 71 76 117q68 48 134 20q67 -36 80 -125q11 -77 -20 -152l27 -8l-19 -57l-42 15q-62 -60 -168 -112q-40 -20 -82 -36q-33 -13 -60 -21l-21 57q53 16 125 49zM221 1553q-40 -30 -40 -68
q0 -39 66 -70l92 -43q29 42 17 122q-13 86 -70 86q-30 0 -65 -27z" />
    <glyph glyph-name="uniFE7A" unicode="&#xfe7a;" arabic-form="isolated" 
d="M39 -436v79l510 206v-74z" />
    <glyph glyph-name="uniFE7C" unicode="&#xfe7c;" arabic-form="isolated" 
d="M138 1151q-28 1 -48 7t-34.5 14.5t-24 18.5t-15.5 19q-11 18 -15 36.5t-4 38.5q0 30 8.5 62t18.5 53l52 -24q-9 -23 -14.5 -47.5t-5.5 -44.5q0 -14 1.5 -24.5t6.5 -18.5q9 -14 31 -23t45 -9q40 0 60 24q13 16 19.5 35t9 39.5t2.5 42.5v44l53 11q9 -57 21.5 -92.5
t26 -55.5t27 -27.5t23.5 -7.5q43 3 60.5 29.5t17.5 62.5q0 38 -16.5 81.5t-40.5 75.5l50 34q9 -14 20.5 -36t22 -48t17.5 -53.5t7 -51.5q0 -19 -4.5 -45t-19.5 -49t-43 -39.5t-75 -16.5q-14 0 -29.5 5t-30.5 14t-27.5 22t-21.5 30q-18 -44 -53.5 -65t-71.5 -21h-6v0z" />
    <glyph glyph-name="uniFE7E" unicode="&#xfe7e;" arabic-form="isolated" 
d="M276 1204q23 0 45 11t38.5 29.5t26 43t8.5 52.5q-1 22 -8.5 46t-22.5 44t-36.5 32.5t-50.5 12.5q-27 0 -48.5 -13t-37.5 -32.5t-24.5 -43.5t-8.5 -46q0 -24 9.5 -48t26 -43.5t38 -32t45.5 -12.5zM276 1536q39 0 71.5 -18t55.5 -46t36.5 -63t14.5 -69q1 -38 -12.5 -73
t-38 -63t-57.5 -44.5t-70 -16.5q-41 -1 -74 16t-56 45t-36 64t-13 72q0 34 13 69t36 63t56 46t74 18z" />
    <glyph glyph-name="uniFC5E" unicode="&#xfc5e;" arabic-form="isolated" 
d="M131 1137q-28 1 -48 7t-34.5 14.5t-24 18.5t-15.5 19q-11 18 -15 36.5t-4 38.5q0 30 8.5 62t18.5 53l52 -24q-9 -23 -14.5 -47.5t-5.5 -44.5q0 -14 1.5 -24.5t6.5 -18.5q9 -14 31 -23t45 -9q40 0 60 24q13 16 19.5 35t9 39.5t2.5 42.5v44l53 11q9 -57 21.5 -92.5
t26 -55.5t27 -27.5t23.5 -7.5q43 3 60.5 29.5t17.5 62.5q0 38 -16.5 81.5t-40.5 75.5l50 34q9 -14 20.5 -36t22 -48t17.5 -53.5t7 -51.5q0 -19 -4.5 -45t-19.5 -49t-43 -39.5t-75 -16.5q-14 0 -29.5 5t-30.5 14t-27.5 22t-21.5 30q-18 -44 -53.5 -65t-71.5 -21h-6v0z
M-12 1588q8 17 14 45.5t6 52.5q0 14 -1 26t-5 17q-5 11 -14.5 19t-28.5 10h1q-20 1 -40.5 -9t-35.5 -22l-42 42q8 7 21 16t28.5 16.5t33.5 12t37 3.5q61 -4 89 -55q9 -17 13 -35t4 -38q0 -31 -11 -86q28 9 60 20.5t64.5 25.5t64 30.5t58.5 34.5l-80 34q-53 26 -73.5 63.5
t-20.5 71.5q0 15 3 27t8 21q21 44 62.5 72t86.5 28q12 0 25.5 -3.5t22.5 -7.5q25 -12 44.5 -36.5t27.5 -52.5q9 -32 9 -63q0 -28 -6.5 -61t-15.5 -63l32 -12l-24 -53l-39 11q-37 -35 -86.5 -62t-99 -46.5t-92 -31.5t-65.5 -17l-35 48v7zM290 1971q-12 0 -27 -5t-29 -14
t-25 -21.5t-17 -26.5l1 1q-2 -5 -2 -16.5t5.5 -26.5t18.5 -31t37 -29q23 -11 44.5 -19.5t45.5 -19.5q6 23 11.5 52.5t5.5 53.5q0 13 -2 26.5t-7 25.5q-6 17 -20 33.5t-40 16.5z" />
    <glyph glyph-name="uniFC5F" unicode="&#xfc5f;" arabic-form="isolated" 
d="M130 1629q-28 1 -48 7t-34.5 14.5t-24 18.5t-15.5 19q-11 18 -15 36.5t-4 38.5q0 30 8.5 62t18.5 53l52 -24q-9 -23 -14.5 -47.5t-5.5 -44.5q0 -14 1.5 -24.5t6.5 -18.5q9 -14 31 -23t45 -9q40 0 60 24q13 16 19.5 35t9 39.5t2.5 42.5v44l53 11q9 -57 21.5 -92.5
t26 -55.5t27 -27.5t23.5 -7.5q43 3 60.5 29.5t17.5 62.5q0 38 -16.5 81.5t-40.5 75.5l50 34q9 -14 20.5 -36t22 -48t17.5 -53.5t7 -51.5q0 -19 -4.5 -45t-19.5 -49t-43 -39.5t-75 -16.5q-14 0 -29.5 5t-30.5 14t-27.5 22t-21.5 30q-18 -44 -53.5 -65t-71.5 -21h-6v0z
M36 1138v79l510 206v-71zM29 1317v79l510 206v-74z" />
    <glyph glyph-name="uniFC60" unicode="&#xfc60;" arabic-form="isolated" 
d="M137 1153q-28 1 -48 7t-34.5 14.5t-24 18.5t-15.5 19q-11 18 -15 36.5t-4 38.5q0 30 8.5 62t18.5 53l52 -24q-9 -23 -14.5 -47.5t-5.5 -44.5q0 -14 1.5 -24.5t6.5 -18.5q9 -14 31 -23t45 -9q40 0 60 24q13 16 19.5 35t9 39.5t2.5 42.5v44l53 11q9 -57 21.5 -92.5
t26 -55.5t27 -27.5t23.5 -7.5q43 3 60.5 29.5t17.5 62.5q0 38 -16.5 81.5t-40.5 75.5l50 34q9 -14 20.5 -36t22 -48t17.5 -53.5t7 -51.5q0 -19 -4.5 -45t-19.5 -49t-43 -39.5t-75 -16.5q-14 0 -29.5 5t-30.5 14t-27.5 22t-21.5 30q-18 -44 -53.5 -65t-71.5 -21h-6v0z
M-28 1504v79l510 206v-74z" />
    <glyph glyph-name="uniFC61" unicode="&#xfc61;" arabic-form="isolated" 
d="M137 1136q-28 1 -48 7t-34.5 14.5t-24 18.5t-15.5 19q-11 18 -15 36.5t-4 38.5q0 30 8.5 62t18.5 53l52 -24q-9 -23 -14.5 -47.5t-5.5 -44.5q0 -14 1.5 -24.5t6.5 -18.5q9 -14 31 -23t45 -9q40 0 60 24q13 16 19.5 35t9 39.5t2.5 42.5v44l53 11q9 -57 21.5 -92.5
t26 -55.5t27 -27.5t23.5 -7.5q43 3 60.5 29.5t17.5 62.5q0 38 -16.5 81.5t-40.5 75.5l50 34q9 -14 20.5 -36t22 -48t17.5 -53.5t7 -51.5q0 -19 -4.5 -45t-19.5 -49t-43 -39.5t-75 -16.5q-14 0 -29.5 5t-30.5 14t-27.5 22t-21.5 30q-18 -44 -53.5 -65t-71.5 -21h-6v0z
M172 1634q85 39 149 83q-18 7 -36 15q-23 11 -43 21q-110 56 -100 134q10 71 76 117q68 48 134 20q67 -36 80 -125q11 -77 -20 -152l27 -8l-19 -57l-42 15q-62 -60 -168 -112q-40 -20 -82 -36q-33 -13 -60 -21l-21 57q53 16 125 49zM238 1948q-40 -30 -40 -68q0 -39 66 -70
l92 -43q29 42 17 122q-13 86 -70 86q-30 0 -65 -27z" />
    <glyph glyph-name="uniFC62" unicode="&#xfc62;" arabic-form="isolated" 
d="M149 1503q-28 1 -48 7t-34.5 14.5t-24 18.5t-15.5 19q-11 18 -15 36.5t-4 38.5q0 30 8.5 62t18.5 53l52 -24q-9 -23 -14.5 -47.5t-5.5 -44.5q0 -14 1.5 -24.5t6.5 -18.5q9 -14 31 -23t45 -9q40 0 60 24q13 16 19.5 35t9 39.5t2.5 42.5v44l53 11q9 -57 21.5 -92.5
t26 -55.5t27 -27.5t23.5 -7.5q43 3 60.5 29.5t17.5 62.5q0 38 -16.5 81.5t-40.5 75.5l50 34q9 -14 20.5 -36t22 -48t17.5 -53.5t7 -51.5q0 -19 -4.5 -45t-19.5 -49t-43 -39.5t-75 -16.5q-14 0 -29.5 5t-30.5 14t-27.5 22t-21.5 30q-18 -44 -53.5 -65t-71.5 -21h-6v0z
M18 1146v79l510 206v-74z" />
    <glyph glyph-name="uniFC63" unicode="&#xfc63;" arabic-form="isolated" 
d="M158 1141q-28 1 -48 7t-34.5 14.5t-24 18.5t-15.5 19q-11 18 -15 36.5t-4 38.5q0 30 8.5 62t18.5 53l52 -24q-9 -23 -14.5 -47.5t-5.5 -44.5q0 -14 1.5 -24.5t6.5 -18.5q9 -14 31 -23t45 -9q40 0 60 24q13 16 19.5 35t9 39.5t2.5 42.5v44l53 11q9 -57 21.5 -92.5
t26 -55.5t27 -27.5t23.5 -7.5q43 3 60.5 29.5t17.5 62.5q0 38 -16.5 81.5t-40.5 75.5l50 34q9 -14 20.5 -36t22 -48t17.5 -53.5t7 -51.5q0 -19 -4.5 -45t-19.5 -49t-43 -39.5t-75 -16.5q-14 0 -29.5 5t-30.5 14t-27.5 22t-21.5 30q-18 -44 -53.5 -65t-71.5 -21h-6v0z
M238 1568q34 166 -16 360l70 26q58 -207 11 -406z" />
    <glyph glyph-name=".notdef" horiz-adv-x="1229" 
d="M102 1444h1024v-1806h-1024v1806zM1012 -248v1577h-795v-1577h795z" />
    <glyph glyph-name="NULL" 
 />
    <glyph glyph-name="nonmarkingreturn" horiz-adv-x="602" 
 />
    <glyph glyph-name="space" unicode=" " horiz-adv-x="650" 
 />
    <glyph glyph-name="space" unicode="&#xa0;" horiz-adv-x="650" 
 />
    <glyph glyph-name="uni0640" unicode="&#x640;" horiz-adv-x="907" 
d="M-71 98q0 24 19 41t44 17h8h908h6q24 0 41.5 -17t17.5 -41q0 -25 -17.5 -41.5t-41.5 -16.5h-6h-917q-25 0 -43.5 16.5t-18.5 41.5z" />
    <glyph glyph-name="uni066E" unicode="&#x66e;" horiz-adv-x="1982" 
d="M994 40q-171 2 -313.5 23.5t-247.5 57.5q-88 37 -157.5 91t-100.5 118q-20 36 -29 75.5t-9 84.5q0 42 10 88t27 94q16 42 32 73t30 53q28 -20 48 -36t45 -35q-2 -3 -2.5 -4t-4.5 -9.5t-13 -28t-28 -59.5q-29 -72 -29 -135q0 -27 7 -55t18 -52q30 -52 92.5 -94t154 -71
t210 -45t260.5 -16q82 0 179 9.5t199 30.5t205 56t196 86q-6 66 -26 131t-45 123t-51 105t-44 76l99 64q10 -17 27.5 -47.5t37.5 -70t40 -85t36.5 -93t27 -95t10.5 -90.5q0 -39 -22.5 -72.5t-73.5 -67.5h1q-68 -39 -165.5 -72t-207 -57t-220 -37t-203.5 -12z" />
    <glyph glyph-name="feh_dotless.isol" horiz-adv-x="1948" 
d="M1684 987q33 -37 62.5 -88t51 -111t34.5 -127t13 -137q0 -39 -3 -81t-16 -81q-26 -70 -73 -121t-111 -87t-142 -58t-166 -34.5t-184 -17t-195 -4.5q-583 0 -750 285q-34 57 -47.5 116.5t-13.5 116.5q0 48 5 88t12.5 71.5t16.5 56.5t18 43l104 -58q-14 -34 -26 -81
t-12 -119q0 -43 11.5 -88t34.5 -87q66 -106 220 -161.5t396 -65.5q22 -1 43.5 -1h41.5q127 0 245 12.5t215 42.5t166.5 80.5t99.5 127.5q-61 -13 -104 -17t-78 -4q-103 0 -184 30t-132 87q-21 23 -37 64t-16 102q0 43 9 90.5t26 93t42.5 87t57.5 72.5t71 49.5t84 18.5
q115 0 210 -105zM1734 532q-2 66 -17.5 138.5t-46.5 135.5t-77.5 109t-110.5 60q-26 3 -59.5 -21.5t-64.5 -65t-52 -91t-21 -99.5q0 -32 6.5 -60t23.5 -51q18 -23 44.5 -38t58 -24.5t66 -13.5t67.5 -4q45 0 93 7t90 18z" />
    <glyph glyph-name="uni06A1.fina" horiz-adv-x="2106" 
d="M1938 528q-3 -56 -15 -101t-32.5 -84t-49.5 -75t-66 -74q97 -17 180.5 -27.5t152.5 -10.5q24 0 41.5 -16.5t17.5 -41.5q0 -24 -17.5 -41t-41.5 -17q-126 0 -244.5 18.5t-224.5 55.5l-75 -24q-48 -18 -115.5 -31.5t-146.5 -22.5t-166.5 -13.5t-174.5 -4.5
q-297 1 -488.5 71t-276.5 214q-35 57 -48 116.5t-13 117.5q0 47 6.5 88.5t15.5 76.5t19.5 62.5t19.5 47.5l104 -58q-16 -36 -32 -92t-16 -126q0 -45 11.5 -89t34.5 -86q33 -54 84.5 -95t126 -69.5t172.5 -44t224 -18.5h5q27 -1 53 -1.5t49 -0.5q142 0 257.5 15.5t215.5 35.5
q-47 27 -83.5 67.5t-62 85t-38.5 88.5t-13 77q0 69 25 139.5t70 128t106.5 93.5t133.5 36q76 0 131.5 -27.5t93.5 -76.5t59.5 -117t30.5 -149zM1623 244q61 26 102 58.5t66 69t35.5 76.5t10.5 80q0 57 -13 98t-33.5 68.5t-45.5 44.5t-49 25.5t-43.5 11.5t-29.5 3
q-35 0 -74.5 -17.5t-73.5 -53t-56.5 -88.5t-22.5 -124q0 -29 15.5 -65.5t44.5 -72.5t71.5 -67t95.5 -47z" />
    <glyph glyph-name="uni066F" unicode="&#x66f;" horiz-adv-x="1581" 
d="M1064 41q-96 8 -171.5 40.5t-120.5 86.5q-28 38 -44.5 85t-16.5 98q0 46 9.5 93.5t25 91.5t37 84t45.5 71q43 57 94.5 85t106.5 28q63 0 120 -29.5t111 -87.5v1q42 -46 74.5 -105t55.5 -126.5t35 -141.5t12 -149q0 -24 -1 -47t-3 -46q1 -2 -1 -31t-12 -75.5t-28.5 -104.5
t-50.5 -119q-79 -152 -202 -235q-155 -107 -374 -107q-96 0 -177.5 17.5t-151.5 54.5q-75 36 -131 86.5t-94 119.5q-85 138 -85 318q0 27 3 59q8 103 40.5 213.5t89.5 222.5l105 -56q-119 -234 -119 -438q0 -144 66 -258q64 -106 180 -162.5t269 -58.5q8 -1 19.5 -1h19.5
q103 0 189 43t152 115t110.5 166t65.5 196zM1027 685q-32 -3 -59.5 -21.5t-50.5 -46.5t-41 -63t-30 -70.5t-18.5 -69t-6.5 -59.5q0 -33 8 -61.5t25 -49.5q20 -24 48.5 -39.5t59 -25.5t59.5 -14.5t49 -6.5q30 -2 59.5 -2.5t54.5 -0.5q14 0 33.5 0.5t39.5 1t37.5 1.5t27.5 2
q-3 77 -16.5 145t-34.5 125t-46.5 102t-52.5 76q-13 13 -28.5 26.5t-33.5 24.5t-38.5 18.5t-42.5 7.5h-2z" />
    <glyph glyph-name="onedot.above" horiz-adv-x="1024" 
d="M524 1091l-134 134l133 133l134 -134z" />
    <glyph glyph-name="twodots.above" horiz-adv-x="1024" 
d="M342 890l-134 133l132 133l134 -134zM698 888l-134 134l132 132l133 -134z" />
    <glyph glyph-name="threedots.above" horiz-adv-x="1151" 
d="M768 1284l134 -134l-132 -132l-134 134zM362 1286l134 -134l-132 -133l-134 134zM569 1557l133 -133l-132 -132l-133 133z" />
    <glyph glyph-name="threedots.below" horiz-adv-x="1057" 
d="M875 -236l-134 -134l-132 132l134 134zM469 -238l-134 -134l-132 133l134 134zM681 -507l-134 -134l-132 132l134 134z" />
    <glyph glyph-name="uni0660" unicode="&#x660;" horiz-adv-x="914" 
d="M145 483q0 66 25 124t68.5 102t101.5 69.5t124 25.5t124 -25.5t102 -69.5t69.5 -102t25.5 -124t-25.5 -124t-69.5 -101.5t-102 -68.5t-124 -25t-124 25t-101.5 68.5t-68.5 101.5t-25 124zM257 483q0 -43 16.5 -81t45 -66.5t66.5 -45t81 -16.5t81.5 16.5t67 45t45 66.5
t16.5 81t-16.5 81.5t-45 67t-67 45t-81.5 16.5t-81 -16.5t-66.5 -45t-45 -67t-16.5 -81.5z" />
    <glyph glyph-name="uni0661" unicode="&#x661;" horiz-adv-x="640" 
d="M335 42q0 189 -7.5 374.5t-30.5 356t-65 321.5t-112 273l100 62q69 -120 118 -289.5t77 -364.5q12 -92 19.5 -186.5t12 -189t6 -186t1.5 -176.5h-114z" />
    <glyph glyph-name="uni0662" unicode="&#x662;" horiz-adv-x="1089" 
d="M943 1435q3 -26 6.5 -66.5t1.5 -86.5q-6 -218 -100 -331q-45 -52 -108 -80.5t-140 -28.5q-48 0 -102.5 13t-111.5 37l10 -89l5 -35q11 -88 19 -183t12.5 -190t6.5 -186.5t2 -172.5h-118q0 153 -5 306.5t-20 300t-41.5 280.5t-69.5 248l-9 26v-1q-15 40 -31.5 79t-36.5 78
l99 63q26 -46 47.5 -94t39.5 -97q2 -4 5.5 -10.5t5.5 -10.5q23 -51 50 -95.5t61.5 -78t78.5 -53t103 -19.5q49 0 89 17.5t68 48.5q21 27 35 60.5t23 70t13 74.5t4 74q0 32 -2 60.5t-6 54.5l110 21z" />
    <glyph glyph-name="uni0663" unicode="&#x663;" horiz-adv-x="1401" 
d="M1282 1452q24 -140 24 -241q0 -180 -72 -267q-66 -78 -178 -78q-23 0 -52 6t-59 23.5t-59 48t-50 79.5q-27 -59 -60 -94t-68 -53t-70.5 -23.5t-68.5 -5.5q-38 0 -80 6.5t-87 35.5l15 -116q12 -91 19.5 -185.5t12 -188.5t6.5 -185t2 -175h-117q4 166 -3 335.5t-32 337
t-72 331t-123 317.5l112 65q7 -12 16 -29t20.5 -41.5t27.5 -59t37 -82.5q26 -60 47 -106.5t47.5 -78t62 -48t89.5 -16.5q61 0 98.5 29.5t58 76t28.5 102.5t11 109q0 8 -0.5 25.5t-1.5 39t-2 44t-2 40.5q20 2 44 5.5t72 9.5q2 -12 3.5 -24.5t3.5 -45.5q6 -64 17 -133.5
t29 -125.5q16 -50 35 -77t36.5 -39.5t32.5 -14.5t24 -2q34 0 55 11.5t31 22.5q7 9 15 24.5t15 39t12 56t5 75.5q0 44 -5 98.5t-16 125.5l108 20z" />
    <glyph glyph-name="uni0664" unicode="&#x664;" horiz-adv-x="1165" 
d="M753 741q-58 0 -110 10.5t-98.5 33.5t-89 61t-81.5 94l32 -208q10 -86 17 -176t10.5 -179.5t5 -176t1.5 -165.5h-115q0 184 -7.5 364t-30 346t-63 313t-107.5 265q24 15 39.5 24.5t26 16t17.5 11t13 7.5q15 -27 30 -55t30.5 -62.5t32.5 -77.5t36 -100q9 72 40.5 134
t80.5 107.5t114 71.5t142 28q88 2 165.5 -35.5t143.5 -102.5l-86 -82q-21 19 -44 39t-49 35t-57.5 24t-68.5 8q-54 -3 -104.5 -28t-86.5 -66q-16 -20 -30.5 -39.5t-25 -41t-15.5 -44.5t-3 -49q8 -48 36.5 -84t69.5 -60t90 -35.5t99 -11.5q28 0 63 5.5t68.5 15t63.5 23.5
t50 32l50 -91q-26 -26 -63 -44.5t-77.5 -30.5t-81 -18t-73.5 -6z" />
    <glyph glyph-name="uni0665" unicode="&#x665;" horiz-adv-x="1219" 
d="M819 41q-80 1 -129.5 43.5t-83.5 118.5q-29 -74 -90.5 -118t-151.5 -44q-51 0 -100.5 25t-86.5 71q-20 25 -34 56.5t-24 66.5t-14.5 71.5t-4.5 71.5q0 41 6.5 91.5t16.5 101.5q33 144 113.5 319.5t215.5 387.5l-53 49l89 83q89 -85 172 -175t160 -184q50 -64 102 -141.5
t94 -162.5t69 -174t27 -176q0 -67 -18.5 -140t-60.5 -131q-40 -54 -94 -82t-119 -28h-1zM660 495q1 -46 8.5 -105t25.5 -111.5t48.5 -88.5t77.5 -36q50 0 85 26t56.5 65.5t31 86.5t9.5 90q0 71 -24 146.5t-63 151t-88.5 148t-101.5 138.5t-101.5 122t-87.5 98
q-66 -105 -117 -195.5t-88.5 -170.5t-63 -151t-40.5 -136q-10 -44 -14.5 -90t-4.5 -82q0 -63 15.5 -113t42.5 -84q23 -26 50.5 -38t47.5 -12q53 0 101 45t74 130q17 57 17.5 99.5t2.5 65.5z" />
    <glyph glyph-name="uni0666" unicode="&#x666;" horiz-adv-x="1067" 
d="M131 82q8 20 25 58t41 86t53.5 103t62.5 108q24 34 55.5 74t67.5 82.5t76 85.5t80 82q-11 -1 -19 -1h-19q-60 0 -115 13.5t-99.5 40t-76 64.5t-43.5 88q-12 52 -10.5 103.5t17.5 99t46.5 90t77.5 77.5q50 37 113 61t128 29q64 8 130 -9t127 -47l-57 -99q-92 43 -170 43
q-62 0 -114 -20t-88 -47q-60 -49 -85.5 -114t-4.5 -136q7 -20 27 -41.5t49 -38.5t66 -28t79 -11q43 -1 91.5 5t98.5 16.5t99 24t94 27.5l35 -109q-106 -28 -199.5 -90t-172 -141t-141 -166t-108.5 -166.5t-74 -143t-36 -93.5z" />
    <glyph glyph-name="uni0667" unicode="&#x667;" horiz-adv-x="1165" 
d="M814 751q-38 -107 -68.5 -208.5t-53 -193.5t-36 -172.5t-16.5 -143.5h-114q-4 210 -43 397.5t-101 355t-140.5 316t-159.5 279.5l96 60q108 -174 188 -337t137 -315q19 -54 42.5 -139t51.5 -196q46 153 98.5 300.5t105 277t102 235t89.5 173.5q24 -16 40.5 -26t27 -16.5
t17 -10.5t11.5 -7q-30 -51 -64.5 -122.5t-70.5 -155t-71.5 -173.5t-67.5 -178z" />
    <glyph glyph-name="uni0668" unicode="&#x668;" horiz-adv-x="1165" 
d="M988 17q-39 66 -87.5 169.5t-100 232.5t-104 276.5t-99.5 302.5q-26 -108 -50.5 -192.5t-44.5 -141.5q-54 -154 -135.5 -314.5t-190.5 -337.5l-95 60q81 132 160 280.5t142 315.5t103 354t44 398h115q3 -62 16 -143.5t35 -174.5t51 -195t65 -206q31 -84 67.5 -174
t73 -174.5t71.5 -157.5t62 -122z" />
    <glyph glyph-name="uni0669" unicode="&#x669;" horiz-adv-x="1023" 
d="M878 35q-53 51 -90.5 127t-64 163.5t-44.5 179t-31 172.5q-5 28 -9.5 54.5t-9.5 55.5q-54 -19 -98.5 -27.5t-81.5 -8.5q-45 0 -89.5 9.5t-84 26.5t-71.5 40.5t-52 50.5q-23 32 -34.5 74t-11.5 87q0 69 22.5 140.5t62 129.5t94 94t119.5 35q28 -2 61 -12.5t67 -36
t66.5 -68.5t61.5 -109q19 -47 33.5 -101.5t25 -113.5t18 -120.5t13.5 -123.5v1q10 -69 26 -155t39.5 -172.5t55 -165t72.5 -131.5zM394 1323q-38 -10 -69.5 -39t-54.5 -68.5t-35.5 -85t-12.5 -87.5q0 -24 5 -49.5t17 -49.5v1q19 -24 45.5 -39.5t55 -24.5t57.5 -12.5t54 -3.5
q20 0 42 4t43.5 10.5t41.5 14t35 15.5q-13 79 -29 143.5t-37 115.5q-11 26 -25.5 53.5t-33.5 50t-41.5 37t-50.5 15.5q-2 0 -4 -0.5t-4 -0.5h1z" />
    <glyph glyph-name="uni06F4" unicode="&#x6f4;" horiz-adv-x="1165" 
d="M753 741q-58 0 -110 10.5t-98.5 33.5t-89 61t-81.5 94l32 -208q10 -86 17 -176t10.5 -179.5t5 -176t1.5 -165.5h-115q0 184 -7.5 364t-30 346t-63 313t-107.5 265q24 15 39.5 24.5t26 16t17.5 11t13 7.5q15 -27 30 -55t30.5 -62.5t32.5 -77.5t36 -100q9 72 40.5 134
t80.5 107.5t114 71.5t142 28q88 2 165.5 -35.5t143.5 -102.5l-86 -82q-21 19 -44 39t-49 35t-57.5 24t-68.5 8q-54 -3 -104.5 -28t-86.5 -66q-16 -20 -30.5 -39.5t-25 -41t-15.5 -44.5t-3 -49q8 -48 36.5 -84t69.5 -60t90 -35.5t99 -11.5q28 0 63 5.5t68.5 15t63.5 23.5
t50 32l50 -91q-26 -26 -63 -44.5t-77.5 -30.5t-81 -18t-73.5 -6z" />
    <glyph glyph-name="uni06F5" unicode="&#x6f5;" horiz-adv-x="1219" 
d="M819 41q-80 1 -129.5 43.5t-83.5 118.5q-29 -74 -90.5 -118t-151.5 -44q-51 0 -100.5 25t-86.5 71q-20 25 -34 56.5t-24 66.5t-14.5 71.5t-4.5 71.5q0 41 6.5 91.5t16.5 101.5q33 144 113.5 319.5t215.5 387.5l-53 49l89 83q89 -85 172 -175t160 -184q50 -64 102 -141.5
t94 -162.5t69 -174t27 -176q0 -67 -18.5 -140t-60.5 -131q-40 -54 -94 -82t-119 -28h-1zM660 495q1 -46 8.5 -105t25.5 -111.5t48.5 -88.5t77.5 -36q50 0 85 26t56.5 65.5t31 86.5t9.5 90q0 71 -24 146.5t-63 151t-88.5 148t-101.5 138.5t-101.5 122t-87.5 98
q-66 -105 -117 -195.5t-88.5 -170.5t-63 -151t-40.5 -136q-10 -44 -14.5 -90t-4.5 -82q0 -63 15.5 -113t42.5 -84q23 -26 50.5 -38t47.5 -12q53 0 101 45t74 130q17 57 17.5 99.5t2.5 65.5z" />
    <glyph glyph-name="uni06F6" unicode="&#x6f6;" horiz-adv-x="1067" 
d="M131 82q8 20 25 58t41 86t53.5 103t62.5 108q24 34 55.5 74t67.5 82.5t76 85.5t80 82q-11 -1 -19 -1h-19q-60 0 -115 13.5t-99.5 40t-76 64.5t-43.5 88q-12 52 -10.5 103.5t17.5 99t46.5 90t77.5 77.5q50 37 113 61t128 29q64 8 130 -9t127 -47l-57 -99q-92 43 -170 43
q-62 0 -114 -20t-88 -47q-60 -49 -85.5 -114t-4.5 -136q7 -20 27 -41.5t49 -38.5t66 -28t79 -11q43 -1 91.5 5t98.5 16.5t99 24t94 27.5l35 -109q-106 -28 -199.5 -90t-172 -141t-141 -166t-108.5 -166.5t-74 -143t-36 -93.5z" />
    <glyph glyph-name="uni066A" unicode="&#x66a;" horiz-adv-x="1217" 
d="M241 39q39 104 76 203t74 196t73.5 194t75.5 199l264 698h136q-37 -98 -71.5 -189.5t-69 -182l-69 -181t-70.5 -185.5l-285 -752h-134zM916 62l-147 147l146 145l147 -147zM285 1182l-147 147l146 145l147 -147z" />
    <glyph glyph-name="uni061F" unicode="&#x61f;" horiz-adv-x="1024" 
d="M564 20l-127 128l134 135l128 -128zM346 1029q46 -35 94 -68.5t93 -75.5q49 -47 68 -120t19 -167v-108h-116v108q0 39 -4 72.5t-14 63.5t-28.5 57.5t-46.5 53.5l-116 86q-23 18 -46.5 38.5t-46.5 38.5q-104 124 -104 262q0 148 130 257q65 52 135.5 78.5t149.5 26.5
q91 0 164.5 -31.5t126.5 -86.5q45 -54 71 -124.5t33 -156.5h-116q-20 282 -279 282q-23 0 -48 -5t-49.5 -13.5t-47.5 -20.5t-42 -25q-41 -37 -68.5 -84.5t-27.5 -95.5q0 -76 28 -135t88 -107z" />
    <glyph glyph-name="uni060C" unicode="&#x60c;" horiz-adv-x="579" 
d="M442 149q-2 -22 -13 -44.5t-28.5 -41t-39.5 -30.5t-46 -12q-41 0 -73.5 17t-54.5 46t-32 66t-5 78q6 55 18 102.5t34.5 91t58 84t89.5 81.5q14 -11 28 -23.5t30 -23.5q-74 -64 -119.5 -139t-45.5 -162q25 20 51 23t52 4q24 -5 41 -14t28.5 -23t17.5 -34t9 -48v2v0z" />
    <glyph glyph-name="uni061B" unicode="&#x61b;" horiz-adv-x="512" 
d="M354 125q0 -41 -32 -73q-32 -30 -73 -30q-43 0 -74 30q-31 31 -31 73q0 43 31 74t74 31q42 0 73 -31q32 -32 32 -74zM386 559q-2 -22 -13 -44.5t-28.5 -41t-39.5 -30.5t-46 -12q-44 0 -78 16.5t-56.5 44.5t-32.5 65.5t-6 79.5q5 54 18 101.5t37 91.5t61.5 85t91.5 82
q14 -11 28 -23.5t30 -23.5q-74 -64 -119.5 -139t-45.5 -162q25 20 51 23t52 4q24 -5 41 -14t28.5 -23t17.5 -34t9 -48v2z" />
    <glyph glyph-name="uni066B" unicode="&#x66b;" horiz-adv-x="668" 
d="M483 858h122l-537 -1064h-123z" />
    <glyph glyph-name="uni066C" unicode="&#x66c;" horiz-adv-x="545" 
d="M121 128q2 27 12 51t27 42t41.5 28.5t54.5 11.5q44 1 75 -15.5t51 -44.5t29.5 -65.5t9.5 -78.5q10 -262 -305 -427q-12 24 -22.5 44t-18.5 33q268 127 246 324q-24 -19 -57.5 -25.5t-64.5 3.5t-53.5 39.5t-24.5 81.5v-2v0z" />
    <glyph glyph-name="uni066D" unicode="&#x66d;" horiz-adv-x="965" 
d="M481 1043l83 -289l158 5l143 4l-250 -167l74 -205q7 -20 14.5 -40t15.5 -40l-240 188l-235 -186l102 283l-253 169l306 -11z" />
    <glyph glyph-name="uni064B" unicode="&#x64b;" 
d="M19 1136v79l510 206v-71zM12 1315v79l510 206v-74z" />
    <glyph glyph-name="uni064D" unicode="&#x64d;" 
d="M20 -615v79l510 206v-71zM13 -436v79l510 206v-74z" />
    <glyph glyph-name="uni064E" unicode="&#x64e;" 
d="M12 1144v79l510 206v-74z" />
    <glyph glyph-name="uni064F" unicode="&#x64f;" 
d="M155 1239q85 39 149 83q-18 7 -36 15q-23 11 -43 21q-110 56 -100 134q10 71 76 117q68 48 134 20q67 -36 80 -125q11 -77 -20 -152l27 -8l-19 -57l-42 15q-62 -60 -168 -112q-40 -20 -82 -36q-33 -13 -60 -21l-21 57q53 16 125 49zM221 1553q-40 -30 -40 -68
q0 -39 66 -70l92 -43q29 42 17 122q-13 86 -70 86q-30 0 -65 -27z" />
    <glyph glyph-name="uni064C" unicode="&#x64c;" 
d="M40 1194q8 17 14 45.5t6 52.5q0 14 -1 26t-5 17q-5 11 -14.5 19t-28.5 10h1q-20 1 -40.5 -9t-35.5 -22l-42 42q8 7 21 16t28.5 16.5t33.5 12t37 3.5q61 -4 89 -55q9 -17 13 -35t4 -38q0 -31 -11 -86q28 9 60 20.5t64.5 25.5t64 30.5t58.5 34.5l-80 34q-53 26 -73.5 63.5
t-20.5 71.5q0 15 3 27t8 21q21 44 62.5 72t86.5 28q12 0 25.5 -3.5t22.5 -7.5q25 -12 44.5 -36.5t27.5 -52.5q9 -32 9 -63q0 -28 -6.5 -61t-15.5 -63l32 -12l-24 -53l-39 11q-37 -35 -86.5 -62t-99 -46.5t-92 -31.5t-65.5 -17l-35 48v7zM342 1577q-12 0 -27 -5t-29 -14
t-25 -21.5t-17 -26.5l1 1q-2 -5 -2 -16.5t5.5 -26.5t18.5 -31t37 -29q23 -11 44.5 -19.5t45.5 -19.5q6 23 11.5 52.5t5.5 53.5q0 13 -2 26.5t-7 25.5q-6 17 -20 33.5t-40 16.5z" />
    <glyph glyph-name="uni0650" unicode="&#x650;" 
d="M39 -436v79l510 206v-74z" />
    <glyph glyph-name="uni0651" unicode="&#x651;" 
d="M138 1151q-28 1 -48 7t-34.5 14.5t-24 18.5t-15.5 19q-11 18 -15 36.5t-4 38.5q0 30 8.5 62t18.5 53l52 -24q-9 -23 -14.5 -47.5t-5.5 -44.5q0 -14 1.5 -24.5t6.5 -18.5q9 -14 31 -23t45 -9q40 0 60 24q13 16 19.5 35t9 39.5t2.5 42.5v44l53 11q9 -57 21.5 -92.5
t26 -55.5t27 -27.5t23.5 -7.5q43 3 60.5 29.5t17.5 62.5q0 38 -16.5 81.5t-40.5 75.5l50 34q9 -14 20.5 -36t22 -48t17.5 -53.5t7 -51.5q0 -19 -4.5 -45t-19.5 -49t-43 -39.5t-75 -16.5q-14 0 -29.5 5t-30.5 14t-27.5 22t-21.5 30q-18 -44 -53.5 -65t-71.5 -21h-6v0z" />
    <glyph glyph-name="uni0652" unicode="&#x652;" 
d="M276 1204q23 0 45 11t38.5 29.5t26 43t8.5 52.5q-1 22 -8.5 46t-22.5 44t-36.5 32.5t-50.5 12.5q-27 0 -48.5 -13t-37.5 -32.5t-24.5 -43.5t-8.5 -46q0 -24 9.5 -48t26 -43.5t38 -32t45.5 -12.5zM276 1536q39 0 71.5 -18t55.5 -46t36.5 -63t14.5 -69q1 -38 -12.5 -73
t-38 -63t-57.5 -44.5t-70 -16.5q-41 -1 -74 16t-56 45t-36 64t-13 72q0 34 13 69t36 63t56 46t74 18z" />
    <glyph glyph-name="uni0653" unicode="&#x653;" 
d="M-99 1179q5 15 15 38t21 43q29 45 67 73.5t80 36.5q10 2 20.5 2.5t18.5 0.5q42 0 75.5 -10.5t62.5 -22.5t57.5 -20.5t61.5 -9.5q25 -1 47.5 8.5t41.5 24t34 30t24 26.5q21 -12 41 -25.5t42 -27.5q-9 -13 -30 -36.5t-51.5 -46t-69.5 -38.5t-84 -15q-36 1 -67.5 9.5
t-65.5 20.5l-15 6q-35 14 -65 22t-64 3h1q-19 -3 -35.5 -16.5t-30 -31.5t-23.5 -38t-16 -36l-93 30v0z" />
    <glyph glyph-name="uni0654" unicode="&#x654;" 
d="M354 1583q-13 1 -29 3.5t-34 2.5q-15 0 -30 -2.5t-30 -8.5v2q-31 -13 -50 -39.5t-19 -57.5q0 -14 8 -33l-1 1q7 -17 19.5 -31t29 -24t36 -15.5t39.5 -5.5q11 0 20.5 1t20.5 5q25 8 49 20t43 23q24 13 42 27l57 -72q-38 -27 -95 -58t-139 -74l-220 -117l-46 81l173 92
q-41 16 -70.5 46t-46.5 66q-13 33 -13 68q0 29 9 56.5t26 51t40.5 42t52.5 29.5q44 18 95 18q22 0 42.5 -3t36.5 -6l37 -9l-27 -85z" />
    <glyph glyph-name="uni0655" unicode="&#x655;" 
d="M399 -275q-13 1 -29 3.5t-34 2.5q-15 0 -30 -2.5t-30 -8.5v2q-31 -13 -50 -39.5t-19 -57.5q0 -14 8 -33l-1 1q7 -17 19.5 -31t29 -24t36 -15.5t39.5 -5.5q11 0 20.5 1t20.5 5q25 8 49 20t43 23q24 13 42 27l57 -72q-38 -27 -95 -58t-139 -74l-220 -117l-46 81l173 92
q-41 16 -70.5 46t-46.5 66q-13 33 -13 68q0 29 9 56.5t26 51t40.5 42t52.5 29.5q44 18 95 18q22 0 42.5 -3t36.5 -6l37 -9l-27 -85z" />
    <glyph glyph-name="uni0670" unicode="&#x670;" 
d="M235 1156q34 166 -16 360l70 26q58 -207 11 -406z" />
    <glyph glyph-name="uni0656" unicode="&#x656;" 
d="M244 -544q34 166 -16 360l70 26q58 -207 11 -406z" />
    <glyph glyph-name="uni0615" unicode="&#x615;" 
d="M522 1355q16 37 7 65q-11 34 -45 50q-21 10 -46 10q-13 0 -24 -3q-30 -8 -65 -27q-87 -47 -151 -130l-63 -81q58 -6 100 -6q76 0 115 8q59 12 104 41q49 31 67 71zM601 1415q2 -59 -35 -114q-31 -45 -81 -76q-98 -60 -245 -60h-26q-147 5 -283 55l-5 2l32 62
q59 -21 104 -32l61 82v2q0 2 1 12q1 11 1 23q2 35 3 53q1 107 -18 276q-3 22 -14 103l74 18q23 -178 29 -262q4 -60 4 -138q50 46 92 74q60 39 111 50q15 3 31 3q54 0 99 -29q54 -35 63 -93q1 -2 1 -8z" />
    <glyph glyph-name="wasla" 
d="M-52 1253q29 15 50 21q20 7 42 11.5t36 2.5q18 -4 32.5 -13.5t25.5 -19.5t18 -19q7 13 16.5 30t21.5 35.5t26.5 37t30.5 34.5q28 27 63 45.5t72 23.5h-1q15 4 35 4q61 0 101 -43q39 -39 34 -89q-3 -58 -51 -101q-21 -17 -48.5 -28t-57 -17.5t-59.5 -9t-57 -2.5
q-24 0 -49.5 2t-49.5 8.5t-46 19t-40 32.5h1l-4 3v-1q-8 5 -14 10t-14 5q-14 0 -29 -4t-30 -9t-28 -11.5l-21 -10.5l-9 47zM280 1213q49 0 100 10.5t84 35.5q28 25 31 59q0 16 -5.5 27t-10.5 15q-21 24 -45 27.5t-44 -0.5q-26 -5 -54 -19t-51 -37q-14 -14 -26 -29.5t-22 -31
t-18 -29t-13 -23.5z" />
    <glyph glyph-name="beh_dotless_alt.init" horiz-adv-x="843" 
d="M-58 98q0 25 17 41.5t41 16.5h111q42 0 93.5 1t104.5 7t102.5 20t88.5 40.5t62.5 67.5t23.5 101q0 48 -14 108.5t-37 132.5q-7 22 -16.5 47t-20 49.5t-20 46.5t-16.5 39q29 14 54.5 27t52.5 27q14 -32 35.5 -84.5t41.5 -115.5q25 -79 38 -147t13 -128q0 -84 -26 -145v1
q-33 -69 -90 -118.5t-138 -72.5q-25 -7 -65 -11t-82.5 -6t-81 -2.5t-60.5 -0.5h-154q-24 0 -41 16.5t-17 41.5z" />
    <glyph glyph-name="beh_dotless_alt.medi" horiz-adv-x="852" 
d="M-61 98q0 25 16.5 41.5t41.5 16.5h76q93 0 177.5 9.5t148 38t100.5 81t34 138.5q-1 25 -3 48.5t-5.5 48.5t-9.5 52.5t-15 62.5q12 3 20.5 5.5t16 5l15 5t18.5 5.5l41 12q15 -60 22.5 -111.5t13.5 -105.5l5 -49q5 -45 13 -89t29 -79t59 -56.5t102 -21.5q25 0 42.5 -16.5
t17.5 -41.5t-17.5 -41.5t-40.5 -16.5q-90 0 -156.5 42t-114.5 106q-42 -41 -101 -69t-127.5 -45.5t-142 -25.5t-142.5 -8h-76q-25 0 -41.5 16.5t-16.5 41.5z" />
    <glyph glyph-name="onedot.below" horiz-adv-x="1024" 
d="M439 -493l-134 134l133 133l134 -134z" />
    <glyph glyph-name="twodots.below" horiz-adv-x="1024" 
d="M319 -497l-136 135l134 135l136 -136zM713 -499l-136 136l134 134l136 -135z" />
    <glyph glyph-name="alef_alt.isol" horiz-adv-x="509" 
d="M232 41q5 72 8.5 135.5t5.5 123t3 117t1 118.5q0 49 -0.5 98.5t-1.5 101.5q-2 75 -5 142t-8 116l-4 55q-5 71 -11.5 142t-16.5 144q12 2 20.5 3t16 1.5l15 1t18.5 0.5q11 1 22.5 2t22.5 3q8 -60 14.5 -125t12 -131t10 -131t7.5 -124q2 -63 3.5 -132t1.5 -148
q0 -117 -4 -246.5t-14 -271.5l-117 5v0z" />
    <glyph glyph-name="alef_alt.fina" horiz-adv-x="640" 
d="M645 40q-103 0 -174 23t-119 71q-29 28 -44.5 62t-22 67.5t-7.5 64.5t-1 52v10q1 35 2.5 106.5t1.5 168.5q0 57 -0.5 124.5t-2 139.5t-3.5 144.5t-5.5 140t-8 127t-10.5 104.5l116 22q7 -49 12 -112t8.5 -134t5.5 -147.5t3 -151.5t1.5 -146t0.5 -131q0 -70 -0.5 -140
t-1.5 -127q0 -20 1.5 -43t6 -45t12.5 -41t22 -32q27 -27 76.5 -43.5t121.5 -17.5h9q24 0 41.5 -17t17.5 -41q0 -25 -17.5 -41.5t-41.5 -16.5z" />
    <glyph glyph-name="uni06D5" unicode="&#x6d5;" horiz-adv-x="983" 
d="M485 36q-5 0 -23 1t-45 5t-60.5 13t-67.5 25q-84 38 -127 105t-43 158q0 79 40.5 169.5t112.5 181.5q13 15 31.5 34.5t38.5 39.5t40.5 39.5t37.5 34.5l-77 74l80 80q16 -14 37 -34.5t45.5 -46t51.5 -54.5t54 -59q53 -62 97.5 -125t76.5 -122t50 -113t18 -99
q0 -91 -39.5 -157.5t-117.5 -104.5q-30 -14 -60.5 -22.5t-58 -13.5t-51.5 -7t-41 -2zM489 762q-42 -38 -89 -87t-86.5 -104.5t-66 -113.5t-26.5 -113q0 -20 4.5 -41t17 -41.5t34.5 -40t56 -35.5h-1q21 -11 44.5 -17t45 -9t38.5 -4t25 -1q10 0 28 0.5t40 3.5t45.5 9t45.5 17
q48 26 77 60t29 93q0 72 -67.5 178t-193.5 246z" />
    <glyph glyph-name="heh_ae.fina" horiz-adv-x="1090" 
d="M544 180q-238 0 -329 111q-24 30 -33.5 65.5t-9.5 68.5q0 29 4.5 53t11.5 40v-1q25 53 62 97t80 80.5t89.5 65.5t91 51.5t83.5 38.5t68 27l-15 142q32 7 60 13.5t57 13.5q1 -8 3.5 -33.5t6.5 -59t7.5 -71t7.5 -71t6.5 -58.5t3.5 -32v1q15 -131 28.5 -215t24 -134t18 -72
t10.5 -29q15 -34 34 -56t44.5 -35.5t58 -19t73.5 -5.5q24 0 41.5 -16.5t17.5 -41.5q0 -24 -17.5 -41t-41.5 -17q-37 0 -85 6t-94 27h1q-68 31 -129 130q-75 -11 -133 -17t-106 -6zM626 738q-26 -11 -61.5 -26.5t-74 -36t-75.5 -45.5t-66.5 -54.5t-47.5 -63.5t-18 -73
q0 -43 22 -71t58 -44.5t82 -23t93 -6.5t103 7t102 15q-7 34 -15.5 84t-17 108.5t-17 122.5t-16.5 127z" />
    <glyph glyph-name="uni06C2" unicode="&#x6c2;" horiz-adv-x="1264" 
d="M1274 156q24 0 41 -17t17 -41t-17 -41t-41 -17q-71 0 -127 22t-104 58.5t-89.5 83t-83.5 94.5q-35 41 -70.5 80t-74 69t-80.5 48.5t-90 18.5q-22 0 -44 -3t-46 -11q-54 -20 -98.5 -62t-80 -100t-62.5 -128t-48 -146l-112 30q24 90 56 173t76 151.5t101.5 118.5t133.5 73
q35 11 65.5 15.5t58.5 4.5q67 0 123.5 -22t105 -58t91 -82t83.5 -94q33 -39 68.5 -77.5t74.5 -70t82 -51t91 -19.5zM441 1159q-13 2 -29.5 4.5t-35.5 2.5q-15 0 -30.5 -2.5t-31.5 -9.5v2q-32 -14 -51.5 -42.5t-19.5 -61.5q0 -15 8 -36l-1 1q7 -18 20 -33t30 -26t37 -17
t41 -6q11 0 21 1t21 6q26 8 51 21t45 25q24 14 43 29l59 -78q-39 -29 -98 -62t-144 -80l-227 -126l-48 87l179 100q-42 17 -73 49t-48 71q-14 36 -14 74q0 31 9.5 60.5t27 55t42 45.5t54.5 32q45 19 98 19q23 0 44 -3t38 -7l38 -9l-28 -92z" />
    <glyph glyph-name="uni06C3" unicode="&#x6c3;" horiz-adv-x="1433" 
d="M1436 156q24 0 41 -17t17 -41t-17 -41t-41 -17q-71 0 -127 22t-104 58.5t-89.5 83t-83.5 94.5q-35 41 -70.5 80t-74 69t-80.5 48.5t-90 18.5q-22 0 -44 -3t-46 -11q-54 -20 -98.5 -62t-80 -100t-62.5 -128t-48 -146l-112 30q24 90 56 173t76 151.5t101.5 118.5t133.5 73
q35 11 65.5 15.5t58.5 4.5q67 0 123.5 -22t105 -58t91 -82t83.5 -94q33 -39 68.5 -77.5t74.5 -70t82 -51t91 -19.5zM495 778l-134 133l132 133l134 -134zM851 776l-134 134l132 132l133 -134z" />
    <glyph glyph-name="uni06F0" unicode="&#x6f0;" horiz-adv-x="952" 
d="M145 503q0 66 25 124t68.5 102t101.5 69.5t124 25.5t124 -25.5t102 -69.5t69.5 -102t25.5 -124t-25.5 -124t-69.5 -101.5t-102 -68.5t-124 -25t-124 25t-101.5 68.5t-68.5 101.5t-25 124zM257 503q0 -43 16.5 -81t45 -66.5t66.5 -45t81 -16.5t81.5 16.5t67 45t45 66.5
t16.5 81t-16.5 81.5t-45 67t-67 45t-81.5 16.5t-81 -16.5t-66.5 -45t-45 -67t-16.5 -81.5z" />
    <glyph glyph-name="uni06F1" unicode="&#x6f1;" horiz-adv-x="662" 
d="M335 42q0 189 -7.5 374.5t-30.5 356t-65 321.5t-112 273l100 62q69 -120 118 -289.5t77 -364.5q12 -92 19.5 -186.5t12 -189t6 -186t1.5 -176.5h-114z" />
    <glyph glyph-name="uni06F2" unicode="&#x6f2;" horiz-adv-x="1067" 
d="M943 1435q3 -26 6.5 -66.5t1.5 -86.5q-6 -218 -100 -331q-45 -52 -108 -80.5t-140 -28.5q-48 0 -102.5 13t-111.5 37l10 -89l5 -35q11 -88 19 -183t12.5 -190t6.5 -186.5t2 -172.5h-118q0 153 -5 306.5t-20 300t-41.5 280.5t-69.5 248l-9 26v-1q-15 40 -31.5 79t-36.5 78
l99 63q26 -46 47.5 -94t39.5 -97q2 -4 5.5 -10.5t5.5 -10.5q23 -51 50 -95.5t61.5 -78t78.5 -53t103 -19.5q49 0 89 17.5t68 48.5q21 27 35 60.5t23 70t13 74.5t4 74q0 32 -2 60.5t-6 54.5l110 21z" />
    <glyph glyph-name="uni06F3" unicode="&#x6f3;" horiz-adv-x="1406" 
d="M1282 1452q24 -140 24 -241q0 -180 -72 -267q-66 -78 -178 -78q-23 0 -52 6t-59 23.5t-59 48t-50 79.5q-27 -59 -60 -94t-68 -53t-70.5 -23.5t-68.5 -5.5q-38 0 -80 6.5t-87 35.5l15 -116q12 -91 19.5 -185.5t12 -188.5t6.5 -185t2 -175h-117q4 166 -3 335.5t-32 337
t-72 331t-123 317.5l112 65q7 -12 16 -29t20.5 -41.5t27.5 -59t37 -82.5q26 -60 47 -106.5t47.5 -78t62 -48t89.5 -16.5q61 0 98.5 29.5t58 76t28.5 102.5t11 109q0 8 -0.5 25.5t-1.5 39t-2 44t-2 40.5q20 2 44 5.5t72 9.5q2 -12 3.5 -24.5t3.5 -45.5q6 -64 17 -133.5
t29 -125.5q16 -50 35 -77t36.5 -39.5t32.5 -14.5t24 -2q34 0 55 11.5t31 22.5q7 9 15 24.5t15 39t12 56t5 75.5q0 44 -5 98.5t-16 125.5l108 20z" />
    <glyph glyph-name="uni06F9" unicode="&#x6f9;" horiz-adv-x="1056" 
d="M882 35q-53 51 -90.5 127t-64 163.5t-44.5 179t-31 172.5q-5 28 -9.5 54.5t-9.5 55.5q-54 -19 -98.5 -27.5t-81.5 -8.5q-45 0 -89.5 9.5t-84 26.5t-71.5 40.5t-52 50.5q-23 32 -34.5 74t-11.5 87q0 69 22.5 140.5t62 129.5t94 94t119.5 35q28 -2 61 -12.5t67 -36
t66.5 -68.5t61.5 -109q19 -47 33.5 -101.5t25 -113.5t18 -120.5t13.5 -123.5v1q10 -69 26 -155t39.5 -172.5t55 -165t72.5 -131.5zM398 1323q-38 -10 -69.5 -39t-54.5 -68.5t-35.5 -85t-12.5 -87.5q0 -24 5 -49.5t17 -49.5v1q19 -24 45.5 -39.5t55 -24.5t57.5 -12.5t54 -3.5
q20 0 42 4t43.5 10.5t41.5 14t35 15.5q-13 79 -29 143.5t-37 115.5q-11 26 -25.5 53.5t-33.5 50t-41.5 37t-50.5 15.5q-2 0 -4 -0.5t-4 -0.5h1z" />
    <glyph glyph-name="uni06F7" unicode="&#x6f7;" horiz-adv-x="1165" 
d="M814 751q-38 -107 -68.5 -208.5t-53 -193.5t-36 -172.5t-16.5 -143.5h-114q-4 210 -43 397.5t-101 355t-140.5 316t-159.5 279.5l96 60q108 -174 188 -337t137 -315q19 -54 42.5 -139t51.5 -196q46 153 98.5 300.5t105 277t102 235t89.5 173.5q24 -16 40.5 -26t27 -16.5
t17 -10.5t11.5 -7q-30 -51 -64.5 -122.5t-70.5 -155t-71.5 -173.5t-67.5 -178z" />
    <glyph glyph-name="uni06F8" unicode="&#x6f8;" horiz-adv-x="1165" 
d="M988 17q-39 66 -87.5 169.5t-100 232.5t-104 276.5t-99.5 302.5q-26 -108 -50.5 -192.5t-44.5 -141.5q-54 -154 -135.5 -314.5t-190.5 -337.5l-95 60q81 132 160 280.5t142 315.5t103 354t44 398h115q3 -62 16 -143.5t35 -174.5t51 -195t65 -206q31 -84 67.5 -174
t73 -174.5t71.5 -157.5t62 -122z" />
    <glyph glyph-name="uni06F4.urdu" horiz-adv-x="1237" 
d="M750 982q19 50 52.5 106t74.5 108.5t84.5 97t82.5 71.5q7 -11 13 -22.5t14 -23.5q9 -14 17 -27t13 -23q-33 -32 -65.5 -67t-62.5 -71q-26 -32 -55 -71t-55.5 -83t-47.5 -92t-31 -98q-23 -2 -44.5 -3.5t-44.5 -3.5q-17 75 -46.5 142t-67.5 122q-44 62 -91.5 98.5
t-96.5 26.5q-24 -5 -40.5 -16.5t-27 -28t-15 -35.5t-4.5 -38q0 -52 26.5 -141t93.5 -225h-1l88 -180q33 -73 58.5 -142.5t43.5 -131t28.5 -113.5t12.5 -91q-27 -7 -53.5 -14.5t-53.5 -15.5q-15 88 -44.5 186t-69.5 192q-42 98 -82.5 189.5t-82.5 182.5q-15 33 -29.5 70.5
t-26 77.5t-18.5 80.5t-7 78.5q0 66 28 125t85 98q24 14 57.5 22.5t67.5 8.5q47 0 92 -14.5t77 -46.5h-1q38 -38 73.5 -106t71.5 -159h10z" />
    <glyph glyph-name="uni06F7.urdu" horiz-adv-x="1012" 
d="M503 157q94 0 181.5 9t172.5 23v-117q-51 -14 -101 -22.5t-102.5 -14t-110 -7.5t-122.5 -2q-28 0 -70 2.5t-87 7t-87 10t-69 11.5q-4 19 -7 34t-5 30t-3 31.5t-1 36.5q0 93 33.5 187t93.5 194q58 99 163 247t260 331l119 139l81 -86l-111 -125l-240 -312
q-77 -101 -131.5 -190.5t-89 -162t-50 -127.5t-15.5 -87q26 -11 59 -17t57 -9q1 0 2.5 -0.5t2.5 -0.5h3q25 -4 45.5 -6.5t40.5 -4t41 -2t47 -0.5z" />
    <glyph glyph-name="Ghunna_above" 
d="M251 1146q-45 0 -85 14t-70 40q-28 25 -45.5 59t-24.5 73v-1q-3 21 -3 43q0 30 5.5 54t13.5 47l10 37q2 8 4.5 15.5t6.5 13.5q20 -7 37.5 -13.5t35.5 -13.5q-13 -21 -23 -57t-10 -84q0 -7 0.5 -15.5t1.5 -15.5q3 -13 11.5 -32.5t26 -37.5t46.5 -31.5t74 -14.5
q70 3 114.5 28t60.5 73q10 33 10 68q0 28 -6 53.5t-15 47t-19 38t-17 26.5l78 62q4 -7 14 -28t20 -51.5t18 -68.5t8 -79q0 -44 -15 -93q-11 -33 -32 -61.5t-49 -46.5q-33 -21 -74.5 -33.5t-93.5 -14.5h-14v0z" />
    <glyph glyph-name="uni0651064B" 
d="M148 1138q-28 1 -48 7t-34.5 14.5t-24 18.5t-15.5 19q-11 18 -15 36.5t-4 38.5q0 30 8.5 62t18.5 53l52 -24q-9 -23 -14.5 -47.5t-5.5 -44.5q0 -14 1.5 -24.5t6.5 -18.5q9 -14 31 -23t45 -9q40 0 60 24q13 16 19.5 35t9 39.5t2.5 42.5v44l53 11q9 -57 21.5 -92.5
t26 -55.5t27 -27.5t23.5 -7.5q43 3 60.5 29.5t17.5 62.5q0 38 -16.5 81.5t-40.5 75.5l50 34q9 -14 20.5 -36t22 -48t17.5 -53.5t7 -51.5q0 -19 -4.5 -45t-19.5 -49t-43 -39.5t-75 -16.5q-14 0 -29.5 5t-30.5 14t-27.5 22t-21.5 30q-18 -44 -53.5 -65t-71.5 -21h-6v0z
M-15 1513v79l510 206v-71zM-22 1692v79l510 206v-74z" />
    <glyph glyph-name="uni0654064B" 
d="M354 1583q-13 1 -29 3.5t-34 2.5q-15 0 -30 -2.5t-30 -8.5v2q-31 -13 -50 -39.5t-19 -57.5q0 -14 8 -33l-1 1q7 -17 19.5 -31t29 -24t36 -15.5t39.5 -5.5q11 0 20.5 1t20.5 5q25 8 49 20t43 23q24 13 42 27l57 -72q-38 -27 -95 -58t-139 -74l-220 -117l-46 81l173 92
q-41 16 -70.5 46t-46.5 66q-13 33 -13 68q0 29 9 56.5t26 51t40.5 42t52.5 29.5q44 18 95 18q22 0 42.5 -3t36.5 -6l37 -9l-27 -85zM-9 1759v79l510 206v-71zM-16 1938v79l510 206v-74z" />
    <glyph glyph-name="uni0654064E" 
d="M354 1583q-13 1 -29 3.5t-34 2.5q-15 0 -30 -2.5t-30 -8.5v2q-31 -13 -50 -39.5t-19 -57.5q0 -14 8 -33l-1 1q7 -17 19.5 -31t29 -24t36 -15.5t39.5 -5.5q11 0 20.5 1t20.5 5q25 8 49 20t43 23q24 13 42 27l57 -72q-38 -27 -95 -58t-139 -74l-220 -117l-46 81l173 92
q-41 16 -70.5 46t-46.5 66q-13 33 -13 68q0 29 9 56.5t26 51t40.5 42t52.5 29.5q44 18 95 18q22 0 42.5 -3t36.5 -6l37 -9l-27 -85zM-21 1738v79l510 206v-74z" />
    <glyph glyph-name="uni0654064C" 
d="M354 1583q-13 1 -29 3.5t-34 2.5q-15 0 -30 -2.5t-30 -8.5v2q-31 -13 -50 -39.5t-19 -57.5q0 -14 8 -33l-1 1q7 -17 19.5 -31t29 -24t36 -15.5t39.5 -5.5q11 0 20.5 1t20.5 5q25 8 49 20t43 23q24 13 42 27l57 -72q-38 -27 -95 -58t-139 -74l-220 -117l-46 81l173 92
q-41 16 -70.5 46t-46.5 66q-13 33 -13 68q0 29 9 56.5t26 51t40.5 42t52.5 29.5q44 18 95 18q22 0 42.5 -3t36.5 -6l37 -9l-27 -85zM-9 1820q8 17 14 45.5t6 52.5q0 14 -1 26t-5 17q-5 11 -14.5 19t-28.5 10h1q-20 1 -40.5 -9t-35.5 -22l-42 42q8 7 21 16t28.5 16.5t33.5 12
t37 3.5q61 -4 89 -55q9 -17 13 -35t4 -38q0 -31 -11 -86q28 9 60 20.5t64.5 25.5t64 30.5t58.5 34.5l-80 34q-53 26 -73.5 63.5t-20.5 71.5q0 15 3 27t8 21q21 44 62.5 72t86.5 28q12 0 25.5 -3.5t22.5 -7.5q25 -12 44.5 -36.5t27.5 -52.5q9 -32 9 -63q0 -28 -6.5 -61
t-15.5 -63l32 -12l-24 -53l-39 11q-37 -35 -86.5 -62t-99 -46.5t-92 -31.5t-65.5 -17l-35 48v7zM293 2203q-12 0 -27 -5t-29 -14t-25 -21.5t-17 -26.5l1 1q-2 -5 -2 -16.5t5.5 -26.5t18.5 -31t37 -29q23 -11 44.5 -19.5t45.5 -19.5q6 23 11.5 52.5t5.5 53.5q0 13 -2 26.5
t-7 25.5q-6 17 -20 33.5t-40 16.5z" />
    <glyph glyph-name="uni0654064F" 
d="M354 1583q-13 1 -29 3.5t-34 2.5q-15 0 -30 -2.5t-30 -8.5v2q-31 -13 -50 -39.5t-19 -57.5q0 -14 8 -33l-1 1q7 -17 19.5 -31t29 -24t36 -15.5t39.5 -5.5q11 0 20.5 1t20.5 5q25 8 49 20t43 23q24 13 42 27l57 -72q-38 -27 -95 -58t-139 -74l-220 -117l-46 81l173 92
q-41 16 -70.5 46t-46.5 66q-13 33 -13 68q0 29 9 56.5t26 51t40.5 42t52.5 29.5q44 18 95 18q22 0 42.5 -3t36.5 -6l37 -9l-27 -85zM133 1860q85 39 149 83q-18 7 -36 15q-23 11 -43 21q-110 56 -100 134q10 71 76 117q68 48 134 20q67 -36 80 -125q11 -77 -20 -152l27 -8
l-19 -57l-42 15q-62 -60 -168 -112q-40 -20 -82 -36q-33 -13 -60 -21l-21 57q53 16 125 49zM199 2174q-40 -30 -40 -68q0 -39 66 -70l92 -43q29 42 17 122q-13 86 -70 86q-30 0 -65 -27z" />
    <glyph glyph-name="uni06540652" 
d="M354 1583q-13 1 -29 3.5t-34 2.5q-15 0 -30 -2.5t-30 -8.5v2q-31 -13 -50 -39.5t-19 -57.5q0 -14 8 -33l-1 1q7 -17 19.5 -31t29 -24t36 -15.5t39.5 -5.5q11 0 20.5 1t20.5 5q25 8 49 20t43 23q24 13 42 27l57 -72q-38 -27 -95 -58t-139 -74l-220 -117l-46 81l173 92
q-41 16 -70.5 46t-46.5 66q-13 33 -13 68q0 29 9 56.5t26 51t40.5 42t52.5 29.5q44 18 95 18q22 0 42.5 -3t36.5 -6l37 -9l-27 -85zM238 1889q23 0 45 11t38.5 29.5t26 43t8.5 52.5q-1 22 -8.5 46t-22.5 44t-36.5 32.5t-50.5 12.5q-27 0 -48.5 -13t-37.5 -32.5t-24.5 -43.5
t-8.5 -46q0 -24 9.5 -48t26 -43.5t38 -32t45.5 -12.5zM238 2221q39 0 71.5 -18t55.5 -46t36.5 -63t14.5 -69q1 -38 -12.5 -73t-38 -63t-57.5 -44.5t-70 -16.5q-41 -1 -74 16t-56 45t-36 64t-13 72q0 34 13 69t36 63t56 46t74 18z" />
    <glyph glyph-name="uni0655064D" 
d="M406 -246q-13 1 -29 3.5t-34 2.5q-15 0 -30 -2.5t-30 -8.5v2q-31 -13 -50 -39.5t-19 -57.5q0 -14 8 -33l-1 1q7 -17 19.5 -31t29 -24t36 -15.5t39.5 -5.5q11 0 20.5 1t20.5 5q25 8 49 20t43 23q24 13 42 27l57 -72q-38 -27 -95 -58t-139 -74l-220 -117l-46 81l173 92
q-41 16 -70.5 46t-46.5 66q-13 33 -13 68q0 29 9 56.5t26 51t40.5 42t52.5 29.5q44 18 95 18q22 0 42.5 -3t36.5 -6l37 -9l-27 -85zM113 -1115v79l510 206v-71zM106 -936v79l510 206v-74z" />
    <glyph glyph-name="uni06550650" 
d="M380 -247q-13 1 -29 3.5t-34 2.5q-15 0 -30 -2.5t-30 -8.5v2q-31 -13 -50 -39.5t-19 -57.5q0 -14 8 -33l-1 1q7 -17 19.5 -31t29 -24t36 -15.5t39.5 -5.5q11 0 20.5 1t20.5 5q25 8 49 20t43 23q24 13 42 27l57 -72q-38 -27 -95 -58t-139 -74l-220 -117l-46 81l173 92
q-41 16 -70.5 46t-46.5 66q-13 33 -13 68q0 29 9 56.5t26 51t40.5 42t52.5 29.5q44 18 95 18q22 0 42.5 -3t36.5 -6l37 -9l-27 -85zM70 -938v79l510 206v-74z" />
    <glyph glyph-name="diagonal" horiz-adv-x="1024" 
d="M844 1721q-182 -78 -360 -155t-362 -154l5 84l686 290l31 -65v0z" />
    <glyph glyph-name="uni200C" unicode="&#x200c;" horiz-adv-x="148" 
 />
    <glyph glyph-name="exclam" unicode="!" horiz-adv-x="519" 
d="M319 455h-125l-6 1180h139zM255 20l-127 128l134 135l128 -128z" />
    <glyph glyph-name="quotedbl" unicode="&#x22;" horiz-adv-x="712" 
d="M294 1569l-24 -379h-97l4 548h117v-169zM580 1569l-24 -379h-98l4 548h118v-169z" />
    <glyph glyph-name="numbersign" unicode="#" horiz-adv-x="1442" 
d="M912 375h-381l-93 -496h-120l94 496h-309v113h329l101 534h-338v116h359l96 503h120l-96 -503h382l95 503h121l-95 -503h277v-116h-299l-101 -534h309v-113h-330l-94 -496h-121zM552 488h381l101 534h-382z" />
    <glyph glyph-name="dollar" unicode="$" horiz-adv-x="1374" 
d="M1091 314q0 134 -87.5 219.5t-307.5 161.5q-274 86 -384 204t-110 305q0 198 121 321t329 139v245h124v-245q213 -19 330 -159.5t117 -381.5h-144q0 190 -99 302t-269 112q-172 0 -268.5 -90t-96.5 -240q0 -145 88.5 -227t301 -154t308.5 -138t144 -156t48 -216
q0 -199 -124 -320.5t-341 -138.5v-230h-122v229q-243 16 -376.5 153t-133.5 376h145q0 -189 110.5 -296t307.5 -107q172 0 280.5 92t108.5 240z" />
    <glyph glyph-name="percent" unicode="%" horiz-adv-x="1832" 
d="M132 1303q0 157 97.5 260.5t247.5 103.5t247.5 -103.5t97.5 -268.5v-86q0 -155 -96.5 -258.5t-246.5 -103.5q-149 0 -248 102t-99 269v85zM249 1209q0 -112 62.5 -185t167.5 -73q103 0 164.5 73.5t61.5 189.5v89q0 112 -63 185.5t-165 73.5q-101 0 -164.5 -73t-63.5 -194
v-86zM1019 311q0 157 97.5 260t246.5 103t247.5 -102t98.5 -269v-86q0 -158 -97.5 -260.5t-246 -102.5t-247.5 102t-99 267v88zM1135 217q0 -114 62.5 -186.5t167.5 -72.5t166 73t61 192v88q0 116 -62.5 187t-166.5 71q-102 0 -165 -71.5t-63 -191.5v-89zM525 25l-90 59
l860 1377l91 -58z" />
    <glyph glyph-name="ampersand" unicode="&#x26;" horiz-adv-x="1525" 
d="M489 840q-105 127 -153 227t-48 198q0 185 110 293t296 108q168 0 272 -97.5t104 -247.5q0 -175 -201 -343l-194 -150l485 -564q110 178 110 403h134q0 -300 -155 -507l241 -281h-174l-153 177q-95 -95 -220.5 -148t-264.5 -53q-252 0 -399.5 129t-147.5 344
q0 128 75.5 242.5t265.5 257.5zM678 -23q110 0 213.5 46.5t185.5 132.5l-492 572l-17 18l-56 -43q-237 -193 -237 -375q0 -159 109 -255t294 -96zM433 1270q0 -148 164 -349l158 121q78 56 127.5 122.5t49.5 156.5q0 94 -65.5 157.5t-174.5 63.5q-118 0 -188.5 -76
t-70.5 -196z" />
    <glyph glyph-name="quotesingle" unicode="'" horiz-adv-x="421" 
d="M274 1568l-21 -370h-109q6 359 6 540h124v-170z" />
    <glyph glyph-name="parenleft" unicode="(" horiz-adv-x="790" 
d="M169 591q0 264 68 512.5t199 455t281 296.5l35 -99q-80 -56 -159 -165t-140.5 -259.5t-99.5 -337.5t-38 -424q0 -253 57.5 -486.5t158 -412t221.5 -268.5l-35 -93q-154 92 -285 297t-197 451.5t-66 532.5z" />
    <glyph glyph-name="parenright" unicode=")" horiz-adv-x="807" 
d="M622 573q0 -267 -66 -513t-195.5 -451t-285.5 -299l-35 93q119 85 220 263t159 414.5t58 513.5q0 251 -58 484t-160.5 416.5t-218.5 266.5l35 94q153 -94 282.5 -298.5t197 -454t67.5 -529.5z" />
    <glyph glyph-name="asterisk" unicode="*" horiz-adv-x="1052" 
d="M437 1089l-402 131l39 122l402 -148l-5 447h126l-10 -451l392 154l40 -123l-403 -139l270 -356l-103 -76l-259 369l-247 -367l-103 74z" />
    <glyph glyph-name="plus" unicode="+" horiz-adv-x="1399" 
d="M763 775h536v-136h-536v-583h-147v583h-525v136h525v564h147v-564z" />
    <glyph glyph-name="comma" unicode="," horiz-adv-x="475" 
d="M159 -450l-86 63q110 147 113 306v188h142v-152q0 -252 -169 -405z" />
    <glyph glyph-name="hyphen" unicode="-" horiz-adv-x="709" 
d="M639 596h-580v122h580v-122z" />
    <glyph glyph-name="period" unicode="." horiz-adv-x="592" 
d="M176 -34q0 42 27 72t75.5 30t76.5 -30t28 -72t-28 -69.5t-76.5 -27.5t-75.5 27.5t-27 69.5z" />
    <glyph glyph-name="slash" unicode="/" horiz-adv-x="984" 
d="M168 -272h-132l736 1913h131z" />
    <glyph glyph-name="zero" unicode="0" horiz-adv-x="1006" 
d="M160 465q0 73 27.5 136.5t75.5 112t111.5 76.5t136.5 28t136.5 -28t112 -76.5t76.5 -112t28 -136.5t-28 -136.5t-76.5 -111.5t-112 -75.5t-136.5 -27.5t-136.5 27.5t-111.5 75.5t-75.5 111.5t-27.5 136.5zM283 465q0 -47 18.5 -89t49.5 -73.5t73 -49.5t89 -18t89.5 18
t74 49.5t49.5 73.5t18 89t-18 89.5t-49.5 74t-74 49.5t-89.5 18t-89 -18t-73 -49.5t-49.5 -74t-18.5 -89.5z" />
    <glyph glyph-name="one" unicode="1" horiz-adv-x="704" 
d="M369 -7q0 207 -8.5 411.5t-34 392t-71.5 353.5t-123 300l110 68q76 -132 130 -318.5t85 -400.5q13 -101 21 -205t13 -208t6.5 -204.5t1.5 -194.5h-125z" />
    <glyph glyph-name="two" unicode="2" horiz-adv-x="1198" 
d="M1037 1525q3 -29 7 -73.5t2 -94.5q-7 -240 -110 -364q-50 -58 -119 -89t-154 -31q-53 0 -113 14t-122 41l11 -98l5 -39q12 -97 21 -201.5t14 -209t7 -205t2 -189.5h-130q0 168 -5.5 337t-22 330t-45.5 308.5t-76 273.5l-10 28v-1q-17 44 -35 87t-40 86l109 69
q29 -51 52.5 -103.5t43.5 -106.5q2 -4 6 -11.5t6 -11.5q25 -56 54.5 -105t67.5 -86t86.5 -58.5t113.5 -21.5q54 0 98 19.5t75 53.5q23 30 38.5 66.5t25 77t14 82t4.5 81.5q0 35 -2 66.5t-7 59.5l121 23z" />
    <glyph glyph-name="three" unicode="3" horiz-adv-x="1542" 
d="M1410 1543q27 -154 27 -265q0 -198 -80 -293q-72 -86 -195 -86q-26 0 -57.5 6.5t-64.5 25.5t-65 53t-55 87q-30 -64 -66.5 -102.5t-75 -58.5t-77.5 -26t-75 -6q-42 0 -88 7t-96 39l17 -128q13 -100 21 -204t13 -207t7.5 -203.5t2.5 -192.5h-129q4 183 -3.5 369.5
t-35 370.5t-79 364t-135.5 349l123 72q8 -14 18 -32.5t22.5 -45.5t30 -65t40.5 -91q29 -66 52 -117t52 -85.5t68.5 -52.5t98.5 -18q67 0 108.5 32t64 83.5t31 113t12.5 119.5q0 9 -1 28.5t-2 43t-2 48t-2 44.5q22 2 48.5 6t79.5 11q2 -14 3.5 -27.5t3.5 -49.5
q7 -71 19 -147.5t32 -137.5q17 -55 38 -85t40.5 -43.5t36 -16t26.5 -2.5q37 0 60 13t34 25q8 10 17 27t16.5 43t13 61.5t5.5 82.5q0 49 -5.5 109t-17.5 138l119 22z" />
    <glyph glyph-name="four" unicode="4" horiz-adv-x="1282" 
d="M829 762q-64 0 -121.5 11.5t-108.5 36.5t-97.5 67t-89.5 104l35 -229q11 -95 18.5 -194t11.5 -197.5t5.5 -193.5t1.5 -182h-126q0 202 -8.5 400t-33 381t-69 344.5t-118.5 291.5q26 16 43.5 26.5t29 18t19 12t14.5 8.5q16 -30 32.5 -61t33.5 -68.5t36 -85t40 -110.5
q9 79 44 147.5t89 118.5t125.5 78.5t155.5 30.5q97 3 182.5 -38.5t157.5 -112.5l-94 -91q-24 21 -49 43t-53.5 38.5t-63.5 26.5t-75 9q-60 -3 -115.5 -30.5t-94.5 -72.5q-18 -22 -34 -43.5t-27.5 -45.5t-17 -49t-3.5 -54q9 -53 40.5 -92.5t76.5 -66t99 -39t109 -12.5
q30 0 68.5 6t75.5 16.5t70 26t55 35.5l55 -100q-28 -29 -69 -49.5t-85.5 -33.5t-89 -19.5t-80.5 -6.5z" />
    </font>
</defs>
</svg>
