<?xml version="1.0" standalone="no"?>
<!-- Generator: Adobe Fireworks 10, Export SVG Extension by Aaron Beall (http://fireworks.abeall.com) . Version: 0.6.1  -->
<!DOCTYPE svg PUBLIC "-//W3C//DTD SVG 1.1//EN" "http://www.w3.org/Graphics/SVG/1.1/DTD/svg11.dtd">
<svg id="bag-Page%201" viewBox="0 0 500 550" style="background-color:#ffffff00" version="1.1"
	xmlns="http://www.w3.org/2000/svg" xmlns:xlink="http://www.w3.org/1999/xlink" xml:space="preserve"
	x="0px" y="0px" width="500px" height="550px"
>
	<path d="M 429.6875 156.875 L 460.9375 469.375 C 460.9375 482.4063 456.375 493.4531 447.2656 502.5781 C 438.1406 511.6875 427.0781 516.25 414.0625 516.25 L 85.9375 516.25 C 72.9063 516.25 61.8438 511.6875 52.7344 502.5781 C 43.6094 493.4531 39.0625 482.4063 39.0625 469.375 L 70.3125 156.875 C 70.3125 143.8594 74.8594 132.7969 83.9844 123.6719 C 93.0938 114.5625 104.1563 110 117.1875 110 L 164.0625 110 L 164.0625 102.1875 C 164.0625 78.4375 172.4375 58.1719 189.2031 41.4063 C 205.9688 24.6406 226.2344 16.25 250 16.25 C 273.75 16.25 294.0156 24.6406 310.7813 41.4063 C 327.5469 58.1719 335.9375 78.4375 335.9375 102.1875 L 335.9375 110 L 382.8125 110 C 395.8281 110 406.8906 114.5625 416.0156 123.6719 C 425.125 132.7969 429.6875 143.8594 429.6875 156.875 L 429.6875 156.875 ZM 187.5 102.1875 L 187.5 110 L 312.5 110 L 312.5 102.1875 C 312.5 84.9375 306.3906 70.2188 294.1875 58 C 281.9688 45.7969 267.25 39.6875 250 39.6875 C 232.75 39.6875 218.0156 45.7969 205.8125 58 C 193.5938 70.2188 187.5 84.9375 187.5 102.1875 L 187.5 102.1875 ZM 414.0625 485 C 418.2813 485 421.9531 483.4531 425.0469 480.3594 C 428.1406 477.2656 429.6875 473.6094 429.6875 469.375 L 398.4375 156.875 C 398.4375 152.6563 396.8906 148.9844 393.7969 145.8906 C 390.7031 142.7969 387.0313 141.25 382.8125 141.25 L 335.9375 141.25 L 335.9375 165.4219 C 340.5 167.3906 344.2344 170.5625 347.1719 174.9531 C 350.0938 179.3594 351.5625 184.3125 351.5625 189.8438 C 351.5625 197.3438 348.875 203.7656 343.5 209.1406 C 338.125 214.5156 331.7031 217.1875 324.2188 217.1875 C 316.7188 217.1875 310.2969 214.5156 304.9219 209.1406 C 299.5469 203.7656 296.875 197.3438 296.875 189.8438 C 296.875 184.3125 298.3281 179.3594 301.2656 174.9531 C 304.2031 170.5625 307.9375 167.3906 312.5 165.4219 L 312.5 141.25 L 187.5 141.25 L 187.5 165.4219 C 192.0625 167.3906 195.7969 170.5625 198.7344 174.9531 C 201.6563 179.3594 203.125 184.3125 203.125 189.8438 C 203.125 197.3438 200.4375 203.7656 195.0625 209.1406 C 189.6875 214.5156 183.2656 217.1875 175.7813 217.1875 C 168.2813 217.1875 161.8594 214.5156 156.4844 209.1406 C 151.1094 203.7656 148.4375 197.3438 148.4375 189.8438 C 148.4375 184.3125 149.8906 179.3594 152.8281 174.9531 C 155.7656 170.5625 159.5 167.3906 164.0625 165.4219 L 164.0625 141.25 L 117.1875 141.25 C 112.9531 141.25 109.2969 142.7969 106.2031 145.8906 C 103.1094 148.9844 101.5625 152.6563 101.5625 156.875 L 70.3125 469.375 C 70.3125 473.6094 71.8594 477.2656 74.9531 480.3594 C 78.0469 483.4531 81.7031 485 85.9375 485 L 414.0625 485 L 414.0625 485 Z" fill="#000000"/>
</svg>