<?xml version="1.0" encoding="utf-8"?>
<!-- Generator: Adobe Illustrator 23.0.0, SVG Export Plug-In . SVG Version: 6.00 Build 0)  -->
<svg version="1.1" id="Layer_1" xmlns="http://www.w3.org/2000/svg" xmlns:xlink="http://www.w3.org/1999/xlink" x="0px" y="0px"
	 width="30px" height="30px" viewBox="0 0 29.1 29.1" style="enable-background:new 0 0 29.1 29.1;" xml:space="preserve">
<style type="text/css">
	.st0{fill:url(#SVGID_1_);}
	.st1{fill:none;}
	.st2{fill:#FFFFFF;}
</style>
<title>apple podcast logo</title>
<linearGradient id="SVGID_1_" gradientUnits="userSpaceOnUse" x1="-346.351" y1="563.6363" x2="-346.041" y2="563.6363" gradientTransform="matrix(5.670115e-15 92.6 92.6 -5.670115e-15 -52178.1445 32072.5488)">
	<stop  offset="0" style="stop-color:#BA6AAB"/>
	<stop  offset="1" style="stop-color:#78489C"/>
</linearGradient>
<path class="st0" d="M28.6,25.2c-0.7,1.7-2.2,3-3.9,3.5c-1.1,0.3-2.3,0.4-3.5,0.4H8c-1.2,0-2.4-0.1-3.5-0.4
	c-1.8-0.5-3.2-1.8-3.9-3.5c-0.4-1.3-0.6-2.7-0.6-4.1V8c-0.1-1.4,0.1-2.8,0.6-4.1c0.7-1.7,2.2-3,3.9-3.5C5.7,0.1,6.8,0,8,0h13.1
	c1.2,0,2.4,0.1,3.5,0.4c1.8,0.5,3.2,1.8,3.9,3.5C29,5.2,29.2,6.6,29.1,8v13.1C29.2,22.5,29,23.9,28.6,25.2z"/>
<path class="st1" d="M28.6,25.2c-0.7,1.7-2.2,3-3.9,3.5c-1.1,0.3-2.3,0.4-3.5,0.4H8c-1.2,0-2.4-0.1-3.5-0.4
	c-1.8-0.5-3.2-1.8-3.9-3.5c-0.4-1.3-0.6-2.7-0.6-4.1V8c-0.1-1.4,0.1-2.8,0.6-4.1c0.7-1.7,2.2-3,3.9-3.5C5.7,0.1,6.8,0,8,0h13.1
	c1.2,0,2.4,0.1,3.5,0.4c1.8,0.5,3.2,1.8,3.9,3.5C29,5.2,29.2,6.6,29.1,8v13.1C29.2,22.5,29,23.9,28.6,25.2z"/>
<path class="st2" d="M16.7,16.7c-0.6-0.5-1.3-0.8-2.1-0.8c-0.8,0-1.5,0.2-2.1,0.8c-0.2,0.2-0.4,0.5-0.4,0.8c-0.1,0.7-0.1,1.5,0,2.2
	c0.1,0.9,0.2,2.1,0.4,3.3c0.1,0.6,0.2,1.1,0.3,1.7c0.5,0.9,1.7,1.3,2.6,0.8c0.3-0.2,0.6-0.4,0.8-0.8c0.2-0.5,0.3-1.1,0.3-1.7
	c0.2-1.2,0.3-2.4,0.4-3.3c0.1-0.7,0.1-1.5,0-2.2C17,17.3,16.9,17,16.7,16.7z M12.2,12.6c0,1.3,1.1,2.4,2.4,2.4S17,14,17,12.7
	c0-1.3-1.1-2.4-2.4-2.4c0,0,0,0,0,0C13.3,10.3,12.2,11.3,12.2,12.6L12.2,12.6z M14.5,3.2C8.9,3.2,4.3,7.8,4.3,13.5
	c0,4.4,2.8,8.2,6.9,9.7c0.1,0,0.2,0,0.2-0.1c0,0,0,0,0-0.1c-0.1-0.4-0.1-0.7-0.2-1c0-0.1-0.1-0.2-0.2-0.3c-4.5-2-6.6-7.2-4.6-11.8
	c2-4.5,7.2-6.6,11.8-4.6c4.5,2,6.6,7.2,4.6,11.8c-0.9,2.1-2.6,3.7-4.6,4.6c-0.1,0-0.2,0.2-0.2,0.3c0,0.3-0.1,0.7-0.2,1
	c0,0.1,0,0.1,0.1,0.2c0,0,0,0,0,0H18c5.3-1.9,8.2-7.7,6.3-13C22.8,6,18.9,3.2,14.5,3.2L14.5,3.2z M14.4,7.9c3.1-0.1,5.7,2.3,5.8,5.3
	v0.2c0,1.5-0.6,3-1.8,4c-0.1,0.1-0.1,0.2-0.1,0.3c0,0.4,0,0.8,0,1.2c0,0.1,0,0.1,0.1,0.1c0,0,0,0,0,0h0.1c3.1-2.1,3.9-6.4,1.8-9.5
	c-1.3-1.9-3.4-3-5.7-3h-0.3c-3.8,0.1-6.7,3.3-6.6,7.1c0.1,2.2,1.2,4.2,3,5.4c0,0,0.1,0.1,0.2,0c0,0,0,0,0,0c0,0,0-0.1,0-0.1
	c0-0.4,0-0.8,0-1.2c0-0.1-0.1-0.3-0.2-0.3C9.6,16.5,8.9,15,9,13.4C9.1,10.4,11.4,8,14.4,7.9L14.4,7.9z"/>
</svg>
