<svg xmlns="http://www.w3.org/2000/svg" xmlns:xlink="http://www.w3.org/1999/xlink" width="152" height="102" viewBox="0 0 152 102">
  <defs>
    <style>
      .cls-1 {
        fill: #fff;
        filter: url(#filter);
      }

      .cls-2, .cls-4, .cls-5 {
        fill: #5621cb;
      }

      .cls-3, .cls-6 {
        fill: #ecebef;
      }

      .cls-4 {
        opacity: 0.1;
      }

      .cls-5, .cls-6 {
        fill-rule: evenodd;
      }
    </style>
    <filter id="filter" x="-39" y="-39" width="229" height="179" filterUnits="userSpaceOnUse">
      <feOffset result="offset" in="SourceAlpha"/>
      <feGaussianBlur result="blur" stdDeviation="6.325"/>
      <feFlood result="flood" flood-color="#2d2d2d" flood-opacity="0.07"/>
      <feComposite result="composite" operator="in" in2="blur"/>
      <feBlend result="blend" in="SourceGraphic"/>
    </filter>
  </defs>
  <rect class="cls-1" width="150" height="100" rx="5" ry="5"/>
  <rect class="cls-2" x="-1" y="-2" width="153" height="8"/>
  <rect class="cls-3" x="-3" y="23" width="154" height="2"/>
  <rect class="cls-3" x="25" y="25" width="2" height="77"/>
  <rect class="cls-3" x="37" y="42" width="102" height="5"/>
  <rect id="Rectangle_5_copy" data-name="Rectangle 5 copy" class="cls-3" x="37" y="54" width="102" height="5"/>
  <rect id="Rectangle_5_copy_2" data-name="Rectangle 5 copy 2" class="cls-3" x="58" y="66" width="80" height="5"/>
  <rect id="Rectangle_5_copy_3" data-name="Rectangle 5 copy 3" class="cls-3" x="38" y="66" width="11" height="5"/>
  <rect id="Rectangle_5_copy_4" data-name="Rectangle 5 copy 4" class="cls-3" x="58" y="76" width="80" height="5"/>
  <rect id="Rectangle_5_copy_4-2" data-name="Rectangle 5 copy 4" class="cls-3" x="38" y="76" width="11" height="5"/>
  <rect class="cls-3" x="38" y="30" width="42" height="8"/>
  <rect class="cls-4" x="120" y="87" width="18" height="7" rx="2" ry="2"/>
  <path class="cls-5" d="M6,10.333h7.667V18H6V10.333Z"/>
  <path id="Rectangle_8_copy" data-name="Rectangle 8 copy" class="cls-6" d="M136,10.333h7.667V18H136V10.333Z"/>
  <path id="Rectangle_8_copy_2" data-name="Rectangle 8 copy 2" class="cls-6" d="M123,9.989h8.011V18H123V9.989Z"/>
</svg>
