<?xml version="1.0" encoding="utf-8"?>
<!-- Generator: Adobe Illustrator 25.4.1, SVG Export Plug-In . SVG Version: 6.00 Build 0)  -->
<svg height="30" width="30" version="1.1" id="Layer_1" xmlns="http://www.w3.org/2000/svg" xmlns:xlink="http://www.w3.org/1999/xlink" x="0px" y="0px"
	 viewBox="0 0 384 384" style="enable-background:new 0 0 384 384;" xml:space="preserve">
<style type="text/css">
	.st0{fill:#FD8910;}
</style>
<g>
	<path class="st0" d="M213.8,384c-1.3-0.7-2.5-1.5-3.8-2.2c-0.3-1.2,0.3-2.2,1.1-3.1c3-3.6,3.7-7.8,3.7-12.3
		c0-116.5,0-233.1,0-349.6c0-4.1-0.8-7.9-3.5-11.2c-0.8-1-1.6-2-1.3-3.4c9.5-5.9,20.9,0.3,21.7,11.6c0.1,1.4,0,2.7,0,4.1
		c0,115.9,0,231.8,0.1,347.7c0,8.5-2.6,14.7-10.5,18.3C218.8,384,216.2,384,213.8,384z"/>
	<path class="st0" d="M6.8,281.2c-3.5-1.7-4.7-5.3-6.8-8.1c0-54,0-108,0-162c2.1-2.9,3.3-6.5,6.8-8.1c3.1,0.9,4.4,3.5,5.5,6.2
		c1.3,3,1.6,6.3,1.6,9.5c0,48.9,0,97.9,0,146.8c0,3.3-0.3,6.5-1.6,9.5C11.2,277.6,9.9,280.2,6.8,281.2z"/>
	<path class="st0" d="M210,2.3c5.2,4.7,6.1,10.6,6.1,17.3c-0.1,115-0.1,229.9,0,344.9c0,6.7-0.9,12.6-6.1,17.3
		c-4.7-3.1-6.7-7.5-6.7-13c0-117.8,0-235.7,0-353.5C203.3,9.7,205.3,5.3,210,2.3z"/>
	<path class="st0" d="M158.9,52.4c4.3-3.3,9-3.5,13.7-1.3c4.9,2.3,7.5,6.4,8.1,11.7c0.1,0.7,0,1.5,0,2.2c0,84.6,0,169.2,0,253.8
		c0,8.3-4.3,13.7-12.1,15.2c-3.6,0.7-6.9-0.2-9.8-2.4c-0.1-0.7,0-1.3,0.4-1.8c4.2-4.9,4.6-10.8,4.6-16.9
		c-0.1-80.6-0.1-161.2,0-241.9c0-6.3-0.4-12.3-4.7-17.3C158.8,53.4,158.8,52.9,158.9,52.4z"/>
	<path class="st0" d="M158.9,52.4c4.3,3.3,6.1,7.9,6.1,13c0.1,84.4,0,168.8,0,253.2c0,5.2-2,9.7-6.1,13.1c-4.8-2.5-5.9-7.1-6.5-11.9
		c-0.1-0.7,0-1.5,0-2.2c0-83.7,0-167.3,0-251C152.3,60.9,153.3,55.5,158.9,52.4z"/>
	<path class="st0" d="M261.1,84.2c8.4-5.8,18.5,0,20.8,9.4c0.5,2.2,0.7,4.4,0.7,6.7c0.1,61.7,0.1,123.3,0.1,185
		c0,8-3.9,14.1-10.3,16.2c-4.2,1.4-8.1,0.7-11.5-2.1c-0.2-1.2,0.4-2.2,1.1-3.1c3.1-3.5,3.8-7.7,3.8-12.2c0-60.8,0-121.6,0-182.4
		c0-5.1-0.8-9.9-4-14.1C261.1,86.6,260.1,85.5,261.1,84.2z"/>
	<path class="st0" d="M6.8,281.2c4.9-4.8,6-10.8,6-17.4c-0.1-47.8-0.1-95.7,0-143.5c0-6.6-1.1-12.6-6-17.4
		c10.3-5.6,21.2,0.9,21.5,12.8c0.2,7,0,14,0,21c0,43.6,0,87.1,0,130.7c0,8.9-4.4,14.4-12.7,15.9C12.5,283.7,9.6,282.8,6.8,281.2z"/>
	<path class="st0" d="M261.1,84.2c2.1,3.9,5.4,7.1,5.6,11.9c0.1,1.6,0.3,3.2,0.3,4.8c0,60.4,0,120.8,0.1,181.2
		c0,6.7-1,12.6-6.2,17.3c-4.8-3.3-6.6-8.1-6.6-13.6c-0.1-62.9-0.1-125.7-0.1-188.6C254.3,91.8,256.6,87.4,261.1,84.2z"/>
	<path class="st0" d="M362.1,122.2c4.1-3.8,8.8-3.7,13.5-1.6c5.2,2.4,8.3,6.4,8.3,12.3c0.1,11.6,0,23.2,0,34.9c0,27.6,0,55.2,0,82.9
		c0,10.2-10.8,17-19.9,12.7c-0.8-0.4-1.6-0.8-2-1.6c0.1-0.2,0-0.6,0.2-0.7c5.1-5,4.9-11.3,4.8-17.8c-0.1-32.8,0-65.7-0.1-98.5
		C367.1,136.9,368.3,128.7,362.1,122.2z"/>
	<path class="st0" d="M108.8,123.8c10.3-5.1,21,1.1,21,12.6c0.1,37.1,0.1,74.2,0,111.3c0,11.4-10.7,17.7-21,12.6
		c-1-1.9,0.5-3.1,1.4-4.3c1.9-2.5,2.7-5.3,2.7-8.4c0-37,0-74.1,0-111.1c0-3.1-0.8-5.9-2.7-8.4C109.2,126.9,107.8,125.7,108.8,123.8z
		"/>
	<path class="st0" d="M362.1,122.2c4.3,2.7,6.2,6.5,6.2,11.6c-0.1,38.8-0.1,77.6,0,116.5c0,5.1-1.9,8.9-6.2,11.6
		c-5.7-2.9-6.4-8.3-6.4-13.7c-0.2-16-0.1-31.9-0.1-47.9c0-21.2,0-42.4,0-63.6c0-4,0.4-8,2.9-11.4C359.5,124,360.3,122.5,362.1,122.2
		z"/>
	<path class="st0" d="M108.8,123.8c0,0.2,0,0.6,0.1,0.7c5.7,5.1,5.2,11.9,5.2,18.7c-0.1,34.1-0.1,68.1,0,102.2
		c0,5.1-0.7,9.6-4.7,13.2c-0.4,0.4-0.5,1.1-0.7,1.7c-4.7-3.1-7-7.3-6.9-13.2c0.1-36.7,0.1-73.4,0-110.1
		C101.8,131.1,104,126.9,108.8,123.8z"/>
	<path class="st0" d="M57.7,147.7c9.7-5.7,21.1,0.4,21.2,11.5c0.2,21.9,0.2,43.7,0,65.6c-0.1,11.1-11.5,17.2-21.2,11.5
		c-0.2-1.1,0.2-2,0.9-2.7c3-3.3,3.4-7.3,3.4-11.5c-0.1-19.7-0.1-39.4,0-59c0-4.7-0.2-9.2-3.6-12.9C57.7,149.5,57.4,148.6,57.7,147.7
		z"/>
	<path class="st0" d="M57.7,147.7c4.7,4.3,5.6,9.7,5.5,15.9c-0.3,18.9-0.3,37.9,0,56.8c0.1,6.2-0.8,11.6-5.5,15.9
		c-4.5-2.6-6.7-6.7-6.7-11.7c-0.1-21.7-0.1-43.5,0-65.2C51,154.3,53.1,150.3,57.7,147.7z"/>
	<path class="st0" d="M312,162.1c10.3-5.1,20.9,1.1,21,12.5c0.1,11.6,0.1,23.2,0,34.7c-0.1,11.4-10.8,17.7-21,12.5
		c-1-1.7,0.3-2.8,1.2-3.9c2.1-2.7,2.9-5.6,2.9-9c-0.1-11.1-0.1-22.1,0-33.2c0-3.9-0.6-7.4-3.3-10.4C312,164.5,311.1,163.5,312,162.1
		z"/>
	<path class="st0" d="M312,162.1c0,0.2,0,0.6,0.1,0.7c5.9,4.9,5.2,11.6,5.2,18.2c-0.1,9.1-0.2,18.1,0,27.2c0.1,4.6-0.9,8.6-4.4,11.8
		c-0.6,0.5-0.9,1.2-0.9,2c-4.7-3.1-7-7.3-6.9-13.1c0.2-11.2,0.2-22.4,0-33.6C305,169.4,307.3,165.2,312,162.1z"/>
</g>
</svg>
