<?xml version="1.0" encoding="utf-8"?>
<!-- Generator: Adobe Illustrator 23.0.0, SVG Export Plug-In . SVG Version: 6.00 Build 0)  -->
<svg version="1.1" id="Layer_1" xmlns="http://www.w3.org/2000/svg" xmlns:xlink="http://www.w3.org/1999/xlink" x="0px" y="0px"
	 width="800px" height="605.3px" viewBox="0 0 800 605.3" style="enable-background:new 0 0 800 605.3;" xml:space="preserve">
<style type="text/css">
	.st0{fill:#007BFF;stroke:#211F44;stroke-width:2;stroke-miterlimit:10;}
	.st1{opacity:0.2;fill:#0B2252;}
	.st2{fill:url(#SVGID_1_);}
	.st3{fill:#0B2252;}
	.st4{fill:url(#SVGID_2_);}
	.st5{fill:#101111;}
	.st6{fill:#007BFF;}
	.st7{fill:#FF9F91;}
	.st8{fill:#FFAA9D;}
	.st9{fill:#14336A;}
	.st10{fill:#2B3872;}
</style>
<g>
	<path class="st0" d="M446,296c-0.3-1.7-1.9-2.8-3.6-2.4l-42.6,8.1l0,0l0,0c-0.1,0-0.1,0-0.2,0l0,0c0,0-0.1,0-0.1,0c0,0-0.1,0-0.1,0
		l0,0c-0.4,0.1-0.8,0.4-1.1,0.7l0,0c0,0,0,0-0.1,0c0,0,0,0-0.1,0.1l0,0c-0.2,0.2-0.4,0.5-0.5,0.8l0,0c0,0,0,0.1-0.1,0.1
		c0,0,0,0,0,0.1l0,0c0,0.1-0.1,0.1-0.1,0.2l0,0l-22,72.2l-239.6-0.1c-1,0-1.9,0.5-2.4,1.2c-0.6,0.8-0.8,1.8-0.5,2.7l35.4,128.5
		c0.4,1.3,1.6,2.3,3,2.3c0,0,0,0,0,0l167.2,0l0,0c0,0,0,0,0,0l14.9,0c7,0,12.1,1.8,15.2,5.5c2.7,3.1,4,7.8,4,13.8
		c0,10.6-8.6,19.2-19.3,19.2l-225.9-0.1c-1.7,0-3.1,1.4-3.1,3.1c0,1.7,1.4,3.1,3.1,3.1l225.9,0.1c2.3,0,4.5-0.3,6.6-0.9
		c4.3-1.1,8.1-3.4,11.4-6.6c4.8-4.8,7.4-11.2,7.4-17.9c0-7.5-1.8-13.5-5.5-17.8c-4.3-5.1-11-7.6-19.9-7.6l-10.8,0l60.1-197l40.8-7.8
		c0.8-0.2,1.5-0.6,2-1.3C446,297.6,446.2,296.8,446,296z M373.6,382.1l-8.2,26.8l-42.2,0l4.7-26.8L373.6,382.1z M364.4,412.3
		l-8.9,29.2l-38,0l5.2-29.2L364.4,412.3z M258.6,408.9l0-26.8l65.9,0l-4.7,26.8L258.6,408.9z M344.5,477.5l-8.2,26.8l-30,0l4.7-26.8
		L344.5,477.5z M258.6,441.5l0-29.3l60.6,0l-5.2,29.2L258.6,441.5z M258.6,474.1l0-29.3l54.8,0l-5.2,29.2L258.6,474.1z M354.5,444.9
		l-8.9,29.2l-33.9,0l5.2-29.2L354.5,444.9z M307.7,477.5l-4.7,26.8l-44.4,0l0-26.8L307.7,477.5z M205.6,477.5l4.7,26.8l-36.7,0
		l-7.4-26.8L205.6,477.5z M255.2,444.9l0,29.2l-46.8,0l-5.1-29.3L255.2,444.9z M199.9,444.9l5.1,29.3l-39.7,0l-8.1-29.3L199.9,444.9
		z M255.2,412.2l0,29.2l-52.5,0l-5.1-29.3L255.2,412.2z M194.1,412.2l5.1,29.3l-42.9,0l-8.1-29.3L194.1,412.2z M255.2,382l0,26.8
		l-58.3,0l-4.7-26.8L255.2,382z M193.6,408.9l-46.2,0l-7.4-26.8l48.9,0L193.6,408.9z M255.2,477.5l0,26.8l-41.4,0l-4.7-26.8
		L255.2,477.5z"/>
	<path class="st0" d="M185.6,559.6c-8.6,0-15.5,7-15.5,15.5c0,8.6,7,15.5,15.5,15.5c1.4,0,2.7-0.2,4-0.5c6.6-1.8,11.5-7.8,11.5-15
		c0-4.1-1.6-8-4.5-11C193.6,561.2,189.7,559.6,185.6,559.6z M185.6,584.5c-2.5,0-4.9-1-6.6-2.8c-1.8-1.8-2.7-4.1-2.7-6.6
		c0-4.3,3-8,7-9.1c0.8-0.2,1.6-0.3,2.4-0.3c5.2,0,9.4,4.2,9.4,9.4c0,2.5-1,4.9-2.8,6.6C190.4,583.5,188.1,584.5,185.6,584.5z"/>
	<path class="st0" d="M318,559.6c-8.6,0-15.5,7-15.5,15.5c0,4.1,1.6,8,4.5,11c2.9,2.9,6.8,4.6,11,4.6c1.4,0,2.7-0.2,4-0.5
		c6.6-1.8,11.5-7.8,11.5-15C333.5,566.6,326.5,559.6,318,559.6z M318,584.5c-5.2,0-9.4-4.2-9.4-9.4c0-4.3,3-8,7-9.1
		c0.8-0.2,1.6-0.3,2.4-0.3c5.2,0,9.4,4.2,9.4,9.4C327.4,580.3,323.1,584.5,318,584.5z"/>
	<path class="st0" d="M318,569.1c-1.6,0-3.1,0.6-4.3,1.8c-1.1,1.1-1.8,2.6-1.8,4.3c0,3.3,2.7,6,6,6c0.5,0,1.1-0.1,1.6-0.2
		c2.6-0.7,4.5-3,4.5-5.8C324,571.8,321.3,569.1,318,569.1z M318,577.8c-0.7,0-1.4-0.3-1.9-0.8c-0.5-0.5-0.8-1.2-0.8-1.9
		c0-1.2,0.8-2.3,2-2.6c0.2-0.1,0.4-0.1,0.7-0.1c0.7,0,1.4,0.3,1.9,0.8c0.5,0.5,0.8,1.2,0.8,1.9C320.6,576.6,319.4,577.8,318,577.8z"
		/>
	<path class="st0" d="M185.6,569.1c-3.3,0-6,2.7-6,6c0,3.3,2.7,6,6,6c0.5,0,1.1-0.1,1.6-0.2c2.6-0.7,4.5-3,4.5-5.8
		c0-1.6-0.6-3.1-1.8-4.3C188.7,569.7,187.2,569.1,185.6,569.1z M185.6,577.8c-0.7,0-1.4-0.3-1.9-0.8c-0.5-0.5-0.8-1.2-0.8-1.9
		c0-1.2,0.8-2.3,2-2.6c0.2-0.1,0.4-0.1,0.7-0.1c1.5,0,2.6,1.2,2.6,2.7c0,0.7-0.3,1.4-0.8,1.9C186.9,577.5,186.3,577.8,185.6,577.8z"
		/>
	<path class="st0" d="M151.9,503.7c0.1,0,0.3,0,0.4-0.1c0,0,0,0,0,0c0.9-0.2,1.4-1.2,1.2-2.1L139,448.9c-0.1-0.4-0.4-0.8-0.8-1
		c-0.4-0.2-0.8-0.3-1.3-0.2c-0.9,0.2-1.4,1.2-1.2,2.1l14.5,52.6C150.5,503.1,151.1,503.7,151.9,503.7z"/>
	<path class="st0" d="M124.2,454.6c0.4-0.1,0.8-0.4,1-0.8c0.2-0.4,0.3-0.8,0.2-1.3l-8.3-29.9c-0.1-0.4-0.4-0.8-0.8-1
		c-0.4-0.2-0.9-0.3-1.3-0.2c-0.4,0.1-0.8,0.4-1,0.8c-0.2,0.4-0.3,0.8-0.2,1.3l8.3,29.9c0.2,0.7,0.9,1.2,1.6,1.2
		C123.9,454.7,124.1,454.7,124.2,454.6C124.2,454.6,124.2,454.6,124.2,454.6z"/>
	<path class="st0" d="M130.1,477.4c0.1,0,0.3,0,0.4-0.1c0,0,0,0,0,0c0.4-0.1,0.8-0.4,1-0.8s0.3-0.8,0.2-1.3l-4.3-15.6
		c-0.1-0.4-0.4-0.8-0.8-1c-0.4-0.2-0.8-0.3-1.3-0.2c-0.4,0.1-0.8,0.4-1,0.8c-0.2,0.4-0.3,0.8-0.2,1.3l4.3,15.6
		C128.6,476.8,129.3,477.4,130.1,477.4z"/>
</g>
<ellipse class="st1" cx="390.6" cy="585.6" rx="390.6" ry="11.1"/>
<g>
	
		<linearGradient id="SVGID_1_" gradientUnits="userSpaceOnUse" x1="5363.6987" y1="548.3779" x2="5430.1011" y2="548.3779" gradientTransform="matrix(1 0 0 1 -4892.647 0)">
		<stop  offset="0" style="stop-color:#FFAA9D"/>
		<stop  offset="0.9662" style="stop-color:#FF9F91"/>
	</linearGradient>
	<polygon class="st2" points="471.1,540.5 471.1,559.2 535.1,559.2 537.5,537.6 	"/>
	<path class="st3" d="M471.1,559.2l-12,13.5c-1,1.1-1,2.6-0.4,3.8c0.5,0.9,1.5,1.6,2.8,1.6h69.1c0.6,0,1.2-0.2,1.6-0.6
		c0.4-0.4,0.7-0.9,0.8-1.6l2.1-16.7H471.1z"/>
	
		<linearGradient id="SVGID_2_" gradientUnits="userSpaceOnUse" x1="-424.8233" y1="548.3589" x2="-357.5445" y2="548.3589" gradientTransform="matrix(-1 0 0 1 224.6386 0)">
		<stop  offset="0" style="stop-color:#FFAA9D"/>
		<stop  offset="0.9662" style="stop-color:#FF9F91"/>
	</linearGradient>
	<polygon class="st4" points="647.6,540.4 649.5,559.2 585.4,559.2 582.2,537.5 	"/>
	<path class="st3" d="M649.5,559.2l12,13.5c1,1.1,1,2.6,0.4,3.8c-0.5,0.9-1.5,1.6-2.8,1.6h-69.1c-0.6,0-1.2-0.2-1.6-0.6
		c-0.4-0.4-0.7-0.9-0.8-1.6l-2.1-16.7H649.5z"/>
	<path class="st5" d="M503.2,213.8c0,0-24.5,83.6-29.1,147.2c-4.5,63.6-4.3,181.6-4.3,181.6h68.5c0,0,16-161.2,22.4-161.7
		c6.4-0.6,19.1,161.7,19.1,161.7h71.6c0,0-16.1-277.5-41.7-328.8H503.2z"/>
	<path class="st6" d="M610,88c-13-9.5-34.4-15.1-54.3-15.1c-18.4,0-36.9,5.9-52.9,13.4c-22.7,10.7-21.8,155-17.8,164.9
		c6.7,16.6,131.6,16.8,141.5-1.6C632.4,238.7,623.9,98.1,610,88z"/>
	<g>
		<path class="st7" d="M547.6,76.3c1.2-6.1,1-12.4,1.5-16.2c0,0,15.7-0.3,15.7-0.1c0.2,2,1.3,14.7,1.4,16.2
			C566.7,82,546.4,82.7,547.6,76.3z"/>
		<path class="st8" d="M576.9,29.7c-2-1.9-13.7-2.9-19.3-2.9c-2.3,0-6-2.1-9.2-1.8c-4.7,0.5-8.8,3.6-10,4.7c-2,1.9-0.1,22.8,1,26.8
			c1.2,4,6.8,14.2,18.3,14.2s17.1-10.2,18.3-14.2C577.1,52.5,579,31.6,576.9,29.7z"/>
		<path class="st9" d="M577.8,27.6c1.7-0.9,4.3-9.6-4.4-10.9c0,0,2.6-8.1-7.1-7.8c-9.6,0.3-26.8,5.6-28.9,20.3
			c-2.1,14.7,0.3,26.7,2.3,32.7c1,3,6.4,11.9,17.8,11.9c11.5,0,16.2-9,17.1-12c1.6-4.9,4.8-13.6,3.9-24.6c0.6-0.1,1.3-0.3,1.8-0.6
			C587,33.3,576.1,28.5,577.8,27.6z M568.1,59.9c-4.5-2-6.2-3-10.6-3c-4.4,0-5.9,0.4-10.3,2.4c-5,2.2-9.7-17.3-5.6-23
			c4.1-5.7,5.5-6,6.8-10.4c0,0,7.3,6.5,14.9,5.7c0,0,2.4-0.5,2.2-3.6c0,0,2.7,4.3,8.2,8.2C576.8,38.7,573,62.2,568.1,59.9z"/>
	</g>
	<g>
		<path class="st8" d="M365.4,78.5c0,0-3.8-16.8-8.8-22.7c-4-4.8-4.9,3.8-4.9,3.8s-21-3.8-32.8-6.7c-2.7-0.7-4.7,2.6-2.9,4.7
			c7,8.1,19,19.9,29.8,21H365.4z"/>
		<path class="st6" d="M541.8,88.6c0,0-8.7-4.4-29-2.4c-20.3,2.1-43.7,21.9-82.9,19.5c-39.3-2.4-63.8-28.6-63.8-28.6h-25.7
			c0,0,7.8,95.9,91.8,94.5c84-1.4,116.9-13,116.9-13L541.8,88.6z"/>
	</g>
	<g>
		<path class="st8" d="M749.9,78.4c0,0,3.8-16.8,8.8-22.7c4-4.8,4.9,3.8,4.9,3.8s21-3.8,32.8-6.7c2.7-0.7,4.7,2.6,2.9,4.7
			c-7,8.1-19,19.9-29.8,21H749.9z"/>
		<path class="st6" d="M573.5,88.5c0,0,8.7-4.4,29-2.4c20.3,2.1,43.7,21.9,82.9,19.5c39.3-2.4,63.8-28.6,63.8-28.6h25.7
			c0,0-7.8,95.9-91.8,94.5c-84-1.4-116.9-13-116.9-13L573.5,88.5z"/>
	</g>
</g>
<g>
	<path class="st10" d="M280.9,291.9h6.1c0.9,0,1.6,0.7,1.6,1.6l0,0c0,0.9-0.7,1.6-1.6,1.6h-6.1c-0.9,0-1.6-0.7-1.6-1.6
		c0-0.4,0.2-0.8,0.5-1.1C280.1,292.1,280.5,291.9,280.9,291.9z"/>
	<path class="st10" d="M303.8,293.5c0,0.4-0.2,0.9-0.5,1.1c-0.3,0.3-0.7,0.5-1.1,0.5h-6.1c-0.9,0-1.6-0.7-1.6-1.6l0,0
		c0-0.9,0.7-1.6,1.6-1.6h6.1C303.1,291.9,303.8,292.6,303.8,293.5z"/>
	<path class="st10" d="M293.1,282.8v6.1c0,0.9-0.7,1.6-1.6,1.6l0,0c-0.9,0-1.6-0.7-1.6-1.6v-6.1c0-0.9,0.7-1.6,1.6-1.6
		c0.4,0,0.8,0.2,1.1,0.5S293.1,282.4,293.1,282.8z"/>
	<path class="st10" d="M291.6,296.4L291.6,296.4c0.9,0,1.6,0.7,1.6,1.6v6.1c0,0.9-0.7,1.6-1.6,1.6c-0.4,0-0.8-0.2-1.1-0.5
		c-0.3-0.3-0.5-0.7-0.5-1.1V298C290,297.2,290.7,296.4,291.6,296.4z"/>
</g>
<path class="st10" d="M279.3,130.2c-4.5,0-8.1,3.6-8.1,8.1c0,4.5,3.6,8.1,8.1,8.1s8.1-3.6,8.1-8.1
	C287.4,133.8,283.8,130.2,279.3,130.2z M279.3,143.8c-3,0-5.5-2.5-5.5-5.5c0-3,2.5-5.5,5.5-5.5s5.5,2.5,5.5,5.5
	C284.8,141.3,282.4,143.8,279.3,143.8z"/>
<path class="st10" d="M438.5,406c-3.5,0-6.3,2.8-6.3,6.3c0,3.5,2.8,6.3,6.3,6.3c3.5,0,6.3-2.8,6.3-6.3
	C444.7,408.8,441.9,406,438.5,406z M438.5,415.7c-1.9,0-3.5-1.6-3.5-3.5c0-1.9,1.6-3.5,3.5-3.5c1.9,0,3.5,1.6,3.5,3.5
	C442,414.2,440.4,415.7,438.5,415.7z"/>
<g>
	<path class="st10" d="M447.7,58.3h6.3c0.9,0,1.6,0.7,1.6,1.6l0,0c0,0.9-0.7,1.6-1.6,1.6h-6.3c-0.9,0-1.6-0.7-1.6-1.6
		c0-0.4,0.2-0.9,0.5-1.1C446.9,58.5,447.3,58.3,447.7,58.3z"/>
	<path class="st10" d="M471.3,59.9c0,0.5-0.2,0.9-0.5,1.2c-0.3,0.3-0.7,0.5-1.1,0.5h-6.3c-0.9,0-1.6-0.7-1.6-1.6l0,0
		c0-0.9,0.7-1.6,1.6-1.6h6.3C470.5,58.3,471.2,59,471.3,59.9z"/>
	<path class="st10" d="M460.3,49v6.3c0,0.9-0.7,1.6-1.6,1.6l0,0c-0.9,0-1.6-0.7-1.6-1.6V49c0-0.9,0.7-1.6,1.6-1.6
		c0.4,0,0.9,0.2,1.1,0.5C460.1,48.1,460.3,48.5,460.3,49z"/>
	<path class="st10" d="M458.7,63L458.7,63c0.9,0,1.6,0.7,1.6,1.6v6.3c0,0.9-0.7,1.6-1.6,1.6c-0.4,0-0.9-0.2-1.1-0.5
		c-0.3-0.3-0.5-0.7-0.5-1.1v-6.3C457.1,63.7,457.8,63,458.7,63z"/>
</g>
</svg>
