<?xml version="1.0" encoding="utf-8"?>
<!-- Generator: Adobe Illustrator 23.0.0, SVG Export Plug-In . SVG Version: 6.00 Build 0)  -->
<svg version="1.1" id="Layer_1" xmlns="http://www.w3.org/2000/svg" xmlns:xlink="http://www.w3.org/1999/xlink" x="0px" y="0px"
	 width="30px" height="30px" viewBox="0 0 84 83.5" style="enable-background:new 0 0 84 83.5;" xml:space="preserve">
<style type="text/css">
	.st0{clip-path:url(#SVGID_2_);}
	.st1{fill:#E86357;}
	.st2{fill:#FFFFFF;}
</style>
<g id="surface1">
	<g>
		<defs>
			<rect id="SVGID_1_" width="84" height="83.5"/>
		</defs>
		<clipPath id="SVGID_2_">
			<use xlink:href="#SVGID_1_"  style="overflow:visible;"/>
		</clipPath>
		<g class="st0">
			<path class="st1" d="M83.5,41.7c0,23-18.7,41.7-41.7,41.7S0,64.8,0,41.7C0,18.7,18.7,0,41.7,0S83.5,18.7,83.5,41.7"/>
		</g>
	</g>
	<path class="st2" d="M42.1,61.8c-10.9,0-19.7-8.8-19.7-19.7s8.8-19.7,19.7-19.7s19.7,8.8,19.7,19.7h-7.2c0-6.9-5.6-12.5-12.5-12.5
		s-12.5,5.6-12.5,12.5s5.6,12.5,12.5,12.5V61.8z M9.3,42.1C9.3,24,24,9.3,42.1,9.3S75,24,75,42.1h-8.2c0-13.6-11-24.6-24.6-24.6
		c-13.6,0-24.6,11-24.6,24.6c0,13.6,11,24.6,24.6,24.6V75C24,75,9.3,60.3,9.3,42.1"/>
</g>
</svg>
