<?xml version="1.0" encoding="utf-8"?>
<!-- Generator: Adobe Illustrator 23.0.0, SVG Export Plug-In . SVG Version: 6.00 Build 0)  -->
<svg version="1.1" id="Layer_1" xmlns="http://www.w3.org/2000/svg" xmlns:xlink="http://www.w3.org/1999/xlink" x="0px" y="0px"
	 width="30px" height="30px" viewBox="0 0 311.2 309.4" style="enable-background:new 0 0 311.2 309.4;" xml:space="preserve"
	>
<style type="text/css">
	.st0{fill:#F15F22;}
	.st1{fill:#FFFFFF;}
</style>
<path class="st0" d="M163.1,309.4c-4.7,0-9.5,0-14.2,0c-1.5-0.7-3-0.2-4.5-0.3c-2.4,0.2-4.8-0.2-7.2-0.3c-3.5,0-6.9-0.3-10.2-1.2
	c-1.5-0.5-3.2-0.7-4.7-1.1c-1.2-0.3-2.4-0.7-3.6-0.9c-2.8-0.6-5.7-1.2-8.4-2.2c-3.3-0.6-6.4-2-9.5-3.3c-2.4-1.1-4.9-1.8-7.3-3.1
	c-1.1-0.6-2.3-1.1-3.5-1.5c-2.7-1.3-5.5-2.7-8.2-4c-2.3-1.1-4.5-2.5-6.7-3.9c-0.8-0.6-1.7-1-2.6-1.5c-3.3-2.1-6.4-4.7-9.8-6.6
	c-0.4-0.2-0.7-0.5-1-0.8c-2.7-2.7-6-4.8-8.8-7.4c-0.6-0.9-1.6-1.4-2.4-2c-2.1-2.3-4.3-4.4-6.5-6.6c-0.9-0.9-2.1-1.5-2.8-2.6
	c-2.1-2.7-4.3-5.3-6.6-7.8c-0.5-0.5-0.9-1.1-1.3-1.7c-2.5-3.4-5.1-6.8-7.5-10.4c-1.8-2.8-3.6-5.6-5.1-8.6c-1.4-2.5-2.9-5-4.1-7.6
	c-0.3-0.7-0.6-1.3-1-2c-1.4-3.2-2.8-6.3-4.2-9.5c-2.7-6.2-5-12.4-6.3-19c-0.4-2.4-1.1-4.7-1.7-7.1c-1-4.1-1.8-8.3-2.1-12.5
	c0-1.2-0.1-2.3-0.4-3.5c-0.2-1-0.2-2-0.2-3.1c-0.1-2.1,0.2-4.2-0.4-6.2c-0.3-1.3-0.3-2.5-0.2-3.8c-0.1-3-0.1-5.9,0-8.9
	c-0.1-3.3,0.7-6.5,0.8-9.8c0.5-2.5,0.7-5.1,1-7.7c0.3-3.7,1.1-7.4,2.1-11c1-2.9,1.5-5.9,2.3-8.8c0.1-1.1,0.5-2.1,0.9-3.2
	c0.9-2.1,1.5-4.3,2.2-6.4c1-2.9,2-5.7,3.4-8.4c1.4-2.4,2.1-5.1,3.5-7.6c0.5-1,1.1-2,1.5-3.1c1.4-2.8,3-5.5,4.7-8.2
	c1-1.9,2.1-3.7,3.3-5.5c1.1-1.5,2-3.1,3.1-4.5c1.9-3,4.3-5.6,6.3-8.5c5.7-6.3,11.3-12.8,17.9-18.2c3.9-3.5,8-6.9,12.4-9.9
	c2.2-1.6,4.4-3.2,6.8-4.5c2.4-1.7,5.1-3,7.6-4.6c0.6-0.4,1.3-0.7,1.9-1c2.8-1.4,5.6-2.7,8.3-4.2c6.6-3.1,13.2-5.8,20.2-7.7
	c2.8-0.7,5.5-1.4,8.3-2.2c3.2-1,6.5-1.7,9.8-2.1c3.7-0.8,7.5-0.8,11.2-1.2c1.7-0.1,3.4,0,5.1-0.1c1.1-0.2,2.3,0.3,3.4-0.3
	c4.7,0,9.5,0,14.2,0c1.3,0.6,2.6,0.2,4,0.3c2.6-0.1,5.2,0.2,7.8,0.3c3.5,0,6.9,0.3,10.3,1.2c2.6,0.6,5.1,1.2,7.7,1.7
	c3.3,0.8,6.6,1.5,9.8,2.7c6.3,2.2,12.6,4.4,18.7,7.3c3.2,1.4,6.2,3.1,9.3,4.5c3.2,1.7,6.3,3.7,9.4,5.5c1.8,1.3,3.8,2.5,5.6,3.8
	c1.2,1.2,2.6,2.1,4,3c2.8,1.9,5.5,4,8,6.4c6.5,5.7,12.7,11.5,18,18.4c0.5,0.8,1.2,1.5,1.9,2.2c2.1,2.1,3.6,4.6,5.5,6.9
	c1.2,1.9,2.4,3.7,3.7,5.6c0.9,1.4,1.7,2.9,2.7,4.3c1.8,3,3.6,6,5.1,9.2c1.4,3.1,3.2,6.1,4.4,9.3c1.1,2.8,2.2,5.6,3.4,8.4
	c1,2.7,2.3,5.4,2.8,8.3c0.1,0.6,0.3,1.2,0.5,1.8c1.2,3.3,2,6.8,2.7,10.3c0.7,2.7,1,5.6,1.6,8.3c0.7,3.7,1.3,7.5,1.5,11.3
	c0,2.7-0.1,5.5,0.4,8.2c0.4,2.8,0.2,5.6,0.2,8.5c-0.2,3.2-0.8,6.5-0.6,9.7c0.2,2.8-0.2,5.6-0.8,8.3c-0.7,3.3-1,6.7-1.7,10
	c-0.5,2.9-1.1,5.8-2,8.6c-0.7,1.9-1.2,3.8-1.7,5.8c-0.3,1.7-0.8,3.3-1.5,4.9c-1,2.5-2,5-2.9,7.6c-1.3,3.5-2.9,6.9-4.6,10.2
	c-0.2,0.4-0.4,0.8-0.6,1.2c-1.5,2.8-2.7,5.7-4.4,8.5c-1.9,3.2-4,6.2-6,9.4c-1.8,2.9-3.9,5.6-5.8,8.4c-0.9,1.1-1.9,2-2.6,3.2
	c-2,2-3.6,4.2-5.5,6.3c-1.1,1-2.2,2.1-3.2,3.2c-2.1,2-4.1,4.1-6.1,6.1c-1,1-2,2-3.1,2.8c-2.6,2.2-5.1,4.5-7.9,6.5
	c-0.7,0.5-1.3,1.1-2,1.5c-2.8,2.1-5.7,4.1-8.8,5.9c-1.4,0.9-2.9,1.7-4.3,2.6c-1.8,1.1-3.7,2.2-5.6,3.2c-3.5,2-7.1,3.6-10.6,5.5
	c-2.4,1-4.8,2-7.2,2.8c-3.1,1.4-6.4,2.3-9.6,3.4c-3.2,1-6.4,2-9.7,2.8c-3,0.7-6,1.4-9.1,1.8c-3.9,1.1-7.9,0.9-11.9,1.3
	c-1.6,0-3.3,0-4.9,0C165.3,309.2,164.1,308.7,163.1,309.4z"/>
<path class="st1" d="M226.7,153.9c6.2-2.2,12.5-2.6,18.8-0.4c11.7,4,19.3,16,17.8,28.1c-1.6,12.8-11.5,23.1-24.1,23.5
	c-14.8,0.5-29.7,0.3-44.6,0.3c-10.3,0-20.6,0-30.9,0c-2.3,0-3.6-1.2-3.9-3.4c-0.1-0.7,0-1.4,0-2.2c0-26.9,0-53.8,0-80.7
	c0-2.8,0.9-4.1,3.6-5.2c28.7-10.6,59.8,9.1,63,39.5C226.4,153.6,226.5,153.6,226.7,153.9z"/>
<path class="st1" d="M157.6,137.3c0.4,14,0.9,27.9,1,41.9c0,7.5-0.8,14.9-1.2,22.4c-0.1,2-0.8,3.8-3.2,3.6c-2.4-0.2-2.6-2.1-2.7-4.1
	c-0.3-8.6-1.3-17.2-1.2-25.9c0.4-18.1,0.8-36.2,1.2-54.2c0-2.1,1.1-3.5,3-3.6c1.9-0.1,2.7,1.3,2.9,3.2
	C157.9,126.1,157.5,131.7,157.6,137.3z"/>
<path class="st1" d="M148.6,160.3c0.4,13.8,0.6,27.6-0.6,41.3c-0.2,1.8-0.2,3.7-2.7,3.6c-2.4-0.1-2.7-1.7-2.8-3.6
	c-1.8-23.3-0.4-46.6,0-69.9c0-1.9,0-3.7,0-5.6c0-2,0.7-3.6,2.9-3.5c2.1,0.1,2.5,1.7,2.6,3.5c0.2,9.1,0.4,18.3,0.6,27.4
	C148.6,155.8,148.6,158.1,148.6,160.3z"/>
<path class="st1" d="M133.5,159.7c0-5.8,0-15.2,0-24.5c0-1.8,0.3-3.6,2.4-3.7c2.2-0.1,2.8,1.6,2.9,3.6c0.2,7.2,0.4,14.4,0.6,21.5
	c0.3,9.4,0.6,18.9,0.3,28.4c-0.2,5.7-0.6,11.5-1,17.2c-0.1,1.7-0.6,3.2-2.7,3c-1.8-0.2-2.5-1.4-2.5-3.2
	C133,189.1,131.6,176.2,133.5,159.7z"/>
<path class="st1" d="M123.5,175.7c0.3-14.1,0.7-28.1,1.1-42.2c0-1.6,0-3.4,2.5-3.4c2.5,0,2.3,1.9,2.3,3.5
	c0.4,14.2,0.8,28.4,1.3,42.6c0.3,8.7-0.9,17.4-1.3,26.1c-0.1,1.5-0.5,3-2.4,2.9c-1.8-0.1-2.3-1.4-2.4-3
	C124.3,193.4,123.2,184.6,123.5,175.7z"/>
<path class="st1" d="M121.3,167.1c1.1,9.4-0.1,22.1-1.1,34.9c-0.1,1.5-0.1,3.1-2.1,3.1c-2.1,0-2.3-1.8-2.4-3.3
	c-1.3-16.1-1.1-32.2-0.5-48.3c0.2-6.3,0.3-12.5,0.5-18.8c0-0.5-0.1-1.1,0-1.5c0.4-1.6-0.4-4.2,2.3-4.3c2.9-0.1,2.2,2.6,2.3,4.2
	C120.7,143.3,120.9,153.5,121.3,167.1z"/>
<path class="st1" d="M105.7,177.4c0.4-14.6,0.8-29.2,1.2-43.7c0-1.6,0.4-3,2.3-2.9c1.7,0.1,2,1.5,2,2.9c0.4,13,0.7,26.1,1.3,39.1
	c0.5,9.9-1,19.7-1.3,29.5c0,1.5-0.5,2.8-2.2,2.8c-1.7,0-2.2-1.2-2.2-2.8C106.8,194,105.4,185.8,105.7,177.4z"/>
<path class="st1" d="M103.8,180.2c-0.5,6.4-1.2,14.7-1.9,23.1c-0.1,1.1-0.7,1.8-1.7,1.8c-1.2,0.1-1.9-0.7-2-1.9
	c-0.6-11.9-1.9-23.7-1.1-35.6c0.6-9.3,0.7-18.6,1.1-28c0-0.8,0-1.6,0-2.5c0-1.3,0.5-2.6,1.9-2.6c1.5,0,1.8,1.4,1.8,2.7
	c0.2,6.3,0.6,12.5,0.8,18.7C103.1,163.4,103.4,170.8,103.8,180.2z"/>
<path class="st1" d="M94.8,180.5c-0.5,6.8-1,14.2-1.7,21.7c-0.1,1.1,0.2,3.1-1.8,2.9c-1.8-0.1-1.7-1.7-1.8-3.1
	c-0.4-6.6-0.8-13.1-1.2-19.7c-0.5-8.7,0.7-17.4,0.8-26.1c0-3.6,0.3-7.2,0.5-10.7c0-1.2,0.1-2.3,1.7-2.4c1.7-0.1,1.6,1.1,1.7,2.3
	c0.3,4.2,0.7,8.4,0.9,12.6C94.2,165.2,94.5,172.5,94.8,180.5z"/>
<path class="st1" d="M85.9,178.3c0.5,4.7-0.7,9.4-0.8,14.1c-0.1,3.5-0.7,6.9-1,10.4c-0.1,1.1-0.2,2.2-1.6,2.1
	c-1.3,0-1.4-1.3-1.4-2.1c-0.3-10.4-2.6-20.8-0.9-31.3c0.6-3.5,0.5-7.2,0.8-10.7c0.1-0.8,0.1-1.7,0.3-2.4c0.2-0.7,0.6-1.5,1.4-1.4
	c0.9,0.1,1.3,0.7,1.4,1.7c0.3,4,0.8,8,1.2,11.9C85.5,173.2,85.7,175.7,85.9,178.3z"/>
<path class="st1" d="M77.3,180.3c-0.7,7.4-1.3,14.9-2,22.4c-0.1,0.9-0.2,1.7-1.3,1.8c-1.2,0.1-1.4-0.9-1.5-1.9
	c-0.5-10.3-2.6-20.6-1.2-31c0.7-4.8,0.8-9.6,1.2-14.4c0.1-0.7,0.1-1.8,1.3-1.7c1,0.1,1.3,0.8,1.4,1.7
	C76,164.9,76.6,172.6,77.3,180.3z"/>
<path class="st1" d="M68.7,180.3c-0.7,7.2-1.3,14.4-2,21.5c-0.1,0.8-0.3,1.8-1.3,1.8c-1.4,0-1.1-1.2-1.2-2.1
	c-0.6-6.1-1.4-12.2-1.8-18.3c-0.4-7.2,0.9-14.3,1.5-21.5c0.1-1.1,0.3-2.2,0.3-3.4c0-0.9,0-2.1,1.1-2.2c1.2,0,1.2,1.3,1.2,2.1
	C67.3,165.7,68,173.1,68.7,180.3z"/>
<path class="st1" d="M60.1,180.2c-0.7,6.2-1.4,12.2-2.2,18.2c-0.1,0.7-0.1,1.9-1.3,1.7c-1.1-0.1-0.8-1.3-0.9-2
	c-1.3-10.3-2.6-20.5-0.5-30.8c0.4-1.7,0.3-3.5,0.6-5.2c0.1-0.6-0.1-1.6,0.9-1.7c1.2-0.1,1.2,1.1,1.2,1.8c0.5,3.8,0.9,7.5,1.3,11.3
	C59.5,175.7,59.8,178.1,60.1,180.2z"/>
<path class="st1" d="M51.5,180.6c-0.6,3.6-1.2,7.4-1.8,11.1c-0.1,0.6-0.2,1.4-0.9,1.4c-0.8,0.1-0.8-0.7-0.9-1.3
	c-1.6-7.5-1.6-15,0-22.5c0.1-0.6,0.1-1.6,1.1-1.5c0.7,0.1,0.8,0.9,0.9,1.4C50.4,173,50.9,176.7,51.5,180.6z"/>
</svg>
