<svg id="Capa_1" enable-background="new 0 0 511.997 511.997" height="50" viewBox="0 0 511.997 511.997" width="50" xmlns="http://www.w3.org/2000/svg"><g><g><g><path d="m267.249 21.131-12.183 31.253c-.961 2.466-2.863 4.449-5.286 5.512l-35.825 15.724c-2.423 1.063-5.169 1.121-7.634.159l-21.022-8.197c-6.997-2.729-8.564-11.894-2.912-16.841 15.171-13.277 32.597-24.493 52.034-33.024 6.793-2.982 13.659-5.558 20.573-7.743 7.968-2.517 15.291 5.37 12.255 13.157z" fill="#d67f4f"/><path d="m267.251 21.127-12.18 31.26c-.97 2.46-2.87 4.45-5.29 5.51l-35.83 15.72c-2.42 1.07-5.16 1.12-7.63.16l-14.04-5.48 23.7-10.4c2.42-1.06 4.33-3.05 5.29-5.51l12.18-31.26c.7-1.78.85-3.57.57-5.23.13-.06.27-.12.4-.18 6.79-2.98 13.66-5.56 20.57-7.74 7.97-2.52 15.29 5.37 12.26 13.15z" fill="#c76d3d"/><path d="m435.085 302.107c0 111.77-90.609 202.389-202.389 202.39-112.054.001-202.324-90.212-202.39-202.267-.049-82.475 49.226-153.439 119.948-185.018 3.758-1.678 8.169-.828 11.079 2.082l22.298 22.297c1.871 1.871 4.409 2.922 7.055 2.922h39.125c2.646 0 5.184 1.051 7.055 2.922l33.275 33.275c1.871 1.871 4.409 2.922 7.055 2.922l37.924-.043c3.517-.004 6.777 1.844 8.579 4.865l9.777 16.386c1.679 2.814 4.632 4.624 7.901 4.842l67.96 4.552c3.686.247 6.95 2.503 8.449 5.88 11.118 25.058 17.299 52.803 17.299 81.993z" fill="#d67f4f"/><path d="m435.081 302.107c0 111.77-90.6 202.39-202.38 202.39-5.7 0-11.34-.23-16.92-.7 103.88-8.57 185.51-95.6 185.51-201.69 0-29.19-6.19-56.94-17.31-81.99-1.49-3.38-4.76-5.64-8.44-5.88l-67.96-4.55c-3.27-.22-6.23-2.03-7.9-4.85l-9.78-16.38c-1.65-2.77-4.53-4.55-7.71-4.83l32.93-.04c3.51 0 6.77 1.85 8.58 4.87l9.77 16.38c1.68 2.82 4.64 4.63 7.9 4.85l67.96 4.55c3.69.24 6.95 2.5 8.45 5.88 11.12 25.05 17.3 52.8 17.3 81.99z" fill="#c76d3d"/><path d="m419.64 68.24-28.053 28.053c-1.871 1.871-4.409 2.922-7.055 2.922h-39.414c-2.646 0-5.184-1.051-7.055-2.922l-29.143-29.143c-3.896-3.896-3.896-10.212-.001-14.108l29.538-29.545c2.446-2.447 5.989-3.465 9.354-2.662 25.831 6.161 49.734 17.283 70.662 32.295 4.974 3.567 5.495 10.782 1.167 15.11z" fill="#d67f4f"/><path d="m419.641 68.237-28.05 28.06c-1.88 1.87-4.41 2.92-7.06 2.92h-33.8c2.65 0 5.19-1.05 7.06-2.92l28.05-28.06c4.33-4.33 3.81-11.54-1.17-15.11-15.15-10.87-31.87-19.7-49.75-26.09l3.54-3.54c2.44-2.45 5.99-3.47 9.35-2.66 25.83 6.16 49.73 17.28 70.66 32.29 4.98 3.57 5.5 10.78 1.17 15.11z" fill="#c76d3d"/><path d="m462.083 188.918-40.801-38.385c-2.386-2.245-3.518-5.518-3.028-8.758l2.539-16.793c.683-4.518 4.347-7.994 8.895-8.438l38.013-3.714c5.253-.513 10.007 3.153 10.832 8.366 3.241 20.471 3.349 41.401.246 62.01-1.194 7.927-10.858 11.204-16.696 5.712z" fill="#d67f4f"/><path d="m478.781 183.207c-1.2 7.93-10.86 11.2-16.7 5.71l-10.52-9.89c2.49-19.25 2.19-38.74-.83-57.83-.41-2.61-1.81-4.83-3.76-6.34l20.73-2.03c5.25-.51 10.01 3.16 10.83 8.37 3.24 20.47 3.35 41.4.25 62.01z" fill="#c76d3d"/><path d="m298.577 135.053-3.897 1.23c-5.255 1.659-10.859-1.257-12.517-6.511l-5.562-17.62c-1.659-5.255 1.257-10.859 6.511-12.517l3.897-1.23c5.255-1.659 10.859 1.257 12.517 6.511l5.562 17.621c1.658 5.254-1.257 10.858-6.511 12.516z" fill="#c76d3d"/><path d="m143.025 284.603-22.256-2.254c-4.083-.413-7.498-3.279-8.615-7.228l-7.944-28.087c-1.475-5.215 1.473-10.656 6.648-12.269l26.031-8.111c3.849-1.199 8.043.03 10.635 3.119l16.385 19.522c2.82 3.36 3.121 8.165.743 11.851l-12.215 18.93c-2.039 3.157-5.674 4.905-9.412 4.527z" fill="#9d552e"/><path d="m164.651 261.147-12.22 18.93c-2.03 3.16-5.67 4.9-9.41 4.53l-20.61-2.09c.86-.67 1.62-1.49 2.23-2.44l12.21-18.93c2.38-3.69 2.08-8.49-.74-11.85l-14.91-17.75 15.69-4.89c3.85-1.2 8.04.03 10.63 3.12l16.39 19.52c2.82 3.36 3.12 8.16.74 11.85z" fill="#8e4d29"/><path d="m201.548 372.916-2.254 22.257c-.413 4.083-3.279 7.498-7.228 8.615l-28.087 7.944c-5.215 1.475-10.656-1.473-12.269-6.648l-8.111-26.031c-1.199-3.849.03-8.043 3.119-10.635l19.522-16.385c3.36-2.82 8.165-3.121 11.851-.743l18.93 12.215c3.157 2.039 4.905 5.673 4.527 9.411z" fill="#9d552e"/><path d="m201.551 372.917-2.26 22.26c-.41 4.08-3.28 7.49-7.22 8.61l-28.09 7.94c-4.5 1.28-9.17-.74-11.39-4.64l11.68-3.3c3.95-1.12 6.81-4.53 7.22-8.61l2.26-22.26c.38-3.74-1.37-7.37-4.53-9.41l-9.41-6.07 6.43-5.4c3.36-2.82 8.16-3.12 11.85-.75l18.93 12.22c3.16 2.04 4.91 5.67 4.53 9.41z" fill="#8e4d29"/><path d="m335.613 292.499-2.629 25.957c-.482 4.761-3.824 8.745-8.429 10.047l-32.756 9.265c-6.082 1.72-12.428-1.718-14.309-7.753l-9.46-30.359c-1.399-4.489.035-9.38 3.637-12.403l22.768-19.109c3.918-3.289 9.523-3.64 13.821-.866l22.077 14.246c3.683 2.376 5.722 6.615 5.28 10.975z" fill="#9d552e"/><path d="m335.611 292.497-2.63 25.96c-.48 4.76-3.82 8.74-8.43 10.05l-32.75 9.26c-4.8 1.36-9.77-.5-12.57-4.31l17.53-4.95c4.6-1.31 7.94-5.29 8.43-10.05l2.62-25.96c.45-4.36-1.59-8.6-5.28-10.97l-13.58-8.77 5.49-4.61c3.91-3.29 9.52-3.64 13.82-.87l22.07 14.25c3.68 2.37 5.72 6.61 5.28 10.97z" fill="#8e4d29"/><path d="m367.599 422.606 14.144 17.331c2.594 3.179 2.983 7.621.981 11.202l-14.243 25.478c-2.645 4.731-8.577 6.494-13.376 3.975l-24.142-12.671c-3.57-1.874-5.666-5.708-5.315-9.725l2.219-25.39c.382-4.37 3.567-7.981 7.855-8.905l22.023-4.748c3.672-.792 7.479.542 9.854 3.453z" fill="#9d552e"/><path d="m382.721 451.137-14.24 25.48c-2.64 4.73-8.58 6.49-13.38 3.97l-12.86-6.75 12.69-22.7c2-3.58 1.61-8.02-.99-11.2l-13.85-16.98 17.65-3.8c3.68-.8 7.48.54 9.86 3.45l14.14 17.33c2.6 3.18 2.99 7.62.98 11.2z" fill="#8e4d29"/></g></g><g><path d="m182.574 72.569 21.023 8.198c2.059.802 4.207 1.202 6.353 1.202 2.386 0 4.769-.495 7.02-1.483l35.825-15.723c4.276-1.877 7.565-5.307 9.26-9.656l12.183-31.253c2.468-6.331 1.113-13.35-3.537-18.316-4.632-4.945-11.515-6.752-17.967-4.715-7.203 2.275-14.378 4.976-21.327 8.026-19.735 8.661-37.89 20.185-53.959 34.248-4.654 4.073-6.796 10.137-5.73 16.22 1.061 6.061 5.12 11.015 10.856 13.252zm4.752-18.184c14.917-13.055 31.775-23.754 50.108-31.801 6.458-2.834 13.126-5.344 19.818-7.458.283-.089.545-.128.787-.128.78 0 1.346.402 1.712.793.403.431 1.006 1.344.511 2.616l-12.184 31.253c-.24.616-.706 1.102-1.312 1.368l-35.826 15.724c-.605.265-1.279.279-1.895.04l-21.021-8.197c-1.125-.439-1.443-1.358-1.533-1.867-.091-.523-.104-1.521.835-2.343z"/><path d="m30.363 293.312c.202.016.403.023.603.023 3.872 0 7.156-2.979 7.468-6.905 5.651-71.037 49.669-133.253 114.877-162.369.904-.4 1.996-.187 2.719.537l22.297 22.297c3.301 3.301 7.689 5.118 12.358 5.118h39.125c.661 0 1.283.258 1.751.727l33.275 33.274c3.301 3.301 7.69 5.119 12.367 5.119l37.923-.044h.003c.867 0 1.683.463 2.127 1.208l9.777 16.387c2.941 4.928 8.115 8.1 13.839 8.482l20.614 1.381c4.141.288 7.708-2.851 7.985-6.982.277-4.133-2.849-7.707-6.982-7.984l-20.615-1.381c-.811-.054-1.544-.504-1.961-1.202l-9.777-16.386c-3.137-5.258-8.887-8.522-15.009-8.522-.006 0-.013 0-.019 0l-37.915.044c-.661 0-1.283-.258-1.751-.727l-33.275-33.274c-3.301-3.301-7.69-5.119-12.358-5.119h-39.125c-.662 0-1.284-.258-1.751-.726l-22.297-22.297c-5.088-5.087-12.9-6.546-19.44-3.627-70.224 31.355-117.628 98.364-123.715 174.876-.328 4.129 2.753 7.743 6.882 8.072z"/><path d="m424.639 217.071c-2.632-5.93-8.304-9.885-14.802-10.32l-14.415-.966c-4.143-.297-7.708 2.849-7.985 6.982s2.849 7.707 6.982 7.984l14.415.966c.926.062 1.729.613 2.095 1.438 11.052 24.904 16.656 51.468 16.656 78.951 0 46.235-16.297 90.612-46.014 125.756l-8.16-10s0 0-.001 0c-4.179-5.119-10.788-7.436-17.246-6.042l-22.023 4.748c-7.548 1.628-13.072 7.89-13.746 15.584l-2.218 25.389c-.553 6.327 2.339 12.349 7.466 15.896-28.419 15.442-60.305 23.559-92.946 23.559-49.407 0-96.468-18.379-132.512-51.752-35.849-33.191-57.768-78.304-61.719-127.026-.335-4.128-3.943-7.208-8.082-6.869-4.128.335-7.204 3.953-6.869 8.082 4.256 52.479 27.865 101.069 66.479 136.821 38.826 35.948 89.505 55.746 142.703 55.745 38.415 0 75.869-10.438 108.54-30.214l10.383 5.45c2.627 1.379 5.429 2.035 8.184 2.035 6.12 0 12.008-3.238 15.224-8.99l14.243-25.479c2.513-4.494 2.882-9.688 1.242-14.33 33.603-38.296 52.072-87.278 52.072-138.361 0-29.593-6.038-58.204-17.946-85.037zm-48.461 230.409-14.243 25.478c-.667 1.192-2.135 1.626-3.344.994l-24.142-12.671c-.895-.47-1.417-1.425-1.329-2.433l2.218-25.389c.096-1.1.886-1.994 1.964-2.227l22.023-4.748c.177-.038.355-.057.532-.057.741 0 1.45.329 1.932.92l14.144 17.332c.652.801.749 1.899.245 2.801z"/><path d="m332.76 101.597c3.301 3.301 7.69 5.119 12.358 5.119h39.414c4.668 0 9.058-1.818 12.358-5.119l28.053-28.054c3.643-3.643 5.492-8.679 5.072-13.815-.417-5.096-3.03-9.723-7.171-12.693-7.895-5.663-16.287-10.834-24.941-15.369-3.669-1.925-8.201-.508-10.125 3.161-1.923 3.669-.507 8.202 3.162 10.124 8.039 4.213 15.832 9.016 23.162 14.272.722.519.923 1.226.964 1.727.035.435-.012 1.271-.729 1.986l-28.055 28.054c-.461.461-1.099.726-1.75.726h-39.414c-.661 0-1.283-.258-1.751-.727l-29.144-29.144c-.631-.631-.725-1.367-.725-1.751 0-.383.094-1.119.726-1.75l29.536-29.544c.607-.609 1.492-.869 2.312-.669 5.137 1.225 10.391 2.719 15.616 4.44 3.934 1.297 8.174-.842 9.471-4.775 1.296-3.935-.841-8.174-4.775-9.471-5.624-1.854-11.287-3.464-16.831-4.785-5.851-1.396-12.133.388-16.399 4.653l-29.537 29.545c-3.301 3.301-5.119 7.689-5.118 12.358 0 4.667 1.818 9.056 5.119 12.356z"/><path d="m485.94 120.024c-1.443-9.116-9.765-15.543-18.969-14.658l-38.013 3.714c-7.976.779-14.383 6.858-15.581 14.782l-2.539 16.793c-.858 5.674 1.125 11.409 5.305 15.342l40.801 38.385c3.304 3.107 7.59 4.757 11.972 4.757 1.925 0 3.868-.318 5.754-.972 6.143-2.126 10.559-7.43 11.524-13.843 3.211-21.322 3.125-42.956-.254-64.3zm-14.578 62.067c-.177 1.175-.967 1.683-1.598 1.9-.538.186-1.584.365-2.541-.536l-40.801-38.384c-.592-.558-.874-1.371-.752-2.175l2.539-16.793c.17-1.123 1.078-1.984 2.208-2.095l38.012-3.714c.082-.009.164-.013.244-.013 1.208 0 2.26.877 2.452 2.087 3.139 19.827 3.218 39.921.237 59.723z"/><path d="m269.449 114.409 5.562 17.619c1.405 4.452 4.459 8.091 8.601 10.245 2.527 1.314 5.275 1.98 8.045 1.98 1.769 0 3.547-.271 5.282-.818l3.896-1.23c4.451-1.405 8.089-4.46 10.243-8.602 2.154-4.141 2.567-8.873 1.162-13.325l-5.562-17.621c-2.9-9.188-12.737-14.301-21.926-11.405l-3.898 1.229c-9.188 2.903-14.305 12.739-11.405 21.928zm15.92-7.623 3.897-1.229c.247-.078.498-.115.744-.115 1.052 0 2.03.676 2.363 1.731l5.562 17.621c.269.851.012 1.548-.165 1.888s-.601.95-1.452 1.219c0 0 0 0-.001 0l-3.895 1.23c-.852.269-1.549.013-1.889-.165-.34-.177-.95-.6-1.219-1.452l-5.562-17.619c-.41-1.303.316-2.698 1.617-3.109z"/><path d="m142.269 292.065c.601.061 1.199.091 1.793.091 5.911 0 11.418-2.967 14.675-8.013l12.216-18.93c4.187-6.489 3.664-14.823-1.3-20.739l-16.384-19.521c-4.549-5.42-11.853-7.563-18.611-5.458l-26.031 8.111c-9.125 2.843-14.235 12.273-11.633 21.47l7.944 28.087c1.967 6.956 7.885 11.921 15.076 12.648zm-22.898-18.985-7.944-28.087c-.372-1.313.358-2.661 1.662-3.067l26.031-8.111c.247-.076.498-.113.747-.113.726 0 1.429.316 1.913.894l16.384 19.521c.709.846.784 2.036.186 2.964l-12.215 18.929c-.512.792-1.411 1.226-2.352 1.132l-22.258-2.254c-1.028-.105-1.873-.815-2.154-1.808z"/><path d="m144.55 407.316c2.343 7.519 9.157 12.311 16.627 12.311 1.597 0 3.224-.22 4.843-.678l28.088-7.943c6.955-1.968 11.919-7.886 12.647-15.076l2.254-22.257s0 0 0-.001c.666-6.574-2.37-12.884-7.922-16.467l-18.929-12.215c-6.488-4.187-14.823-3.665-20.74 1.299l-19.522 16.385c-5.421 4.549-7.563 11.854-5.458 18.611zm6.989-33.153 19.522-16.385c.465-.39 1.034-.588 1.606-.588.469 0 .939.133 1.357.402l18.929 12.215c.793.512 1.227 1.413 1.132 2.353l-2.254 22.257c-.104 1.027-.813 1.873-1.807 2.154l-28.088 7.943c-1.312.371-2.66-.357-3.066-1.662l-8.111-26.031c-.3-.964.006-2.008.78-2.658z"/><path d="m340.447 319.211 2.628-25.955c.729-7.199-2.594-14.109-8.675-18.033l-22.076-14.246c-7.105-4.586-16.232-4.015-22.71 1.423l-22.768 19.108c-5.936 4.981-8.281 12.98-5.976 20.379l9.46 30.359c2.565 8.231 10.027 13.479 18.208 13.479 1.748 0 3.529-.24 5.302-.741l32.757-9.265c7.616-2.153 13.052-8.634 13.85-16.508zm-17.932 2.075-32.756 9.265c-2.188.616-4.431-.598-5.107-2.768l-9.46-30.359c-.5-1.606.009-3.344 1.298-4.426l22.769-19.109c.773-.648 1.721-.979 2.673-.979.78 0 1.564.222 2.26.67l22.076 14.246c1.321.853 2.043 2.354 1.884 3.916v.001l-2.628 25.956c-.174 1.711-1.356 3.119-3.009 3.587z"/><path d="m295.337 376.228c-4.142 0-7.5 3.357-7.5 7.5s3.358 7.5 7.5 7.5h10.66c4.142 0 7.5-3.357 7.5-7.5s-3.358-7.5-7.5-7.5z"/><path d="m226.004 414.175c-4.142 0-7.5 3.357-7.5 7.5v10.66c0 4.143 3.358 7.5 7.5 7.5s7.5-3.357 7.5-7.5v-10.66c0-4.143-3.357-7.5-7.5-7.5z"/><path d="m198.835 211.766c0-4.143-3.358-7.5-7.5-7.5h-10.66c-4.142 0-7.5 3.357-7.5 7.5s3.358 7.5 7.5 7.5h10.66c4.142 0 7.5-3.358 7.5-7.5z"/><path d="m144.681 182.735 7.538-7.538c2.929-2.929 2.929-7.678 0-10.606-2.93-2.928-7.677-2.929-10.607.001l-7.538 7.538c-2.929 2.929-2.928 7.678 0 10.606 1.465 1.464 3.384 2.196 5.303 2.196s3.839-.732 5.304-2.197z"/><path d="m374.568 294.313c-4.142 0-7.5 3.357-7.5 7.5s3.358 7.5 7.5 7.5h.103c4.142 0 7.5-3.357 7.5-7.5s-3.358-7.5-7.5-7.5z"/><path d="m177.045 290.113c-4.142 0-7.5 3.357-7.5 7.5s3.358 7.5 7.5 7.5h.103c4.142 0 7.5-3.357 7.5-7.5s-3.358-7.5-7.5-7.5z"/><path d="m340.04 388.403h.103c4.142 0 7.5-3.357 7.5-7.5s-3.358-7.5-7.5-7.5h-.103c-4.142 0-7.5 3.357-7.5 7.5s3.357 7.5 7.5 7.5z"/><path d="m103.881 345.829h-.103c-4.142 0-7.5 3.357-7.5 7.5s3.358 7.5 7.5 7.5h.103c4.142 0 7.5-3.357 7.5-7.5s-3.358-7.5-7.5-7.5z"/><path d="m249.902 240.005c-4.142 0-7.5 3.357-7.5 7.5s3.358 7.5 7.5 7.5h.103c4.142 0 7.5-3.357 7.5-7.5s-3.358-7.5-7.5-7.5z"/><path d="m83.235 336.542c-4.142 0-7.5 3.357-7.5 7.5s3.358 7.5 7.5 7.5h.102c4.142 0 7.5-3.357 7.5-7.5s-3.358-7.5-7.5-7.5z"/></g></g></svg>