<svg id="Shape_logo" data-name="Shape logo" xmlns="http://www.w3.org/2000/svg" width="242.875" height="52.406" viewBox="0 0 242.875 52.406">
  <defs>
    <style>
      .cls-1, .cls-3 {
        fill: #fff;
      }

      .cls-1, .cls-2, .cls-3 {
        fill-rule: evenodd;
      }

      .cls-2 {
        fill: #2163e8;
      }

      .cls-3 {
        opacity: 0.8;
      }
    </style>
  </defs>
  <path id="Shape" class="cls-1" d="M443.844,160.858a8.154,8.154,0,0,1-1.641-5.5,7.211,7.211,0,0,1,1.732-5.266,5.428,5.428,0,0,1,3.968-1.756,5.008,5.008,0,0,1,3.99,1.938,8.2,8.2,0,0,1,1.618,5.4,7.835,7.835,0,0,1-1.6,5.107,4.921,4.921,0,0,1-3.967,1.961A5.211,5.211,0,0,1,443.844,160.858Zm-7.159-25.969v32.24H442.2v-3.557a7.742,7.742,0,0,0,6.976,3.876,8.638,8.638,0,0,0,7.228-3.466,13.342,13.342,0,0,0,2.668-8.39q0-5.474-2.805-8.687a9.049,9.049,0,0,0-7.136-3.215,7.723,7.723,0,0,0-6.931,3.83V134.889h-5.518Zm32.786,32.24v-32.24H464v32.24h5.472Zm24.283-3.01A12.645,12.645,0,0,0,496.7,155.5a12.484,12.484,0,0,0-2.919-8.5q-2.919-3.353-8.254-3.352a10.266,10.266,0,0,0-8.071,3.443,12.667,12.667,0,0,0-3.055,8.733,12.1,12.1,0,0,0,2.941,8.39A11.786,11.786,0,0,0,493.754,164.119Zm-4.082-13.886a10.153,10.153,0,0,1,1.323,5.45,9.586,9.586,0,0,1-1.368,5.335,4.9,4.9,0,0,1-8.072-.046,9.481,9.481,0,0,1-1.413-5.335,9.7,9.7,0,0,1,1.39-5.381,4.479,4.479,0,0,1,3.99-2.143A4.538,4.538,0,0,1,489.672,150.233Zm17.784,9.987a7.584,7.584,0,0,1-1.414-4.948,8.211,8.211,0,0,1,1.368-4.993,4.4,4.4,0,0,1,3.74-1.847,4.623,4.623,0,0,1,3.693,1.733q1.46,1.734,1.46,5.427a6.793,6.793,0,0,1-1.5,4.582,4.729,4.729,0,0,1-3.74,1.756A4.469,4.469,0,0,1,507.456,160.22Zm8.847-12.882a6.944,6.944,0,0,0-6.43-3.6A8.432,8.432,0,0,0,502.964,147a12.787,12.787,0,0,0-2.622,8.276q0,5.427,2.759,8.277a8.9,8.9,0,0,0,6.635,2.85,7.149,7.149,0,0,0,6.567-3.42v2.006q0,6.019-6.293,6.019a12.555,12.555,0,0,1-7.433-2.188v5.563a18.24,18.24,0,0,0,7.98,1.642,11.817,11.817,0,0,0,8.048-2.759q3.169-2.76,3.17-8.231V144.009H516.3v3.329Zm10.488-3.329v4.377H537.1L526.38,163.07v4.059h17.6v-4.424H532.628l10.761-14.866v-3.83h-16.6Zm27.725,23.12v-23.12h-5.472v23.12h5.472Zm-5.062-27.68a3.3,3.3,0,0,0,4.651,0,3.22,3.22,0,0,0,.958-2.371,3.284,3.284,0,1,0-6.567,0A3.223,3.223,0,0,0,549.454,139.449Zm11.218,4.56v23.12h5.472v-12.4a7.008,7.008,0,0,1,1.459-4.765,4.6,4.6,0,0,1,3.6-1.665,3.877,3.877,0,0,1,2.964,1.163,4.854,4.854,0,0,1,1.094,3.443v14.228h5.472V151.761a8.236,8.236,0,0,0-2.006-5.928,7.217,7.217,0,0,0-5.472-2.1q-5.154,0-7.114,4.241v-3.967h-5.472Zm29.959,9.667a7.241,7.241,0,0,1,1.847-4.172,4.642,4.642,0,0,1,3.4-1.437,4,4,0,0,1,3.26,1.346,5.812,5.812,0,0,1,1.209,3.579v0.684h-9.713Zm7.3,9.257a8.04,8.04,0,0,1-4.72-1.322,6.217,6.217,0,0,1-2.485-3.831h14.5a21.842,21.842,0,0,0,.319-3.283q0-5.243-2.644-7.98a9.5,9.5,0,0,0-7.16-2.736,9.985,9.985,0,0,0-7.524,3.146q-3.009,3.147-3.01,8.665a11.137,11.137,0,0,0,11.9,11.765,13.293,13.293,0,0,0,6.977-1.5v-4.743a10.184,10.184,0,0,1-6.156,1.824h0Z" transform="translate(-362.656 -129.469)"/>
  <g id="logo_icon" data-name="logo icon">
    <path class="cls-2" d="M376.32,172.286l-0.4-.007q-3.522-.066-7.117-0.133a6.067,6.067,0,0,1-6.007-4.473,5.332,5.332,0,0,1-.139-1.333q0.029-15.232.078-31.259a5.3,5.3,0,0,1,3.807-5.314,5.748,5.748,0,0,1,2.624-.247c15.881,1.733,30.726,3.35,44.632,4.873a5.411,5.411,0,0,1,4.711,4.768,6.244,6.244,0,0,1,.026,1.275q-0.981,14.088-1.936,27.547a5.154,5.154,0,0,1-3.166,4.546,4.768,4.768,0,0,1-2.164.407q-11.553-.219-23.965-0.452a0.752,0.752,0,0,0-.606.241q-4.38,4.374-8.815,8.781a0.977,0.977,0,0,1-1.652-.142,1.4,1.4,0,0,1-.077-0.575q0.072-4.03.158-8.119C376.315,172.553,376.317,172.436,376.32,172.286Z" transform="translate(-362.656 -129.469)"/>
    <path id="_" data-name="‘’" class="cls-3" d="M378.894,154.017c-0.1,4.217,1.679,6.39,5.281,6.55s5.449-1.478,5.574-4.937c0.122-3.39-1.456-5.206-4.771-5.429a7.113,7.113,0,0,1,3.707-4.359l0.134-3.882c-6.429,1.357-9.776,5.412-9.925,12.057h0Zm24.869-4.565c0.216-4.086-1.355-6.289-4.756-6.582-3.514-.3-5.364,1.321-5.506,4.852-0.137,3.4,1.393,5.193,4.558,5.392a7.122,7.122,0,0,1-3.579,4.246l-0.154,3.66c5.992-1.451,9.1-5.275,9.437-11.568h0Z" transform="translate(-362.656 -129.469)"/>
  </g>
</svg>
