<svg id="Shape_logo" data-name="Shape logo" xmlns="http://www.w3.org/2000/svg" width="159.937" height="34.531" viewBox="0 0 159.937 34.531">
  <defs>
    <style>
      .cls-1 {
        fill: #fff;
      }

      .cls-1, .cls-2, .cls-3 {
        fill-rule: evenodd;
      }

      .cls-2 {
        fill: #2163e8;
      }

      .cls-3 {
        fill: #fff;
        opacity: 0.8;
      }
    </style>
  </defs>
  <path id="Shape" class="cls-1" d="M416.137,150.14a5.366,5.366,0,0,1-1.082-3.618,4.749,4.749,0,0,1,1.142-3.469,3.573,3.573,0,0,1,2.612-1.156,3.3,3.3,0,0,1,2.628,1.276,5.4,5.4,0,0,1,1.066,3.559,5.161,5.161,0,0,1-1.051,3.363,3.241,3.241,0,0,1-2.613,1.291A3.428,3.428,0,0,1,416.137,150.14Zm-4.715-17.1v21.231h3.633v-2.342a5.1,5.1,0,0,0,4.595,2.552,5.688,5.688,0,0,0,4.76-2.282,8.788,8.788,0,0,0,1.757-5.525,8.4,8.4,0,0,0-1.847-5.721,5.964,5.964,0,0,0-4.7-2.117,5.09,5.09,0,0,0-4.565,2.522v-8.318h-3.633Zm21.591,21.231V133.038h-3.6v21.231h3.6ZM449,152.287a8.324,8.324,0,0,0,1.937-5.675,8.224,8.224,0,0,0-1.922-5.6,7.576,7.576,0,0,0-10.751.06,8.346,8.346,0,0,0-2.012,5.751,7.968,7.968,0,0,0,1.937,5.525A7.759,7.759,0,0,0,449,152.287Zm-2.688-9.144a6.685,6.685,0,0,1,.871,3.589,6.308,6.308,0,0,1-.9,3.513,3.226,3.226,0,0,1-5.315-.03,6.245,6.245,0,0,1-.931-3.513,6.382,6.382,0,0,1,.916-3.544,2.946,2.946,0,0,1,2.627-1.411A2.988,2.988,0,0,1,446.316,143.143Zm11.711,6.577a5,5,0,0,1-.931-3.259,5.412,5.412,0,0,1,.9-3.288,2.9,2.9,0,0,1,2.463-1.216,3.046,3.046,0,0,1,2.432,1.141,5.484,5.484,0,0,1,.961,3.574,4.474,4.474,0,0,1-.991,3.018,3.113,3.113,0,0,1-2.462,1.156A2.947,2.947,0,0,1,458.027,149.72Zm5.826-8.484a4.572,4.572,0,0,0-4.234-2.372,5.554,5.554,0,0,0-4.55,2.147,8.422,8.422,0,0,0-1.726,5.45,7.527,7.527,0,0,0,1.817,5.451,5.863,5.863,0,0,0,4.369,1.877,4.707,4.707,0,0,0,4.324-2.252v1.321q0,3.964-4.144,3.964a8.268,8.268,0,0,1-4.895-1.442v3.664a12.014,12.014,0,0,0,5.255,1.081,7.785,7.785,0,0,0,5.3-1.817,6.8,6.8,0,0,0,2.087-5.42V139.044h-3.6v2.192Zm6.907-2.192v2.883h6.787l-7.057,9.67v2.672h11.591v-2.913H474.6l7.087-9.789v-2.523H470.76Zm18.258,15.225V139.044h-3.6v15.225h3.6Zm-3.333-18.228a2.174,2.174,0,0,0,3.063,0,2.122,2.122,0,0,0,.631-1.561,2.163,2.163,0,1,0-4.325,0A2.118,2.118,0,0,0,485.685,136.041Zm7.387,3v15.225h3.6V146.1a4.614,4.614,0,0,1,.961-3.138,3.029,3.029,0,0,1,2.372-1.1,2.551,2.551,0,0,1,1.952.766,3.2,3.2,0,0,1,.721,2.267v9.369h3.6v-10.12a5.422,5.422,0,0,0-1.321-3.9,5.351,5.351,0,0,0-8.288,1.412v-2.613h-3.6ZM512.8,145.41a4.77,4.77,0,0,1,1.217-2.747,3.055,3.055,0,0,1,2.237-.946,2.631,2.631,0,0,1,2.147.886,3.834,3.834,0,0,1,.8,2.357v0.45h-6.4Zm4.8,6.1a5.293,5.293,0,0,1-3.108-.871,4.1,4.1,0,0,1-1.637-2.523h9.55a14.338,14.338,0,0,0,.21-2.162,7.27,7.27,0,0,0-1.742-5.255,6.251,6.251,0,0,0-4.714-1.8,6.574,6.574,0,0,0-4.955,2.072,7.913,7.913,0,0,0-1.982,5.706,7.332,7.332,0,0,0,7.838,7.747,8.748,8.748,0,0,0,4.594-.991v-3.123a6.7,6.7,0,0,1-4.054,1.2h0Z" transform="translate(-362.688 -129.469)"/>
  <g id="logo_icon" data-name="logo icon">
    <path class="cls-2" d="M371.669,157.666l-0.262,0-4.687-.087a4,4,0,0,1-3.956-2.946,3.453,3.453,0,0,1-.091-0.878q0.018-10.031.051-20.585a3.487,3.487,0,0,1,2.507-3.5,3.8,3.8,0,0,1,1.728-.162c10.458,1.141,20.234,2.206,29.392,3.208a3.564,3.564,0,0,1,3.1,3.14,4.067,4.067,0,0,1,.017.84q-0.647,9.278-1.274,18.141a3.4,3.4,0,0,1-2.086,2.994,3.147,3.147,0,0,1-1.425.268q-7.608-.144-15.782-0.3a0.5,0.5,0,0,0-.4.159q-2.883,2.88-5.805,5.782a0.643,0.643,0,0,1-1.088-.093,0.92,0.92,0,0,1-.05-0.378q0.046-2.655.1-5.347C371.666,157.842,371.667,157.765,371.669,157.666Z" transform="translate(-362.688 -129.469)"/>
    <path id="_" data-name="‘’" class="cls-3" d="M373.364,145.635c-0.063,2.777,1.106,4.208,3.478,4.314s3.589-.974,3.671-3.252c0.08-2.232-.959-3.428-3.142-3.575a4.688,4.688,0,0,1,2.441-2.871L379.9,137.7c-4.233.894-6.437,3.564-6.536,7.94h0Zm16.378-3.006c0.142-2.691-.893-4.142-3.133-4.335-2.314-.2-3.532.87-3.626,3.195-0.09,2.241.918,3.42,3,3.551a4.687,4.687,0,0,1-2.357,2.8l-0.1,2.41c3.946-.956,6-3.474,6.215-7.618h0Z" transform="translate(-362.688 -129.469)"/>
  </g>
</svg>
