<svg id="Icon" xmlns="http://www.w3.org/2000/svg" width="36.813" height="34.531" viewBox="0 0 36.813 34.531">
  <defs>
    <style>
      .cls-1 {
        fill: #2163e8;
      }

      .cls-1, .cls-2 {
        fill-rule: evenodd;
      }

      .cls-2 {
        fill: #fff;
        opacity: 0.8;
      }
    </style>
  </defs>
  <path id="Shape" class="cls-1" d="M9.669,28.666l-0.263,0L4.72,28.574A4,4,0,0,1,.764,25.628,3.5,3.5,0,0,1,.673,24.75Q0.691,14.719.724,4.165A3.487,3.487,0,0,1,3.231.665,3.786,3.786,0,0,1,4.958.5C15.417,1.643,25.193,2.709,34.351,3.711a3.564,3.564,0,0,1,3.1,3.14,4.065,4.065,0,0,1,.017.84Q36.824,16.969,36.2,25.832a3.394,3.394,0,0,1-2.085,2.994,3.143,3.143,0,0,1-1.425.268q-7.607-.144-15.782-0.3a0.494,0.494,0,0,0-.4.159q-2.884,2.88-5.8,5.782a0.643,0.643,0,0,1-1.088-.093,0.91,0.91,0,0,1-.051-0.378q0.047-2.655.1-5.347C9.666,28.842,9.667,28.765,9.669,28.666Z" transform="translate(-0.688 -0.469)"/>
  <path id="Quote_icon" data-name="Quote icon" class="cls-2" d="M11.364,16.635c-0.063,2.777,1.106,4.208,3.478,4.314s3.589-.973,3.671-3.252c0.08-2.232-.959-3.428-3.142-3.575a4.686,4.686,0,0,1,2.442-2.87L17.9,8.695c-4.233.894-6.437,3.564-6.536,7.94h0Zm16.377-3.006c0.142-2.691-.893-4.142-3.132-4.335-2.314-.2-3.532.87-3.626,3.2-0.09,2.24.918,3.42,3,3.551a4.689,4.689,0,0,1-2.357,2.8l-0.1,2.41c3.946-.956,5.995-3.474,6.214-7.618h0Z" transform="translate(-0.688 -0.469)"/>
</svg>
