<svg xmlns="http://www.w3.org/2000/svg" width="436.25" height="77.469" viewBox="0 0 436.25 77.469">
  <defs>
    <style>
      .cls-1 {
        fill: #fff;
        fill-rule: evenodd;
      }
    </style>
  </defs>
  <path id="The_Blogzine" data-name="The Blogzine" class="cls-1" d="M25.551,6.236A3.761,3.761,0,0,1,28.822,7.53a16.689,16.689,0,0,1,1.807,5.493,31.468,31.468,0,0,0,.708,3.174,1.237,1.237,0,0,0,1.343.635h1.856A1.191,1.191,0,0,0,35.8,15.416V0.816A1.124,1.124,0,0,0,34.486-.4q-0.293,0-3.223.439-1.9.342-3.223,0.537H10.756A42.164,42.164,0,0,1,4.7-.062,26.539,26.539,0,0,0,1.234-.453,1.426,1.426,0,0,0-.328,1.207V15.416q0,1.417,1.66,1.416h1.9A0.89,0.89,0,0,0,4.262,16Q5.189,9.85,6.337,8.043a3.9,3.9,0,0,1,3.54-1.807h2.148V67.418a4.385,4.385,0,0,1-1.855,3.809A2.437,2.437,0,0,0,8.9,73.18v2.295A0.928,0.928,0,0,0,9.975,76.5H25.209a1.062,1.062,0,0,0,1.27-1.123v-2.2a2.353,2.353,0,0,0-1.27-1.953,4.306,4.306,0,0,1-1.855-3.809V6.236h2.2Zm52.075-.391a2.486,2.486,0,0,0,1.2-2V1.6A0.927,0.927,0,0,0,77.756.572H62.563A1.06,1.06,0,0,0,61.3,1.7V3.844a2.381,2.381,0,0,0,1.27,2,4.226,4.226,0,0,1,1.9,3.76v23H53.192v-23a4.335,4.335,0,0,1,1.855-3.76,2.466,2.466,0,0,0,1.27-2V1.6A0.929,0.929,0,0,0,55.243.572H40.009A1.062,1.062,0,0,0,38.739,1.7V3.844a2.381,2.381,0,0,0,1.27,2,4.261,4.261,0,0,1,1.855,3.76V67.418a4.385,4.385,0,0,1-1.855,3.809,2.437,2.437,0,0,0-1.27,1.953v2.295A0.928,0.928,0,0,0,39.813,76.5H55.048a1.062,1.062,0,0,0,1.27-1.123v-2.2a2.353,2.353,0,0,0-1.27-1.953,4.306,4.306,0,0,1-1.855-3.809V39.44H64.472V67.418a4.347,4.347,0,0,1-1.9,3.809,2.449,2.449,0,0,0-1.221,1.953v2.295A0.927,0.927,0,0,0,62.418,76.5H77.61a1.06,1.06,0,0,0,1.266-1.123v-2.2a2.357,2.357,0,0,0-1.25-1.953,4.292,4.292,0,0,1-1.875-3.809V9.605a4.322,4.322,0,0,1,1.874-3.76h0Zm39.341,53.076a1.079,1.079,0,0,0-1.22-1.221h-2.1q-1.27,0-1.758,1.758-2.1,7.764-3.515,9.5T103.3,70.69H96.7V39.781h1.953a4.686,4.686,0,0,1,2.832.757q1.025,0.758,1.9,4.224a8.261,8.261,0,0,0,.781,2.271,1.248,1.248,0,0,0,1.026.366h2.246a1.036,1.036,0,0,0,1.172-1.172V27.818a1.1,1.1,0,0,0-1.27-1.221H105.2a1.528,1.528,0,0,0-.879.146,6.184,6.184,0,0,0-.537,1.514q-1.172,4.248-1.953,5.054a3.986,3.986,0,0,1-2.881.806H96.7V6.48h6.152q4.2,0,5.591,2.71a20.515,20.515,0,0,1,1.929,6.519,1.276,1.276,0,0,0,1.318,1.367H113.5a2.1,2.1,0,0,0,1.245-.22,2.36,2.36,0,0,0,.219-1.343V1.158q0-.879-1.611-0.879-0.439,0-2.148.146-1.9.146-2.588,0.146h-25.1a0.944,0.944,0,0,0-1.172.928V3.844A2.361,2.361,0,0,0,83.568,5.8a4.35,4.35,0,0,1,1.807,3.809V67.418a4.214,4.214,0,0,1-1.416,3.516q-1.611,1.221-1.611,2.246v2.148A1.036,1.036,0,0,0,83.519,76.5h33.447V58.922Zm53.4-29.077a20.818,20.818,0,0,0,3-10.815,17.755,17.755,0,0,0-5.291-13.306q-5.29-5.151-13.97-5.151H138.556A1,1,0,0,0,137.337,1.6V3.844a2.276,2.276,0,0,0,1.25,1.953,4.22,4.22,0,0,1,1.875,3.809V67.418a4.369,4.369,0,0,1-1.875,3.809,2.536,2.536,0,0,0-1.25,1.953v2.393a0.8,0.8,0,0,0,.878.928h14.971a27.168,27.168,0,0,0,10.533-2.2,16.915,16.915,0,0,0,8.168-6.982,20.583,20.583,0,0,0,2.9-10.889q0-14.062-14.8-18.75Q167.366,34.9,170.369,29.845ZM157.259,7.628q2.051,1.051,3.467,4.443a22.7,22.7,0,0,1,1.416,8.667q0,14.161-10.4,14.16V6.578A12.2,12.2,0,0,1,157.259,7.628Zm3.3,36.816q2.661,3.882,2.661,11.694a23.882,23.882,0,0,1-1.27,8.618,8.407,8.407,0,0,1-3.686,4.517,14.788,14.788,0,0,1-6.519,1.465V40.514Q157.894,40.563,160.555,44.444Zm19.267,26.782a2.344,2.344,0,0,0-1.416,1.953v1.856a1.363,1.363,0,0,0,1.612,1.465h31.1V59.02a1.071,1.071,0,0,0-1.318-1.074h-2.295a0.9,0.9,0,0,0-.855.317,14.193,14.193,0,0,0-.561,2.417q-0.978,5.469-3,7.739A7.229,7.229,0,0,1,197.4,70.69h-4.15V9.605a4.336,4.336,0,0,1,1.855-3.76,2.464,2.464,0,0,0,1.27-2V1.6A0.929,0.929,0,0,0,195.3.572H180.066A1.062,1.062,0,0,0,178.8,1.7V3.844a2.382,2.382,0,0,0,1.269,2,4.26,4.26,0,0,1,1.856,3.76V67.418a4.165,4.165,0,0,1-2.1,3.809h0Zm69.512-3.558q5.248-9.808,5.249-29.376,0-19.177-5.3-28.961T234.954-.453q-9.62,0-14.673,10.614t-5.054,28.717q0,18.1,5,28.352t15.21,10.247Q244.085,77.477,249.334,67.668ZM229.388,66.3q-1.808-5.9-1.807-19.713,0-11.076.61-21.371a103.367,103.367,0,0,1,1.416-13.833,9.769,9.769,0,0,1,2.246-4.9A4.6,4.6,0,0,1,235.1,5.113a4.244,4.244,0,0,1,3.516,1.781q1.366,1.781,2.539,7.953a86.9,86.9,0,0,1,1.172,15.736q0,10.588-.781,23.274t-2.613,15.516q-1.83,2.83-4.028,2.83Q231.194,72.2,229.388,66.3Zm51.86-20.366v2.051a1.429,1.429,0,0,0,1.074,1.318,5.776,5.776,0,0,1,2.881,2.124,8.37,8.37,0,0,1,.683,3.931V65.9q0,6.152-4.3,6.152a5.341,5.341,0,0,1-3.491-1.22,9.7,9.7,0,0,1-2.563-4.562,56.3,56.3,0,0,1-1.856-9.905,146.066,146.066,0,0,1-.781-16.711q0-9.661.806-19.395t2.71-12.418a5.723,5.723,0,0,1,4.834-2.684q6.1,0,8.545,11.377a19.088,19.088,0,0,0,.805,3.1,1.723,1.723,0,0,0,1.148.22h2.05a1.173,1.173,0,0,0,1.221-1.416V2.33a1.187,1.187,0,0,0-1.367-1.318h-1.9a2.645,2.645,0,0,0-1.075.3,3.376,3.376,0,0,1-1.123.4,4.075,4.075,0,0,1-1.611-.491,15.282,15.282,0,0,0-6.494-1.669q-5.958,0-11.206,6.393a37.678,37.678,0,0,0-7.4,15.786,88.088,88.088,0,0,0-2.148,19.69q0,36.062,22.119,36.061a27.594,27.594,0,0,0,13.526-3.589,2.362,2.362,0,0,0,1.22-1.88V70.25a1.627,1.627,0,0,0-.586-1.318,2.673,2.673,0,0,1-.732-2.051V53.209q0-2.1.244-5.274,0.147-1.318.147-1.709a1.511,1.511,0,0,0-.318-1.148,2.759,2.759,0,0,0-1.538-.269H282.468a1.038,1.038,0,0,0-1.22,1.123h0ZM304.69,16.2a0.885,0.885,0,0,0,1.025.977h2.246a1.741,1.741,0,0,0,1.1-.22,8,8,0,0,0,.561-2.417q0.731-4.882,2.144-6.543t4.971-1.66h6.09l-20.675,66.6v2.148a1.23,1.23,0,0,0,1.367,1.416h30.908V58.629a0.929,0.929,0,0,0-1.025-1.074h-2.344a1.266,1.266,0,0,0-1.1.439,8.686,8.686,0,0,0-.659,2.734q-1.512,10.01-9.019,10.01h-5.851L334.036,7.262a19.217,19.217,0,0,0,1.025-5.371q0-1.318-1.611-1.318H304.69V16.2Zm47.856-6.592a4.334,4.334,0,0,1,1.856-3.76,2.465,2.465,0,0,0,1.269-2V1.6A0.928,0.928,0,0,0,354.6.572H339.363a1.062,1.062,0,0,0-1.27,1.123V3.844a2.381,2.381,0,0,0,1.27,2,4.262,4.262,0,0,1,1.855,3.76V67.418a4.386,4.386,0,0,1-1.855,3.809,2.437,2.437,0,0,0-1.27,1.953v2.295a0.928,0.928,0,0,0,1.074,1.025H354.4a1.062,1.062,0,0,0,1.269-1.123v-2.2a2.353,2.353,0,0,0-1.269-1.953,4.305,4.305,0,0,1-1.856-3.809V9.605ZM372.91,2.139a2.862,2.862,0,0,0-.778-1.3,2.9,2.9,0,0,0-1.509-.269H360.31A1.06,1.06,0,0,0,359.045,1.7V3.844a2.382,2.382,0,0,0,1.269,2,4.26,4.26,0,0,1,1.856,3.76V67.418a4.384,4.384,0,0,1-1.856,3.809,2.438,2.438,0,0,0-1.269,1.953v2.295a0.925,0.925,0,0,0,1.067,1.025h10.9a1.057,1.057,0,0,0,1.26-1.123v-2.2a2.356,2.356,0,0,0-1.249-1.953,4.291,4.291,0,0,1-1.876-3.809V22.057l20.253,53.223a2.093,2.093,0,0,0,2.055,1.563h2.152a1.321,1.321,0,0,0,1.419-1.562V9.605a4.3,4.3,0,0,1,1.9-3.76,2.48,2.48,0,0,0,1.22-2V1.6A0.928,0.928,0,0,0,397.082.572H386.047a1.063,1.063,0,0,0-1.27,1.125V3.851a2.388,2.388,0,0,0,1.27,2.007A4.271,4.271,0,0,1,387.9,9.625V41.676Zm63.337,56.783a1.08,1.08,0,0,0-1.221-1.221h-2.1q-1.271,0-1.758,1.758-2.1,7.764-3.516,9.5t-5.078,1.733h-6.592V39.781h1.953a4.684,4.684,0,0,1,2.832.757q1.026,0.758,1.905,4.224a8.261,8.261,0,0,0,.781,2.271,1.244,1.244,0,0,0,1.025.366h2.246a1.036,1.036,0,0,0,1.172-1.172V27.818a1.1,1.1,0,0,0-1.269-1.221h-2.149a1.528,1.528,0,0,0-.879.146,6.232,6.232,0,0,0-.537,1.514q-1.172,4.248-1.953,5.054a3.984,3.984,0,0,1-2.881.806h-2.246V6.48h6.153q4.2,0,5.59,2.71a20.489,20.489,0,0,1,1.929,6.519,1.276,1.276,0,0,0,1.318,1.367h1.807a2.093,2.093,0,0,0,1.245-.22,2.347,2.347,0,0,0,.22-1.343V1.158q0-.879-1.611-0.879-0.44,0-2.149.146-1.9.146-2.588,0.146H402.8a0.943,0.943,0,0,0-1.172.928V3.844a2.36,2.36,0,0,0,1.22,1.953,4.35,4.35,0,0,1,1.807,3.809V67.418a4.214,4.214,0,0,1-1.416,3.516q-1.611,1.221-1.611,2.246v2.148A1.036,1.036,0,0,0,402.8,76.5h33.447V58.922Z"/>
</svg>
